M48
; DRILL file {KiCad 9.0.3} date 2026-03-22T00:20:12+0100
; FORMAT={-:-/ absolute / metric / decimal}
; #@! TF.CreationDate,2026-03-22T00:20:12+01:00
; #@! TF.GenerationSoftware,Kicad,Pcbnew,9.0.3
; #@! TF.FileFunction,Plated,1,4,PTH
FMAT,2
METRIC
; #@! TA.AperFunction,Plated,PTH,ViaDrill
T1C0.300
; #@! TA.AperFunction,Plated,PTH,ComponentDrill
T2C0.800
; #@! TA.AperFunction,Plated,PTH,ComponentDrill
T3C1.000
; #@! TA.AperFunction,Plated,PTH,ComponentDrill
T4C2.200
%
G90
G05
T1
X83.6Y-73.2
X83.6Y-75.7
X83.6Y-77.8
X83.6Y-80.0
X83.7Y-61.9
X83.7Y-70.4
X83.7Y-85.2
X83.8Y-82.7
X83.9Y-59.5
X84.51Y-98.12
X84.53Y-100.13
X84.53Y-101.9
X86.2Y-68.4
X86.5Y-62.7
X87.3Y-57.9
X88.5Y-85.85
X89.0Y-53.7
X89.1Y-56.2
X89.26Y-105.14
X89.35Y-94.06
X89.83Y-107.99
X90.0Y-88.8
X90.05Y-77.45
X90.1Y-76.2
X90.15Y-79.55
X90.22Y-94.16
X90.45Y-85.85
X90.55Y-78.45
X90.6Y-75.15
X90.75Y-80.5
X91.1Y-53.6
X91.8Y-71.0
X91.85Y-80.5
X91.95Y-74.95
X92.4Y-92.7
X92.43Y-67.01
X92.59Y-58.49
X92.8Y-80.5
X92.919Y-69.798
X93.05Y-74.8
X93.1Y-82.8
X93.1Y-83.8
X93.1Y-84.8
X93.11Y-61.53
X93.6Y-106.1
X93.6Y-107.1
X93.92Y-108.68
X93.95Y-80.5
X94.2Y-74.8
X94.62Y-64.83
X94.719Y-67.398
X94.88Y-87.12
X95.05Y-80.2
X95.35Y-74.8
X95.55Y-86.7
X95.869Y-70.798
X95.9Y-100.2
X96.24Y-58.46
X96.4Y-57.5
X96.68Y-60.77
X96.87Y-56.42
X96.95Y-75.75
X97.2Y-91.9
X97.319Y-66.998
X97.34Y-70.86
X97.625Y-102.83
X97.7Y-80.775
X98.07Y-95.11
X98.2Y-52.8
X98.33Y-107.53
X98.4Y-74.9
X98.45Y-72.0
X98.5Y-59.5
X98.75Y-102.535
X99.48Y-59.5
X99.6Y-86.0
X99.81Y-103.15
X100.24Y-93.72
X100.39Y-72.48
X100.85Y-66.7
X100.975Y-103.09
X101.435Y-72.288
X101.55Y-80.97
X101.584Y-83.824
X101.6Y-59.1
X101.8Y-106.3
X101.8Y-108.7
X102.1Y-78.7
X102.198Y-80.359
X102.8Y-52.7
X102.8Y-83.8
X102.89Y-78.49
X103.15Y-103.08
X103.2Y-92.3
X103.4Y-63.7
X104.23Y-101.79
X104.255Y-102.61
X104.36Y-100.17
X104.95Y-63.65
X105.67Y-93.7
X106.3Y-78.7
X106.42Y-75.46
X106.7Y-90.0
X107.1Y-52.7
X107.1Y-82.95
X107.29Y-75.33
X107.3Y-80.3
X107.4Y-65.6
X107.5Y-99.6
X108.07Y-108.39
X108.1Y-71.0
X108.165Y-86.78
X108.3Y-72.2
X108.57Y-92.92
X108.7Y-83.7
X108.88Y-76.17
X108.94Y-77.54
X109.44Y-92.92
X110.3Y-108.3
X110.84Y-96.56
X111.2Y-52.7
X111.45Y-92.85
X111.46Y-61.5
X111.46Y-65.72
X111.66Y-96.56
X111.7Y-55.1
X111.7Y-74.7
X112.25Y-65.76
X112.3Y-108.3
X112.9Y-64.9
X113.0Y-90.43
X113.1Y-61.1
X113.355Y-106.305
X113.59Y-103.0
X114.1Y-65.93
X114.2Y-68.3
X114.5Y-108.3
X114.63Y-66.47
X114.99Y-68.13
X115.27Y-102.42
X115.46Y-62.8
X116.5Y-62.3
X116.6Y-108.3
X116.99Y-98.15
X117.3Y-54.0
X117.4Y-65.8
X117.55Y-105.8
X118.4Y-62.4
X119.0Y-85.3
X119.0Y-87.5
X119.1Y-78.8
X120.0Y-62.7
X120.8Y-57.5
X121.2Y-87.5
X121.6Y-71.2
X121.8Y-97.1
X121.8Y-99.2
X121.8Y-101.2
X121.8Y-103.1
X122.0Y-108.8
X122.3Y-52.8
X122.49Y-77.45
X122.52Y-74.66
X123.2Y-84.7
X123.2Y-85.7
X123.8Y-72.2
X123.88Y-80.68
X124.0Y-63.3
X124.1Y-104.0
X124.2Y-101.2
X124.85Y-73.85
X124.99Y-52.8
X125.1Y-74.6
X125.1Y-99.2
X125.3Y-79.9
X125.5Y-97.0
X125.65Y-86.95
X125.75Y-98.51
X125.8Y-109.0
X125.82Y-75.62
X126.1Y-79.9
X126.55Y-86.95
X127.9Y-97.0
X128.9Y-108.8
X129.41Y-89.0
X129.41Y-89.95
X129.41Y-90.95
X129.41Y-91.95
X129.41Y-92.95
X130.41Y-88.95
X130.41Y-89.95
X130.41Y-90.95
X130.41Y-91.95
X130.41Y-92.95
X130.5Y-58.9
X130.5Y-61.8
X130.9Y-72.8
X130.9Y-108.4
X131.41Y-88.95
X131.41Y-89.95
X131.41Y-90.95
X131.41Y-91.95
X131.41Y-92.95
X131.9Y-108.4
X133.0Y-94.7
X133.5Y-53.6
X134.46Y-94.66
X135.0Y-52.8
X135.9Y-54.2
X136.0Y-94.7
X136.5Y-60.0
X137.4Y-90.2
X137.6Y-62.8
X138.59Y-82.16
X138.63Y-76.97
X138.65Y-79.62
X138.7Y-72.2
X138.8Y-103.6
X139.0Y-100.7
X139.6Y-52.9
X139.85Y-103.6
X140.34Y-87.4
X140.34Y-88.4
X140.4Y-100.7
X140.7Y-63.6
X141.34Y-87.4
X141.34Y-88.4
X141.8Y-67.2
X142.57Y-87.37
X142.57Y-88.37
X142.7Y-53.8
X142.72Y-107.55
X143.57Y-87.37
X143.57Y-88.37
X144.8Y-87.5
X144.82Y-88.51
X145.4Y-59.7
X145.6Y-89.27
X145.6Y-90.356
X145.6Y-91.442
X145.6Y-92.528
X145.6Y-93.614
X145.6Y-94.7
X145.7Y-53.5
X145.7Y-62.2
X145.8Y-88.2
X145.9Y-65.3
X146.15Y-78.46
X146.6Y-89.27
X146.6Y-90.356
X146.6Y-91.442
X146.6Y-92.528
X146.6Y-93.614
X146.6Y-94.7
X146.61Y-85.68
X146.68Y-69.91
X148.4Y-105.2
X148.6Y-102.6
X148.6Y-108.3
X149.3Y-99.9
X149.8Y-53.7
X150.4Y-57.5
X150.9Y-64.1
X151.2Y-60.6
X152.9Y-99.0
X153.1Y-102.1
X153.7Y-59.3
X153.9Y-62.6
X154.2Y-65.4
X154.6Y-78.1
X154.6Y-89.9
X154.7Y-72.2
X154.7Y-97.1
X154.9Y-84.4
T2
X124.67Y-106.13
X126.67Y-106.13
X143.2Y-80.975
X143.2Y-83.475
X143.65Y-72.8
X143.65Y-75.3
T3
X84.58Y-88.96
X84.58Y-91.5
X84.58Y-94.04
X84.58Y-96.58
X87.12Y-88.96
X87.12Y-91.5
X87.12Y-94.04
X87.12Y-96.58
X89.8Y-64.96
X89.8Y-67.5
X89.8Y-70.04
X135.19Y-102.532
X135.19Y-105.072
X135.19Y-107.612
X149.1Y-68.7
X149.1Y-74.7
X149.1Y-80.7
X149.1Y-86.7
X149.1Y-92.7
X151.64Y-68.7
X151.64Y-74.7
X151.64Y-80.7
X151.64Y-86.7
X151.64Y-92.7
X154.18Y-68.7
X154.18Y-74.7
X154.18Y-80.7
X154.18Y-86.7
X154.18Y-92.7
T4
X85.2Y-106.1
X85.23Y-55.83
X152.94Y-106.14
X153.1Y-55.82
M30
