%TF.GenerationSoftware,KiCad,Pcbnew,9.0.3*%
%TF.CreationDate,2026-03-22T00:20:11+01:00*%
%TF.ProjectId,gambos-pcb,67616d62-6f73-42d7-9063-622e6b696361,rev?*%
%TF.SameCoordinates,Original*%
%TF.FileFunction,Copper,L4,Bot*%
%TF.FilePolarity,Positive*%
%FSLAX46Y46*%
G04 Gerber Fmt 4.6, Leading zero omitted, Abs format (unit mm)*
G04 Created by KiCad (PCBNEW 9.0.3) date 2026-03-22 00:20:11*
%MOMM*%
%LPD*%
G01*
G04 APERTURE LIST*
G04 Aperture macros list*
%AMRoundRect*
0 Rectangle with rounded corners*
0 $1 Rounding radius*
0 $2 $3 $4 $5 $6 $7 $8 $9 X,Y pos of 4 corners*
0 Add a 4 corners polygon primitive as box body*
4,1,4,$2,$3,$4,$5,$6,$7,$8,$9,$2,$3,0*
0 Add four circle primitives for the rounded corners*
1,1,$1+$1,$2,$3*
1,1,$1+$1,$4,$5*
1,1,$1+$1,$6,$7*
1,1,$1+$1,$8,$9*
0 Add four rect primitives between the rounded corners*
20,1,$1+$1,$2,$3,$4,$5,0*
20,1,$1+$1,$4,$5,$6,$7,0*
20,1,$1+$1,$6,$7,$8,$9,0*
20,1,$1+$1,$8,$9,$2,$3,0*%
G04 Aperture macros list end*
%TA.AperFunction,ComponentPad*%
%ADD10R,1.700000X1.700000*%
%TD*%
%TA.AperFunction,ComponentPad*%
%ADD11C,1.700000*%
%TD*%
%TA.AperFunction,ComponentPad*%
%ADD12C,3.800000*%
%TD*%
%TA.AperFunction,ComponentPad*%
%ADD13C,1.308000*%
%TD*%
%TA.AperFunction,ComponentPad*%
%ADD14R,1.308000X1.308000*%
%TD*%
%TA.AperFunction,SMDPad,CuDef*%
%ADD15RoundRect,0.225000X-0.225000X-0.250000X0.225000X-0.250000X0.225000X0.250000X-0.225000X0.250000X0*%
%TD*%
%TA.AperFunction,SMDPad,CuDef*%
%ADD16R,0.250000X0.500000*%
%TD*%
%TA.AperFunction,SMDPad,CuDef*%
%ADD17R,0.450000X0.500000*%
%TD*%
%TA.AperFunction,SMDPad,CuDef*%
%ADD18RoundRect,0.200000X-0.200000X-0.275000X0.200000X-0.275000X0.200000X0.275000X-0.200000X0.275000X0*%
%TD*%
%TA.AperFunction,SMDPad,CuDef*%
%ADD19RoundRect,0.225000X-0.250000X0.225000X-0.250000X-0.225000X0.250000X-0.225000X0.250000X0.225000X0*%
%TD*%
%TA.AperFunction,SMDPad,CuDef*%
%ADD20RoundRect,0.225000X0.250000X-0.225000X0.250000X0.225000X-0.250000X0.225000X-0.250000X-0.225000X0*%
%TD*%
%TA.AperFunction,SMDPad,CuDef*%
%ADD21RoundRect,0.225000X0.225000X0.250000X-0.225000X0.250000X-0.225000X-0.250000X0.225000X-0.250000X0*%
%TD*%
%TA.AperFunction,SMDPad,CuDef*%
%ADD22RoundRect,0.200000X-0.275000X0.200000X-0.275000X-0.200000X0.275000X-0.200000X0.275000X0.200000X0*%
%TD*%
%TA.AperFunction,SMDPad,CuDef*%
%ADD23RoundRect,0.200000X0.200000X0.275000X-0.200000X0.275000X-0.200000X-0.275000X0.200000X-0.275000X0*%
%TD*%
%TA.AperFunction,ViaPad*%
%ADD24C,0.600000*%
%TD*%
%TA.AperFunction,Conductor*%
%ADD25C,0.400000*%
%TD*%
%TA.AperFunction,Conductor*%
%ADD26C,0.200000*%
%TD*%
%TA.AperFunction,Conductor*%
%ADD27C,0.500000*%
%TD*%
%TA.AperFunction,Conductor*%
%ADD28C,0.300000*%
%TD*%
G04 APERTURE END LIST*
D10*
%TO.P,U1,1,GND*%
%TO.N,GND*%
X87120000Y-96580000D03*
D11*
%TO.P,U1,2,VCC*%
%TO.N,+3V3*%
X84580000Y-96580000D03*
%TO.P,U1,3,CE*%
%TO.N,NRF24_CE_SLD*%
X87120000Y-94040000D03*
%TO.P,U1,4,~{CSN}*%
%TO.N,NRF24_CS_SLD*%
X84580000Y-94040000D03*
%TO.P,U1,5,SCK*%
%TO.N,/Schematic/SPI1.SCK_1*%
X87120000Y-91500000D03*
%TO.P,U1,6,MOSI*%
%TO.N,/Schematic/SPI1.MOSI_1*%
X84580000Y-91500000D03*
%TO.P,U1,7,MISO*%
%TO.N,/Schematic/SPI1.MISO_1*%
X87120000Y-88960000D03*
%TO.P,U1,8,IRQ*%
%TO.N,IRQ_SLD*%
X84580000Y-88960000D03*
%TD*%
D12*
%TO.P,H1,1,1*%
%TO.N,GND*%
X153100000Y-55820000D03*
%TD*%
D13*
%TO.P,C43,1*%
%TO.N,+5V*%
X143200000Y-80975000D03*
%TO.P,C43,2*%
%TO.N,GND*%
X143200000Y-83475000D03*
%TD*%
D12*
%TO.P,H4,1,1*%
%TO.N,GND*%
X152940000Y-106140000D03*
%TD*%
D10*
%TO.P,J5,1,Pin_1*%
%TO.N,+3V3*%
X89800000Y-64960000D03*
D11*
%TO.P,J5,2,Pin_2*%
%TO.N,/Schematic/Microcontroller/BOOT0_ESD*%
X89800000Y-67500000D03*
%TO.P,J5,3,Pin_3*%
%TO.N,GND*%
X89800000Y-70040000D03*
%TD*%
D10*
%TO.P,J10,1,Pin_1*%
%TO.N,GND*%
X154180000Y-68700000D03*
D11*
%TO.P,J10,2,Pin_2*%
%TO.N,+5V*%
X151640000Y-68700000D03*
%TO.P,J10,3,Pin_3*%
%TO.N,/Schematic/Servos and connectors/SERVO1_OUT*%
X149100000Y-68700000D03*
%TD*%
D14*
%TO.P,J1,1,V_BAT*%
%TO.N,/Schematic/Power and ESC/V_IN*%
X126670000Y-106130000D03*
D13*
%TO.P,J1,2,GND*%
%TO.N,GND*%
X124670000Y-106130000D03*
%TD*%
D10*
%TO.P,J9,1,Pin_1*%
%TO.N,GND*%
X154180000Y-80700000D03*
D11*
%TO.P,J9,2,Pin_2*%
%TO.N,+5V*%
X151640000Y-80700000D03*
%TO.P,J9,3,Pin_3*%
%TO.N,/Schematic/Servos and connectors/SERVO3_OUT*%
X149100000Y-80700000D03*
%TD*%
D10*
%TO.P,J12,1,Pin_1*%
%TO.N,GND*%
X154180000Y-92700000D03*
D11*
%TO.P,J12,2,Pin_2*%
%TO.N,+5V*%
X151640000Y-92700000D03*
%TO.P,J12,3,Pin_3*%
%TO.N,/Schematic/Servos and connectors/SERVO5_OUT*%
X149100000Y-92700000D03*
%TD*%
D13*
%TO.P,C25,1*%
%TO.N,+5V*%
X143650000Y-72800000D03*
%TO.P,C25,2*%
%TO.N,GND*%
X143650000Y-75300000D03*
%TD*%
D10*
%TO.P,J7,1,Pin_1*%
%TO.N,GND*%
X154180000Y-74700000D03*
D11*
%TO.P,J7,2,Pin_2*%
%TO.N,+5V*%
X151640000Y-74700000D03*
%TO.P,J7,3,Pin_3*%
%TO.N,/Schematic/Servos and connectors/SERVO2_OUT*%
X149100000Y-74700000D03*
%TD*%
D10*
%TO.P,ESC,1,Pin_1*%
%TO.N,GND*%
X135190000Y-107612500D03*
D11*
%TO.P,ESC,2,Pin_2*%
%TO.N,/Schematic/Power and ESC/V_IN*%
X135190000Y-105072500D03*
%TO.P,ESC,3,Pin_3*%
%TO.N,/Schematic/Servos and connectors/ESC_OUT*%
X135190000Y-102532500D03*
%TD*%
D12*
%TO.P,H3,1,1*%
%TO.N,GND*%
X85200000Y-106100000D03*
%TD*%
%TO.P,H2,1,1*%
%TO.N,GND*%
X85230000Y-55830000D03*
%TD*%
D10*
%TO.P,J11,1,Pin_1*%
%TO.N,GND*%
X154180000Y-86700000D03*
D11*
%TO.P,J11,2,Pin_2*%
%TO.N,+5V*%
X151640000Y-86700000D03*
%TO.P,J11,3,Pin_3*%
%TO.N,/Schematic/Servos and connectors/SERVO4_OUT*%
X149100000Y-86700000D03*
%TD*%
D15*
%TO.P,C33,1*%
%TO.N,+3V3*%
X100425000Y-69190000D03*
%TO.P,C33,2*%
%TO.N,GND*%
X101975000Y-69190000D03*
%TD*%
D16*
%TO.P,D10,1*%
%TO.N,SD_CS*%
X103155000Y-101110000D03*
%TO.P,D10,2*%
%TO.N,/Schematic/SPI2.MOSI_2*%
X102655000Y-101110000D03*
D17*
%TO.P,D10,3,GND*%
%TO.N,GND*%
X102155000Y-101110000D03*
D16*
%TO.P,D10,4*%
%TO.N,/Schematic/SPI2.SCK_2*%
X101655000Y-101110000D03*
%TO.P,D10,5*%
%TO.N,/Schematic/SPI2.MISO_2*%
X101155000Y-101110000D03*
%TO.P,D10,6*%
%TO.N,N/C*%
X101155000Y-100310000D03*
%TO.P,D10,7*%
X101655000Y-100310000D03*
D17*
%TO.P,D10,8,GND*%
%TO.N,GND*%
X102155000Y-100310000D03*
D16*
%TO.P,D10,9*%
%TO.N,N/C*%
X102655000Y-100310000D03*
%TO.P,D10,10*%
X103155000Y-100310000D03*
%TD*%
D18*
%TO.P,R3,1*%
%TO.N,+3V3*%
X103955000Y-96700000D03*
%TO.P,R3,2*%
%TO.N,SD_CS*%
X105605000Y-96700000D03*
%TD*%
D19*
%TO.P,C5,1*%
%TO.N,+3V3*%
X107850000Y-76915000D03*
%TO.P,C5,2*%
%TO.N,GND*%
X107850000Y-78465000D03*
%TD*%
D20*
%TO.P,C20,1*%
%TO.N,GND*%
X103158333Y-107745000D03*
%TO.P,C20,2*%
%TO.N,+3V3*%
X103158333Y-106195000D03*
%TD*%
D15*
%TO.P,C4,1*%
%TO.N,+3V3*%
X100275000Y-71200000D03*
%TO.P,C4,2*%
%TO.N,GND*%
X101825000Y-71200000D03*
%TD*%
D16*
%TO.P,D7,1*%
%TO.N,NRST*%
X116300000Y-63600000D03*
%TO.P,D7,2*%
%TO.N,SWO*%
X116800000Y-63600000D03*
D17*
%TO.P,D7,3,GND*%
%TO.N,GND*%
X117300000Y-63600000D03*
D16*
%TO.P,D7,4*%
%TO.N,SWCLK*%
X117800000Y-63600000D03*
%TO.P,D7,5*%
%TO.N,SWDIO*%
X118300000Y-63600000D03*
%TO.P,D7,6*%
%TO.N,N/C*%
X118300000Y-64400000D03*
%TO.P,D7,7*%
X117800000Y-64400000D03*
D17*
%TO.P,D7,8,GND*%
%TO.N,GND*%
X117300000Y-64400000D03*
D16*
%TO.P,D7,9*%
%TO.N,N/C*%
X116800000Y-64400000D03*
%TO.P,D7,10*%
X116300000Y-64400000D03*
%TD*%
D21*
%TO.P,C1,1*%
%TO.N,+3V3*%
X109235000Y-82010000D03*
%TO.P,C1,2*%
%TO.N,GND*%
X107685000Y-82010000D03*
%TD*%
D20*
%TO.P,C31,1*%
%TO.N,GND*%
X100400000Y-107745000D03*
%TO.P,C31,2*%
%TO.N,+3V3*%
X100400000Y-106195000D03*
%TD*%
%TO.P,C6,1*%
%TO.N,+3V3*%
X97000000Y-74125000D03*
%TO.P,C6,2*%
%TO.N,GND*%
X97000000Y-72575000D03*
%TD*%
D22*
%TO.P,R32,1*%
%TO.N,UART4_RX*%
X111040000Y-69855000D03*
%TO.P,R32,2*%
%TO.N,Net-(U7-PC11)*%
X111040000Y-71505000D03*
%TD*%
D20*
%TO.P,C15,1*%
%TO.N,GND*%
X105001667Y-107745000D03*
%TO.P,C15,2*%
%TO.N,+3V3*%
X105001667Y-106195000D03*
%TD*%
D22*
%TO.P,R37,1*%
%TO.N,+3V3*%
X98705000Y-99460000D03*
%TO.P,R37,2*%
%TO.N,/Schematic/SPI2.MISO_2*%
X98705000Y-101110000D03*
%TD*%
%TO.P,R31,1*%
%TO.N,UART4_TX*%
X108190000Y-68370000D03*
%TO.P,R31,2*%
%TO.N,Net-(U7-PC10)*%
X108190000Y-70020000D03*
%TD*%
D20*
%TO.P,C12,1*%
%TO.N,GND*%
X106845000Y-107745000D03*
%TO.P,C12,2*%
%TO.N,+3V3*%
X106845000Y-106195000D03*
%TD*%
D21*
%TO.P,C2,1*%
%TO.N,+3V3*%
X102935000Y-82670000D03*
%TO.P,C2,2*%
%TO.N,GND*%
X101385000Y-82670000D03*
%TD*%
D16*
%TO.P,D5,1*%
%TO.N,UART4_TX*%
X112600000Y-62900000D03*
%TO.P,D5,2*%
%TO.N,UART4_RX*%
X113100000Y-62900000D03*
D17*
%TO.P,D5,3,GND*%
%TO.N,GND*%
X113600000Y-62900000D03*
D16*
%TO.P,D5,4*%
%TO.N,unconnected-(D5-Pad4)*%
X114100000Y-62900000D03*
%TO.P,D5,5*%
%TO.N,unconnected-(D5-Pad5)*%
X114600000Y-62900000D03*
%TO.P,D5,6*%
%TO.N,N/C*%
X114600000Y-63700000D03*
%TO.P,D5,7*%
X114100000Y-63700000D03*
D17*
%TO.P,D5,8,GND*%
%TO.N,GND*%
X113600000Y-63700000D03*
D16*
%TO.P,D5,9*%
%TO.N,N/C*%
X113100000Y-63700000D03*
%TO.P,D5,10*%
X112600000Y-63700000D03*
%TD*%
D23*
%TO.P,R38,1*%
%TO.N,Net-(J2-DAT1)*%
X94840000Y-102390000D03*
%TO.P,R38,2*%
%TO.N,+3V3*%
X93190000Y-102390000D03*
%TD*%
D24*
%TO.N,+3V3*%
X84510000Y-98120000D03*
%TO.N,GND*%
X100240000Y-93720000D03*
X138800000Y-103600000D03*
X139850000Y-103600000D03*
X107100000Y-82950000D03*
X142720000Y-107550000D03*
X101600000Y-59100000D03*
X130900000Y-72800000D03*
X108070000Y-108390000D03*
X94880000Y-87120000D03*
X93100000Y-82800000D03*
X95050000Y-80200000D03*
X150900000Y-64100000D03*
X101550000Y-80970000D03*
X125800000Y-109000000D03*
X83700000Y-70400000D03*
X122000000Y-108800000D03*
X125500000Y-97000000D03*
X123800000Y-72200000D03*
X149800000Y-53700000D03*
X91800000Y-71000000D03*
X97200000Y-91900000D03*
X89000000Y-53700000D03*
X98450000Y-72000000D03*
X130500000Y-58900000D03*
X128900000Y-108800000D03*
X83800000Y-82700000D03*
X83700000Y-61900000D03*
X90750000Y-80500000D03*
X146610000Y-85680000D03*
X148600000Y-108300000D03*
X89260000Y-105140000D03*
X119100000Y-78800000D03*
X119000000Y-87500000D03*
X108165000Y-86780000D03*
X153700000Y-59300000D03*
X142700000Y-53800000D03*
X146680000Y-69910000D03*
X124990000Y-52800000D03*
X136500000Y-60000000D03*
X83600000Y-73200000D03*
X137400000Y-90200000D03*
X122300000Y-52800000D03*
X93100000Y-84800000D03*
X145400000Y-59700000D03*
X145900000Y-65300000D03*
X117400000Y-65800000D03*
X140400000Y-100700000D03*
X93600000Y-106100000D03*
X150400000Y-57500000D03*
X95350000Y-74800000D03*
X122490000Y-77450000D03*
X92400000Y-92700000D03*
X103400000Y-63700000D03*
X94200000Y-74800000D03*
X90050000Y-77450000D03*
X90550000Y-78450000D03*
X104360000Y-100170000D03*
X153100000Y-102100000D03*
X106300000Y-78700000D03*
X146150000Y-78460000D03*
X138650000Y-79620000D03*
X104230000Y-101790000D03*
X91950000Y-74950000D03*
X154700000Y-72200000D03*
X97340000Y-70859999D03*
X90000000Y-88800000D03*
X83700000Y-85200000D03*
X106420000Y-75460000D03*
X96240000Y-58460000D03*
X125750000Y-98510000D03*
X96680000Y-60770000D03*
X98070000Y-95110000D03*
X130900000Y-108400000D03*
X133000000Y-94700000D03*
X116990000Y-98150000D03*
X89830000Y-107990000D03*
X111700000Y-55100000D03*
X107300000Y-80300000D03*
X114200000Y-68300000D03*
X108940000Y-77540000D03*
X136000000Y-94700000D03*
X93600000Y-107100000D03*
X108570000Y-92920000D03*
X91100000Y-53600000D03*
X122520000Y-74660000D03*
X90600000Y-75150000D03*
X96950000Y-75750000D03*
X93950000Y-80500000D03*
X133500000Y-53600000D03*
X101435469Y-72287637D03*
X112900000Y-64900000D03*
X112300000Y-108300000D03*
X154900000Y-84400000D03*
X123200000Y-85700000D03*
X138700000Y-72200000D03*
X87300000Y-57900000D03*
X125820000Y-75620000D03*
X119000000Y-85300000D03*
X139000000Y-100700000D03*
X121800000Y-97100000D03*
X138630000Y-76970000D03*
X121800000Y-103100000D03*
X110300000Y-108300000D03*
X148400000Y-105200000D03*
X130500000Y-61800000D03*
X115270000Y-102420000D03*
X108300000Y-72200000D03*
X90100000Y-76200000D03*
X117300000Y-54000000D03*
X124000000Y-63300000D03*
X114630000Y-66470000D03*
X83900000Y-59500000D03*
X145700000Y-53500000D03*
X89100000Y-56200000D03*
X111700000Y-74700000D03*
X92430000Y-67009999D03*
X107100000Y-52700000D03*
X139600000Y-52900000D03*
X90150000Y-79550000D03*
X93110000Y-61530000D03*
X91850000Y-80500000D03*
X134460000Y-94660000D03*
X110840000Y-96560000D03*
X153900000Y-62600000D03*
X111450000Y-92850000D03*
X112250000Y-65760000D03*
X98200000Y-52800000D03*
X149300000Y-99900000D03*
X95868899Y-70797999D03*
X137600000Y-62800000D03*
X127900000Y-97000000D03*
X98330000Y-107530000D03*
X92590000Y-58490000D03*
X154600000Y-78100000D03*
X107500000Y-99600000D03*
X154600000Y-89900000D03*
X135000000Y-52800000D03*
X114500000Y-108300000D03*
X93100000Y-83800000D03*
X121600000Y-71200000D03*
X99810000Y-103150000D03*
X86500000Y-62700000D03*
X154200000Y-65400000D03*
X92800000Y-80500000D03*
X93050000Y-74800000D03*
X99600000Y-86000000D03*
X99480000Y-59500000D03*
X145700000Y-62200000D03*
X93920000Y-108680000D03*
X83600000Y-80000000D03*
X90220000Y-94160000D03*
X83600000Y-75700000D03*
X124100000Y-104000000D03*
X123880000Y-80680000D03*
X123200000Y-84700000D03*
X101800000Y-108700000D03*
X111200000Y-52700000D03*
X152900000Y-99000000D03*
X121800000Y-101200000D03*
X102800000Y-52700000D03*
X116600000Y-108300000D03*
X95900000Y-100200000D03*
X121200000Y-87500000D03*
X125100000Y-74600000D03*
X141800000Y-67200000D03*
X131900000Y-108400000D03*
X151200000Y-60600000D03*
X96870000Y-56420000D03*
X124200000Y-101200000D03*
X83600000Y-77800000D03*
X121800000Y-99200000D03*
X138590000Y-82160000D03*
X102890000Y-78490000D03*
X154700000Y-97100000D03*
X101584265Y-83824265D03*
X103200000Y-92300000D03*
X97700000Y-80775000D03*
X148600000Y-102600000D03*
%TO.N,+3V3*%
X129410000Y-90950000D03*
X108700000Y-83700000D03*
X92918899Y-69797999D03*
X107400000Y-65600000D03*
X120800000Y-57500000D03*
X108880000Y-76170000D03*
X84530000Y-100130000D03*
X129410000Y-91950000D03*
X113000000Y-90430000D03*
X130410000Y-89950000D03*
X131410000Y-88950000D03*
X94620000Y-64830000D03*
X131410000Y-90950000D03*
X135900000Y-54200000D03*
X131410000Y-91950000D03*
X86200000Y-68400000D03*
X84530000Y-101900000D03*
X129410000Y-92950000D03*
X131410000Y-89950000D03*
X104950000Y-63650000D03*
X94718899Y-67397999D03*
X88500000Y-85850000D03*
X140700000Y-63600000D03*
X130410000Y-91950000D03*
X97318899Y-66997999D03*
X90450000Y-85850000D03*
X100850000Y-66700000D03*
X130410000Y-92950000D03*
X117550000Y-105800000D03*
X129410000Y-89000000D03*
X101800000Y-106300000D03*
X129410000Y-89950000D03*
X130410000Y-88950000D03*
X131410000Y-92950000D03*
X113355000Y-106305000D03*
X130410000Y-90950000D03*
X113590000Y-103000000D03*
X98400000Y-74900000D03*
X102800000Y-83800000D03*
X100390000Y-72480000D03*
X106700000Y-90000000D03*
%TO.N,NRST*%
X115460000Y-62800000D03*
X114990000Y-68130000D03*
X102100000Y-78700000D03*
%TO.N,+5V*%
X145600000Y-89270000D03*
X146600000Y-91442000D03*
X126550000Y-86950000D03*
X141340000Y-87400000D03*
X125650000Y-86950000D03*
X140340000Y-88400000D03*
X144820000Y-88510000D03*
X143570000Y-87370000D03*
X145800000Y-88200000D03*
X141340000Y-88400000D03*
X125300000Y-79900000D03*
X145600000Y-90356000D03*
X146600000Y-94700000D03*
X145600000Y-91442000D03*
X143570000Y-88370000D03*
X145600000Y-94700000D03*
X145600000Y-92528000D03*
X146600000Y-90356000D03*
X146600000Y-93614000D03*
X146600000Y-89270000D03*
X145600000Y-93614000D03*
X144800000Y-87500000D03*
X146600000Y-92528000D03*
X142570000Y-88370000D03*
X140340000Y-87400000D03*
X126100000Y-79900000D03*
X142570000Y-87370000D03*
%TO.N,UART4_RX*%
X113100000Y-61100000D03*
X114100000Y-65930000D03*
%TO.N,UART4_TX*%
X111460000Y-65720000D03*
X111460000Y-61500000D03*
%TO.N,FLASH_CS*%
X111660000Y-96560000D03*
X109440000Y-92920000D03*
%TO.N,SWCLK*%
X118400000Y-62400000D03*
%TO.N,SWDIO*%
X120000000Y-62700000D03*
%TO.N,/Schematic/Microcontroller/USER_BTN*%
X102198497Y-80358925D03*
X124850000Y-73850000D03*
%TO.N,NRF24_CE_SLD*%
X89350000Y-94060000D03*
X95550000Y-86700000D03*
%TO.N,/Schematic/Servos and connectors/ESC_OUT*%
X125100000Y-99200000D03*
%TO.N,/Schematic/SPI2.SCK_2*%
X100975000Y-103090000D03*
%TO.N,/Schematic/SPI2.MOSI_2*%
X103150000Y-103080000D03*
%TO.N,/Schematic/SPI2.MISO_2*%
X98750000Y-102535000D03*
%TO.N,/Schematic/I2C.SDA*%
X96400000Y-57500000D03*
X98500000Y-59500000D03*
%TO.N,Net-(U7-PC10)*%
X108100000Y-71000000D03*
%TO.N,Net-(U7-PC11)*%
X107290000Y-75330000D03*
%TO.N,SWO*%
X116500000Y-62300000D03*
%TO.N,Net-(J2-DAT1)*%
X97625000Y-102830000D03*
%TO.N,SD_CS*%
X104255000Y-102610000D03*
X105670000Y-93700000D03*
%TD*%
D25*
%TO.N,GND*%
X101435469Y-72287637D02*
X101760000Y-71963106D01*
X101760000Y-71963106D02*
X101760000Y-71360000D01*
D26*
%TO.N,UART4_TX*%
X112600000Y-62100000D02*
X112600000Y-62900000D01*
X111480000Y-61520000D02*
X112020000Y-61520000D01*
X111460000Y-61500000D02*
X111480000Y-61520000D01*
X112020000Y-61520000D02*
X112600000Y-62100000D01*
D27*
%TO.N,GND*%
X98500000Y-107700000D02*
X99670000Y-107700000D01*
X98330000Y-107530000D02*
X98500000Y-107700000D01*
X99670000Y-107700000D02*
X99715000Y-107745000D01*
X99715000Y-107745000D02*
X103158333Y-107745000D01*
D26*
X102140000Y-99810000D02*
X102140000Y-100325000D01*
X107100000Y-82950000D02*
X107685000Y-82365000D01*
X113600000Y-64200000D02*
X112900000Y-64900000D01*
X97875000Y-72575000D02*
X98450000Y-72000000D01*
X97000000Y-72575000D02*
X97875000Y-72575000D01*
D28*
X117300000Y-64400000D02*
X117300000Y-63600000D01*
D27*
X106845000Y-107745000D02*
X105001667Y-107745000D01*
X106845000Y-107745000D02*
X107425000Y-107745000D01*
D28*
X101975000Y-71145000D02*
X101950000Y-71170000D01*
D26*
X107685000Y-82365000D02*
X107685000Y-82010000D01*
X107850000Y-78465000D02*
X108015000Y-78465000D01*
D25*
X101975000Y-69190000D02*
X101975000Y-71145000D01*
D26*
X104360000Y-100150000D02*
X103760000Y-99550000D01*
X113600000Y-62900000D02*
X113600000Y-63700000D01*
X101760000Y-71360000D02*
X101950000Y-71170000D01*
X113600000Y-63700000D02*
X113600000Y-64200000D01*
X108015000Y-78465000D02*
X108940000Y-77540000D01*
X102155000Y-100310000D02*
X102155000Y-101110000D01*
X101385000Y-83625000D02*
X101584265Y-83824265D01*
X101385000Y-82670000D02*
X101385000Y-83625000D01*
X103760000Y-99550000D02*
X102400000Y-99550000D01*
D28*
X117300000Y-64400000D02*
X117300000Y-65700000D01*
D26*
X102400000Y-99550000D02*
X102140000Y-99810000D01*
D27*
X103158333Y-107745000D02*
X105001667Y-107745000D01*
D26*
X104360000Y-100170000D02*
X104360000Y-100150000D01*
D27*
X107425000Y-107745000D02*
X108070000Y-108390000D01*
D28*
X117300000Y-65700000D02*
X117400000Y-65800000D01*
D26*
%TO.N,+3V3*%
X107850000Y-76915000D02*
X108135000Y-76915000D01*
D28*
%TO.N,NRST*%
X116260000Y-63600000D02*
X115460000Y-62800000D01*
X116300000Y-63600000D02*
X116260000Y-63600000D01*
D26*
X103000000Y-79600000D02*
X108500000Y-79600000D01*
X108500000Y-79600000D02*
X114990000Y-73110000D01*
X102100000Y-78700000D02*
X103000000Y-79600000D01*
X114990000Y-73110000D02*
X114990000Y-68130000D01*
%TO.N,UART4_RX*%
X111040000Y-68990000D02*
X114100000Y-65930000D01*
X113100000Y-62900000D02*
X113100000Y-61100000D01*
X111040000Y-69855000D02*
X111040000Y-68990000D01*
%TO.N,UART4_TX*%
X108190000Y-68370000D02*
X108810000Y-68370000D01*
X108810000Y-68370000D02*
X111460000Y-65720000D01*
%TO.N,FLASH_CS*%
X111660000Y-95150000D02*
X109440000Y-92930000D01*
X111660000Y-96560000D02*
X111660000Y-95150000D01*
%TO.N,SWCLK*%
X117800000Y-63600000D02*
X117800000Y-63000000D01*
X117800000Y-63000000D02*
X118400000Y-62400000D01*
%TO.N,SWDIO*%
X118300000Y-63600000D02*
X119100000Y-63600000D01*
X119100000Y-63600000D02*
X120000000Y-62700000D01*
%TO.N,/Schematic/Microcontroller/USER_BTN*%
X112300000Y-81100000D02*
X103600000Y-81100000D01*
X124850000Y-73850000D02*
X124800000Y-73900000D01*
X102857422Y-80357422D02*
X102200000Y-80357422D01*
X102200000Y-80357422D02*
X102198497Y-80358925D01*
X124800000Y-73900000D02*
X119500000Y-73900000D01*
X119500000Y-73900000D02*
X112300000Y-81100000D01*
X103600000Y-81100000D02*
X102857422Y-80357422D01*
%TO.N,NRF24_CE_SLD*%
X95550000Y-86700000D02*
X95550000Y-87860000D01*
X95550000Y-87860000D02*
X89350000Y-94060000D01*
D28*
%TO.N,/Schematic/Servos and connectors/ESC_OUT*%
X126100000Y-100200000D02*
X132857500Y-100200000D01*
X125100000Y-99200000D02*
X126100000Y-100200000D01*
X132857500Y-100200000D02*
X135190000Y-102532500D01*
D26*
%TO.N,/Schematic/SPI2.SCK_2*%
X100975000Y-103090000D02*
X101655000Y-102410000D01*
X101655000Y-102410000D02*
X101655000Y-101110000D01*
%TO.N,/Schematic/SPI2.MOSI_2*%
X103150000Y-102935000D02*
X102655000Y-102440000D01*
X102655000Y-102440000D02*
X102655000Y-101110000D01*
X103150000Y-103080000D02*
X103150000Y-102935000D01*
%TO.N,/Schematic/SPI2.MISO_2*%
X98750000Y-102535000D02*
X98755000Y-102540000D01*
X98755000Y-102540000D02*
X100015000Y-102540000D01*
X98705000Y-101110000D02*
X98705000Y-102490000D01*
X101155000Y-101400000D02*
X101155000Y-101110000D01*
X100015000Y-102540000D02*
X101155000Y-101400000D01*
X98705000Y-102490000D02*
X98750000Y-102535000D01*
%TO.N,/Schematic/I2C.SDA*%
X96500000Y-57500000D02*
X98500000Y-59500000D01*
X96400000Y-57500000D02*
X96500000Y-57500000D01*
%TO.N,Net-(U7-PC10)*%
X108100000Y-70110000D02*
X108190000Y-70020000D01*
X108100000Y-71000000D02*
X108100000Y-70110000D01*
%TO.N,Net-(U7-PC11)*%
X111040000Y-72560000D02*
X111040000Y-71505000D01*
X108280000Y-75320000D02*
X111040000Y-72560000D01*
X107290000Y-75330000D02*
X107300000Y-75320000D01*
X107300000Y-75320000D02*
X108280000Y-75320000D01*
%TO.N,SWO*%
X116800000Y-62600000D02*
X116500000Y-62300000D01*
X116800000Y-63600000D02*
X116800000Y-62600000D01*
D28*
%TO.N,/Schematic/Power and ESC/V_IN*%
X135190000Y-104790000D02*
X135190000Y-105612500D01*
D26*
%TO.N,Net-(J2-DAT1)*%
X97185000Y-102390000D02*
X94840000Y-102390000D01*
X97625000Y-102830000D02*
X97185000Y-102390000D01*
%TO.N,SD_CS*%
X104255000Y-102610000D02*
X104000000Y-102610000D01*
X105670000Y-101195000D02*
X104255000Y-102610000D01*
X105670000Y-93700000D02*
X105670000Y-101195000D01*
X104000000Y-102610000D02*
X103155000Y-101765000D01*
X103155000Y-101765000D02*
X103155000Y-101110000D01*
%TD*%
%TA.AperFunction,Conductor*%
%TO.N,+3V3*%
G36*
X135914199Y-53419580D02*
G01*
X135936905Y-53438017D01*
X136884547Y-54414207D01*
X141347473Y-59011580D01*
X141380044Y-59073393D01*
X141382500Y-59097950D01*
X141382500Y-65836904D01*
X141362815Y-65903943D01*
X141339853Y-65930487D01*
X140423009Y-66727517D01*
X137982500Y-68849096D01*
X137982500Y-68849097D01*
X137982500Y-87373500D01*
X137962815Y-87440539D01*
X137910011Y-87486294D01*
X137858500Y-87497500D01*
X133207499Y-87497500D01*
X131842500Y-88862499D01*
X131842500Y-95573500D01*
X131822815Y-95640539D01*
X131770011Y-95686294D01*
X131718500Y-95697500D01*
X120382500Y-95697500D01*
X120382500Y-106773500D01*
X120362815Y-106840539D01*
X120310011Y-106886294D01*
X120258500Y-106897500D01*
X94067943Y-106897500D01*
X94000904Y-106877815D01*
X93960556Y-106835500D01*
X93955689Y-106827070D01*
X93872930Y-106744311D01*
X93872929Y-106744310D01*
X93827345Y-106717993D01*
X93808975Y-106707386D01*
X93760760Y-106656821D01*
X93747536Y-106588214D01*
X93773504Y-106523349D01*
X93808974Y-106492613D01*
X93872930Y-106455689D01*
X93955689Y-106372930D01*
X94014208Y-106271571D01*
X94044500Y-106158520D01*
X94044500Y-106041480D01*
X94014208Y-105928429D01*
X93955689Y-105827070D01*
X93872930Y-105744311D01*
X93771571Y-105685792D01*
X93658520Y-105655500D01*
X93541480Y-105655500D01*
X93466112Y-105675694D01*
X93428428Y-105685792D01*
X93327071Y-105744310D01*
X93327068Y-105744312D01*
X93244312Y-105827068D01*
X93244310Y-105827071D01*
X93185792Y-105928428D01*
X93185792Y-105928429D01*
X93155500Y-106041480D01*
X93155500Y-106158520D01*
X93185792Y-106271571D01*
X93244311Y-106372930D01*
X93327070Y-106455689D01*
X93327071Y-106455690D01*
X93327073Y-106455691D01*
X93391024Y-106492613D01*
X93439239Y-106543180D01*
X93452463Y-106611787D01*
X93426495Y-106676651D01*
X93391024Y-106707387D01*
X93327073Y-106744308D01*
X93327068Y-106744312D01*
X93244312Y-106827068D01*
X93244311Y-106827070D01*
X93239444Y-106835499D01*
X93188880Y-106883714D01*
X93132057Y-106897500D01*
X89506500Y-106897500D01*
X89439461Y-106877815D01*
X89393706Y-106825011D01*
X89382500Y-106773500D01*
X89382500Y-105654130D01*
X89402185Y-105587091D01*
X89444498Y-105546744D01*
X89532930Y-105495689D01*
X89615689Y-105412930D01*
X89674208Y-105311571D01*
X89704500Y-105198520D01*
X89704500Y-105081480D01*
X89674208Y-104968429D01*
X89615689Y-104867070D01*
X89532930Y-104784311D01*
X89532929Y-104784310D01*
X89532926Y-104784308D01*
X89444500Y-104733256D01*
X89396285Y-104682690D01*
X89382500Y-104625869D01*
X89382500Y-103697500D01*
X83106500Y-103697500D01*
X83039461Y-103677815D01*
X82993706Y-103625011D01*
X82982500Y-103573500D01*
X82982500Y-102074643D01*
X94295500Y-102074643D01*
X94295500Y-102705364D01*
X94302105Y-102755534D01*
X94302107Y-102755542D01*
X94330790Y-102817053D01*
X94353449Y-102865645D01*
X94439355Y-102951551D01*
X94549461Y-103002894D01*
X94599637Y-103009500D01*
X95080362Y-103009499D01*
X95080364Y-103009499D01*
X95094698Y-103007611D01*
X95130539Y-103002894D01*
X95240645Y-102951551D01*
X95326551Y-102865645D01*
X95377894Y-102755539D01*
X95379635Y-102742316D01*
X95407900Y-102678419D01*
X95466224Y-102639947D01*
X95502574Y-102634500D01*
X97032363Y-102634500D01*
X97061803Y-102643144D01*
X97091790Y-102649668D01*
X97096805Y-102653422D01*
X97099402Y-102654185D01*
X97120044Y-102670819D01*
X97144181Y-102694956D01*
X97177666Y-102756279D01*
X97180500Y-102782637D01*
X97180500Y-102888520D01*
X97210792Y-103001571D01*
X97269311Y-103102930D01*
X97352070Y-103185689D01*
X97453429Y-103244208D01*
X97566480Y-103274500D01*
X97566482Y-103274500D01*
X97683517Y-103274500D01*
X97683520Y-103274500D01*
X97796571Y-103244208D01*
X97897930Y-103185689D01*
X97980689Y-103102930D01*
X98039208Y-103001571D01*
X98069500Y-102888520D01*
X98069500Y-102771480D01*
X98039208Y-102658429D01*
X97980689Y-102557070D01*
X97897930Y-102474311D01*
X97796571Y-102415792D01*
X97683520Y-102385500D01*
X97577637Y-102385500D01*
X97510598Y-102365815D01*
X97489956Y-102349181D01*
X97323499Y-102182724D01*
X97323498Y-102182723D01*
X97233634Y-102145500D01*
X95502574Y-102145500D01*
X95435535Y-102125815D01*
X95389780Y-102073011D01*
X95379635Y-102037685D01*
X95377894Y-102024464D01*
X95377894Y-102024461D01*
X95326551Y-101914355D01*
X95240645Y-101828449D01*
X95240644Y-101828448D01*
X95130538Y-101777105D01*
X95080372Y-101770501D01*
X95080369Y-101770500D01*
X95080363Y-101770500D01*
X95080356Y-101770500D01*
X94599635Y-101770500D01*
X94549465Y-101777105D01*
X94549457Y-101777107D01*
X94439354Y-101828449D01*
X94353448Y-101914355D01*
X94302105Y-102024460D01*
X94302105Y-102024462D01*
X94295501Y-102074627D01*
X94295500Y-102074643D01*
X82982500Y-102074643D01*
X82982500Y-100869643D01*
X98085500Y-100869643D01*
X98085500Y-101350364D01*
X98092105Y-101400534D01*
X98092107Y-101400542D01*
X98143449Y-101510645D01*
X98229355Y-101596551D01*
X98339461Y-101647894D01*
X98352684Y-101649635D01*
X98416581Y-101677900D01*
X98455053Y-101736224D01*
X98460500Y-101772574D01*
X98460500Y-102144519D01*
X98440815Y-102211558D01*
X98424181Y-102232200D01*
X98394312Y-102262068D01*
X98394310Y-102262071D01*
X98335792Y-102363428D01*
X98332680Y-102375044D01*
X98305500Y-102476480D01*
X98305500Y-102593520D01*
X98335792Y-102706571D01*
X98394311Y-102807930D01*
X98477070Y-102890689D01*
X98578429Y-102949208D01*
X98691480Y-102979500D01*
X98691482Y-102979500D01*
X98808517Y-102979500D01*
X98808520Y-102979500D01*
X98921571Y-102949208D01*
X99022930Y-102890689D01*
X99092800Y-102820819D01*
X99119727Y-102806115D01*
X99145546Y-102789523D01*
X99151746Y-102788631D01*
X99154123Y-102787334D01*
X99180481Y-102784500D01*
X99292983Y-102784500D01*
X99360022Y-102804185D01*
X99405777Y-102856989D01*
X99415721Y-102926147D01*
X99400369Y-102970501D01*
X99395794Y-102978424D01*
X99395792Y-102978427D01*
X99395792Y-102978429D01*
X99365500Y-103091480D01*
X99365500Y-103208520D01*
X99395792Y-103321571D01*
X99454311Y-103422930D01*
X99537070Y-103505689D01*
X99638429Y-103564208D01*
X99751480Y-103594500D01*
X99751482Y-103594500D01*
X99868517Y-103594500D01*
X99868520Y-103594500D01*
X99981571Y-103564208D01*
X100082930Y-103505689D01*
X100165689Y-103422930D01*
X100224208Y-103321571D01*
X100254500Y-103208520D01*
X100254500Y-103091480D01*
X100224208Y-102978429D01*
X100165689Y-102877070D01*
X100165688Y-102877069D01*
X100161625Y-102870031D01*
X100164581Y-102868324D01*
X100145055Y-102817925D01*
X100159044Y-102749470D01*
X100180934Y-102719840D01*
X101198820Y-101701954D01*
X101260142Y-101668471D01*
X101329834Y-101673455D01*
X101385767Y-101715327D01*
X101410184Y-101780791D01*
X101410500Y-101789637D01*
X101410500Y-102257362D01*
X101390815Y-102324401D01*
X101374181Y-102345043D01*
X101110043Y-102609181D01*
X101048720Y-102642666D01*
X101022362Y-102645500D01*
X100916480Y-102645500D01*
X100841112Y-102665694D01*
X100803428Y-102675792D01*
X100702071Y-102734310D01*
X100702068Y-102734312D01*
X100619312Y-102817068D01*
X100619310Y-102817071D01*
X100560792Y-102918428D01*
X100553789Y-102944563D01*
X100530500Y-103031480D01*
X100530500Y-103148520D01*
X100560792Y-103261571D01*
X100619311Y-103362930D01*
X100702070Y-103445689D01*
X100803429Y-103504208D01*
X100916480Y-103534500D01*
X100916482Y-103534500D01*
X101033517Y-103534500D01*
X101033520Y-103534500D01*
X101146571Y-103504208D01*
X101247930Y-103445689D01*
X101330689Y-103362930D01*
X101389208Y-103261571D01*
X101419500Y-103148520D01*
X101419500Y-103042636D01*
X101439185Y-102975597D01*
X101455819Y-102954955D01*
X101635087Y-102775687D01*
X101862277Y-102548498D01*
X101899500Y-102458634D01*
X101899500Y-102361366D01*
X101899500Y-101628500D01*
X101919185Y-101561461D01*
X101971989Y-101515706D01*
X102023500Y-101504500D01*
X102286500Y-101504500D01*
X102353539Y-101524185D01*
X102399294Y-101576989D01*
X102410500Y-101628500D01*
X102410500Y-102391366D01*
X102410500Y-102488634D01*
X102447723Y-102578498D01*
X102447724Y-102578499D01*
X102694015Y-102824790D01*
X102727500Y-102886113D01*
X102726109Y-102944563D01*
X102705500Y-103021478D01*
X102705500Y-103021480D01*
X102705500Y-103138520D01*
X102735792Y-103251571D01*
X102794311Y-103352930D01*
X102877070Y-103435689D01*
X102978429Y-103494208D01*
X103091480Y-103524500D01*
X103091482Y-103524500D01*
X103208517Y-103524500D01*
X103208520Y-103524500D01*
X103321571Y-103494208D01*
X103422930Y-103435689D01*
X103505689Y-103352930D01*
X103564208Y-103251571D01*
X103594500Y-103138520D01*
X103594500Y-103021480D01*
X103564208Y-102908429D01*
X103539507Y-102865645D01*
X103512684Y-102819185D01*
X103512682Y-102819183D01*
X103505689Y-102807070D01*
X103422930Y-102724311D01*
X103390112Y-102705364D01*
X103321571Y-102665792D01*
X103321572Y-102665792D01*
X103223885Y-102639617D01*
X103168298Y-102607523D01*
X102935819Y-102375044D01*
X102921115Y-102348116D01*
X102904523Y-102322298D01*
X102903631Y-102316097D01*
X102902334Y-102313721D01*
X102899500Y-102287363D01*
X102899500Y-102154637D01*
X102919185Y-102087598D01*
X102971989Y-102041843D01*
X103041147Y-102031899D01*
X103104703Y-102060924D01*
X103111178Y-102066953D01*
X103699588Y-102655364D01*
X103849732Y-102805508D01*
X103869438Y-102831189D01*
X103899308Y-102882926D01*
X103899310Y-102882928D01*
X103899311Y-102882930D01*
X103982070Y-102965689D01*
X104083429Y-103024208D01*
X104196480Y-103054500D01*
X104196482Y-103054500D01*
X104313517Y-103054500D01*
X104313520Y-103054500D01*
X104426571Y-103024208D01*
X104527930Y-102965689D01*
X104610689Y-102882930D01*
X104669208Y-102781571D01*
X104699500Y-102668520D01*
X104699500Y-102562636D01*
X104719185Y-102495597D01*
X104735819Y-102474955D01*
X104849294Y-102361480D01*
X114825500Y-102361480D01*
X114825500Y-102478520D01*
X114855792Y-102591571D01*
X114914311Y-102692930D01*
X114997070Y-102775689D01*
X115098429Y-102834208D01*
X115211480Y-102864500D01*
X115211482Y-102864500D01*
X115328517Y-102864500D01*
X115328520Y-102864500D01*
X115441571Y-102834208D01*
X115542930Y-102775689D01*
X115625689Y-102692930D01*
X115684208Y-102591571D01*
X115714500Y-102478520D01*
X115714500Y-102361480D01*
X115684208Y-102248429D01*
X115625689Y-102147070D01*
X115542930Y-102064311D01*
X115441571Y-102005792D01*
X115328520Y-101975500D01*
X115211480Y-101975500D01*
X115136112Y-101995694D01*
X115098428Y-102005792D01*
X114997071Y-102064310D01*
X114997068Y-102064312D01*
X114914312Y-102147068D01*
X114914310Y-102147071D01*
X114855792Y-102248428D01*
X114851802Y-102263319D01*
X114825500Y-102361480D01*
X104849294Y-102361480D01*
X105249203Y-101961571D01*
X105877277Y-101333498D01*
X105914500Y-101243634D01*
X105914500Y-101146366D01*
X105914500Y-99541480D01*
X107055500Y-99541480D01*
X107055500Y-99658520D01*
X107085792Y-99771571D01*
X107144311Y-99872930D01*
X107227070Y-99955689D01*
X107328429Y-100014208D01*
X107441480Y-100044500D01*
X107441482Y-100044500D01*
X107558517Y-100044500D01*
X107558520Y-100044500D01*
X107671571Y-100014208D01*
X107772930Y-99955689D01*
X107855689Y-99872930D01*
X107914208Y-99771571D01*
X107944500Y-99658520D01*
X107944500Y-99541480D01*
X107914208Y-99428429D01*
X107855689Y-99327070D01*
X107772930Y-99244311D01*
X107671571Y-99185792D01*
X107558520Y-99155500D01*
X107441480Y-99155500D01*
X107366112Y-99175694D01*
X107328428Y-99185792D01*
X107227071Y-99244310D01*
X107227068Y-99244312D01*
X107144312Y-99327068D01*
X107144310Y-99327071D01*
X107085792Y-99428428D01*
X107085792Y-99428429D01*
X107055500Y-99541480D01*
X105914500Y-99541480D01*
X105914500Y-98091480D01*
X116545500Y-98091480D01*
X116545500Y-98208520D01*
X116575792Y-98321571D01*
X116634311Y-98422930D01*
X116717070Y-98505689D01*
X116818429Y-98564208D01*
X116931480Y-98594500D01*
X116931482Y-98594500D01*
X117048517Y-98594500D01*
X117048520Y-98594500D01*
X117161571Y-98564208D01*
X117262930Y-98505689D01*
X117345689Y-98422930D01*
X117404208Y-98321571D01*
X117434500Y-98208520D01*
X117434500Y-98091480D01*
X117404208Y-97978429D01*
X117345689Y-97877070D01*
X117262930Y-97794311D01*
X117161571Y-97735792D01*
X117048520Y-97705500D01*
X116931480Y-97705500D01*
X116856112Y-97725694D01*
X116818428Y-97735792D01*
X116717071Y-97794310D01*
X116717068Y-97794312D01*
X116634312Y-97877068D01*
X116634310Y-97877071D01*
X116575792Y-97978428D01*
X116575792Y-97978429D01*
X116545500Y-98091480D01*
X105914500Y-98091480D01*
X105914500Y-97383049D01*
X105934185Y-97316010D01*
X105986096Y-97270666D01*
X106005645Y-97261551D01*
X106091551Y-97175645D01*
X106142894Y-97065539D01*
X106149500Y-97015363D01*
X106149499Y-96384638D01*
X106142894Y-96334461D01*
X106091551Y-96224355D01*
X106005645Y-96138449D01*
X105986092Y-96129331D01*
X105933654Y-96083157D01*
X105914500Y-96016950D01*
X105914500Y-94135481D01*
X105934185Y-94068442D01*
X105950819Y-94047800D01*
X105968048Y-94030571D01*
X106025689Y-93972930D01*
X106084208Y-93871571D01*
X106114500Y-93758520D01*
X106114500Y-93641480D01*
X106084208Y-93528429D01*
X106025689Y-93427070D01*
X105942930Y-93344311D01*
X105841571Y-93285792D01*
X105728520Y-93255500D01*
X105611480Y-93255500D01*
X105536839Y-93275500D01*
X105498428Y-93285792D01*
X105397071Y-93344310D01*
X105397068Y-93344312D01*
X105314312Y-93427068D01*
X105314310Y-93427071D01*
X105255792Y-93528428D01*
X105255792Y-93528429D01*
X105225500Y-93641480D01*
X105225500Y-93758520D01*
X105237770Y-93804311D01*
X105255792Y-93871571D01*
X105314310Y-93972928D01*
X105314312Y-93972931D01*
X105389181Y-94047800D01*
X105422666Y-94109123D01*
X105425500Y-94135481D01*
X105425500Y-95963742D01*
X105405815Y-96030781D01*
X105353011Y-96076536D01*
X105317690Y-96086680D01*
X105314461Y-96087106D01*
X105314460Y-96087106D01*
X105314457Y-96087107D01*
X105204354Y-96138449D01*
X105118448Y-96224355D01*
X105067105Y-96334460D01*
X105067105Y-96334462D01*
X105060501Y-96384627D01*
X105060500Y-96384643D01*
X105060500Y-97015364D01*
X105067105Y-97065534D01*
X105067107Y-97065542D01*
X105116549Y-97171571D01*
X105118449Y-97175645D01*
X105204355Y-97261551D01*
X105314461Y-97312894D01*
X105317679Y-97313317D01*
X105321092Y-97314827D01*
X105323572Y-97315550D01*
X105323475Y-97315881D01*
X105381576Y-97341580D01*
X105420051Y-97399902D01*
X105425500Y-97436257D01*
X105425500Y-101042363D01*
X105405815Y-101109402D01*
X105389181Y-101130044D01*
X104850299Y-101668925D01*
X104788976Y-101702410D01*
X104719284Y-101697426D01*
X104663351Y-101655554D01*
X104648688Y-101625367D01*
X104647317Y-101625936D01*
X104644209Y-101618433D01*
X104644208Y-101618429D01*
X104585689Y-101517070D01*
X104502930Y-101434311D01*
X104401571Y-101375792D01*
X104288520Y-101345500D01*
X104171480Y-101345500D01*
X104117205Y-101360043D01*
X104058428Y-101375792D01*
X103957071Y-101434310D01*
X103957068Y-101434312D01*
X103874312Y-101517068D01*
X103874310Y-101517071D01*
X103815792Y-101618428D01*
X103813093Y-101628500D01*
X103785500Y-101731480D01*
X103785500Y-101731482D01*
X103785500Y-101750362D01*
X103779261Y-101771607D01*
X103777682Y-101793696D01*
X103769609Y-101804479D01*
X103765815Y-101817401D01*
X103749081Y-101831900D01*
X103735810Y-101849629D01*
X103723189Y-101854336D01*
X103713011Y-101863156D01*
X103691093Y-101866307D01*
X103670346Y-101874046D01*
X103657185Y-101871183D01*
X103643853Y-101873100D01*
X103623709Y-101863900D01*
X103602073Y-101859194D01*
X103584347Y-101845925D01*
X103580297Y-101844075D01*
X103573819Y-101838043D01*
X103435819Y-101700043D01*
X103402334Y-101638720D01*
X103399500Y-101612362D01*
X103399500Y-101478863D01*
X103414198Y-101428805D01*
X103411443Y-101427664D01*
X103416116Y-101416381D01*
X103424500Y-101374234D01*
X103424500Y-100845765D01*
X103416116Y-100803620D01*
X103416116Y-100803619D01*
X103399592Y-100778889D01*
X103378715Y-100712214D01*
X103397199Y-100644834D01*
X103399592Y-100641111D01*
X103416116Y-100616381D01*
X103424500Y-100574232D01*
X103424500Y-100045768D01*
X103424500Y-100045765D01*
X103416116Y-100003620D01*
X103416116Y-100003619D01*
X103405271Y-99987389D01*
X103402234Y-99977689D01*
X103395581Y-99970011D01*
X103391972Y-99944913D01*
X103384395Y-99920713D01*
X103387083Y-99910913D01*
X103385637Y-99900853D01*
X103396171Y-99877784D01*
X103402880Y-99853333D01*
X103410439Y-99846542D01*
X103414662Y-99837297D01*
X103435996Y-99823586D01*
X103454859Y-99806643D01*
X103466455Y-99804011D01*
X103473440Y-99799523D01*
X103508375Y-99794500D01*
X103607363Y-99794500D01*
X103674402Y-99814185D01*
X103695044Y-99830819D01*
X103879264Y-100015039D01*
X103912749Y-100076362D01*
X103913881Y-100103353D01*
X103915500Y-100103353D01*
X103915500Y-100111480D01*
X103915500Y-100228520D01*
X103945792Y-100341571D01*
X104004311Y-100442930D01*
X104087070Y-100525689D01*
X104188429Y-100584208D01*
X104301480Y-100614500D01*
X104301482Y-100614500D01*
X104418517Y-100614500D01*
X104418520Y-100614500D01*
X104531571Y-100584208D01*
X104632930Y-100525689D01*
X104715689Y-100442930D01*
X104774208Y-100341571D01*
X104804500Y-100228520D01*
X104804500Y-100111480D01*
X104774208Y-99998429D01*
X104715689Y-99897070D01*
X104632930Y-99814311D01*
X104531571Y-99755792D01*
X104418520Y-99725500D01*
X104332637Y-99725500D01*
X104265598Y-99705815D01*
X104244956Y-99689181D01*
X103898499Y-99342724D01*
X103898498Y-99342723D01*
X103808634Y-99305500D01*
X102448634Y-99305500D01*
X102351366Y-99305500D01*
X102351365Y-99305500D01*
X102261500Y-99342724D01*
X101932724Y-99671500D01*
X101895500Y-99761365D01*
X101895500Y-99791500D01*
X101875815Y-99858539D01*
X101823011Y-99904294D01*
X101771500Y-99915500D01*
X101515766Y-99915500D01*
X101473618Y-99923883D01*
X101462336Y-99928557D01*
X101461882Y-99927462D01*
X101407211Y-99944580D01*
X101347780Y-99928275D01*
X101347664Y-99928557D01*
X101345418Y-99927627D01*
X101339831Y-99926094D01*
X101336407Y-99923894D01*
X101336381Y-99923883D01*
X101294234Y-99915500D01*
X101294232Y-99915500D01*
X101015768Y-99915500D01*
X101015766Y-99915500D01*
X100973618Y-99923883D01*
X100925821Y-99955820D01*
X100925820Y-99955821D01*
X100893883Y-100003618D01*
X100885500Y-100045765D01*
X100885500Y-100045768D01*
X100885500Y-100574232D01*
X100885500Y-100574234D01*
X100885499Y-100574234D01*
X100893883Y-100616381D01*
X100910407Y-100641111D01*
X100931284Y-100707789D01*
X100912798Y-100775168D01*
X100910407Y-100778889D01*
X100893883Y-100803618D01*
X100885500Y-100845765D01*
X100885500Y-101272362D01*
X100865815Y-101339401D01*
X100849181Y-101360043D01*
X99950044Y-102259181D01*
X99888721Y-102292666D01*
X99862363Y-102295500D01*
X99190481Y-102295500D01*
X99163810Y-102287668D01*
X99136387Y-102283079D01*
X99128100Y-102277182D01*
X99123442Y-102275815D01*
X99107143Y-102263319D01*
X99104923Y-102261304D01*
X99022930Y-102179311D01*
X98999999Y-102166072D01*
X98990162Y-102157143D01*
X98978597Y-102138203D01*
X98963282Y-102122140D01*
X98959652Y-102107177D01*
X98953750Y-102097511D01*
X98954058Y-102084115D01*
X98949500Y-102065324D01*
X98949500Y-101772573D01*
X98969185Y-101705534D01*
X99021989Y-101659779D01*
X99057313Y-101649634D01*
X99070539Y-101647894D01*
X99180645Y-101596551D01*
X99266551Y-101510645D01*
X99317894Y-101400539D01*
X99324500Y-101350363D01*
X99324499Y-100869638D01*
X99317894Y-100819461D01*
X99266551Y-100709355D01*
X99180645Y-100623449D01*
X99180644Y-100623448D01*
X99070538Y-100572105D01*
X99020372Y-100565501D01*
X99020369Y-100565500D01*
X99020363Y-100565500D01*
X99020356Y-100565500D01*
X98389635Y-100565500D01*
X98339465Y-100572105D01*
X98339457Y-100572107D01*
X98229354Y-100623449D01*
X98143448Y-100709355D01*
X98092105Y-100819460D01*
X98092105Y-100819462D01*
X98085501Y-100869627D01*
X98085500Y-100869643D01*
X82982500Y-100869643D01*
X82982500Y-100141480D01*
X95455500Y-100141480D01*
X95455500Y-100258520D01*
X95485792Y-100371571D01*
X95544311Y-100472930D01*
X95627070Y-100555689D01*
X95728429Y-100614208D01*
X95841480Y-100644500D01*
X95841482Y-100644500D01*
X95958517Y-100644500D01*
X95958520Y-100644500D01*
X96071571Y-100614208D01*
X96172930Y-100555689D01*
X96255689Y-100472930D01*
X96314208Y-100371571D01*
X96344500Y-100258520D01*
X96344500Y-100141480D01*
X96314208Y-100028429D01*
X96255689Y-99927070D01*
X96172930Y-99844311D01*
X96071571Y-99785792D01*
X95958520Y-99755500D01*
X95841480Y-99755500D01*
X95766112Y-99775694D01*
X95728428Y-99785792D01*
X95627071Y-99844310D01*
X95627068Y-99844312D01*
X95544312Y-99927068D01*
X95544310Y-99927071D01*
X95485792Y-100028428D01*
X95485792Y-100028429D01*
X95455500Y-100141480D01*
X82982500Y-100141480D01*
X82982500Y-95491500D01*
X83002185Y-95424461D01*
X83054989Y-95378706D01*
X83106500Y-95367500D01*
X85876000Y-95367500D01*
X85943039Y-95387185D01*
X85988794Y-95439989D01*
X86000000Y-95491500D01*
X86000000Y-97700000D01*
X88200000Y-97700000D01*
X88200000Y-95491500D01*
X88219685Y-95424461D01*
X88272489Y-95378706D01*
X88324000Y-95367500D01*
X97647518Y-95367500D01*
X97714557Y-95387185D01*
X97735199Y-95403818D01*
X97797071Y-95465690D01*
X97841776Y-95491500D01*
X97898429Y-95524208D01*
X98011480Y-95554500D01*
X98011482Y-95554500D01*
X98128517Y-95554500D01*
X98128520Y-95554500D01*
X98241571Y-95524208D01*
X98342930Y-95465689D01*
X98404801Y-95403818D01*
X98466125Y-95370334D01*
X98492482Y-95367500D01*
X102765000Y-95367500D01*
X104382500Y-93750000D01*
X104382500Y-92861480D01*
X108125500Y-92861480D01*
X108125500Y-92978520D01*
X108155792Y-93091571D01*
X108214311Y-93192930D01*
X108297070Y-93275689D01*
X108398429Y-93334208D01*
X108511480Y-93364500D01*
X108511482Y-93364500D01*
X108628517Y-93364500D01*
X108628520Y-93364500D01*
X108741571Y-93334208D01*
X108842930Y-93275689D01*
X108917319Y-93201300D01*
X108978642Y-93167815D01*
X109048334Y-93172799D01*
X109092681Y-93201300D01*
X109167070Y-93275689D01*
X109268429Y-93334208D01*
X109381480Y-93364500D01*
X109381482Y-93364500D01*
X109477363Y-93364500D01*
X109544402Y-93384185D01*
X109565044Y-93400819D01*
X111379181Y-95214956D01*
X111412666Y-95276279D01*
X111415500Y-95302637D01*
X111415500Y-96124519D01*
X111406855Y-96153959D01*
X111400332Y-96183946D01*
X111396577Y-96188961D01*
X111395815Y-96191558D01*
X111379181Y-96212200D01*
X111337681Y-96253700D01*
X111276358Y-96287185D01*
X111206666Y-96282201D01*
X111162319Y-96253700D01*
X111112931Y-96204312D01*
X111112930Y-96204311D01*
X111011571Y-96145792D01*
X110898520Y-96115500D01*
X110781480Y-96115500D01*
X110706112Y-96135694D01*
X110668428Y-96145792D01*
X110567071Y-96204310D01*
X110567068Y-96204312D01*
X110484312Y-96287068D01*
X110484310Y-96287071D01*
X110425792Y-96388428D01*
X110425792Y-96388429D01*
X110395500Y-96501480D01*
X110395500Y-96618520D01*
X110425792Y-96731571D01*
X110484311Y-96832930D01*
X110567070Y-96915689D01*
X110668429Y-96974208D01*
X110781480Y-97004500D01*
X110781482Y-97004500D01*
X110898517Y-97004500D01*
X110898520Y-97004500D01*
X111011571Y-96974208D01*
X111112930Y-96915689D01*
X111162319Y-96866300D01*
X111223642Y-96832815D01*
X111293334Y-96837799D01*
X111337681Y-96866300D01*
X111387070Y-96915689D01*
X111488429Y-96974208D01*
X111601480Y-97004500D01*
X111601482Y-97004500D01*
X111718517Y-97004500D01*
X111718520Y-97004500D01*
X111831571Y-96974208D01*
X111932930Y-96915689D01*
X112015689Y-96832930D01*
X112074208Y-96731571D01*
X112104500Y-96618520D01*
X112104500Y-96501480D01*
X112074208Y-96388429D01*
X112015689Y-96287070D01*
X111940819Y-96212200D01*
X111907334Y-96150877D01*
X111904500Y-96124519D01*
X111904500Y-95101367D01*
X111904500Y-95101366D01*
X111867277Y-95011502D01*
X111798498Y-94942723D01*
X109920819Y-93065044D01*
X109908550Y-93042575D01*
X109892925Y-93022290D01*
X109890545Y-93009603D01*
X109887334Y-93003721D01*
X109884949Y-92987909D01*
X109884232Y-92979517D01*
X109884500Y-92978520D01*
X109884500Y-92861480D01*
X109865744Y-92791480D01*
X111005500Y-92791480D01*
X111005500Y-92908520D01*
X111035792Y-93021571D01*
X111094311Y-93122930D01*
X111177070Y-93205689D01*
X111278429Y-93264208D01*
X111391480Y-93294500D01*
X111391482Y-93294500D01*
X111508517Y-93294500D01*
X111508520Y-93294500D01*
X111621571Y-93264208D01*
X111722930Y-93205689D01*
X111805689Y-93122930D01*
X111864208Y-93021571D01*
X111894500Y-92908520D01*
X111894500Y-92791480D01*
X111864208Y-92678429D01*
X111805689Y-92577070D01*
X111722930Y-92494311D01*
X111621571Y-92435792D01*
X111508520Y-92405500D01*
X111391480Y-92405500D01*
X111316112Y-92425694D01*
X111278428Y-92435792D01*
X111177071Y-92494310D01*
X111177068Y-92494312D01*
X111094312Y-92577068D01*
X111094310Y-92577071D01*
X111035792Y-92678428D01*
X111035792Y-92678429D01*
X111005500Y-92791480D01*
X109865744Y-92791480D01*
X109854208Y-92748429D01*
X109795689Y-92647070D01*
X109712930Y-92564311D01*
X109611571Y-92505792D01*
X109498520Y-92475500D01*
X109381480Y-92475500D01*
X109311280Y-92494310D01*
X109268428Y-92505792D01*
X109167071Y-92564310D01*
X109167068Y-92564312D01*
X109092681Y-92638700D01*
X109031358Y-92672185D01*
X108961666Y-92667201D01*
X108917319Y-92638700D01*
X108842931Y-92564312D01*
X108842930Y-92564311D01*
X108741571Y-92505792D01*
X108628520Y-92475500D01*
X108511480Y-92475500D01*
X108441280Y-92494310D01*
X108398428Y-92505792D01*
X108297071Y-92564310D01*
X108297068Y-92564312D01*
X108214312Y-92647068D01*
X108214310Y-92647071D01*
X108155792Y-92748428D01*
X108155792Y-92748429D01*
X108125500Y-92861480D01*
X104382500Y-92861480D01*
X104382500Y-88897500D01*
X104382500Y-86721480D01*
X107720500Y-86721480D01*
X107720500Y-86838520D01*
X107750792Y-86951571D01*
X107809311Y-87052930D01*
X107892070Y-87135689D01*
X107993429Y-87194208D01*
X108106480Y-87224500D01*
X108106482Y-87224500D01*
X108223517Y-87224500D01*
X108223520Y-87224500D01*
X108336571Y-87194208D01*
X108437930Y-87135689D01*
X108520689Y-87052930D01*
X108579208Y-86951571D01*
X108609500Y-86838520D01*
X108609500Y-86721480D01*
X108579208Y-86608429D01*
X108520689Y-86507070D01*
X108437930Y-86424311D01*
X108336571Y-86365792D01*
X108223520Y-86335500D01*
X108106480Y-86335500D01*
X108061696Y-86347500D01*
X107993428Y-86365792D01*
X107892071Y-86424310D01*
X107892068Y-86424312D01*
X107809312Y-86507068D01*
X107809310Y-86507071D01*
X107750792Y-86608428D01*
X107748557Y-86616769D01*
X107720500Y-86721480D01*
X104382500Y-86721480D01*
X104382500Y-84547500D01*
X102306500Y-84547500D01*
X102239461Y-84527815D01*
X102193706Y-84475011D01*
X102182500Y-84423500D01*
X102182500Y-81541500D01*
X102202185Y-81474461D01*
X102254989Y-81428706D01*
X102306500Y-81417500D01*
X107017502Y-81417500D01*
X107084541Y-81437185D01*
X107130296Y-81489989D01*
X107140240Y-81559147D01*
X107128903Y-81595960D01*
X107100964Y-81653108D01*
X107097974Y-81673630D01*
X107090500Y-81724933D01*
X107090500Y-81724937D01*
X107090500Y-81724938D01*
X107090500Y-82295069D01*
X107102267Y-82375842D01*
X107092452Y-82445019D01*
X107046794Y-82497907D01*
X107011657Y-82513490D01*
X106928433Y-82535790D01*
X106928428Y-82535792D01*
X106827071Y-82594310D01*
X106827068Y-82594312D01*
X106744312Y-82677068D01*
X106744310Y-82677071D01*
X106685792Y-82778428D01*
X106685792Y-82778429D01*
X106655500Y-82891480D01*
X106655500Y-83008520D01*
X106685792Y-83121571D01*
X106744311Y-83222930D01*
X106827070Y-83305689D01*
X106928429Y-83364208D01*
X107041480Y-83394500D01*
X107041482Y-83394500D01*
X107158517Y-83394500D01*
X107158520Y-83394500D01*
X107271571Y-83364208D01*
X107372930Y-83305689D01*
X107455689Y-83222930D01*
X107514208Y-83121571D01*
X107544500Y-83008520D01*
X107544500Y-82902636D01*
X107553144Y-82873195D01*
X107559668Y-82843209D01*
X107563422Y-82838193D01*
X107564185Y-82835597D01*
X107580819Y-82814955D01*
X107729956Y-82665818D01*
X107791279Y-82632333D01*
X107817637Y-82629499D01*
X107945068Y-82629499D01*
X107973795Y-82625313D01*
X108016890Y-82619036D01*
X108046624Y-82604500D01*
X108127674Y-82564877D01*
X108127677Y-82564875D01*
X108214875Y-82477677D01*
X108214877Y-82477674D01*
X108269034Y-82366894D01*
X108269033Y-82366894D01*
X108269036Y-82366890D01*
X108279500Y-82295067D01*
X108279499Y-81724934D01*
X108269036Y-81653110D01*
X108241097Y-81595960D01*
X108229338Y-81527087D01*
X108256682Y-81462790D01*
X108314446Y-81423483D01*
X108352498Y-81417500D01*
X109471138Y-81417500D01*
X109538177Y-81437185D01*
X109558819Y-81453819D01*
X110946181Y-82841181D01*
X110979666Y-82902504D01*
X110982500Y-82928862D01*
X110982500Y-88897499D01*
X110982500Y-88897500D01*
X126328113Y-88817611D01*
X127789382Y-87348094D01*
X127783767Y-74042517D01*
X127783767Y-74042516D01*
X126562285Y-72821034D01*
X126482731Y-72741480D01*
X130455500Y-72741480D01*
X130455500Y-72858520D01*
X130485792Y-72971571D01*
X130544311Y-73072930D01*
X130627070Y-73155689D01*
X130728429Y-73214208D01*
X130841480Y-73244500D01*
X130841482Y-73244500D01*
X130958517Y-73244500D01*
X130958520Y-73244500D01*
X131071571Y-73214208D01*
X131172930Y-73155689D01*
X131255689Y-73072930D01*
X131314208Y-72971571D01*
X131344500Y-72858520D01*
X131344500Y-72741480D01*
X131314208Y-72628429D01*
X131255689Y-72527070D01*
X131172930Y-72444311D01*
X131071571Y-72385792D01*
X130958520Y-72355500D01*
X130841480Y-72355500D01*
X130766112Y-72375694D01*
X130728428Y-72385792D01*
X130627071Y-72444310D01*
X130627068Y-72444312D01*
X130544312Y-72527068D01*
X130544310Y-72527071D01*
X130485792Y-72628428D01*
X130485792Y-72628429D01*
X130455500Y-72741480D01*
X126482731Y-72741480D01*
X118838750Y-65097500D01*
X117718500Y-65097500D01*
X117709814Y-65094949D01*
X117700853Y-65096238D01*
X117676812Y-65085259D01*
X117651461Y-65077815D01*
X117645533Y-65070974D01*
X117637297Y-65067213D01*
X117623007Y-65044978D01*
X117605706Y-65025011D01*
X117603418Y-65014496D01*
X117599523Y-65008435D01*
X117594500Y-64973500D01*
X117594500Y-64918500D01*
X117614185Y-64851461D01*
X117666989Y-64805706D01*
X117718500Y-64794500D01*
X117939234Y-64794500D01*
X117981381Y-64786116D01*
X117992664Y-64781443D01*
X117993117Y-64782537D01*
X118047780Y-64765419D01*
X118107220Y-64781721D01*
X118107336Y-64781443D01*
X118109555Y-64782362D01*
X118115162Y-64783900D01*
X118118595Y-64786106D01*
X118118618Y-64786116D01*
X118160765Y-64794500D01*
X118160768Y-64794500D01*
X118439234Y-64794500D01*
X118481381Y-64786116D01*
X118482158Y-64785597D01*
X118529179Y-64754179D01*
X118561116Y-64706381D01*
X118569500Y-64664232D01*
X118569500Y-64135768D01*
X118569500Y-64135765D01*
X118561116Y-64093620D01*
X118561116Y-64093619D01*
X118544592Y-64068889D01*
X118538619Y-64049813D01*
X118528113Y-64032805D01*
X118528392Y-64017152D01*
X118523715Y-64002214D01*
X118529003Y-63982934D01*
X118529361Y-63962946D01*
X118541377Y-63937829D01*
X118542199Y-63934834D01*
X118544561Y-63931157D01*
X118561116Y-63906381D01*
X118561116Y-63906379D01*
X118565641Y-63899608D01*
X118619254Y-63854804D01*
X118668743Y-63844500D01*
X119148633Y-63844500D01*
X119148634Y-63844500D01*
X119238498Y-63807277D01*
X119804293Y-63241480D01*
X123555500Y-63241480D01*
X123555500Y-63358520D01*
X123585792Y-63471571D01*
X123644311Y-63572930D01*
X123727070Y-63655689D01*
X123828429Y-63714208D01*
X123941480Y-63744500D01*
X123941482Y-63744500D01*
X124058517Y-63744500D01*
X124058520Y-63744500D01*
X124171571Y-63714208D01*
X124272930Y-63655689D01*
X124355689Y-63572930D01*
X124414208Y-63471571D01*
X124444500Y-63358520D01*
X124444500Y-63241480D01*
X124414208Y-63128429D01*
X124355689Y-63027070D01*
X124272930Y-62944311D01*
X124171571Y-62885792D01*
X124058520Y-62855500D01*
X123941480Y-62855500D01*
X123866112Y-62875694D01*
X123828428Y-62885792D01*
X123727071Y-62944310D01*
X123727068Y-62944312D01*
X123644312Y-63027068D01*
X123644310Y-63027071D01*
X123585792Y-63128428D01*
X123578488Y-63155687D01*
X123555500Y-63241480D01*
X119804293Y-63241480D01*
X119864955Y-63180818D01*
X119926278Y-63147334D01*
X119952636Y-63144500D01*
X120058517Y-63144500D01*
X120058520Y-63144500D01*
X120171571Y-63114208D01*
X120272930Y-63055689D01*
X120355689Y-62972930D01*
X120414208Y-62871571D01*
X120444500Y-62758520D01*
X120444500Y-62741480D01*
X137155500Y-62741480D01*
X137155500Y-62858520D01*
X137185792Y-62971571D01*
X137244311Y-63072930D01*
X137327070Y-63155689D01*
X137428429Y-63214208D01*
X137541480Y-63244500D01*
X137541482Y-63244500D01*
X137658517Y-63244500D01*
X137658520Y-63244500D01*
X137771571Y-63214208D01*
X137872930Y-63155689D01*
X137955689Y-63072930D01*
X138014208Y-62971571D01*
X138044500Y-62858520D01*
X138044500Y-62741480D01*
X138014208Y-62628429D01*
X137955689Y-62527070D01*
X137872930Y-62444311D01*
X137771571Y-62385792D01*
X137658520Y-62355500D01*
X137541480Y-62355500D01*
X137466112Y-62375694D01*
X137428428Y-62385792D01*
X137327071Y-62444310D01*
X137327068Y-62444312D01*
X137244312Y-62527068D01*
X137244310Y-62527071D01*
X137185792Y-62628428D01*
X137182295Y-62641480D01*
X137155500Y-62741480D01*
X120444500Y-62741480D01*
X120444500Y-62641480D01*
X120414208Y-62528429D01*
X120355689Y-62427070D01*
X120272930Y-62344311D01*
X120171571Y-62285792D01*
X120058520Y-62255500D01*
X119941480Y-62255500D01*
X119866112Y-62275694D01*
X119828428Y-62285792D01*
X119727071Y-62344310D01*
X119727068Y-62344312D01*
X119644312Y-62427068D01*
X119644310Y-62427071D01*
X119585792Y-62528428D01*
X119585792Y-62528429D01*
X119555500Y-62641480D01*
X119555500Y-62641482D01*
X119555500Y-62747362D01*
X119535815Y-62814401D01*
X119519181Y-62835043D01*
X119035044Y-63319181D01*
X118973721Y-63352666D01*
X118947363Y-63355500D01*
X118668743Y-63355500D01*
X118601704Y-63335815D01*
X118565641Y-63300390D01*
X118529179Y-63245821D01*
X118529178Y-63245820D01*
X118481381Y-63213883D01*
X118439234Y-63205500D01*
X118439232Y-63205500D01*
X118239637Y-63205500D01*
X118218391Y-63199261D01*
X118196304Y-63197682D01*
X118185520Y-63189609D01*
X118172598Y-63185815D01*
X118158099Y-63169083D01*
X118140370Y-63155811D01*
X118135662Y-63143188D01*
X118126843Y-63133011D01*
X118123691Y-63111095D01*
X118115953Y-63090347D01*
X118118816Y-63077185D01*
X118116899Y-63063853D01*
X118126098Y-63043708D01*
X118130805Y-63022074D01*
X118144074Y-63004346D01*
X118145924Y-63000297D01*
X118151946Y-62993827D01*
X118264956Y-62880817D01*
X118326277Y-62847334D01*
X118352636Y-62844500D01*
X118458517Y-62844500D01*
X118458520Y-62844500D01*
X118571571Y-62814208D01*
X118672930Y-62755689D01*
X118755689Y-62672930D01*
X118814208Y-62571571D01*
X118844500Y-62458520D01*
X118844500Y-62341480D01*
X118814208Y-62228429D01*
X118755689Y-62127070D01*
X118672930Y-62044311D01*
X118571571Y-61985792D01*
X118458520Y-61955500D01*
X118341480Y-61955500D01*
X118270571Y-61974500D01*
X118228428Y-61985792D01*
X118127071Y-62044310D01*
X118127068Y-62044312D01*
X118044312Y-62127068D01*
X118044310Y-62127071D01*
X117985792Y-62228428D01*
X117985792Y-62228429D01*
X117955500Y-62341480D01*
X117955500Y-62341482D01*
X117955500Y-62447362D01*
X117935815Y-62514401D01*
X117919181Y-62535043D01*
X117661502Y-62792723D01*
X117592724Y-62861500D01*
X117592723Y-62861501D01*
X117592723Y-62861502D01*
X117588552Y-62871571D01*
X117555500Y-62951365D01*
X117555500Y-63081500D01*
X117535815Y-63148539D01*
X117483011Y-63194294D01*
X117431500Y-63205500D01*
X117168500Y-63205500D01*
X117101461Y-63185815D01*
X117055706Y-63133011D01*
X117044500Y-63081500D01*
X117044500Y-62551367D01*
X117044500Y-62551366D01*
X117007277Y-62461502D01*
X116980819Y-62435044D01*
X116947334Y-62373721D01*
X116944500Y-62347363D01*
X116944500Y-62241482D01*
X116944500Y-62241480D01*
X116914208Y-62128429D01*
X116855689Y-62027070D01*
X116772930Y-61944311D01*
X116671571Y-61885792D01*
X116558520Y-61855500D01*
X116441480Y-61855500D01*
X116366112Y-61875694D01*
X116328428Y-61885792D01*
X116227071Y-61944310D01*
X116227068Y-61944312D01*
X116144312Y-62027068D01*
X116144310Y-62027071D01*
X116085792Y-62128428D01*
X116085792Y-62128429D01*
X116055500Y-62241480D01*
X116055500Y-62358520D01*
X116085792Y-62471571D01*
X116144311Y-62572930D01*
X116227070Y-62655689D01*
X116328429Y-62714208D01*
X116441480Y-62744500D01*
X116441482Y-62744500D01*
X116447687Y-62745317D01*
X116448388Y-62745627D01*
X116449147Y-62745518D01*
X116480308Y-62759749D01*
X116511583Y-62773585D01*
X116512004Y-62774223D01*
X116512703Y-62774543D01*
X116531218Y-62803353D01*
X116550054Y-62831910D01*
X116550201Y-62832891D01*
X116550477Y-62833321D01*
X116555500Y-62868256D01*
X116555500Y-63081500D01*
X116535815Y-63148539D01*
X116483011Y-63194294D01*
X116431500Y-63205500D01*
X116333348Y-63205500D01*
X116266309Y-63185815D01*
X116245667Y-63169181D01*
X115940819Y-62864333D01*
X115907334Y-62803010D01*
X115904500Y-62776652D01*
X115904500Y-62741482D01*
X115904500Y-62741480D01*
X115874208Y-62628429D01*
X115815689Y-62527070D01*
X115732930Y-62444311D01*
X115631571Y-62385792D01*
X115518520Y-62355500D01*
X115401480Y-62355500D01*
X115326112Y-62375694D01*
X115288428Y-62385792D01*
X115187071Y-62444310D01*
X115187068Y-62444312D01*
X115104310Y-62527070D01*
X115070672Y-62585334D01*
X115020105Y-62633549D01*
X114951497Y-62646771D01*
X114886633Y-62620803D01*
X114860184Y-62592224D01*
X114829179Y-62545821D01*
X114829178Y-62545820D01*
X114781381Y-62513883D01*
X114739234Y-62505500D01*
X114739232Y-62505500D01*
X114460768Y-62505500D01*
X114460766Y-62505500D01*
X114418618Y-62513883D01*
X114407336Y-62518557D01*
X114406882Y-62517462D01*
X114352211Y-62534580D01*
X114292780Y-62518275D01*
X114292664Y-62518557D01*
X114290418Y-62517627D01*
X114284831Y-62516094D01*
X114281407Y-62513894D01*
X114281381Y-62513883D01*
X114239234Y-62505500D01*
X114239232Y-62505500D01*
X113960768Y-62505500D01*
X113960765Y-62505500D01*
X113924191Y-62512775D01*
X113875809Y-62512775D01*
X113839235Y-62505500D01*
X113839232Y-62505500D01*
X113468500Y-62505500D01*
X113401461Y-62485815D01*
X113355706Y-62433011D01*
X113344500Y-62381500D01*
X113344500Y-61741480D01*
X130055500Y-61741480D01*
X130055500Y-61858520D01*
X130085792Y-61971571D01*
X130144311Y-62072930D01*
X130227070Y-62155689D01*
X130328429Y-62214208D01*
X130441480Y-62244500D01*
X130441482Y-62244500D01*
X130558517Y-62244500D01*
X130558520Y-62244500D01*
X130671571Y-62214208D01*
X130772930Y-62155689D01*
X130855689Y-62072930D01*
X130914208Y-61971571D01*
X130944500Y-61858520D01*
X130944500Y-61741480D01*
X130914208Y-61628429D01*
X130855689Y-61527070D01*
X130772930Y-61444311D01*
X130671571Y-61385792D01*
X130558520Y-61355500D01*
X130441480Y-61355500D01*
X130376438Y-61372928D01*
X130328428Y-61385792D01*
X130227071Y-61444310D01*
X130227068Y-61444312D01*
X130144312Y-61527068D01*
X130144310Y-61527071D01*
X130085792Y-61628428D01*
X130085792Y-61628429D01*
X130055500Y-61741480D01*
X113344500Y-61741480D01*
X113344500Y-61535481D01*
X113364185Y-61468442D01*
X113380819Y-61447800D01*
X113387139Y-61441480D01*
X113455689Y-61372930D01*
X113514208Y-61271571D01*
X113544500Y-61158520D01*
X113544500Y-61041480D01*
X113514208Y-60928429D01*
X113455689Y-60827070D01*
X113372930Y-60744311D01*
X113271571Y-60685792D01*
X113158520Y-60655500D01*
X113041480Y-60655500D01*
X112966112Y-60675694D01*
X112928428Y-60685792D01*
X112827071Y-60744310D01*
X112827068Y-60744312D01*
X112744312Y-60827068D01*
X112744310Y-60827071D01*
X112685792Y-60928428D01*
X112675694Y-60966112D01*
X112655500Y-61041480D01*
X112655500Y-61158520D01*
X112681907Y-61257071D01*
X112685792Y-61271571D01*
X112744310Y-61372928D01*
X112744312Y-61372931D01*
X112819181Y-61447800D01*
X112833884Y-61474727D01*
X112850477Y-61500546D01*
X112851368Y-61506746D01*
X112852666Y-61509123D01*
X112855500Y-61535481D01*
X112855500Y-61710363D01*
X112835815Y-61777402D01*
X112783011Y-61823157D01*
X112713853Y-61833101D01*
X112650297Y-61804076D01*
X112643819Y-61798044D01*
X112158499Y-61312724D01*
X112158498Y-61312723D01*
X112068634Y-61275500D01*
X111914001Y-61275500D01*
X111846962Y-61255815D01*
X111821687Y-61232565D01*
X111821436Y-61232817D01*
X111732931Y-61144312D01*
X111732930Y-61144311D01*
X111631571Y-61085792D01*
X111518520Y-61055500D01*
X111401480Y-61055500D01*
X111326112Y-61075694D01*
X111288428Y-61085792D01*
X111187071Y-61144310D01*
X111187068Y-61144312D01*
X111104312Y-61227068D01*
X111104310Y-61227071D01*
X111045792Y-61328428D01*
X111035694Y-61366112D01*
X111015500Y-61441480D01*
X111015500Y-61558520D01*
X111045792Y-61671571D01*
X111104311Y-61772930D01*
X111187070Y-61855689D01*
X111288429Y-61914208D01*
X111401480Y-61944500D01*
X111401482Y-61944500D01*
X111518517Y-61944500D01*
X111518520Y-61944500D01*
X111631571Y-61914208D01*
X111732930Y-61855689D01*
X111783741Y-61804878D01*
X111845064Y-61771393D01*
X111914756Y-61776377D01*
X111959103Y-61804878D01*
X112319181Y-62164956D01*
X112352666Y-62226279D01*
X112355500Y-62252637D01*
X112355500Y-62531137D01*
X112340800Y-62581197D01*
X112343557Y-62582339D01*
X112338882Y-62593623D01*
X112330500Y-62635765D01*
X112330500Y-62635768D01*
X112330500Y-63164232D01*
X112330500Y-63164234D01*
X112330499Y-63164234D01*
X112338883Y-63206381D01*
X112355407Y-63231111D01*
X112376284Y-63297789D01*
X112357798Y-63365168D01*
X112355407Y-63368889D01*
X112338883Y-63393618D01*
X112330500Y-63435765D01*
X112330500Y-63435768D01*
X112330500Y-63964232D01*
X112330500Y-63964234D01*
X112330499Y-63964234D01*
X112338883Y-64006381D01*
X112370820Y-64054178D01*
X112370821Y-64054179D01*
X112418618Y-64086116D01*
X112460765Y-64094500D01*
X112460768Y-64094500D01*
X112739234Y-64094500D01*
X112781381Y-64086116D01*
X112790778Y-64082224D01*
X112795184Y-64078173D01*
X112821900Y-64073523D01*
X112847780Y-64065419D01*
X112855812Y-64067622D01*
X112864019Y-64066194D01*
X112903958Y-64080827D01*
X112907220Y-64081721D01*
X112907336Y-64081443D01*
X112909555Y-64082362D01*
X112915162Y-64083900D01*
X112916616Y-64085286D01*
X112918618Y-64086116D01*
X112960765Y-64094500D01*
X113060362Y-64094500D01*
X113127401Y-64114185D01*
X113173156Y-64166989D01*
X113183100Y-64236147D01*
X113154075Y-64299703D01*
X113148043Y-64306181D01*
X113035043Y-64419181D01*
X113017170Y-64428940D01*
X113002178Y-64442726D01*
X112987126Y-64445345D01*
X112973720Y-64452666D01*
X112947362Y-64455500D01*
X112841480Y-64455500D01*
X112766112Y-64475694D01*
X112728428Y-64485792D01*
X112627071Y-64544310D01*
X112627068Y-64544312D01*
X112544312Y-64627068D01*
X112544310Y-64627071D01*
X112485792Y-64728428D01*
X112478892Y-64754179D01*
X112455500Y-64841480D01*
X112455500Y-64841482D01*
X112455500Y-64966647D01*
X112453887Y-64966647D01*
X112444574Y-65026353D01*
X112398192Y-65078608D01*
X112332402Y-65097500D01*
X109007499Y-65097500D01*
X105582500Y-68522499D01*
X105582500Y-68522500D01*
X105582500Y-75797500D01*
X106082340Y-75797500D01*
X106144339Y-75814113D01*
X106248422Y-75874204D01*
X106248429Y-75874208D01*
X106361480Y-75904500D01*
X106361482Y-75904500D01*
X106478517Y-75904500D01*
X106478520Y-75904500D01*
X106591571Y-75874208D01*
X106643355Y-75844311D01*
X106695661Y-75814113D01*
X106757660Y-75797500D01*
X109258500Y-75797500D01*
X109325539Y-75817185D01*
X109371294Y-75869989D01*
X109382500Y-75921500D01*
X109382500Y-77067437D01*
X109362815Y-77134476D01*
X109310011Y-77180231D01*
X109240853Y-77190175D01*
X109196502Y-77174825D01*
X109111575Y-77125794D01*
X109111573Y-77125793D01*
X109111571Y-77125792D01*
X108998520Y-77095500D01*
X108881480Y-77095500D01*
X108806112Y-77115694D01*
X108768428Y-77125792D01*
X108667071Y-77184310D01*
X108667068Y-77184312D01*
X108584312Y-77267068D01*
X108584310Y-77267071D01*
X108525792Y-77368428D01*
X108519615Y-77391480D01*
X108495500Y-77481480D01*
X108495500Y-77481482D01*
X108495500Y-77573500D01*
X108475815Y-77640539D01*
X108423011Y-77686294D01*
X108371500Y-77697500D01*
X93184999Y-77697500D01*
X91022500Y-79859999D01*
X91022500Y-79951236D01*
X91002815Y-80018275D01*
X90950011Y-80064030D01*
X90880853Y-80073974D01*
X90866409Y-80071011D01*
X90808520Y-80055500D01*
X90691480Y-80055500D01*
X90578429Y-80085792D01*
X90477070Y-80144311D01*
X90444638Y-80176743D01*
X90394309Y-80227071D01*
X90335792Y-80328428D01*
X90335792Y-80328429D01*
X90305500Y-80441480D01*
X90305500Y-80558520D01*
X90335792Y-80671571D01*
X90394311Y-80772930D01*
X90477070Y-80855689D01*
X90578429Y-80914208D01*
X90691480Y-80944500D01*
X90691482Y-80944500D01*
X90808518Y-80944500D01*
X90808520Y-80944500D01*
X90866407Y-80928989D01*
X90936255Y-80930650D01*
X90994118Y-80969812D01*
X91021623Y-81034040D01*
X91022500Y-81048763D01*
X91022500Y-86223500D01*
X91002815Y-86290539D01*
X90950011Y-86336294D01*
X90898500Y-86347500D01*
X87818862Y-86347500D01*
X87751823Y-86327815D01*
X87731181Y-86311181D01*
X85998819Y-84578819D01*
X85965334Y-84517496D01*
X85962500Y-84491138D01*
X85962500Y-79491480D01*
X89705500Y-79491480D01*
X89705500Y-79608520D01*
X89735792Y-79721571D01*
X89794311Y-79822930D01*
X89877070Y-79905689D01*
X89978429Y-79964208D01*
X90091480Y-79994500D01*
X90091482Y-79994500D01*
X90208517Y-79994500D01*
X90208520Y-79994500D01*
X90321571Y-79964208D01*
X90422930Y-79905689D01*
X90505689Y-79822930D01*
X90564208Y-79721571D01*
X90594500Y-79608520D01*
X90594500Y-79491480D01*
X90564208Y-79378429D01*
X90505689Y-79277070D01*
X90422930Y-79194311D01*
X90321571Y-79135792D01*
X90208520Y-79105500D01*
X90091480Y-79105500D01*
X90016112Y-79125694D01*
X89978428Y-79135792D01*
X89877071Y-79194310D01*
X89877068Y-79194312D01*
X89794312Y-79277068D01*
X89794310Y-79277071D01*
X89735792Y-79378428D01*
X89735792Y-79378429D01*
X89705500Y-79491480D01*
X85962500Y-79491480D01*
X85962500Y-78391480D01*
X90105500Y-78391480D01*
X90105500Y-78508520D01*
X90135792Y-78621571D01*
X90194311Y-78722930D01*
X90277070Y-78805689D01*
X90378429Y-78864208D01*
X90491480Y-78894500D01*
X90491482Y-78894500D01*
X90608517Y-78894500D01*
X90608520Y-78894500D01*
X90721571Y-78864208D01*
X90822930Y-78805689D01*
X90905689Y-78722930D01*
X90964208Y-78621571D01*
X90994500Y-78508520D01*
X90994500Y-78391480D01*
X90964208Y-78278429D01*
X90905689Y-78177070D01*
X90822930Y-78094311D01*
X90721571Y-78035792D01*
X90608520Y-78005500D01*
X90491480Y-78005500D01*
X90445599Y-78017793D01*
X90445595Y-78017794D01*
X90378429Y-78035792D01*
X90277070Y-78094311D01*
X90269159Y-78102221D01*
X90269158Y-78102222D01*
X90194312Y-78177068D01*
X90194310Y-78177071D01*
X90135792Y-78278428D01*
X90135675Y-78278866D01*
X90105500Y-78391480D01*
X85962500Y-78391480D01*
X85962500Y-77391480D01*
X89605500Y-77391480D01*
X89605500Y-77508520D01*
X89635792Y-77621571D01*
X89694311Y-77722930D01*
X89777070Y-77805689D01*
X89878429Y-77864208D01*
X89991480Y-77894500D01*
X89991482Y-77894500D01*
X90108518Y-77894500D01*
X90108520Y-77894500D01*
X90221571Y-77864208D01*
X90322930Y-77805689D01*
X90405689Y-77722930D01*
X90464208Y-77621571D01*
X90494500Y-77508520D01*
X90494500Y-77391480D01*
X90464208Y-77278429D01*
X90405689Y-77177070D01*
X90322930Y-77094311D01*
X90221571Y-77035792D01*
X90108520Y-77005500D01*
X89991480Y-77005500D01*
X89916112Y-77025694D01*
X89878428Y-77035792D01*
X89777071Y-77094310D01*
X89777068Y-77094312D01*
X89694312Y-77177068D01*
X89694310Y-77177071D01*
X89635792Y-77278428D01*
X89635792Y-77278429D01*
X89605500Y-77391480D01*
X85962500Y-77391480D01*
X85962500Y-76141480D01*
X89655500Y-76141480D01*
X89655500Y-76258520D01*
X89685792Y-76371571D01*
X89744311Y-76472930D01*
X89827070Y-76555689D01*
X89928429Y-76614208D01*
X90041480Y-76644500D01*
X90041482Y-76644500D01*
X90158517Y-76644500D01*
X90158520Y-76644500D01*
X90271571Y-76614208D01*
X90372930Y-76555689D01*
X90455689Y-76472930D01*
X90514208Y-76371571D01*
X90544500Y-76258520D01*
X90544500Y-76141480D01*
X90514208Y-76028429D01*
X90455689Y-75927070D01*
X90372930Y-75844311D01*
X90271571Y-75785792D01*
X90158520Y-75755500D01*
X90041480Y-75755500D01*
X89970571Y-75774500D01*
X89928428Y-75785792D01*
X89827071Y-75844310D01*
X89827068Y-75844312D01*
X89744312Y-75927068D01*
X89744310Y-75927071D01*
X89685792Y-76028428D01*
X89678488Y-76055689D01*
X89655500Y-76141480D01*
X85962500Y-76141480D01*
X85962500Y-75691480D01*
X96505500Y-75691480D01*
X96505500Y-75808520D01*
X96535792Y-75921571D01*
X96594311Y-76022930D01*
X96677070Y-76105689D01*
X96778429Y-76164208D01*
X96891480Y-76194500D01*
X96891482Y-76194500D01*
X97008517Y-76194500D01*
X97008520Y-76194500D01*
X97121571Y-76164208D01*
X97222930Y-76105689D01*
X97305689Y-76022930D01*
X97364208Y-75921571D01*
X97394500Y-75808520D01*
X97394500Y-75691480D01*
X97364208Y-75578429D01*
X97305689Y-75477070D01*
X97222930Y-75394311D01*
X97121571Y-75335792D01*
X97008520Y-75305500D01*
X96891480Y-75305500D01*
X96816112Y-75325694D01*
X96778428Y-75335792D01*
X96677071Y-75394310D01*
X96677068Y-75394312D01*
X96594312Y-75477068D01*
X96594310Y-75477071D01*
X96535792Y-75578428D01*
X96535792Y-75578429D01*
X96505500Y-75691480D01*
X85962500Y-75691480D01*
X85962500Y-75091480D01*
X90155500Y-75091480D01*
X90155500Y-75208520D01*
X90185792Y-75321571D01*
X90244311Y-75422930D01*
X90327070Y-75505689D01*
X90428429Y-75564208D01*
X90541480Y-75594500D01*
X90541482Y-75594500D01*
X90658517Y-75594500D01*
X90658520Y-75594500D01*
X90771571Y-75564208D01*
X90872930Y-75505689D01*
X90955689Y-75422930D01*
X91014208Y-75321571D01*
X91044500Y-75208520D01*
X91044500Y-75091480D01*
X91014208Y-74978429D01*
X90964009Y-74891480D01*
X91505500Y-74891480D01*
X91505500Y-75008520D01*
X91535792Y-75121571D01*
X91594311Y-75222930D01*
X91677070Y-75305689D01*
X91778429Y-75364208D01*
X91891480Y-75394500D01*
X91891482Y-75394500D01*
X92008517Y-75394500D01*
X92008520Y-75394500D01*
X92121571Y-75364208D01*
X92222930Y-75305689D01*
X92305689Y-75222930D01*
X92364208Y-75121571D01*
X92394500Y-75008520D01*
X92394500Y-75008517D01*
X92395561Y-75000460D01*
X92397923Y-75000771D01*
X92414185Y-74945391D01*
X92466989Y-74899636D01*
X92536147Y-74889692D01*
X92599703Y-74918717D01*
X92633062Y-74964979D01*
X92635792Y-74971571D01*
X92694311Y-75072930D01*
X92777070Y-75155689D01*
X92878429Y-75214208D01*
X92991480Y-75244500D01*
X92991482Y-75244500D01*
X93108517Y-75244500D01*
X93108520Y-75244500D01*
X93221571Y-75214208D01*
X93322930Y-75155689D01*
X93405689Y-75072930D01*
X93464208Y-74971571D01*
X93494500Y-74858520D01*
X93494500Y-74741480D01*
X93755500Y-74741480D01*
X93755500Y-74858520D01*
X93785792Y-74971571D01*
X93844311Y-75072930D01*
X93927070Y-75155689D01*
X94028429Y-75214208D01*
X94141480Y-75244500D01*
X94141482Y-75244500D01*
X94258517Y-75244500D01*
X94258520Y-75244500D01*
X94371571Y-75214208D01*
X94472930Y-75155689D01*
X94555689Y-75072930D01*
X94614208Y-74971571D01*
X94644500Y-74858520D01*
X94644500Y-74741480D01*
X94905500Y-74741480D01*
X94905500Y-74858520D01*
X94935792Y-74971571D01*
X94994311Y-75072930D01*
X95077070Y-75155689D01*
X95178429Y-75214208D01*
X95291480Y-75244500D01*
X95291482Y-75244500D01*
X95408517Y-75244500D01*
X95408520Y-75244500D01*
X95521571Y-75214208D01*
X95622930Y-75155689D01*
X95705689Y-75072930D01*
X95764208Y-74971571D01*
X95794500Y-74858520D01*
X95794500Y-74741480D01*
X95764208Y-74628429D01*
X95705689Y-74527070D01*
X95622930Y-74444311D01*
X95521571Y-74385792D01*
X95408520Y-74355500D01*
X95291480Y-74355500D01*
X95216112Y-74375694D01*
X95178428Y-74385792D01*
X95077071Y-74444310D01*
X95077068Y-74444312D01*
X94994312Y-74527068D01*
X94994310Y-74527071D01*
X94935792Y-74628428D01*
X94935792Y-74628429D01*
X94905500Y-74741480D01*
X94644500Y-74741480D01*
X94614208Y-74628429D01*
X94555689Y-74527070D01*
X94472930Y-74444311D01*
X94371571Y-74385792D01*
X94258520Y-74355500D01*
X94141480Y-74355500D01*
X94066112Y-74375694D01*
X94028428Y-74385792D01*
X93927071Y-74444310D01*
X93927068Y-74444312D01*
X93844312Y-74527068D01*
X93844310Y-74527071D01*
X93785792Y-74628428D01*
X93785792Y-74628429D01*
X93755500Y-74741480D01*
X93494500Y-74741480D01*
X93464208Y-74628429D01*
X93405689Y-74527070D01*
X93322930Y-74444311D01*
X93221571Y-74385792D01*
X93108520Y-74355500D01*
X92991480Y-74355500D01*
X92916112Y-74375694D01*
X92878428Y-74385792D01*
X92777071Y-74444310D01*
X92777068Y-74444312D01*
X92694312Y-74527068D01*
X92694310Y-74527071D01*
X92635792Y-74628428D01*
X92605499Y-74741482D01*
X92604439Y-74749540D01*
X92602076Y-74749228D01*
X92585815Y-74804608D01*
X92533011Y-74850363D01*
X92463853Y-74860307D01*
X92400297Y-74831282D01*
X92366939Y-74785023D01*
X92364209Y-74778433D01*
X92364208Y-74778429D01*
X92305689Y-74677070D01*
X92222930Y-74594311D01*
X92121571Y-74535792D01*
X92008520Y-74505500D01*
X91891480Y-74505500D01*
X91816112Y-74525694D01*
X91778428Y-74535792D01*
X91677071Y-74594310D01*
X91677068Y-74594312D01*
X91594312Y-74677068D01*
X91594310Y-74677071D01*
X91535792Y-74778428D01*
X91528777Y-74804608D01*
X91505500Y-74891480D01*
X90964009Y-74891480D01*
X90955689Y-74877070D01*
X90872930Y-74794311D01*
X90771571Y-74735792D01*
X90658520Y-74705500D01*
X90541480Y-74705500D01*
X90469220Y-74724862D01*
X90428428Y-74735792D01*
X90327071Y-74794310D01*
X90327068Y-74794312D01*
X90244312Y-74877068D01*
X90244310Y-74877071D01*
X90185792Y-74978428D01*
X90185792Y-74978429D01*
X90155500Y-75091480D01*
X85962500Y-75091480D01*
X85962500Y-72314933D01*
X96380500Y-72314933D01*
X96380500Y-72314937D01*
X96380500Y-72314938D01*
X96380500Y-72835068D01*
X96390963Y-72906887D01*
X96390965Y-72906894D01*
X96445122Y-73017674D01*
X96445124Y-73017677D01*
X96532322Y-73104875D01*
X96532325Y-73104877D01*
X96643105Y-73159034D01*
X96643106Y-73159034D01*
X96643110Y-73159036D01*
X96714933Y-73169500D01*
X97285066Y-73169499D01*
X97285068Y-73169499D01*
X97313795Y-73165313D01*
X97356890Y-73159036D01*
X97392801Y-73141480D01*
X97467674Y-73104877D01*
X97467677Y-73104875D01*
X97554875Y-73017677D01*
X97554877Y-73017674D01*
X97613266Y-72898239D01*
X97614402Y-72898794D01*
X97647629Y-72848656D01*
X97711587Y-72820526D01*
X97727508Y-72819500D01*
X97923633Y-72819500D01*
X97923634Y-72819500D01*
X98013498Y-72782277D01*
X98314956Y-72480817D01*
X98376278Y-72447334D01*
X98402636Y-72444500D01*
X98508517Y-72444500D01*
X98508520Y-72444500D01*
X98621571Y-72414208D01*
X98722930Y-72355689D01*
X98805689Y-72272930D01*
X98830984Y-72229117D01*
X100990969Y-72229117D01*
X100990969Y-72346157D01*
X101021261Y-72459208D01*
X101079780Y-72560567D01*
X101162539Y-72643326D01*
X101263898Y-72701845D01*
X101376949Y-72732137D01*
X101376951Y-72732137D01*
X101493986Y-72732137D01*
X101493989Y-72732137D01*
X101607040Y-72701845D01*
X101708399Y-72643326D01*
X101791158Y-72560567D01*
X101849677Y-72459208D01*
X101877162Y-72356630D01*
X101885177Y-72342747D01*
X101888103Y-72329301D01*
X101909251Y-72301049D01*
X101961316Y-72248984D01*
X101961321Y-72248981D01*
X101971526Y-72238775D01*
X101971528Y-72238775D01*
X102035669Y-72174634D01*
X102081023Y-72096078D01*
X102082591Y-72090228D01*
X102091088Y-72058519D01*
X102102826Y-72014707D01*
X102104500Y-72008461D01*
X102104500Y-71917752D01*
X102104500Y-71912052D01*
X102124185Y-71845013D01*
X102174038Y-71800652D01*
X102267677Y-71754875D01*
X102354875Y-71667677D01*
X102354877Y-71667674D01*
X102409034Y-71556894D01*
X102409033Y-71556894D01*
X102409036Y-71556890D01*
X102419500Y-71485067D01*
X102419499Y-70914934D01*
X102409036Y-70843110D01*
X102401859Y-70828429D01*
X102354877Y-70732325D01*
X102348906Y-70723962D01*
X102350224Y-70723020D01*
X102322334Y-70671943D01*
X102319500Y-70645585D01*
X102319500Y-69870275D01*
X102339185Y-69803236D01*
X102389040Y-69758874D01*
X102417677Y-69744875D01*
X102504875Y-69657677D01*
X102504877Y-69657674D01*
X102559034Y-69546894D01*
X102559033Y-69546894D01*
X102559036Y-69546890D01*
X102569500Y-69475067D01*
X102569499Y-68904934D01*
X102559036Y-68833110D01*
X102559034Y-68833105D01*
X102504877Y-68722325D01*
X102504875Y-68722322D01*
X102417677Y-68635124D01*
X102417674Y-68635122D01*
X102306894Y-68580965D01*
X102306891Y-68580964D01*
X102306890Y-68580964D01*
X102235067Y-68570500D01*
X102235061Y-68570500D01*
X101714931Y-68570500D01*
X101643112Y-68580963D01*
X101643105Y-68580965D01*
X101532325Y-68635122D01*
X101532322Y-68635124D01*
X101445124Y-68722322D01*
X101445122Y-68722325D01*
X101390965Y-68833105D01*
X101390964Y-68833109D01*
X101390964Y-68833110D01*
X101380500Y-68904933D01*
X101380500Y-68904937D01*
X101380500Y-68904938D01*
X101380500Y-69475068D01*
X101390963Y-69546887D01*
X101390965Y-69546894D01*
X101445122Y-69657674D01*
X101445124Y-69657677D01*
X101532321Y-69744874D01*
X101532320Y-69744874D01*
X101548834Y-69752947D01*
X101560959Y-69758874D01*
X101612542Y-69806001D01*
X101630500Y-69870275D01*
X101630500Y-70463704D01*
X101610815Y-70530743D01*
X101558011Y-70576498D01*
X101524376Y-70586409D01*
X101493111Y-70590963D01*
X101493105Y-70590965D01*
X101382325Y-70645122D01*
X101382322Y-70645124D01*
X101295124Y-70732322D01*
X101295122Y-70732325D01*
X101240965Y-70843105D01*
X101240964Y-70843109D01*
X101240964Y-70843110D01*
X101230500Y-70914933D01*
X101230500Y-70914937D01*
X101230500Y-70914938D01*
X101230500Y-71485068D01*
X101240963Y-71556887D01*
X101240965Y-71556894D01*
X101295122Y-71667674D01*
X101295124Y-71667677D01*
X101300242Y-71672795D01*
X101333727Y-71734118D01*
X101328743Y-71803810D01*
X101286871Y-71859743D01*
X101270698Y-71868954D01*
X101270936Y-71869366D01*
X101263898Y-71873428D01*
X101263898Y-71873429D01*
X101222116Y-71897551D01*
X101162540Y-71931947D01*
X101162537Y-71931949D01*
X101079781Y-72014705D01*
X101079779Y-72014708D01*
X101021261Y-72116065D01*
X101021261Y-72116066D01*
X100990969Y-72229117D01*
X98830984Y-72229117D01*
X98864208Y-72171571D01*
X98894500Y-72058520D01*
X98894500Y-71941480D01*
X98864208Y-71828429D01*
X98805689Y-71727070D01*
X98722930Y-71644311D01*
X98621571Y-71585792D01*
X98508520Y-71555500D01*
X98391480Y-71555500D01*
X98316112Y-71575694D01*
X98278428Y-71585792D01*
X98177071Y-71644310D01*
X98177068Y-71644312D01*
X98094312Y-71727068D01*
X98094310Y-71727071D01*
X98035792Y-71828428D01*
X98035792Y-71828429D01*
X98005500Y-71941480D01*
X98005500Y-71941482D01*
X98005500Y-72047362D01*
X97996855Y-72076802D01*
X97990332Y-72106789D01*
X97986577Y-72111804D01*
X97985815Y-72114401D01*
X97969184Y-72135039D01*
X97892473Y-72211751D01*
X97813974Y-72290250D01*
X97752651Y-72323734D01*
X97682959Y-72318750D01*
X97627026Y-72276878D01*
X97614039Y-72251382D01*
X97613266Y-72251761D01*
X97554877Y-72132325D01*
X97554875Y-72132322D01*
X97467677Y-72045124D01*
X97467674Y-72045122D01*
X97356894Y-71990965D01*
X97356891Y-71990964D01*
X97356890Y-71990964D01*
X97285067Y-71980500D01*
X97285061Y-71980500D01*
X96714931Y-71980500D01*
X96643112Y-71990963D01*
X96643105Y-71990965D01*
X96532325Y-72045122D01*
X96532322Y-72045124D01*
X96445124Y-72132322D01*
X96445122Y-72132325D01*
X96390965Y-72243105D01*
X96390964Y-72243109D01*
X96390964Y-72243110D01*
X96380500Y-72314933D01*
X85962500Y-72314933D01*
X85962500Y-69942045D01*
X88805500Y-69942045D01*
X88805500Y-70137954D01*
X88843716Y-70330077D01*
X88843719Y-70330089D01*
X88918683Y-70511070D01*
X88918685Y-70511073D01*
X89027517Y-70673952D01*
X89027523Y-70673960D01*
X89166039Y-70812476D01*
X89166047Y-70812482D01*
X89328926Y-70921314D01*
X89328929Y-70921316D01*
X89445426Y-70969570D01*
X89509915Y-70996282D01*
X89671529Y-71028429D01*
X89702045Y-71034499D01*
X89702048Y-71034500D01*
X89702050Y-71034500D01*
X89897952Y-71034500D01*
X89897953Y-71034499D01*
X90090085Y-70996282D01*
X90222389Y-70941480D01*
X91355500Y-70941480D01*
X91355500Y-71058520D01*
X91385792Y-71171571D01*
X91444311Y-71272930D01*
X91527070Y-71355689D01*
X91628429Y-71414208D01*
X91741480Y-71444500D01*
X91741482Y-71444500D01*
X91858517Y-71444500D01*
X91858520Y-71444500D01*
X91971571Y-71414208D01*
X92072930Y-71355689D01*
X92155689Y-71272930D01*
X92214208Y-71171571D01*
X92244500Y-71058520D01*
X92244500Y-70941480D01*
X92214208Y-70828429D01*
X92172103Y-70755500D01*
X92162853Y-70739479D01*
X95424399Y-70739479D01*
X95424399Y-70856519D01*
X95454691Y-70969570D01*
X95513210Y-71070929D01*
X95595969Y-71153688D01*
X95697328Y-71212207D01*
X95810379Y-71242499D01*
X95810381Y-71242499D01*
X95927416Y-71242499D01*
X95927419Y-71242499D01*
X96040470Y-71212207D01*
X96141829Y-71153688D01*
X96224588Y-71070929D01*
X96283107Y-70969570D01*
X96313399Y-70856519D01*
X96313399Y-70801479D01*
X96895500Y-70801479D01*
X96895500Y-70918519D01*
X96925792Y-71031570D01*
X96984311Y-71132929D01*
X97067070Y-71215688D01*
X97168429Y-71274207D01*
X97281480Y-71304499D01*
X97281482Y-71304499D01*
X97398517Y-71304499D01*
X97398520Y-71304499D01*
X97511571Y-71274207D01*
X97612930Y-71215688D01*
X97695689Y-71132929D01*
X97754208Y-71031570D01*
X97784500Y-70918519D01*
X97784500Y-70801479D01*
X97754208Y-70688428D01*
X97695689Y-70587069D01*
X97612930Y-70504310D01*
X97511571Y-70445791D01*
X97398520Y-70415499D01*
X97281480Y-70415499D01*
X97206112Y-70435693D01*
X97168428Y-70445791D01*
X97067071Y-70504309D01*
X97067068Y-70504311D01*
X96984312Y-70587067D01*
X96984310Y-70587070D01*
X96925792Y-70688427D01*
X96925792Y-70688428D01*
X96895500Y-70801479D01*
X96313399Y-70801479D01*
X96313399Y-70739479D01*
X96283107Y-70626428D01*
X96224588Y-70525069D01*
X96141829Y-70442310D01*
X96040470Y-70383791D01*
X95927419Y-70353499D01*
X95810379Y-70353499D01*
X95735011Y-70373693D01*
X95697327Y-70383791D01*
X95595970Y-70442309D01*
X95595967Y-70442311D01*
X95513211Y-70525067D01*
X95513209Y-70525070D01*
X95454691Y-70626427D01*
X95449899Y-70644311D01*
X95424399Y-70739479D01*
X92162853Y-70739479D01*
X92155691Y-70727073D01*
X92155690Y-70727071D01*
X92155689Y-70727070D01*
X92072930Y-70644311D01*
X91971571Y-70585792D01*
X91858520Y-70555500D01*
X91741480Y-70555500D01*
X91666112Y-70575694D01*
X91628428Y-70585792D01*
X91527071Y-70644310D01*
X91527068Y-70644312D01*
X91444312Y-70727068D01*
X91444310Y-70727071D01*
X91385792Y-70828428D01*
X91381858Y-70843110D01*
X91355500Y-70941480D01*
X90222389Y-70941480D01*
X90271072Y-70921315D01*
X90271074Y-70921314D01*
X90407356Y-70830253D01*
X90407360Y-70830251D01*
X90431369Y-70814208D01*
X90433957Y-70812479D01*
X90572479Y-70673957D01*
X90681315Y-70511072D01*
X90684116Y-70504311D01*
X90734036Y-70383791D01*
X90756282Y-70330085D01*
X90794500Y-70137950D01*
X90794500Y-69942050D01*
X90794500Y-69942047D01*
X90794499Y-69942045D01*
X90756282Y-69749915D01*
X90710979Y-69640543D01*
X90681316Y-69568929D01*
X90681314Y-69568926D01*
X90572482Y-69406047D01*
X90572476Y-69406039D01*
X90433960Y-69267523D01*
X90433952Y-69267517D01*
X90271073Y-69158685D01*
X90271070Y-69158683D01*
X90090089Y-69083719D01*
X90090077Y-69083716D01*
X89897953Y-69045500D01*
X89897950Y-69045500D01*
X89702050Y-69045500D01*
X89702047Y-69045500D01*
X89509922Y-69083716D01*
X89509910Y-69083719D01*
X89328929Y-69158683D01*
X89328926Y-69158685D01*
X89166047Y-69267517D01*
X89166039Y-69267523D01*
X89027523Y-69406039D01*
X89027517Y-69406047D01*
X88918685Y-69568926D01*
X88918683Y-69568929D01*
X88843719Y-69749910D01*
X88843716Y-69749922D01*
X88805500Y-69942045D01*
X85962500Y-69942045D01*
X85962500Y-67402045D01*
X88805500Y-67402045D01*
X88805500Y-67597954D01*
X88843716Y-67790077D01*
X88843719Y-67790089D01*
X88918683Y-67971070D01*
X88918685Y-67971073D01*
X89027517Y-68133952D01*
X89027523Y-68133960D01*
X89166039Y-68272476D01*
X89166047Y-68272482D01*
X89328926Y-68381314D01*
X89328929Y-68381316D01*
X89509910Y-68456280D01*
X89509915Y-68456282D01*
X89702045Y-68494499D01*
X89702048Y-68494500D01*
X89702050Y-68494500D01*
X89897952Y-68494500D01*
X89897953Y-68494499D01*
X90090085Y-68456282D01*
X90271072Y-68381315D01*
X90433957Y-68272479D01*
X90572479Y-68133957D01*
X90681315Y-67971072D01*
X90756282Y-67790085D01*
X90794500Y-67597950D01*
X90794500Y-67402050D01*
X90794500Y-67402047D01*
X90794499Y-67402045D01*
X90772653Y-67292220D01*
X90756282Y-67209915D01*
X90741649Y-67174587D01*
X90681316Y-67028929D01*
X90681315Y-67028927D01*
X90670166Y-67012241D01*
X90629566Y-66951479D01*
X91985500Y-66951479D01*
X91985500Y-67068519D01*
X92015792Y-67181570D01*
X92074311Y-67282929D01*
X92157070Y-67365688D01*
X92258429Y-67424207D01*
X92371480Y-67454499D01*
X92371482Y-67454499D01*
X92488517Y-67454499D01*
X92488520Y-67454499D01*
X92601571Y-67424207D01*
X92702930Y-67365688D01*
X92785689Y-67282929D01*
X92844208Y-67181570D01*
X92874500Y-67068519D01*
X92874500Y-66951479D01*
X92844208Y-66838428D01*
X92785689Y-66737069D01*
X92702930Y-66654310D01*
X92601571Y-66595791D01*
X92488520Y-66565499D01*
X92371480Y-66565499D01*
X92296112Y-66585693D01*
X92258428Y-66595791D01*
X92157071Y-66654309D01*
X92157068Y-66654311D01*
X92074312Y-66737067D01*
X92074310Y-66737070D01*
X92015792Y-66838427D01*
X92008391Y-66866047D01*
X91985500Y-66951479D01*
X90629566Y-66951479D01*
X90572479Y-66866043D01*
X90572476Y-66866039D01*
X90433960Y-66727523D01*
X90433952Y-66727517D01*
X90271073Y-66618685D01*
X90271070Y-66618683D01*
X90090089Y-66543719D01*
X90090077Y-66543716D01*
X89897953Y-66505500D01*
X89897950Y-66505500D01*
X89702050Y-66505500D01*
X89702047Y-66505500D01*
X89509922Y-66543716D01*
X89509910Y-66543719D01*
X89328929Y-66618683D01*
X89328926Y-66618685D01*
X89166047Y-66727517D01*
X89166039Y-66727523D01*
X89027523Y-66866039D01*
X89027517Y-66866047D01*
X88918685Y-67028926D01*
X88918683Y-67028929D01*
X88843719Y-67209910D01*
X88843716Y-67209922D01*
X88805500Y-67402045D01*
X85962500Y-67402045D01*
X85962500Y-63641480D01*
X102955500Y-63641480D01*
X102955500Y-63758520D01*
X102985792Y-63871571D01*
X103044311Y-63972930D01*
X103127070Y-64055689D01*
X103228429Y-64114208D01*
X103341480Y-64144500D01*
X103341482Y-64144500D01*
X103458517Y-64144500D01*
X103458520Y-64144500D01*
X103571571Y-64114208D01*
X103672930Y-64055689D01*
X103755689Y-63972930D01*
X103814208Y-63871571D01*
X103844500Y-63758520D01*
X103844500Y-63641480D01*
X103814208Y-63528429D01*
X103755689Y-63427070D01*
X103672930Y-63344311D01*
X103571571Y-63285792D01*
X103458520Y-63255500D01*
X103341480Y-63255500D01*
X103273650Y-63273675D01*
X103228428Y-63285792D01*
X103127071Y-63344310D01*
X103127068Y-63344312D01*
X103044312Y-63427068D01*
X103044310Y-63427071D01*
X102985792Y-63528428D01*
X102985792Y-63528429D01*
X102955500Y-63641480D01*
X85962500Y-63641480D01*
X85962500Y-63090481D01*
X85982185Y-63023442D01*
X86034989Y-62977687D01*
X86104147Y-62967743D01*
X86167703Y-62996768D01*
X86174181Y-63002800D01*
X86227070Y-63055689D01*
X86328429Y-63114208D01*
X86441480Y-63144500D01*
X86441482Y-63144500D01*
X86558517Y-63144500D01*
X86558520Y-63144500D01*
X86671571Y-63114208D01*
X86772930Y-63055689D01*
X86855689Y-62972930D01*
X86914208Y-62871571D01*
X86944500Y-62758520D01*
X86944500Y-62641480D01*
X86914208Y-62528429D01*
X86855689Y-62427070D01*
X86772930Y-62344311D01*
X86671571Y-62285792D01*
X86558520Y-62255500D01*
X86441480Y-62255500D01*
X86366112Y-62275694D01*
X86328428Y-62285792D01*
X86227071Y-62344310D01*
X86227068Y-62344312D01*
X86174181Y-62397200D01*
X86112858Y-62430685D01*
X86043166Y-62425701D01*
X85987233Y-62383829D01*
X85962816Y-62318365D01*
X85962500Y-62309519D01*
X85962500Y-61471480D01*
X92665500Y-61471480D01*
X92665500Y-61588520D01*
X92695792Y-61701571D01*
X92754311Y-61802930D01*
X92837070Y-61885689D01*
X92938429Y-61944208D01*
X93051480Y-61974500D01*
X93051482Y-61974500D01*
X93168517Y-61974500D01*
X93168520Y-61974500D01*
X93281571Y-61944208D01*
X93382930Y-61885689D01*
X93465689Y-61802930D01*
X93524208Y-61701571D01*
X93554500Y-61588520D01*
X93554500Y-61471480D01*
X93524208Y-61358429D01*
X93465689Y-61257070D01*
X93382930Y-61174311D01*
X93281571Y-61115792D01*
X93168520Y-61085500D01*
X93051480Y-61085500D01*
X92976112Y-61105694D01*
X92938428Y-61115792D01*
X92837071Y-61174310D01*
X92837068Y-61174312D01*
X92754312Y-61257068D01*
X92754310Y-61257071D01*
X92695792Y-61358428D01*
X92695792Y-61358429D01*
X92665500Y-61471480D01*
X85962500Y-61471480D01*
X85962500Y-60711480D01*
X96235500Y-60711480D01*
X96235500Y-60828520D01*
X96265792Y-60941571D01*
X96324311Y-61042930D01*
X96407070Y-61125689D01*
X96508429Y-61184208D01*
X96621480Y-61214500D01*
X96621482Y-61214500D01*
X96738517Y-61214500D01*
X96738520Y-61214500D01*
X96851571Y-61184208D01*
X96952930Y-61125689D01*
X97035689Y-61042930D01*
X97094208Y-60941571D01*
X97124500Y-60828520D01*
X97124500Y-60711480D01*
X97094208Y-60598429D01*
X97035689Y-60497070D01*
X96952930Y-60414311D01*
X96851571Y-60355792D01*
X96738520Y-60325500D01*
X96621480Y-60325500D01*
X96546112Y-60345694D01*
X96508428Y-60355792D01*
X96407071Y-60414310D01*
X96407068Y-60414312D01*
X96324312Y-60497068D01*
X96324310Y-60497071D01*
X96265792Y-60598428D01*
X96255694Y-60636112D01*
X96235500Y-60711480D01*
X85962500Y-60711480D01*
X85962500Y-60708862D01*
X85969280Y-60685770D01*
X85969271Y-60685706D01*
X85969350Y-60685531D01*
X85971144Y-60679421D01*
X85977668Y-60649435D01*
X85981422Y-60644419D01*
X85982185Y-60641823D01*
X85998819Y-60621181D01*
X88188520Y-58431480D01*
X92145500Y-58431480D01*
X92145500Y-58548520D01*
X92175792Y-58661571D01*
X92234311Y-58762930D01*
X92317070Y-58845689D01*
X92418429Y-58904208D01*
X92531480Y-58934500D01*
X92531482Y-58934500D01*
X92648517Y-58934500D01*
X92648520Y-58934500D01*
X92761571Y-58904208D01*
X92862930Y-58845689D01*
X92945689Y-58762930D01*
X93004208Y-58661571D01*
X93034500Y-58548520D01*
X93034500Y-58431480D01*
X93026462Y-58401480D01*
X95795500Y-58401480D01*
X95795500Y-58518520D01*
X95825792Y-58631571D01*
X95884311Y-58732930D01*
X95967070Y-58815689D01*
X96068429Y-58874208D01*
X96181480Y-58904500D01*
X96181482Y-58904500D01*
X96298517Y-58904500D01*
X96298520Y-58904500D01*
X96411571Y-58874208D01*
X96512930Y-58815689D01*
X96595689Y-58732930D01*
X96654208Y-58631571D01*
X96684500Y-58518520D01*
X96684500Y-58401480D01*
X96668403Y-58341405D01*
X96670066Y-58271559D01*
X96709228Y-58213697D01*
X96773456Y-58186192D01*
X96842359Y-58197778D01*
X96875859Y-58221634D01*
X98019181Y-59364956D01*
X98052666Y-59426279D01*
X98055500Y-59452637D01*
X98055500Y-59558520D01*
X98085792Y-59671571D01*
X98144311Y-59772930D01*
X98227070Y-59855689D01*
X98328429Y-59914208D01*
X98441480Y-59944500D01*
X98441482Y-59944500D01*
X98558517Y-59944500D01*
X98558520Y-59944500D01*
X98671571Y-59914208D01*
X98772930Y-59855689D01*
X98855689Y-59772930D01*
X98882612Y-59726296D01*
X98933179Y-59678081D01*
X99001786Y-59664857D01*
X99066651Y-59690825D01*
X99097387Y-59726296D01*
X99124311Y-59772930D01*
X99207070Y-59855689D01*
X99308429Y-59914208D01*
X99421480Y-59944500D01*
X99421482Y-59944500D01*
X99538517Y-59944500D01*
X99538520Y-59944500D01*
X99549791Y-59941480D01*
X136055500Y-59941480D01*
X136055500Y-60058520D01*
X136085792Y-60171571D01*
X136144311Y-60272930D01*
X136227070Y-60355689D01*
X136328429Y-60414208D01*
X136441480Y-60444500D01*
X136441482Y-60444500D01*
X136558517Y-60444500D01*
X136558520Y-60444500D01*
X136671571Y-60414208D01*
X136772930Y-60355689D01*
X136855689Y-60272930D01*
X136914208Y-60171571D01*
X136944500Y-60058520D01*
X136944500Y-59941480D01*
X136914208Y-59828429D01*
X136855689Y-59727070D01*
X136772930Y-59644311D01*
X136671571Y-59585792D01*
X136558520Y-59555500D01*
X136441480Y-59555500D01*
X136366112Y-59575694D01*
X136328428Y-59585792D01*
X136227071Y-59644310D01*
X136227068Y-59644312D01*
X136144312Y-59727068D01*
X136144310Y-59727071D01*
X136085792Y-59828428D01*
X136085792Y-59828429D01*
X136055500Y-59941480D01*
X99549791Y-59941480D01*
X99651571Y-59914208D01*
X99752930Y-59855689D01*
X99835689Y-59772930D01*
X99894208Y-59671571D01*
X99924500Y-59558520D01*
X99924500Y-59441480D01*
X99894208Y-59328429D01*
X99835689Y-59227070D01*
X99752930Y-59144311D01*
X99752929Y-59144310D01*
X99752926Y-59144308D01*
X99746747Y-59140741D01*
X99746746Y-59140740D01*
X99651577Y-59085795D01*
X99651574Y-59085793D01*
X99651571Y-59085792D01*
X99538520Y-59055500D01*
X99421480Y-59055500D01*
X99354703Y-59073393D01*
X99308428Y-59085792D01*
X99207071Y-59144310D01*
X99207068Y-59144312D01*
X99124312Y-59227068D01*
X99124308Y-59227073D01*
X99097387Y-59273703D01*
X99046820Y-59321919D01*
X98978213Y-59335142D01*
X98913348Y-59309174D01*
X98882613Y-59273703D01*
X98855691Y-59227073D01*
X98855690Y-59227071D01*
X98855689Y-59227070D01*
X98772930Y-59144311D01*
X98671571Y-59085792D01*
X98558520Y-59055500D01*
X98452637Y-59055500D01*
X98404891Y-59041480D01*
X101155500Y-59041480D01*
X101155500Y-59158520D01*
X101185792Y-59271571D01*
X101244311Y-59372930D01*
X101327070Y-59455689D01*
X101428429Y-59514208D01*
X101541480Y-59544500D01*
X101541482Y-59544500D01*
X101658517Y-59544500D01*
X101658520Y-59544500D01*
X101771571Y-59514208D01*
X101872930Y-59455689D01*
X101955689Y-59372930D01*
X102014208Y-59271571D01*
X102044500Y-59158520D01*
X102044500Y-59041480D01*
X102014208Y-58928429D01*
X101955689Y-58827070D01*
X101872930Y-58744311D01*
X101771571Y-58685792D01*
X101658520Y-58655500D01*
X101541480Y-58655500D01*
X101466112Y-58675694D01*
X101428428Y-58685792D01*
X101327071Y-58744310D01*
X101327068Y-58744312D01*
X101244312Y-58827068D01*
X101244310Y-58827071D01*
X101185792Y-58928428D01*
X101185792Y-58928429D01*
X101155500Y-59041480D01*
X98404891Y-59041480D01*
X98385598Y-59035815D01*
X98364956Y-59019181D01*
X97810831Y-58465056D01*
X114164499Y-58465056D01*
X114189881Y-58592654D01*
X114189883Y-58592662D01*
X114239672Y-58712864D01*
X114239673Y-58712866D01*
X114311955Y-58821043D01*
X114311958Y-58821047D01*
X114403952Y-58913041D01*
X114403956Y-58913044D01*
X114512136Y-58985328D01*
X114632339Y-59035117D01*
X114663587Y-59041332D01*
X114759943Y-59060500D01*
X114759946Y-59060500D01*
X114890056Y-59060500D01*
X114954292Y-59047721D01*
X115017661Y-59035117D01*
X115137864Y-58985328D01*
X115246044Y-58913044D01*
X115338044Y-58821044D01*
X115410328Y-58712864D01*
X115460117Y-58592661D01*
X115485500Y-58465056D01*
X117974499Y-58465056D01*
X117999881Y-58592654D01*
X117999883Y-58592662D01*
X118049672Y-58712864D01*
X118049673Y-58712866D01*
X118121955Y-58821043D01*
X118121958Y-58821047D01*
X118213952Y-58913041D01*
X118213956Y-58913044D01*
X118322136Y-58985328D01*
X118442339Y-59035117D01*
X118473587Y-59041332D01*
X118569943Y-59060500D01*
X118569946Y-59060500D01*
X118700056Y-59060500D01*
X118764292Y-59047721D01*
X118827661Y-59035117D01*
X118947864Y-58985328D01*
X119056044Y-58913044D01*
X119127608Y-58841480D01*
X130055500Y-58841480D01*
X130055500Y-58958520D01*
X130085792Y-59071571D01*
X130144311Y-59172930D01*
X130227070Y-59255689D01*
X130328429Y-59314208D01*
X130441480Y-59344500D01*
X130441482Y-59344500D01*
X130558517Y-59344500D01*
X130558520Y-59344500D01*
X130671571Y-59314208D01*
X130772930Y-59255689D01*
X130855689Y-59172930D01*
X130914208Y-59071571D01*
X130944500Y-58958520D01*
X130944500Y-58841480D01*
X130914208Y-58728429D01*
X130855689Y-58627070D01*
X130772930Y-58544311D01*
X130671571Y-58485792D01*
X130558520Y-58455500D01*
X130441480Y-58455500D01*
X130366112Y-58475694D01*
X130328428Y-58485792D01*
X130227071Y-58544310D01*
X130227068Y-58544312D01*
X130144312Y-58627068D01*
X130144310Y-58627071D01*
X130085792Y-58728428D01*
X130081537Y-58744310D01*
X130055500Y-58841480D01*
X119127608Y-58841480D01*
X119148044Y-58821044D01*
X119220328Y-58712864D01*
X119270117Y-58592661D01*
X119295500Y-58465054D01*
X119295500Y-58334946D01*
X119295500Y-58334943D01*
X119270118Y-58207345D01*
X119270117Y-58207339D01*
X119220328Y-58087136D01*
X119148044Y-57978956D01*
X119148041Y-57978952D01*
X119056047Y-57886958D01*
X119056043Y-57886955D01*
X118947866Y-57814673D01*
X118947864Y-57814672D01*
X118827662Y-57764883D01*
X118827654Y-57764881D01*
X118700056Y-57739500D01*
X118700054Y-57739500D01*
X118569946Y-57739500D01*
X118569944Y-57739500D01*
X118442345Y-57764881D01*
X118442337Y-57764883D01*
X118322135Y-57814672D01*
X118322133Y-57814673D01*
X118213956Y-57886955D01*
X118213952Y-57886958D01*
X118121958Y-57978952D01*
X118121955Y-57978956D01*
X118049673Y-58087133D01*
X118049672Y-58087135D01*
X117999883Y-58207337D01*
X117999881Y-58207345D01*
X117974500Y-58334943D01*
X117974500Y-58334946D01*
X117974500Y-58465054D01*
X117974500Y-58465056D01*
X117974499Y-58465056D01*
X115485500Y-58465056D01*
X115485500Y-58465054D01*
X115485500Y-58334946D01*
X115485500Y-58334943D01*
X115460118Y-58207345D01*
X115460117Y-58207339D01*
X115410328Y-58087136D01*
X115338044Y-57978956D01*
X115338041Y-57978952D01*
X115246047Y-57886958D01*
X115246043Y-57886955D01*
X115137866Y-57814673D01*
X115137864Y-57814672D01*
X115017662Y-57764883D01*
X115017654Y-57764881D01*
X114890056Y-57739500D01*
X114890054Y-57739500D01*
X114759946Y-57739500D01*
X114759944Y-57739500D01*
X114632345Y-57764881D01*
X114632337Y-57764883D01*
X114512135Y-57814672D01*
X114512133Y-57814673D01*
X114403956Y-57886955D01*
X114403952Y-57886958D01*
X114311958Y-57978952D01*
X114311955Y-57978956D01*
X114239673Y-58087133D01*
X114239672Y-58087135D01*
X114189883Y-58207337D01*
X114189881Y-58207345D01*
X114164500Y-58334943D01*
X114164500Y-58334946D01*
X114164500Y-58465054D01*
X114164500Y-58465056D01*
X114164499Y-58465056D01*
X97810831Y-58465056D01*
X96880819Y-57535044D01*
X96847334Y-57473721D01*
X96844500Y-57447363D01*
X96844500Y-57441482D01*
X96844500Y-57441480D01*
X96814208Y-57328429D01*
X96755689Y-57227070D01*
X96672930Y-57144311D01*
X96571571Y-57085792D01*
X96458520Y-57055500D01*
X96341480Y-57055500D01*
X96266112Y-57075694D01*
X96228428Y-57085792D01*
X96127071Y-57144310D01*
X96127068Y-57144312D01*
X96044312Y-57227068D01*
X96044310Y-57227071D01*
X95985792Y-57328428D01*
X95985792Y-57328429D01*
X95955500Y-57441480D01*
X95955500Y-57558520D01*
X95973868Y-57627070D01*
X95985792Y-57671571D01*
X96044310Y-57772928D01*
X96044312Y-57772931D01*
X96113093Y-57841712D01*
X96146578Y-57903035D01*
X96141594Y-57972727D01*
X96099722Y-58028660D01*
X96072870Y-58043952D01*
X96068432Y-58045790D01*
X95967071Y-58104310D01*
X95967068Y-58104312D01*
X95884312Y-58187068D01*
X95884310Y-58187071D01*
X95825792Y-58288428D01*
X95815694Y-58326112D01*
X95795500Y-58401480D01*
X93026462Y-58401480D01*
X93004208Y-58318429D01*
X92945689Y-58217070D01*
X92862930Y-58134311D01*
X92761571Y-58075792D01*
X92648520Y-58045500D01*
X92531480Y-58045500D01*
X92456112Y-58065694D01*
X92418428Y-58075792D01*
X92317071Y-58134310D01*
X92317068Y-58134312D01*
X92234312Y-58217068D01*
X92234310Y-58217071D01*
X92175792Y-58318428D01*
X92168806Y-58344500D01*
X92145500Y-58431480D01*
X88188520Y-58431480D01*
X90258520Y-56361480D01*
X96425500Y-56361480D01*
X96425500Y-56478520D01*
X96455792Y-56591571D01*
X96514311Y-56692930D01*
X96597070Y-56775689D01*
X96698429Y-56834208D01*
X96811480Y-56864500D01*
X96811482Y-56864500D01*
X96928517Y-56864500D01*
X96928520Y-56864500D01*
X97041571Y-56834208D01*
X97142930Y-56775689D01*
X97225689Y-56692930D01*
X97284208Y-56591571D01*
X97314500Y-56478520D01*
X97314500Y-56361480D01*
X97284208Y-56248429D01*
X97225689Y-56147070D01*
X97142930Y-56064311D01*
X97041571Y-56005792D01*
X96928520Y-55975500D01*
X96811480Y-55975500D01*
X96736112Y-55995694D01*
X96698428Y-56005792D01*
X96597071Y-56064310D01*
X96597068Y-56064312D01*
X96514312Y-56147068D01*
X96514310Y-56147071D01*
X96455792Y-56248428D01*
X96455792Y-56248429D01*
X96425500Y-56361480D01*
X90258520Y-56361480D01*
X91578520Y-55041480D01*
X111255500Y-55041480D01*
X111255500Y-55158520D01*
X111285792Y-55271571D01*
X111344311Y-55372930D01*
X111427070Y-55455689D01*
X111528429Y-55514208D01*
X111641480Y-55544500D01*
X111641482Y-55544500D01*
X111758517Y-55544500D01*
X111758520Y-55544500D01*
X111871571Y-55514208D01*
X111972930Y-55455689D01*
X112055689Y-55372930D01*
X112114208Y-55271571D01*
X112144500Y-55158520D01*
X112144500Y-55041480D01*
X112114208Y-54928429D01*
X112055689Y-54827070D01*
X111972930Y-54744311D01*
X111871571Y-54685792D01*
X111758520Y-54655500D01*
X111641480Y-54655500D01*
X111566112Y-54675694D01*
X111528428Y-54685792D01*
X111427071Y-54744310D01*
X111427068Y-54744312D01*
X111344312Y-54827068D01*
X111344310Y-54827071D01*
X111285792Y-54928428D01*
X111285792Y-54928429D01*
X111255500Y-55041480D01*
X91578520Y-55041480D01*
X93086181Y-53533819D01*
X93147504Y-53500334D01*
X93173862Y-53497500D01*
X116874519Y-53497500D01*
X116941558Y-53517185D01*
X116987313Y-53569989D01*
X116997257Y-53639147D01*
X116968232Y-53702703D01*
X116962200Y-53709181D01*
X116944312Y-53727068D01*
X116944310Y-53727071D01*
X116885792Y-53828428D01*
X116885792Y-53828429D01*
X116855500Y-53941480D01*
X116855500Y-54058520D01*
X116885792Y-54171571D01*
X116944311Y-54272930D01*
X117027070Y-54355689D01*
X117128429Y-54414208D01*
X117241480Y-54444500D01*
X117241482Y-54444500D01*
X117358517Y-54444500D01*
X117358520Y-54444500D01*
X117471571Y-54414208D01*
X117572930Y-54355689D01*
X117655689Y-54272930D01*
X117714208Y-54171571D01*
X117744500Y-54058520D01*
X117744500Y-53941480D01*
X117714208Y-53828429D01*
X117655689Y-53727070D01*
X117637800Y-53709181D01*
X117604315Y-53647858D01*
X117609299Y-53578166D01*
X117651171Y-53522233D01*
X117716635Y-53497816D01*
X117725481Y-53497500D01*
X122702448Y-53497500D01*
X122702500Y-53497500D01*
X132930588Y-53421937D01*
X132997767Y-53441125D01*
X133043911Y-53493590D01*
X133055500Y-53545933D01*
X133055500Y-53658520D01*
X133085792Y-53771571D01*
X133144311Y-53872930D01*
X133227070Y-53955689D01*
X133328429Y-54014208D01*
X133441480Y-54044500D01*
X133441482Y-54044500D01*
X133558517Y-54044500D01*
X133558520Y-54044500D01*
X133671571Y-54014208D01*
X133772930Y-53955689D01*
X133855689Y-53872930D01*
X133914208Y-53771571D01*
X133944500Y-53658520D01*
X133944500Y-53541480D01*
X133944500Y-53537533D01*
X133964185Y-53470494D01*
X134016989Y-53424739D01*
X134067577Y-53413537D01*
X135847017Y-53400391D01*
X135914199Y-53419580D01*
G37*
%TD.AperFunction*%
%TD*%
%TA.AperFunction,Conductor*%
%TO.N,+5V*%
G36*
X152643039Y-67219685D02*
G01*
X152688794Y-67272489D01*
X152700000Y-67324000D01*
X152700000Y-92923638D01*
X152680315Y-92990677D01*
X152663681Y-93011319D01*
X149261319Y-96413681D01*
X149199996Y-96447166D01*
X149173638Y-96450000D01*
X144760704Y-96450000D01*
X144693665Y-96430315D01*
X144647910Y-96377511D01*
X144636711Y-96327348D01*
X144625141Y-95262961D01*
X144596218Y-92602045D01*
X148105500Y-92602045D01*
X148105500Y-92797954D01*
X148143716Y-92990077D01*
X148143719Y-92990089D01*
X148218683Y-93171070D01*
X148218685Y-93171073D01*
X148327517Y-93333952D01*
X148327523Y-93333960D01*
X148466039Y-93472476D01*
X148466047Y-93472482D01*
X148628926Y-93581314D01*
X148628929Y-93581316D01*
X148809910Y-93656280D01*
X148809915Y-93656282D01*
X149002045Y-93694499D01*
X149002048Y-93694500D01*
X149002050Y-93694500D01*
X149197952Y-93694500D01*
X149197953Y-93694499D01*
X149390085Y-93656282D01*
X149571072Y-93581315D01*
X149733957Y-93472479D01*
X149872479Y-93333957D01*
X149981315Y-93171072D01*
X150056282Y-92990085D01*
X150094500Y-92797950D01*
X150094500Y-92602050D01*
X150094500Y-92602047D01*
X150094499Y-92602045D01*
X150056283Y-92409922D01*
X150056282Y-92409915D01*
X150056280Y-92409910D01*
X149981316Y-92228929D01*
X149981314Y-92228926D01*
X149872482Y-92066047D01*
X149872476Y-92066039D01*
X149733960Y-91927523D01*
X149733952Y-91927517D01*
X149571073Y-91818685D01*
X149571070Y-91818683D01*
X149390089Y-91743719D01*
X149390077Y-91743716D01*
X149197953Y-91705500D01*
X149197950Y-91705500D01*
X149002050Y-91705500D01*
X149002047Y-91705500D01*
X148809922Y-91743716D01*
X148809910Y-91743719D01*
X148628929Y-91818683D01*
X148628926Y-91818685D01*
X148466047Y-91927517D01*
X148466039Y-91927523D01*
X148327523Y-92066039D01*
X148327517Y-92066047D01*
X148218685Y-92228926D01*
X148218683Y-92228929D01*
X148143719Y-92409910D01*
X148143716Y-92409922D01*
X148105500Y-92602045D01*
X144596218Y-92602045D01*
X144574419Y-90596559D01*
X143233482Y-89252177D01*
X143233481Y-89252176D01*
X143233482Y-89252176D01*
X139472334Y-89201643D01*
X139405565Y-89181059D01*
X139360524Y-89127645D01*
X139350000Y-89077654D01*
X139350000Y-86602045D01*
X148105500Y-86602045D01*
X148105500Y-86797954D01*
X148143716Y-86990077D01*
X148143719Y-86990089D01*
X148218683Y-87171070D01*
X148218685Y-87171073D01*
X148327517Y-87333952D01*
X148327523Y-87333960D01*
X148466039Y-87472476D01*
X148466047Y-87472482D01*
X148628926Y-87581314D01*
X148628929Y-87581316D01*
X148809910Y-87656280D01*
X148809915Y-87656282D01*
X149002045Y-87694499D01*
X149002048Y-87694500D01*
X149002050Y-87694500D01*
X149197952Y-87694500D01*
X149197953Y-87694499D01*
X149390085Y-87656282D01*
X149571072Y-87581315D01*
X149733957Y-87472479D01*
X149872479Y-87333957D01*
X149981315Y-87171072D01*
X150056282Y-86990085D01*
X150094500Y-86797950D01*
X150094500Y-86602050D01*
X150094500Y-86602047D01*
X150094499Y-86602045D01*
X150056283Y-86409922D01*
X150056282Y-86409915D01*
X150056280Y-86409910D01*
X149981316Y-86228929D01*
X149981314Y-86228926D01*
X149872482Y-86066047D01*
X149872476Y-86066039D01*
X149733960Y-85927523D01*
X149733952Y-85927517D01*
X149571073Y-85818685D01*
X149571070Y-85818683D01*
X149390089Y-85743719D01*
X149390077Y-85743716D01*
X149197953Y-85705500D01*
X149197950Y-85705500D01*
X149002050Y-85705500D01*
X149002047Y-85705500D01*
X148809922Y-85743716D01*
X148809910Y-85743719D01*
X148628929Y-85818683D01*
X148628926Y-85818685D01*
X148466047Y-85927517D01*
X148466039Y-85927523D01*
X148327523Y-86066039D01*
X148327517Y-86066047D01*
X148218685Y-86228926D01*
X148218683Y-86228929D01*
X148143719Y-86409910D01*
X148143716Y-86409922D01*
X148105500Y-86602045D01*
X139350000Y-86602045D01*
X139350000Y-85621480D01*
X146165500Y-85621480D01*
X146165500Y-85738520D01*
X146195792Y-85851571D01*
X146254311Y-85952930D01*
X146337070Y-86035689D01*
X146438429Y-86094208D01*
X146551480Y-86124500D01*
X146551482Y-86124500D01*
X146668517Y-86124500D01*
X146668520Y-86124500D01*
X146781571Y-86094208D01*
X146882930Y-86035689D01*
X146965689Y-85952930D01*
X147024208Y-85851571D01*
X147054500Y-85738520D01*
X147054500Y-85621480D01*
X147024208Y-85508429D01*
X146965689Y-85407070D01*
X146882930Y-85324311D01*
X146781571Y-85265792D01*
X146668520Y-85235500D01*
X146551480Y-85235500D01*
X146476112Y-85255694D01*
X146438428Y-85265792D01*
X146337071Y-85324310D01*
X146337068Y-85324312D01*
X146254312Y-85407068D01*
X146254310Y-85407071D01*
X146195792Y-85508428D01*
X146195792Y-85508429D01*
X146165500Y-85621480D01*
X139350000Y-85621480D01*
X139350000Y-83396350D01*
X142401500Y-83396350D01*
X142401500Y-83553649D01*
X142432183Y-83707906D01*
X142432186Y-83707915D01*
X142492378Y-83853232D01*
X142492379Y-83853235D01*
X142579763Y-83984013D01*
X142579766Y-83984017D01*
X142690982Y-84095233D01*
X142690986Y-84095236D01*
X142821764Y-84182620D01*
X142821766Y-84182620D01*
X142821768Y-84182622D01*
X142967086Y-84242814D01*
X142967088Y-84242814D01*
X142967093Y-84242816D01*
X143121350Y-84273499D01*
X143121353Y-84273500D01*
X143121355Y-84273500D01*
X143278647Y-84273500D01*
X143278648Y-84273499D01*
X143330068Y-84263271D01*
X143432906Y-84242816D01*
X143432909Y-84242814D01*
X143432914Y-84242814D01*
X143578232Y-84182622D01*
X143709014Y-84095236D01*
X143820236Y-83984014D01*
X143907622Y-83853232D01*
X143967814Y-83707914D01*
X143998500Y-83553645D01*
X143998500Y-83396355D01*
X143998500Y-83396352D01*
X143998499Y-83396350D01*
X143967816Y-83242093D01*
X143967813Y-83242084D01*
X143907622Y-83096768D01*
X143907620Y-83096766D01*
X143907620Y-83096764D01*
X143820236Y-82965986D01*
X143820233Y-82965982D01*
X143709017Y-82854766D01*
X143709013Y-82854763D01*
X143578235Y-82767379D01*
X143578232Y-82767378D01*
X143432915Y-82707186D01*
X143432906Y-82707183D01*
X143278648Y-82676500D01*
X143278645Y-82676500D01*
X143121355Y-82676500D01*
X143121352Y-82676500D01*
X142967093Y-82707183D01*
X142967084Y-82707186D01*
X142821767Y-82767378D01*
X142821764Y-82767379D01*
X142690986Y-82854763D01*
X142690982Y-82854766D01*
X142579766Y-82965982D01*
X142579763Y-82965986D01*
X142492379Y-83096764D01*
X142492378Y-83096767D01*
X142432186Y-83242084D01*
X142432183Y-83242093D01*
X142401500Y-83396350D01*
X139350000Y-83396350D01*
X139350000Y-80602045D01*
X148105500Y-80602045D01*
X148105500Y-80797954D01*
X148143716Y-80990077D01*
X148143719Y-80990089D01*
X148218683Y-81171070D01*
X148218685Y-81171073D01*
X148327517Y-81333952D01*
X148327523Y-81333960D01*
X148466039Y-81472476D01*
X148466047Y-81472482D01*
X148628926Y-81581314D01*
X148628929Y-81581316D01*
X148809910Y-81656280D01*
X148809915Y-81656282D01*
X149002045Y-81694499D01*
X149002048Y-81694500D01*
X149002050Y-81694500D01*
X149197952Y-81694500D01*
X149197953Y-81694499D01*
X149390085Y-81656282D01*
X149571072Y-81581315D01*
X149733957Y-81472479D01*
X149872479Y-81333957D01*
X149981315Y-81171072D01*
X150056282Y-80990085D01*
X150094500Y-80797950D01*
X150094500Y-80602050D01*
X150094500Y-80602047D01*
X150094499Y-80602045D01*
X150056283Y-80409922D01*
X150056282Y-80409915D01*
X150056280Y-80409910D01*
X149981316Y-80228929D01*
X149981314Y-80228926D01*
X149872482Y-80066047D01*
X149872476Y-80066039D01*
X149733960Y-79927523D01*
X149733952Y-79927517D01*
X149571073Y-79818685D01*
X149571070Y-79818683D01*
X149390089Y-79743719D01*
X149390077Y-79743716D01*
X149197953Y-79705500D01*
X149197950Y-79705500D01*
X149002050Y-79705500D01*
X149002047Y-79705500D01*
X148809922Y-79743716D01*
X148809910Y-79743719D01*
X148628929Y-79818683D01*
X148628926Y-79818685D01*
X148466047Y-79927517D01*
X148466039Y-79927523D01*
X148327523Y-80066039D01*
X148327517Y-80066047D01*
X148218685Y-80228926D01*
X148218683Y-80228929D01*
X148143719Y-80409910D01*
X148143716Y-80409922D01*
X148105500Y-80602045D01*
X139350000Y-80602045D01*
X139350000Y-78401480D01*
X145705500Y-78401480D01*
X145705500Y-78518520D01*
X145735792Y-78631571D01*
X145794311Y-78732930D01*
X145877070Y-78815689D01*
X145978429Y-78874208D01*
X146091480Y-78904500D01*
X146091482Y-78904500D01*
X146208517Y-78904500D01*
X146208520Y-78904500D01*
X146321571Y-78874208D01*
X146422930Y-78815689D01*
X146505689Y-78732930D01*
X146564208Y-78631571D01*
X146594500Y-78518520D01*
X146594500Y-78401480D01*
X146564208Y-78288429D01*
X146505689Y-78187070D01*
X146422930Y-78104311D01*
X146321571Y-78045792D01*
X146208520Y-78015500D01*
X146091480Y-78015500D01*
X146016112Y-78035694D01*
X145978428Y-78045792D01*
X145877071Y-78104310D01*
X145877068Y-78104312D01*
X145794312Y-78187068D01*
X145794310Y-78187071D01*
X145735792Y-78288428D01*
X145735792Y-78288429D01*
X145705500Y-78401480D01*
X139350000Y-78401480D01*
X139350000Y-75221350D01*
X142851500Y-75221350D01*
X142851500Y-75378649D01*
X142882183Y-75532906D01*
X142882186Y-75532915D01*
X142942378Y-75678232D01*
X142942379Y-75678235D01*
X143029763Y-75809013D01*
X143029766Y-75809017D01*
X143140982Y-75920233D01*
X143140986Y-75920236D01*
X143271764Y-76007620D01*
X143271766Y-76007620D01*
X143271768Y-76007622D01*
X143417086Y-76067814D01*
X143417088Y-76067814D01*
X143417093Y-76067816D01*
X143571350Y-76098499D01*
X143571353Y-76098500D01*
X143571355Y-76098500D01*
X143728647Y-76098500D01*
X143728648Y-76098499D01*
X143780068Y-76088271D01*
X143882906Y-76067816D01*
X143882909Y-76067814D01*
X143882914Y-76067814D01*
X144028232Y-76007622D01*
X144159014Y-75920236D01*
X144270236Y-75809014D01*
X144357622Y-75678232D01*
X144417814Y-75532914D01*
X144448500Y-75378645D01*
X144448500Y-75221355D01*
X144448500Y-75221352D01*
X144448499Y-75221350D01*
X144417816Y-75067093D01*
X144417813Y-75067084D01*
X144385921Y-74990089D01*
X144357622Y-74921768D01*
X144357620Y-74921766D01*
X144357620Y-74921764D01*
X144270236Y-74790986D01*
X144270233Y-74790982D01*
X144159017Y-74679766D01*
X144159013Y-74679763D01*
X144042701Y-74602045D01*
X148105500Y-74602045D01*
X148105500Y-74797954D01*
X148143716Y-74990077D01*
X148143719Y-74990089D01*
X148218683Y-75171070D01*
X148218685Y-75171073D01*
X148327517Y-75333952D01*
X148327523Y-75333960D01*
X148466039Y-75472476D01*
X148466047Y-75472482D01*
X148628926Y-75581314D01*
X148628929Y-75581316D01*
X148809910Y-75656280D01*
X148809915Y-75656282D01*
X149002045Y-75694499D01*
X149002048Y-75694500D01*
X149002050Y-75694500D01*
X149197952Y-75694500D01*
X149197953Y-75694499D01*
X149390085Y-75656282D01*
X149571072Y-75581315D01*
X149733957Y-75472479D01*
X149872479Y-75333957D01*
X149981315Y-75171072D01*
X150056282Y-74990085D01*
X150094500Y-74797950D01*
X150094500Y-74602050D01*
X150094500Y-74602047D01*
X150094499Y-74602045D01*
X150080603Y-74532186D01*
X150056282Y-74409915D01*
X150056280Y-74409910D01*
X149981316Y-74228929D01*
X149981314Y-74228926D01*
X149872482Y-74066047D01*
X149872476Y-74066039D01*
X149733960Y-73927523D01*
X149733952Y-73927517D01*
X149571073Y-73818685D01*
X149571070Y-73818683D01*
X149390089Y-73743719D01*
X149390077Y-73743716D01*
X149197953Y-73705500D01*
X149197950Y-73705500D01*
X149002050Y-73705500D01*
X149002047Y-73705500D01*
X148809922Y-73743716D01*
X148809910Y-73743719D01*
X148628929Y-73818683D01*
X148628926Y-73818685D01*
X148466047Y-73927517D01*
X148466039Y-73927523D01*
X148327523Y-74066039D01*
X148327517Y-74066047D01*
X148218685Y-74228926D01*
X148218683Y-74228929D01*
X148143719Y-74409910D01*
X148143716Y-74409922D01*
X148105500Y-74602045D01*
X144042701Y-74602045D01*
X144028235Y-74592379D01*
X144028232Y-74592378D01*
X143882915Y-74532186D01*
X143882906Y-74532183D01*
X143728648Y-74501500D01*
X143728645Y-74501500D01*
X143571355Y-74501500D01*
X143571352Y-74501500D01*
X143417093Y-74532183D01*
X143417084Y-74532186D01*
X143271767Y-74592378D01*
X143271764Y-74592379D01*
X143140986Y-74679763D01*
X143140982Y-74679766D01*
X143029766Y-74790982D01*
X143029763Y-74790986D01*
X142942379Y-74921764D01*
X142942378Y-74921767D01*
X142882186Y-75067084D01*
X142882183Y-75067093D01*
X142851500Y-75221350D01*
X139350000Y-75221350D01*
X139350000Y-71438862D01*
X139369685Y-71371823D01*
X139386319Y-71351181D01*
X141251181Y-69486319D01*
X141312504Y-69452834D01*
X141338862Y-69450000D01*
X146217541Y-69450000D01*
X146284580Y-69469685D01*
X146330335Y-69522489D01*
X146340279Y-69591647D01*
X146324929Y-69635999D01*
X146265792Y-69738428D01*
X146265792Y-69738429D01*
X146235500Y-69851480D01*
X146235500Y-69968520D01*
X146265792Y-70081571D01*
X146324311Y-70182930D01*
X146407070Y-70265689D01*
X146508429Y-70324208D01*
X146621480Y-70354500D01*
X146621482Y-70354500D01*
X146738517Y-70354500D01*
X146738520Y-70354500D01*
X146851571Y-70324208D01*
X146952930Y-70265689D01*
X147035689Y-70182930D01*
X147094208Y-70081571D01*
X147124500Y-69968520D01*
X147124500Y-69851480D01*
X147094208Y-69738429D01*
X147035689Y-69637070D01*
X147035688Y-69637069D01*
X147031625Y-69630031D01*
X147034720Y-69628243D01*
X147015355Y-69578477D01*
X147029243Y-69510002D01*
X147077946Y-69459905D01*
X147094479Y-69452118D01*
X147099997Y-69450000D01*
X147100000Y-69450000D01*
X147900796Y-68729283D01*
X147963792Y-68699069D01*
X148033125Y-68707709D01*
X148086780Y-68752463D01*
X148105362Y-68797261D01*
X148143716Y-68990079D01*
X148143719Y-68990089D01*
X148218683Y-69171070D01*
X148218685Y-69171073D01*
X148327517Y-69333952D01*
X148327523Y-69333960D01*
X148466039Y-69472476D01*
X148466047Y-69472482D01*
X148628926Y-69581314D01*
X148628929Y-69581316D01*
X148809910Y-69656280D01*
X148809915Y-69656282D01*
X149002045Y-69694499D01*
X149002048Y-69694500D01*
X149002050Y-69694500D01*
X149197952Y-69694500D01*
X149197953Y-69694499D01*
X149390085Y-69656282D01*
X149571072Y-69581315D01*
X149733957Y-69472479D01*
X149872479Y-69333957D01*
X149981315Y-69171072D01*
X150056282Y-68990085D01*
X150094500Y-68797950D01*
X150094500Y-68602050D01*
X150094500Y-68602047D01*
X150094499Y-68602045D01*
X150056283Y-68409922D01*
X150056282Y-68409915D01*
X150056280Y-68409910D01*
X149981316Y-68228929D01*
X149981314Y-68228926D01*
X149872482Y-68066047D01*
X149872476Y-68066039D01*
X149733960Y-67927523D01*
X149733952Y-67927517D01*
X149571073Y-67818685D01*
X149571070Y-67818683D01*
X149390089Y-67743719D01*
X149390077Y-67743716D01*
X149309892Y-67727766D01*
X149247981Y-67695381D01*
X149213407Y-67634665D01*
X149217146Y-67564896D01*
X149251129Y-67513983D01*
X149564632Y-67231830D01*
X149627630Y-67201616D01*
X149647583Y-67200000D01*
X152576000Y-67200000D01*
X152643039Y-67219685D01*
G37*
%TD.AperFunction*%
%TD*%
%TA.AperFunction,Conductor*%
%TO.N,+5V*%
G36*
X126995127Y-79319685D02*
G01*
X127040882Y-79372489D01*
X127052085Y-79424795D01*
X127000790Y-87426795D01*
X126980677Y-87493707D01*
X126927580Y-87539122D01*
X126876793Y-87550000D01*
X124980894Y-87550000D01*
X124913855Y-87530315D01*
X124868100Y-87477511D01*
X124856897Y-87425205D01*
X124908192Y-79423205D01*
X124928305Y-79356293D01*
X124981402Y-79310878D01*
X125032189Y-79300000D01*
X126928088Y-79300000D01*
X126995127Y-79319685D01*
G37*
%TD.AperFunction*%
%TD*%
%TA.AperFunction,Conductor*%
%TO.N,GND*%
G36*
X117330339Y-65160860D02*
G01*
X117332301Y-65160750D01*
X117368503Y-65177222D01*
X117405077Y-65192903D01*
X117406886Y-65194687D01*
X117408105Y-65195242D01*
X117437641Y-65225022D01*
X117450302Y-65241320D01*
X117456490Y-65245782D01*
X117475531Y-65261694D01*
X117491141Y-65276756D01*
X117491143Y-65276757D01*
X117510364Y-65286812D01*
X117510366Y-65286813D01*
X117521391Y-65292580D01*
X117531164Y-65299627D01*
X117539400Y-65303388D01*
X117539911Y-65302268D01*
X117578440Y-65322423D01*
X117579474Y-65322964D01*
X117583286Y-65324502D01*
X117591136Y-65327222D01*
X117594553Y-65328593D01*
X117635613Y-65343076D01*
X117637683Y-65343806D01*
X117656813Y-65344829D01*
X117672279Y-65346352D01*
X117718500Y-65353000D01*
X118660844Y-65353000D01*
X118741706Y-65372931D01*
X118783881Y-65403963D01*
X126155035Y-72775116D01*
X127477378Y-74097459D01*
X127520462Y-74168730D01*
X127528341Y-74220423D01*
X127530392Y-79080669D01*
X127510495Y-79161539D01*
X127455296Y-79223899D01*
X127377438Y-79253464D01*
X127294759Y-79243461D01*
X127226200Y-79196180D01*
X127224892Y-79194688D01*
X127188224Y-79152371D01*
X127188221Y-79152368D01*
X127155446Y-79120742D01*
X127067116Y-79074537D01*
X127067114Y-79074536D01*
X127067113Y-79074535D01*
X127067112Y-79074535D01*
X127000073Y-79054850D01*
X127000068Y-79054849D01*
X127000067Y-79054849D01*
X126982684Y-79052349D01*
X126928088Y-79044500D01*
X125032189Y-79044500D01*
X125032182Y-79044500D01*
X124978693Y-79050164D01*
X124978667Y-79050169D01*
X124927906Y-79061041D01*
X124927898Y-79061043D01*
X124927892Y-79061044D01*
X124927890Y-79061045D01*
X124902274Y-79067940D01*
X124815328Y-79116713D01*
X124815327Y-79116714D01*
X124762232Y-79162128D01*
X124762220Y-79162139D01*
X124730393Y-79194703D01*
X124730391Y-79194706D01*
X124683621Y-79282740D01*
X124683616Y-79282753D01*
X124663509Y-79349643D01*
X124663507Y-79349652D01*
X124652697Y-79421566D01*
X124652696Y-79421578D01*
X124601401Y-87423543D01*
X124601403Y-87423578D01*
X124607063Y-87478718D01*
X124607064Y-87478723D01*
X124618262Y-87531011D01*
X124625674Y-87558197D01*
X124675006Y-87644828D01*
X124675011Y-87644834D01*
X124720757Y-87697628D01*
X124720760Y-87697631D01*
X124720761Y-87697632D01*
X124753535Y-87729257D01*
X124841870Y-87775465D01*
X124908909Y-87795150D01*
X124980894Y-87805500D01*
X124980897Y-87805500D01*
X126555816Y-87805500D01*
X126636678Y-87825431D01*
X126699015Y-87880657D01*
X126728547Y-87958527D01*
X126718509Y-88041201D01*
X126679198Y-88102190D01*
X126271958Y-88511728D01*
X126200809Y-88555013D01*
X126149482Y-88563036D01*
X111412906Y-88639754D01*
X111331941Y-88620244D01*
X111269317Y-88565343D01*
X111239380Y-88487628D01*
X111238000Y-88465756D01*
X111238000Y-82928871D01*
X111237799Y-82925116D01*
X111236536Y-82901548D01*
X111233702Y-82875190D01*
X111215454Y-82816913D01*
X111203915Y-82780061D01*
X111203910Y-82780049D01*
X111170428Y-82718732D01*
X111126850Y-82660519D01*
X111126849Y-82660518D01*
X111126847Y-82660515D01*
X110213869Y-81747537D01*
X110170785Y-81676265D01*
X110165756Y-81593136D01*
X110199936Y-81517191D01*
X110265494Y-81465829D01*
X110336906Y-81450500D01*
X112346144Y-81450500D01*
X112435288Y-81426614D01*
X112443862Y-81421663D01*
X112443872Y-81421660D01*
X112443871Y-81421659D01*
X112457864Y-81413579D01*
X112515212Y-81380470D01*
X119594219Y-74301463D01*
X119665490Y-74258379D01*
X119717256Y-74250500D01*
X124400779Y-74250500D01*
X124481641Y-74270431D01*
X124506703Y-74286456D01*
X124511984Y-74290508D01*
X124511985Y-74290509D01*
X124511987Y-74290510D01*
X124637512Y-74362983D01*
X124637514Y-74362983D01*
X124637515Y-74362984D01*
X124777525Y-74400500D01*
X124777527Y-74400500D01*
X124922473Y-74400500D01*
X124922475Y-74400500D01*
X125062485Y-74362984D01*
X125188015Y-74290509D01*
X125290509Y-74188015D01*
X125362984Y-74062485D01*
X125400500Y-73922475D01*
X125400500Y-73777525D01*
X125362984Y-73637515D01*
X125362983Y-73637514D01*
X125362983Y-73637512D01*
X125307619Y-73541621D01*
X125290509Y-73511985D01*
X125188015Y-73409491D01*
X125161484Y-73394173D01*
X125062487Y-73337016D01*
X124922478Y-73299500D01*
X124922475Y-73299500D01*
X124777525Y-73299500D01*
X124777521Y-73299500D01*
X124637512Y-73337016D01*
X124511988Y-73409489D01*
X124511986Y-73409490D01*
X124511985Y-73409490D01*
X124511985Y-73409491D01*
X124422937Y-73498538D01*
X124351669Y-73541621D01*
X124299903Y-73549500D01*
X119453852Y-73549500D01*
X119379103Y-73569530D01*
X119379099Y-73569531D01*
X119364713Y-73573385D01*
X119284789Y-73619529D01*
X112205781Y-80698537D01*
X112134510Y-80741621D01*
X112082744Y-80749500D01*
X103817256Y-80749500D01*
X103736394Y-80729569D01*
X103694220Y-80698537D01*
X103243219Y-80247537D01*
X103200134Y-80176266D01*
X103195105Y-80093136D01*
X103229285Y-80017191D01*
X103294843Y-79965830D01*
X103366255Y-79950500D01*
X108546144Y-79950500D01*
X108635288Y-79926614D01*
X108649484Y-79918418D01*
X108649486Y-79918417D01*
X108670700Y-79906168D01*
X108715212Y-79880470D01*
X115270470Y-73325212D01*
X115316614Y-73245288D01*
X115324818Y-73214669D01*
X115340500Y-73156144D01*
X115340500Y-68630097D01*
X115360431Y-68549235D01*
X115391460Y-68507063D01*
X115430509Y-68468015D01*
X115502984Y-68342485D01*
X115540500Y-68202475D01*
X115540500Y-68057525D01*
X115502984Y-67917515D01*
X115502983Y-67917514D01*
X115502983Y-67917512D01*
X115462760Y-67847845D01*
X115430509Y-67791985D01*
X115328015Y-67689491D01*
X115301484Y-67674173D01*
X115202487Y-67617016D01*
X115062478Y-67579500D01*
X115062475Y-67579500D01*
X114917525Y-67579500D01*
X114917521Y-67579500D01*
X114777512Y-67617016D01*
X114651988Y-67689489D01*
X114651986Y-67689490D01*
X114549490Y-67791986D01*
X114549489Y-67791988D01*
X114477016Y-67917512D01*
X114439500Y-68057521D01*
X114439500Y-68202478D01*
X114477016Y-68342487D01*
X114534173Y-68441484D01*
X114549491Y-68468015D01*
X114588538Y-68507062D01*
X114631621Y-68578331D01*
X114639500Y-68630097D01*
X114639500Y-72892744D01*
X114619569Y-72973606D01*
X114588537Y-73015781D01*
X108405781Y-79198537D01*
X108334510Y-79241621D01*
X108282744Y-79249500D01*
X103217256Y-79249500D01*
X103136394Y-79229569D01*
X103094219Y-79198537D01*
X102701463Y-78805781D01*
X102658379Y-78734510D01*
X102650500Y-78682744D01*
X102650500Y-78627526D01*
X102650499Y-78627521D01*
X102612983Y-78487512D01*
X102554979Y-78387048D01*
X102540509Y-78361985D01*
X102438015Y-78259491D01*
X102438012Y-78259489D01*
X102429950Y-78251427D01*
X102432398Y-78248978D01*
X102393223Y-78199986D01*
X102377398Y-78118221D01*
X102401383Y-78038468D01*
X102459684Y-77978996D01*
X102538944Y-77953430D01*
X102551176Y-77953000D01*
X108371500Y-77953000D01*
X108425813Y-77947161D01*
X108477306Y-77935959D01*
X108477307Y-77935958D01*
X108477324Y-77935955D01*
X108503698Y-77928719D01*
X108590328Y-77879388D01*
X108643132Y-77833633D01*
X108674757Y-77800859D01*
X108720965Y-77712524D01*
X108740650Y-77645485D01*
X108751000Y-77573500D01*
X108751000Y-77538021D01*
X108751303Y-77535717D01*
X108751035Y-77534527D01*
X108756925Y-77493000D01*
X108757949Y-77489176D01*
X108775318Y-77447233D01*
X108777294Y-77443809D01*
X108797277Y-77417767D01*
X108798124Y-77416230D01*
X108798799Y-77415783D01*
X108804970Y-77407740D01*
X108807778Y-77404932D01*
X108843753Y-77377328D01*
X108847189Y-77375344D01*
X108849384Y-77374435D01*
X108850306Y-77373586D01*
X108889213Y-77357940D01*
X108893041Y-77356914D01*
X108938023Y-77351000D01*
X108941976Y-77351000D01*
X108974619Y-77355296D01*
X108976304Y-77355263D01*
X108976996Y-77355609D01*
X108986997Y-77356925D01*
X108990820Y-77357949D01*
X109032788Y-77375332D01*
X109036240Y-77377325D01*
X109068756Y-77396097D01*
X109087918Y-77404847D01*
X109112933Y-77416272D01*
X109112936Y-77416273D01*
X109157287Y-77431623D01*
X109177668Y-77437739D01*
X109277217Y-77443074D01*
X109346375Y-77433130D01*
X109390698Y-77422656D01*
X109477328Y-77373325D01*
X109530132Y-77327570D01*
X109561757Y-77294796D01*
X109607965Y-77206461D01*
X109627650Y-77139422D01*
X109638000Y-77067437D01*
X109638000Y-75921500D01*
X109632161Y-75867187D01*
X109623087Y-75825475D01*
X109620959Y-75815693D01*
X109620957Y-75815689D01*
X109620955Y-75815676D01*
X109613719Y-75789302D01*
X109580691Y-75731301D01*
X109564390Y-75702675D01*
X109564382Y-75702665D01*
X109518636Y-75649871D01*
X109518633Y-75649868D01*
X109485858Y-75618242D01*
X109397528Y-75572037D01*
X109397526Y-75572036D01*
X109397525Y-75572035D01*
X109397524Y-75572035D01*
X109330485Y-75552350D01*
X109330480Y-75552349D01*
X109330479Y-75552349D01*
X109313096Y-75549849D01*
X109258500Y-75542000D01*
X109258497Y-75542000D01*
X108973756Y-75542000D01*
X108892894Y-75522069D01*
X108830557Y-75466843D01*
X108801025Y-75388973D01*
X108811063Y-75306299D01*
X108850719Y-75244963D01*
X109446921Y-74648761D01*
X111320469Y-72775212D01*
X111366614Y-72695288D01*
X111379080Y-72648763D01*
X111390500Y-72606144D01*
X111390500Y-72279324D01*
X111410431Y-72198462D01*
X111465657Y-72136125D01*
X111507034Y-72115088D01*
X111527882Y-72107793D01*
X111637150Y-72027150D01*
X111717793Y-71917882D01*
X111762646Y-71789699D01*
X111765500Y-71759266D01*
X111765500Y-71250734D01*
X111762646Y-71220301D01*
X111717793Y-71092118D01*
X111717791Y-71092116D01*
X111713486Y-71079811D01*
X111715773Y-71079010D01*
X111700001Y-71015793D01*
X111700000Y-71015299D01*
X111700000Y-70344701D01*
X111715709Y-70280967D01*
X111713486Y-70280190D01*
X111722104Y-70255562D01*
X111762646Y-70139699D01*
X111765500Y-70109266D01*
X111765500Y-69600734D01*
X111762646Y-69570301D01*
X111717793Y-69442118D01*
X111717560Y-69441802D01*
X111637154Y-69332855D01*
X111637152Y-69332853D01*
X111637150Y-69332850D01*
X111544186Y-69264240D01*
X111490963Y-69200189D01*
X111473600Y-69118737D01*
X111496079Y-69038547D01*
X111524472Y-69001209D01*
X113994219Y-66531463D01*
X114065491Y-66488379D01*
X114117256Y-66480500D01*
X114172473Y-66480500D01*
X114172475Y-66480500D01*
X114312485Y-66442984D01*
X114438015Y-66370509D01*
X114540509Y-66268015D01*
X114612984Y-66142485D01*
X114650500Y-66002475D01*
X114650500Y-65857525D01*
X114612984Y-65717515D01*
X114612983Y-65717514D01*
X114612983Y-65717512D01*
X114553220Y-65614001D01*
X114530049Y-65534007D01*
X114546707Y-65452408D01*
X114599378Y-65387897D01*
X114675996Y-65355253D01*
X114703908Y-65353000D01*
X116881500Y-65353000D01*
X116935813Y-65347161D01*
X116987306Y-65335959D01*
X116987307Y-65335958D01*
X116987324Y-65335955D01*
X117013698Y-65328719D01*
X117100328Y-65279388D01*
X117153132Y-65233633D01*
X117175021Y-65210948D01*
X117176680Y-65209904D01*
X117177704Y-65208227D01*
X117211824Y-65187791D01*
X117245506Y-65166599D01*
X117247465Y-65166445D01*
X117249151Y-65165436D01*
X117288858Y-65163198D01*
X117328533Y-65160086D01*
X117330339Y-65160860D01*
G37*
%TD.AperFunction*%
%TA.AperFunction,Conductor*%
G36*
X107818907Y-81452633D02*
G01*
X107827733Y-81451380D01*
X107858945Y-81462501D01*
X107891116Y-81470431D01*
X107897787Y-81476341D01*
X107906183Y-81479333D01*
X107928652Y-81503685D01*
X107953453Y-81525657D01*
X107957028Y-81534440D01*
X107962658Y-81540541D01*
X107978322Y-81579454D01*
X107980413Y-81587258D01*
X107989241Y-81638960D01*
X108011558Y-81708175D01*
X108014356Y-81713900D01*
X108018067Y-81727743D01*
X108023999Y-81772789D01*
X108023999Y-82199999D01*
X108004068Y-82280861D01*
X107948842Y-82343198D01*
X107870972Y-82372730D01*
X107849999Y-82373999D01*
X107817637Y-82373999D01*
X107790323Y-82375463D01*
X107790320Y-82375463D01*
X107763964Y-82378297D01*
X107668836Y-82408083D01*
X107668828Y-82408087D01*
X107607052Y-82441819D01*
X107587233Y-82447051D01*
X107569315Y-82457007D01*
X107547562Y-82457524D01*
X107526529Y-82463078D01*
X107506549Y-82458501D01*
X107486057Y-82458989D01*
X107466557Y-82449340D01*
X107445350Y-82444482D01*
X107429785Y-82431143D01*
X107411414Y-82422053D01*
X107398631Y-82404446D01*
X107382112Y-82390290D01*
X107374346Y-82370996D01*
X107362486Y-82354659D01*
X107351481Y-82314182D01*
X107347817Y-82289027D01*
X107346000Y-82263947D01*
X107346000Y-81772791D01*
X107358203Y-81708777D01*
X107373081Y-81671171D01*
X107373086Y-81671159D01*
X107384423Y-81634346D01*
X107387804Y-81622332D01*
X107388186Y-81615189D01*
X107412414Y-81535512D01*
X107470896Y-81476218D01*
X107550234Y-81450894D01*
X107561937Y-81450500D01*
X107810254Y-81450500D01*
X107818907Y-81452633D01*
G37*
%TD.AperFunction*%
%TA.AperFunction,Conductor*%
G36*
X112932594Y-64715336D02*
G01*
X112936304Y-64715263D01*
X112940204Y-64717212D01*
X112995862Y-64730931D01*
X113058199Y-64786157D01*
X113087731Y-64864027D01*
X113089000Y-64885000D01*
X113089000Y-64953123D01*
X113086932Y-64961510D01*
X113102125Y-65062876D01*
X113112378Y-65105697D01*
X113161710Y-65192328D01*
X113161715Y-65192334D01*
X113207461Y-65245128D01*
X113207464Y-65245131D01*
X113207465Y-65245132D01*
X113240239Y-65276757D01*
X113328574Y-65322965D01*
X113395613Y-65342650D01*
X113467598Y-65353000D01*
X113467601Y-65353000D01*
X113496092Y-65353000D01*
X113576954Y-65372931D01*
X113639291Y-65428157D01*
X113668823Y-65506027D01*
X113658785Y-65588701D01*
X113646780Y-65614001D01*
X113587016Y-65717512D01*
X113549500Y-65857521D01*
X113549500Y-65912744D01*
X113529569Y-65993606D01*
X113498537Y-66035781D01*
X110759529Y-68774789D01*
X110759528Y-68774791D01*
X110721585Y-68840510D01*
X110713387Y-68854708D01*
X110713387Y-68854709D01*
X110713386Y-68854711D01*
X110713386Y-68854712D01*
X110708528Y-68872842D01*
X110689500Y-68943856D01*
X110689500Y-69080675D01*
X110669569Y-69161537D01*
X110614343Y-69223874D01*
X110572971Y-69244910D01*
X110552118Y-69252206D01*
X110552115Y-69252208D01*
X110442855Y-69332845D01*
X110442845Y-69332855D01*
X110362208Y-69442115D01*
X110362208Y-69442116D01*
X110317354Y-69570299D01*
X110314500Y-69600735D01*
X110314500Y-70093427D01*
X110300000Y-70152254D01*
X110300000Y-71303854D01*
X110306621Y-71314807D01*
X110314500Y-71366573D01*
X110314500Y-71759264D01*
X110317354Y-71789700D01*
X110326691Y-71816383D01*
X110362207Y-71917882D01*
X110362208Y-71917883D01*
X110362208Y-71917884D01*
X110442845Y-72027144D01*
X110442847Y-72027146D01*
X110442850Y-72027150D01*
X110442853Y-72027152D01*
X110442855Y-72027154D01*
X110552115Y-72107791D01*
X110552118Y-72107793D01*
X110552121Y-72107794D01*
X110572966Y-72115088D01*
X110574902Y-72116351D01*
X110577201Y-72116631D01*
X110609682Y-72139051D01*
X110642708Y-72160606D01*
X110643835Y-72162625D01*
X110645741Y-72163941D01*
X110664077Y-72198877D01*
X110683309Y-72233321D01*
X110683707Y-72236278D01*
X110684444Y-72237683D01*
X110689500Y-72279324D01*
X110689500Y-72342744D01*
X110669569Y-72423606D01*
X110638537Y-72465781D01*
X108185781Y-74918537D01*
X108114510Y-74961621D01*
X108062744Y-74969500D01*
X107780097Y-74969500D01*
X107699235Y-74949569D01*
X107657063Y-74918539D01*
X107628015Y-74889491D01*
X107592009Y-74868703D01*
X107502487Y-74817016D01*
X107362478Y-74779500D01*
X107362475Y-74779500D01*
X107217525Y-74779500D01*
X107217521Y-74779500D01*
X107077512Y-74817016D01*
X106951988Y-74889489D01*
X106951986Y-74889490D01*
X106849490Y-74991986D01*
X106849489Y-74991988D01*
X106777016Y-75117512D01*
X106739500Y-75257521D01*
X106739500Y-75405504D01*
X106731421Y-75438280D01*
X106726427Y-75471675D01*
X106721546Y-75478344D01*
X106719569Y-75486366D01*
X106697182Y-75511634D01*
X106677242Y-75538882D01*
X106668171Y-75544381D01*
X106664343Y-75548703D01*
X106642076Y-75561748D01*
X106632129Y-75566622D01*
X106629531Y-75567319D01*
X106567913Y-75592842D01*
X106507684Y-75627613D01*
X106502365Y-75630221D01*
X106496093Y-75631584D01*
X106470866Y-75642037D01*
X106468043Y-75642794D01*
X106467050Y-75643060D01*
X106421975Y-75649000D01*
X106418025Y-75649000D01*
X106372961Y-75643063D01*
X106371351Y-75642631D01*
X106369144Y-75642040D01*
X106327215Y-75624668D01*
X106272097Y-75592847D01*
X106272090Y-75592843D01*
X106272087Y-75592842D01*
X106272078Y-75592838D01*
X106272071Y-75592835D01*
X106210476Y-75567321D01*
X106210466Y-75567317D01*
X106148477Y-75550707D01*
X106148454Y-75550703D01*
X106082355Y-75542001D01*
X106082343Y-75542000D01*
X106082340Y-75542000D01*
X106082333Y-75542000D01*
X106012000Y-75542000D01*
X105931138Y-75522069D01*
X105868801Y-75466843D01*
X105839269Y-75388973D01*
X105838000Y-75368000D01*
X105838000Y-68700405D01*
X105857931Y-68619543D01*
X105888963Y-68577368D01*
X109062368Y-65403963D01*
X109133639Y-65360879D01*
X109185405Y-65353000D01*
X110761657Y-65353000D01*
X110763991Y-65353575D01*
X110766341Y-65353063D01*
X110804306Y-65363512D01*
X110842519Y-65372931D01*
X110844317Y-65374524D01*
X110846637Y-65375163D01*
X110875402Y-65402062D01*
X110904856Y-65428157D01*
X110905708Y-65430404D01*
X110907465Y-65432047D01*
X110920431Y-65469226D01*
X110934388Y-65506027D01*
X110934346Y-65509125D01*
X110934890Y-65510684D01*
X110934217Y-65518673D01*
X110933761Y-65552615D01*
X110932298Y-65562440D01*
X110909500Y-65647525D01*
X110909500Y-65715619D01*
X110907604Y-65728358D01*
X110896542Y-65755314D01*
X110889569Y-65783605D01*
X110879086Y-65797851D01*
X110875987Y-65805405D01*
X110869563Y-65810794D01*
X110858537Y-65825780D01*
X108921406Y-67762910D01*
X108850134Y-67805994D01*
X108767005Y-67811023D01*
X108695046Y-67779874D01*
X108677884Y-67767208D01*
X108677882Y-67767207D01*
X108618696Y-67746497D01*
X108549700Y-67722354D01*
X108534482Y-67720927D01*
X108519266Y-67719500D01*
X107860734Y-67719500D01*
X107850589Y-67720451D01*
X107830299Y-67722354D01*
X107740593Y-67753744D01*
X107702118Y-67767207D01*
X107702117Y-67767207D01*
X107702116Y-67767208D01*
X107702115Y-67767208D01*
X107592855Y-67847845D01*
X107592845Y-67847855D01*
X107512208Y-67957115D01*
X107512208Y-67957116D01*
X107467354Y-68085299D01*
X107464500Y-68115735D01*
X107464500Y-68624264D01*
X107467354Y-68654702D01*
X107490236Y-68720093D01*
X107500000Y-68777561D01*
X107500000Y-69612438D01*
X107490236Y-69669906D01*
X107467354Y-69735297D01*
X107465469Y-69755404D01*
X107464500Y-69765734D01*
X107464500Y-70274266D01*
X107467354Y-70304699D01*
X107512207Y-70432882D01*
X107512208Y-70432883D01*
X107512208Y-70432884D01*
X107600593Y-70552642D01*
X107597355Y-70555031D01*
X107627636Y-70605122D01*
X107632665Y-70688252D01*
X107612203Y-70743888D01*
X107587017Y-70787510D01*
X107587017Y-70787511D01*
X107549500Y-70927521D01*
X107549500Y-71072478D01*
X107587016Y-71212487D01*
X107625996Y-71280000D01*
X107659491Y-71338015D01*
X107761985Y-71440509D01*
X107807091Y-71466551D01*
X107887512Y-71512983D01*
X107887514Y-71512983D01*
X107887515Y-71512984D01*
X108027525Y-71550500D01*
X108027527Y-71550500D01*
X108172473Y-71550500D01*
X108172475Y-71550500D01*
X108312485Y-71512984D01*
X108438015Y-71440509D01*
X108540509Y-71338015D01*
X108612984Y-71212485D01*
X108650500Y-71072475D01*
X108650500Y-70927525D01*
X108617552Y-70804566D01*
X108615876Y-70721302D01*
X108653085Y-70646795D01*
X108682292Y-70619537D01*
X108787150Y-70542150D01*
X108867793Y-70432882D01*
X108912646Y-70304699D01*
X108915500Y-70274266D01*
X108915500Y-69765734D01*
X108912646Y-69735301D01*
X108909762Y-69727061D01*
X108900000Y-69669596D01*
X108900000Y-68823219D01*
X108919931Y-68742357D01*
X108975157Y-68680020D01*
X108986984Y-68672540D01*
X109025212Y-68650470D01*
X111354219Y-66321463D01*
X111425491Y-66278379D01*
X111477256Y-66270500D01*
X111532473Y-66270500D01*
X111532475Y-66270500D01*
X111672485Y-66232984D01*
X111798015Y-66160509D01*
X111900509Y-66058015D01*
X111972984Y-65932485D01*
X112010500Y-65792475D01*
X112010500Y-65647525D01*
X111990271Y-65572033D01*
X111988595Y-65488771D01*
X112025804Y-65414264D01*
X112093377Y-65365583D01*
X112158343Y-65353000D01*
X112332402Y-65353000D01*
X112402921Y-65343076D01*
X112402924Y-65343075D01*
X112402925Y-65343075D01*
X112427705Y-65335959D01*
X112468711Y-65324184D01*
X112509825Y-65308430D01*
X112589276Y-65248216D01*
X112635658Y-65195961D01*
X112662736Y-65159340D01*
X112697021Y-65065730D01*
X112706334Y-65006024D01*
X112706333Y-65006023D01*
X112712023Y-64969551D01*
X112711000Y-64955667D01*
X112711000Y-64898021D01*
X112711303Y-64895717D01*
X112711035Y-64894527D01*
X112716925Y-64853000D01*
X112717949Y-64849176D01*
X112735318Y-64807233D01*
X112737294Y-64803809D01*
X112757277Y-64777767D01*
X112758124Y-64776230D01*
X112758799Y-64775783D01*
X112764970Y-64767740D01*
X112767778Y-64764932D01*
X112803753Y-64737328D01*
X112807189Y-64735344D01*
X112809384Y-64734435D01*
X112810306Y-64733586D01*
X112849213Y-64717940D01*
X112853041Y-64716914D01*
X112898023Y-64711000D01*
X112915000Y-64711000D01*
X112932594Y-64715336D01*
G37*
%TD.AperFunction*%
%TA.AperFunction,Conductor*%
G36*
X97293409Y-72255931D02*
G01*
X97355746Y-72311157D01*
X97368866Y-72333578D01*
X97383727Y-72363976D01*
X97383854Y-72364238D01*
X97385504Y-72366913D01*
X97392436Y-72379253D01*
X97399357Y-72392840D01*
X97407290Y-72407248D01*
X97452075Y-72457107D01*
X97491282Y-72530583D01*
X97491852Y-72613863D01*
X97453655Y-72687869D01*
X97446132Y-72695946D01*
X97434652Y-72707513D01*
X97434649Y-72707517D01*
X97380565Y-72789127D01*
X97374350Y-72805204D01*
X97368872Y-72816411D01*
X97315456Y-72880306D01*
X97238465Y-72912058D01*
X97212548Y-72913999D01*
X96810000Y-72913999D01*
X96729138Y-72894068D01*
X96666801Y-72838842D01*
X96637269Y-72760972D01*
X96636000Y-72739999D01*
X96636000Y-72410000D01*
X96655931Y-72329138D01*
X96711157Y-72266801D01*
X96789027Y-72237269D01*
X96810000Y-72236000D01*
X97212547Y-72236000D01*
X97293409Y-72255931D01*
G37*
%TD.AperFunction*%
%TA.AperFunction,Conductor*%
G36*
X101943690Y-70651670D02*
G01*
X101952902Y-70650948D01*
X101983062Y-70663879D01*
X102014411Y-70673601D01*
X102020954Y-70680126D01*
X102029445Y-70683767D01*
X102050142Y-70709234D01*
X102073381Y-70732410D01*
X102078892Y-70744611D01*
X102081969Y-70748397D01*
X102090649Y-70770637D01*
X102098086Y-70794388D01*
X102098086Y-70794390D01*
X102122336Y-70838801D01*
X102125937Y-70845766D01*
X102146318Y-70887455D01*
X102163999Y-70963877D01*
X102163999Y-71412546D01*
X102158846Y-71433450D01*
X102158745Y-71454982D01*
X102149027Y-71473287D01*
X102144068Y-71493408D01*
X102129791Y-71509522D01*
X102119695Y-71528542D01*
X102099195Y-71544058D01*
X102088842Y-71555745D01*
X102078648Y-71559610D01*
X102066425Y-71568863D01*
X102061826Y-71571111D01*
X102004195Y-71609776D01*
X102004188Y-71609782D01*
X101954340Y-71654138D01*
X101954328Y-71654150D01*
X101925244Y-71684691D01*
X101925240Y-71684696D01*
X101904505Y-71724334D01*
X101849363Y-71786746D01*
X101771534Y-71816383D01*
X101688845Y-71806456D01*
X101620242Y-71759239D01*
X101584277Y-71695673D01*
X101571272Y-71654140D01*
X101557974Y-71611670D01*
X101524489Y-71550347D01*
X101524486Y-71550343D01*
X101524484Y-71550339D01*
X101521126Y-71545113D01*
X101521651Y-71544775D01*
X101510579Y-71526655D01*
X101503680Y-71512543D01*
X101499481Y-71494394D01*
X101497761Y-71491079D01*
X101497780Y-71487040D01*
X101486000Y-71436122D01*
X101486000Y-70994204D01*
X101505931Y-70913342D01*
X101561157Y-70851005D01*
X101610823Y-70827298D01*
X101630238Y-70821577D01*
X101631879Y-70821061D01*
X101638698Y-70818923D01*
X101725328Y-70769592D01*
X101778132Y-70723837D01*
X101799387Y-70701809D01*
X101827163Y-70684333D01*
X101852969Y-70664059D01*
X101862054Y-70662381D01*
X101869876Y-70657460D01*
X101902596Y-70654893D01*
X101934866Y-70648934D01*
X101943690Y-70651670D01*
G37*
%TD.AperFunction*%
%TA.AperFunction,Conductor*%
G36*
X89889589Y-69304342D02*
G01*
X89998757Y-69326057D01*
X90031397Y-69335959D01*
X90134210Y-69378545D01*
X90164293Y-69394624D01*
X90177800Y-69403649D01*
X90234570Y-69441582D01*
X90256834Y-69456458D01*
X90283202Y-69478097D01*
X90361900Y-69556795D01*
X90383538Y-69583162D01*
X90445372Y-69675702D01*
X90461448Y-69705777D01*
X90504046Y-69808618D01*
X90513944Y-69841250D01*
X90535656Y-69950397D01*
X90539000Y-69984345D01*
X90539000Y-70095643D01*
X90535656Y-70129591D01*
X90513940Y-70238757D01*
X90504040Y-70271394D01*
X90504040Y-70271395D01*
X90461454Y-70374209D01*
X90445374Y-70404292D01*
X90383540Y-70496833D01*
X90361901Y-70523201D01*
X90283197Y-70601905D01*
X90256830Y-70623543D01*
X90164302Y-70685369D01*
X90134228Y-70701445D01*
X90124621Y-70705425D01*
X90124612Y-70705429D01*
X90031399Y-70744039D01*
X89998759Y-70753940D01*
X89902369Y-70773114D01*
X89902366Y-70773115D01*
X89889586Y-70775657D01*
X89855642Y-70779000D01*
X89744357Y-70779000D01*
X89710411Y-70775657D01*
X89601244Y-70753942D01*
X89568604Y-70744040D01*
X89465786Y-70701452D01*
X89435702Y-70685372D01*
X89343162Y-70623538D01*
X89316795Y-70601900D01*
X89238097Y-70523202D01*
X89216459Y-70496835D01*
X89154626Y-70404296D01*
X89138546Y-70374212D01*
X89095958Y-70271394D01*
X89086056Y-70238754D01*
X89064343Y-70129596D01*
X89061000Y-70095650D01*
X89061000Y-69984346D01*
X89064343Y-69950402D01*
X89077329Y-69885116D01*
X89086056Y-69841241D01*
X89095954Y-69808612D01*
X89138549Y-69705777D01*
X89154623Y-69675705D01*
X89216461Y-69583159D01*
X89238092Y-69556800D01*
X89316800Y-69478092D01*
X89343159Y-69456461D01*
X89435708Y-69394621D01*
X89465777Y-69378549D01*
X89568609Y-69335955D01*
X89601238Y-69326057D01*
X89671603Y-69312060D01*
X89710404Y-69304343D01*
X89744349Y-69301000D01*
X89855645Y-69301000D01*
X89889589Y-69304342D01*
G37*
%TD.AperFunction*%
%TA.AperFunction,Conductor*%
G36*
X102220861Y-68845931D02*
G01*
X102283198Y-68901157D01*
X102312730Y-68979027D01*
X102313999Y-69000000D01*
X102313999Y-69411600D01*
X102294068Y-69492462D01*
X102238842Y-69554799D01*
X102236959Y-69556080D01*
X102233152Y-69558635D01*
X102219195Y-69567999D01*
X102169342Y-69612359D01*
X102140241Y-69642918D01*
X102140240Y-69642919D01*
X102129550Y-69663355D01*
X102074409Y-69725767D01*
X101996579Y-69755404D01*
X101913891Y-69745477D01*
X101845287Y-69698260D01*
X101835203Y-69685796D01*
X101823288Y-69669596D01*
X101784877Y-69617372D01*
X101784874Y-69617369D01*
X101784873Y-69617367D01*
X101733301Y-69570250D01*
X101712110Y-69555830D01*
X101656471Y-69493861D01*
X101636004Y-69413133D01*
X101636000Y-69411977D01*
X101636000Y-69000000D01*
X101643519Y-68969492D01*
X101647307Y-68938299D01*
X101653374Y-68929508D01*
X101655931Y-68919138D01*
X101676766Y-68895619D01*
X101694617Y-68869759D01*
X101704074Y-68864795D01*
X101711157Y-68856801D01*
X101740533Y-68845660D01*
X101768359Y-68831056D01*
X101784072Y-68829148D01*
X101789027Y-68827269D01*
X101810000Y-68826000D01*
X102139999Y-68826000D01*
X102220861Y-68845931D01*
G37*
%TD.AperFunction*%
%TA.AperFunction,Conductor*%
G36*
X143270289Y-82935343D02*
G01*
X143283702Y-82938010D01*
X143341575Y-82949521D01*
X143374200Y-82959416D01*
X143441387Y-82987246D01*
X143471458Y-83003320D01*
X143531889Y-83043699D01*
X143558256Y-83065337D01*
X143609655Y-83116736D01*
X143631293Y-83143102D01*
X143671678Y-83203541D01*
X143687756Y-83233621D01*
X143687759Y-83233627D01*
X143715575Y-83300783D01*
X143725475Y-83333421D01*
X143739656Y-83404710D01*
X143743000Y-83438657D01*
X143743000Y-83511338D01*
X143739656Y-83545285D01*
X143725473Y-83616584D01*
X143715575Y-83649214D01*
X143715572Y-83649224D01*
X143687756Y-83716378D01*
X143671676Y-83746461D01*
X143631301Y-83806886D01*
X143609663Y-83833253D01*
X143558253Y-83884663D01*
X143531887Y-83906301D01*
X143471466Y-83946674D01*
X143441380Y-83962755D01*
X143374214Y-83990575D01*
X143341576Y-84000475D01*
X143270286Y-84014656D01*
X143236339Y-84018000D01*
X143163662Y-84018000D01*
X143129715Y-84014656D01*
X143058416Y-84000473D01*
X143025777Y-83990572D01*
X142958622Y-83962756D01*
X142928539Y-83946677D01*
X142868109Y-83906299D01*
X142841741Y-83884660D01*
X142790341Y-83833260D01*
X142768703Y-83806893D01*
X142728321Y-83746458D01*
X142712244Y-83716381D01*
X142684419Y-83649204D01*
X142674521Y-83616571D01*
X142660343Y-83545287D01*
X142660343Y-83545285D01*
X142657000Y-83511344D01*
X142657000Y-83438653D01*
X142660343Y-83404710D01*
X142665862Y-83376960D01*
X142674522Y-83333420D01*
X142684419Y-83300793D01*
X142712245Y-83233612D01*
X142728318Y-83203542D01*
X142768701Y-83143104D01*
X142790332Y-83116746D01*
X142841742Y-83065336D01*
X142868099Y-83043706D01*
X142928545Y-83003317D01*
X142958617Y-82987243D01*
X143025794Y-82959418D01*
X143058422Y-82949521D01*
X143102684Y-82940717D01*
X143129710Y-82935343D01*
X143163651Y-82932000D01*
X143236347Y-82932000D01*
X143270289Y-82935343D01*
G37*
%TD.AperFunction*%
%TA.AperFunction,Conductor*%
G36*
X143720289Y-74760343D02*
G01*
X143733702Y-74763010D01*
X143791575Y-74774521D01*
X143824200Y-74784416D01*
X143891387Y-74812246D01*
X143921458Y-74828320D01*
X143981889Y-74868699D01*
X144008256Y-74890337D01*
X144059655Y-74941736D01*
X144081293Y-74968102D01*
X144121678Y-75028541D01*
X144137759Y-75058627D01*
X144165575Y-75125783D01*
X144175475Y-75158421D01*
X144189656Y-75229710D01*
X144193000Y-75263657D01*
X144193000Y-75336338D01*
X144189656Y-75370285D01*
X144175473Y-75441584D01*
X144165572Y-75474224D01*
X144137756Y-75541378D01*
X144121678Y-75571458D01*
X144121676Y-75571461D01*
X144081301Y-75631886D01*
X144059663Y-75658253D01*
X144008253Y-75709663D01*
X143981887Y-75731301D01*
X143921466Y-75771674D01*
X143891380Y-75787755D01*
X143824214Y-75815575D01*
X143791576Y-75825475D01*
X143720286Y-75839656D01*
X143686339Y-75843000D01*
X143613662Y-75843000D01*
X143579715Y-75839656D01*
X143508416Y-75825473D01*
X143475777Y-75815572D01*
X143408622Y-75787756D01*
X143378539Y-75771677D01*
X143318109Y-75731299D01*
X143291741Y-75709660D01*
X143240341Y-75658260D01*
X143218703Y-75631893D01*
X143192605Y-75592835D01*
X143178319Y-75571455D01*
X143162244Y-75541381D01*
X143134419Y-75474204D01*
X143124521Y-75441571D01*
X143123866Y-75438280D01*
X143116745Y-75402475D01*
X143110343Y-75370287D01*
X143110343Y-75370285D01*
X143107000Y-75336344D01*
X143107000Y-75263653D01*
X143110343Y-75229710D01*
X143121248Y-75174883D01*
X143124522Y-75158420D01*
X143134419Y-75125793D01*
X143162245Y-75058612D01*
X143178318Y-75028542D01*
X143218701Y-74968104D01*
X143240332Y-74941746D01*
X143291742Y-74890336D01*
X143318099Y-74868706D01*
X143378545Y-74828317D01*
X143408617Y-74812243D01*
X143475794Y-74784418D01*
X143508422Y-74774521D01*
X143552684Y-74765717D01*
X143579710Y-74760343D01*
X143613651Y-74757000D01*
X143686347Y-74757000D01*
X143720289Y-74760343D01*
G37*
%TD.AperFunction*%
%TA.AperFunction,Conductor*%
G36*
X153104278Y-52320709D02*
G01*
X153434470Y-52336931D01*
X153451456Y-52338603D01*
X153774287Y-52386491D01*
X153790998Y-52389815D01*
X154107563Y-52469111D01*
X154123882Y-52474060D01*
X154431155Y-52584005D01*
X154446930Y-52590540D01*
X154741923Y-52730061D01*
X154756976Y-52738106D01*
X154828100Y-52780736D01*
X155036887Y-52905878D01*
X155051086Y-52915365D01*
X155313204Y-53109766D01*
X155326391Y-53120589D01*
X155544469Y-53318243D01*
X155568186Y-53339739D01*
X155580258Y-53351811D01*
X155756196Y-53545929D01*
X155799405Y-53593602D01*
X155810235Y-53606797D01*
X155891261Y-53716048D01*
X156004634Y-53868914D01*
X156014121Y-53883112D01*
X156181889Y-54163016D01*
X156189938Y-54178076D01*
X156329459Y-54473069D01*
X156335994Y-54488844D01*
X156445936Y-54796109D01*
X156450892Y-54812449D01*
X156529152Y-55124883D01*
X156530179Y-55128980D01*
X156533511Y-55145728D01*
X156581395Y-55468540D01*
X156583068Y-55485533D01*
X156599275Y-55815422D01*
X156599484Y-55824497D01*
X156444577Y-106061469D01*
X156444577Y-106061488D01*
X156444539Y-106073357D01*
X156444339Y-106074108D01*
X156444339Y-106135875D01*
X156444338Y-106136288D01*
X156444323Y-106136344D01*
X156444129Y-106144270D01*
X156427884Y-106474940D01*
X156426211Y-106491933D01*
X156378257Y-106815213D01*
X156374925Y-106831961D01*
X156295521Y-107148957D01*
X156290565Y-107165297D01*
X156180464Y-107473010D01*
X156173929Y-107488786D01*
X156034208Y-107784201D01*
X156026159Y-107799260D01*
X155858141Y-108079580D01*
X155848654Y-108093777D01*
X155653987Y-108356257D01*
X155643154Y-108369458D01*
X155423681Y-108611608D01*
X155411608Y-108623681D01*
X155169458Y-108843154D01*
X155156257Y-108853987D01*
X154893777Y-109048654D01*
X154879580Y-109058141D01*
X154599260Y-109226159D01*
X154584201Y-109234208D01*
X154288786Y-109373929D01*
X154273010Y-109380464D01*
X153965297Y-109490565D01*
X153948957Y-109495521D01*
X153631961Y-109574925D01*
X153615213Y-109578257D01*
X153291933Y-109626211D01*
X153274939Y-109627884D01*
X153030437Y-109639895D01*
X153017369Y-109639360D01*
X153017369Y-109639512D01*
X153005967Y-109639510D01*
X153005966Y-109639510D01*
X130147403Y-109636135D01*
X85266912Y-109629510D01*
X85266912Y-109629509D01*
X85255921Y-109629507D01*
X85255892Y-109629500D01*
X85194253Y-109629500D01*
X85194250Y-109629499D01*
X85185740Y-109629290D01*
X85174511Y-109628738D01*
X84855533Y-109613068D01*
X84838540Y-109611395D01*
X84515728Y-109563511D01*
X84498985Y-109560180D01*
X84182449Y-109480892D01*
X84166109Y-109475936D01*
X83858844Y-109365994D01*
X83843069Y-109359459D01*
X83548076Y-109219938D01*
X83533016Y-109211889D01*
X83253112Y-109044121D01*
X83238914Y-109034634D01*
X83020087Y-108872341D01*
X82976797Y-108840235D01*
X82963602Y-108829405D01*
X82721813Y-108610260D01*
X82709739Y-108598186D01*
X82677869Y-108563023D01*
X82490589Y-108356391D01*
X82479766Y-108343204D01*
X82285365Y-108081085D01*
X82275878Y-108066887D01*
X82155328Y-107865761D01*
X82108106Y-107786976D01*
X82100061Y-107771923D01*
X81960540Y-107476930D01*
X81954005Y-107461155D01*
X81898318Y-107305522D01*
X81844060Y-107153882D01*
X81839111Y-107137563D01*
X81759815Y-106820998D01*
X81756491Y-106804287D01*
X81708603Y-106481456D01*
X81706931Y-106464466D01*
X81706529Y-106456284D01*
X81690500Y-106130000D01*
X81690500Y-106064108D01*
X81684422Y-106041427D01*
X81683281Y-106024491D01*
X81683947Y-106020707D01*
X81682887Y-106012630D01*
X81692869Y-95491502D01*
X82727000Y-95491502D01*
X82727000Y-103573500D01*
X82732838Y-103627813D01*
X82744040Y-103679306D01*
X82744043Y-103679316D01*
X82751281Y-103705698D01*
X82751283Y-103705702D01*
X82800609Y-103792324D01*
X82800617Y-103792334D01*
X82846363Y-103845128D01*
X82846366Y-103845131D01*
X82846367Y-103845132D01*
X82879141Y-103876757D01*
X82967476Y-103922965D01*
X83034515Y-103942650D01*
X83106500Y-103953000D01*
X88953000Y-103953000D01*
X89033862Y-103972931D01*
X89096199Y-104028157D01*
X89125731Y-104106027D01*
X89127000Y-104127000D01*
X89127000Y-104625870D01*
X89134203Y-104686111D01*
X89147984Y-104742914D01*
X89147989Y-104742931D01*
X89157973Y-104774821D01*
X89200065Y-104841180D01*
X89211372Y-104859006D01*
X89211374Y-104859008D01*
X89211377Y-104859012D01*
X89259581Y-104909566D01*
X89259582Y-104909568D01*
X89259586Y-104909571D01*
X89259587Y-104909572D01*
X89316751Y-104954526D01*
X89348878Y-104973074D01*
X89356204Y-104977304D01*
X89358052Y-104978722D01*
X89359222Y-104979087D01*
X89392242Y-105004956D01*
X89395042Y-105007756D01*
X89422698Y-105043801D01*
X89424670Y-105047217D01*
X89437245Y-105077570D01*
X89438126Y-105079027D01*
X89438173Y-105079810D01*
X89442040Y-105089143D01*
X89443063Y-105092962D01*
X89449000Y-105138024D01*
X89449000Y-105141974D01*
X89448692Y-105144305D01*
X89448964Y-105145511D01*
X89443063Y-105187040D01*
X89442040Y-105190855D01*
X89424665Y-105232790D01*
X89422691Y-105236209D01*
X89402668Y-105262302D01*
X89401846Y-105263796D01*
X89401191Y-105264228D01*
X89395040Y-105272245D01*
X89392245Y-105275040D01*
X89356209Y-105302691D01*
X89316748Y-105325474D01*
X89268174Y-105361837D01*
X89268173Y-105361838D01*
X89225875Y-105402171D01*
X89225843Y-105402204D01*
X89203244Y-105426768D01*
X89203243Y-105426770D01*
X89157037Y-105515101D01*
X89157036Y-105515103D01*
X89137351Y-105582141D01*
X89137349Y-105582150D01*
X89127000Y-105654132D01*
X89127000Y-106773500D01*
X89132838Y-106827813D01*
X89144040Y-106879306D01*
X89144043Y-106879316D01*
X89144045Y-106879324D01*
X89150831Y-106904057D01*
X89151281Y-106905698D01*
X89151283Y-106905702D01*
X89200609Y-106992324D01*
X89200617Y-106992334D01*
X89246363Y-107045128D01*
X89246366Y-107045131D01*
X89246367Y-107045132D01*
X89279141Y-107076757D01*
X89367476Y-107122965D01*
X89434515Y-107142650D01*
X89506500Y-107153000D01*
X89506503Y-107153000D01*
X93132056Y-107153000D01*
X93132057Y-107153000D01*
X93135150Y-107152630D01*
X93192287Y-107145799D01*
X93192302Y-107145796D01*
X93205268Y-107142650D01*
X93249120Y-107132011D01*
X93281016Y-107122023D01*
X93365200Y-107068624D01*
X93399647Y-107035776D01*
X93415753Y-107020420D01*
X93415754Y-107020417D01*
X93415764Y-107020409D01*
X93422102Y-107012347D01*
X93435819Y-106996891D01*
X93467762Y-106964949D01*
X93503794Y-106937304D01*
X93513012Y-106931982D01*
X93530839Y-106926820D01*
X93539022Y-106921874D01*
X93550272Y-106921193D01*
X93593007Y-106908819D01*
X93674604Y-106925484D01*
X93687006Y-106931994D01*
X93696216Y-106937312D01*
X93732246Y-106964959D01*
X93756545Y-106989258D01*
X93772797Y-107008015D01*
X93775644Y-107011817D01*
X93815992Y-107054132D01*
X93828970Y-107066072D01*
X93840580Y-107076754D01*
X93840582Y-107076755D01*
X93840584Y-107076757D01*
X93928919Y-107122965D01*
X93995958Y-107142650D01*
X94067943Y-107153000D01*
X94067946Y-107153000D01*
X120258500Y-107153000D01*
X120312813Y-107147161D01*
X120364306Y-107135959D01*
X120364307Y-107135958D01*
X120364324Y-107135955D01*
X120390698Y-107128719D01*
X120477328Y-107079388D01*
X120530132Y-107033633D01*
X120561757Y-107000859D01*
X120607965Y-106912524D01*
X120627650Y-106845485D01*
X120638000Y-106773500D01*
X120638000Y-105451326D01*
X125765500Y-105451326D01*
X125765500Y-106808674D01*
X125780034Y-106881740D01*
X125835399Y-106964601D01*
X125918260Y-107019966D01*
X125991326Y-107034500D01*
X125991330Y-107034500D01*
X127348670Y-107034500D01*
X127348674Y-107034500D01*
X127421740Y-107019966D01*
X127504601Y-106964601D01*
X127559966Y-106881740D01*
X127574500Y-106808674D01*
X127574500Y-106745943D01*
X140539500Y-106745943D01*
X140539500Y-106904057D01*
X140579712Y-107054132D01*
X140580424Y-107056786D01*
X140580424Y-107056788D01*
X140638430Y-107157256D01*
X140659480Y-107193716D01*
X140771284Y-107305520D01*
X140839750Y-107345048D01*
X140908212Y-107384575D01*
X140908216Y-107384577D01*
X141060943Y-107425500D01*
X141219057Y-107425500D01*
X141371784Y-107384577D01*
X141371787Y-107384575D01*
X141371788Y-107384575D01*
X141407203Y-107364127D01*
X141508716Y-107305520D01*
X141620520Y-107193716D01*
X141688046Y-107076757D01*
X141699575Y-107056788D01*
X141699575Y-107056787D01*
X141699577Y-107056784D01*
X141740500Y-106904057D01*
X141740500Y-106745943D01*
X143539500Y-106745943D01*
X143539500Y-106904057D01*
X143579712Y-107054132D01*
X143580424Y-107056786D01*
X143580424Y-107056788D01*
X143638430Y-107157256D01*
X143659480Y-107193716D01*
X143771284Y-107305520D01*
X143839750Y-107345048D01*
X143908212Y-107384575D01*
X143908216Y-107384577D01*
X144060943Y-107425500D01*
X144219057Y-107425500D01*
X144371784Y-107384577D01*
X144371787Y-107384575D01*
X144371788Y-107384575D01*
X144407203Y-107364127D01*
X144508716Y-107305520D01*
X144620520Y-107193716D01*
X144688046Y-107076757D01*
X144699575Y-107056788D01*
X144699575Y-107056787D01*
X144699577Y-107056784D01*
X144740500Y-106904057D01*
X144740500Y-106745943D01*
X144699577Y-106593216D01*
X144699575Y-106593212D01*
X144699575Y-106593211D01*
X144620522Y-106456288D01*
X144620520Y-106456284D01*
X144508716Y-106344480D01*
X144459905Y-106316299D01*
X144371787Y-106265424D01*
X144371784Y-106265423D01*
X144219057Y-106224500D01*
X144060943Y-106224500D01*
X143908216Y-106265423D01*
X143908215Y-106265423D01*
X143908213Y-106265424D01*
X143908211Y-106265424D01*
X143771288Y-106344477D01*
X143771284Y-106344480D01*
X143659480Y-106456284D01*
X143659477Y-106456288D01*
X143580424Y-106593211D01*
X143580424Y-106593213D01*
X143580423Y-106593215D01*
X143580423Y-106593216D01*
X143539500Y-106745943D01*
X141740500Y-106745943D01*
X141699577Y-106593216D01*
X141699575Y-106593212D01*
X141699575Y-106593211D01*
X141620522Y-106456288D01*
X141620520Y-106456284D01*
X141508716Y-106344480D01*
X141459905Y-106316299D01*
X141371787Y-106265424D01*
X141371784Y-106265423D01*
X141219057Y-106224500D01*
X141060943Y-106224500D01*
X140908216Y-106265423D01*
X140908215Y-106265423D01*
X140908213Y-106265424D01*
X140908211Y-106265424D01*
X140771288Y-106344477D01*
X140771284Y-106344480D01*
X140659480Y-106456284D01*
X140659477Y-106456288D01*
X140580424Y-106593211D01*
X140580424Y-106593213D01*
X140580423Y-106593215D01*
X140580423Y-106593216D01*
X140539500Y-106745943D01*
X127574500Y-106745943D01*
X127574500Y-105451326D01*
X127559966Y-105378260D01*
X127504601Y-105295399D01*
X127421740Y-105240034D01*
X127348674Y-105225500D01*
X125991326Y-105225500D01*
X125918260Y-105240034D01*
X125835400Y-105295398D01*
X125835398Y-105295400D01*
X125815304Y-105325474D01*
X125780034Y-105378260D01*
X125765500Y-105451326D01*
X120638000Y-105451326D01*
X120638000Y-104985889D01*
X134089500Y-104985889D01*
X134089500Y-105159111D01*
X134116598Y-105330201D01*
X134147976Y-105426771D01*
X134170127Y-105494945D01*
X134170131Y-105494953D01*
X134214559Y-105582150D01*
X134248768Y-105649288D01*
X134350586Y-105789428D01*
X134473072Y-105911914D01*
X134613212Y-106013732D01*
X134767555Y-106092373D01*
X134932299Y-106145902D01*
X135103389Y-106173000D01*
X135103393Y-106173000D01*
X135276607Y-106173000D01*
X135276611Y-106173000D01*
X135447701Y-106145902D01*
X135612445Y-106092373D01*
X135766788Y-106013732D01*
X135906928Y-105911914D01*
X136029414Y-105789428D01*
X136131232Y-105649288D01*
X136209873Y-105494945D01*
X136263402Y-105330201D01*
X136290500Y-105159111D01*
X136290500Y-104985889D01*
X136263402Y-104814799D01*
X136209873Y-104650055D01*
X136131232Y-104495712D01*
X136029414Y-104355572D01*
X135906928Y-104233086D01*
X135766788Y-104131268D01*
X135766785Y-104131266D01*
X135766783Y-104131265D01*
X135612453Y-104052631D01*
X135612445Y-104052627D01*
X135447701Y-103999098D01*
X135276611Y-103972000D01*
X135103389Y-103972000D01*
X134932299Y-103999098D01*
X134767554Y-104052627D01*
X134767546Y-104052631D01*
X134613216Y-104131265D01*
X134473070Y-104233087D01*
X134350587Y-104355570D01*
X134248765Y-104495716D01*
X134170131Y-104650046D01*
X134170127Y-104650054D01*
X134129588Y-104774821D01*
X134116598Y-104814799D01*
X134089500Y-104985889D01*
X120638000Y-104985889D01*
X120638000Y-99127521D01*
X124549500Y-99127521D01*
X124549500Y-99272478D01*
X124587016Y-99412487D01*
X124628276Y-99483950D01*
X124659491Y-99538015D01*
X124761985Y-99640509D01*
X124808993Y-99667649D01*
X124887512Y-99712983D01*
X124887514Y-99712983D01*
X124887515Y-99712984D01*
X125027525Y-99750500D01*
X125027531Y-99750500D01*
X125034120Y-99751368D01*
X125111689Y-99781680D01*
X125134450Y-99800843D01*
X125460655Y-100127047D01*
X125779518Y-100445910D01*
X125779520Y-100445913D01*
X125854087Y-100520480D01*
X125882881Y-100537104D01*
X125945413Y-100573207D01*
X126047273Y-100600501D01*
X126047275Y-100600501D01*
X126163389Y-100600501D01*
X126163405Y-100600500D01*
X132619533Y-100600500D01*
X132700395Y-100620431D01*
X132742570Y-100651463D01*
X134102341Y-102011234D01*
X134145425Y-102082505D01*
X134150454Y-102165635D01*
X134144788Y-102188039D01*
X134116598Y-102274797D01*
X134116598Y-102274799D01*
X134089500Y-102445889D01*
X134089500Y-102619111D01*
X134116598Y-102790201D01*
X134170127Y-102954945D01*
X134170131Y-102954953D01*
X134220633Y-103054071D01*
X134248768Y-103109288D01*
X134350586Y-103249428D01*
X134473072Y-103371914D01*
X134613212Y-103473732D01*
X134767555Y-103552373D01*
X134932299Y-103605902D01*
X135103389Y-103633000D01*
X135276611Y-103633000D01*
X135447701Y-103605902D01*
X135612445Y-103552373D01*
X135766788Y-103473732D01*
X135906928Y-103371914D01*
X136029414Y-103249428D01*
X136131232Y-103109288D01*
X136209873Y-102954945D01*
X136263402Y-102790201D01*
X136290500Y-102619111D01*
X136290500Y-102445889D01*
X136263402Y-102274799D01*
X136209873Y-102110055D01*
X136131232Y-101955712D01*
X136029414Y-101815572D01*
X135906928Y-101693086D01*
X135766788Y-101591268D01*
X135766785Y-101591266D01*
X135766783Y-101591265D01*
X135612453Y-101512631D01*
X135612445Y-101512627D01*
X135447701Y-101459098D01*
X135276611Y-101432000D01*
X135103389Y-101432000D01*
X134989329Y-101450065D01*
X134932297Y-101459098D01*
X134845539Y-101487288D01*
X134762476Y-101493320D01*
X134686124Y-101460060D01*
X134668734Y-101444841D01*
X133933893Y-100710000D01*
X133103413Y-99879520D01*
X133103410Y-99879518D01*
X133103409Y-99879517D01*
X133012086Y-99826791D01*
X132910234Y-99799501D01*
X132910228Y-99799500D01*
X132910227Y-99799500D01*
X132910224Y-99799500D01*
X126337965Y-99799500D01*
X126257103Y-99779569D01*
X126214928Y-99748536D01*
X125700843Y-99234450D01*
X125657759Y-99163179D01*
X125651368Y-99134120D01*
X125650500Y-99127530D01*
X125650500Y-99127525D01*
X125612984Y-98987515D01*
X125612983Y-98987514D01*
X125612983Y-98987512D01*
X125576746Y-98924750D01*
X125540509Y-98861985D01*
X125438015Y-98759491D01*
X125411484Y-98744173D01*
X125312487Y-98687016D01*
X125172478Y-98649500D01*
X125172475Y-98649500D01*
X125027525Y-98649500D01*
X125027521Y-98649500D01*
X124887512Y-98687016D01*
X124761988Y-98759489D01*
X124761986Y-98759490D01*
X124659490Y-98861986D01*
X124659489Y-98861988D01*
X124587016Y-98987512D01*
X124549500Y-99127521D01*
X120638000Y-99127521D01*
X120638000Y-96127000D01*
X120657931Y-96046138D01*
X120713157Y-95983801D01*
X120791027Y-95954269D01*
X120812000Y-95953000D01*
X131718500Y-95953000D01*
X131772813Y-95947161D01*
X131824306Y-95935959D01*
X131824307Y-95935958D01*
X131824324Y-95935955D01*
X131850698Y-95928719D01*
X131937328Y-95879388D01*
X131990132Y-95833633D01*
X132021757Y-95800859D01*
X132067965Y-95712524D01*
X132087650Y-95645485D01*
X132098000Y-95573500D01*
X132098000Y-89040405D01*
X132117931Y-88959543D01*
X132148963Y-88917368D01*
X133262368Y-87803963D01*
X133333639Y-87760879D01*
X133385405Y-87753000D01*
X137858500Y-87753000D01*
X137912813Y-87747161D01*
X137964306Y-87735959D01*
X137964307Y-87735958D01*
X137964324Y-87735955D01*
X137990698Y-87728719D01*
X138077328Y-87679388D01*
X138130132Y-87633633D01*
X138161757Y-87600859D01*
X138207965Y-87512524D01*
X138227650Y-87445485D01*
X138238000Y-87373500D01*
X138238000Y-71438864D01*
X139094500Y-71438864D01*
X139094500Y-89077663D01*
X139099979Y-89130283D01*
X139110506Y-89180287D01*
X139110506Y-89180288D01*
X139117036Y-89205067D01*
X139165195Y-89292346D01*
X139165197Y-89292348D01*
X139165199Y-89292352D01*
X139188539Y-89320031D01*
X139210235Y-89345761D01*
X139210238Y-89345764D01*
X139210240Y-89345766D01*
X139242587Y-89377829D01*
X139330293Y-89425220D01*
X139397062Y-89445804D01*
X139468902Y-89457120D01*
X143055209Y-89505303D01*
X143135794Y-89526318D01*
X143176064Y-89556408D01*
X144270037Y-90653191D01*
X144313031Y-90724518D01*
X144320833Y-90774179D01*
X144340733Y-92604822D01*
X144340733Y-92604824D01*
X144340976Y-92627207D01*
X144381226Y-96330131D01*
X144381227Y-96330139D01*
X144387348Y-96383009D01*
X144387349Y-96383013D01*
X144387350Y-96383018D01*
X144389319Y-96391841D01*
X144398546Y-96433170D01*
X144398547Y-96433174D01*
X144398549Y-96433181D01*
X144398878Y-96434366D01*
X144405485Y-96458198D01*
X144405487Y-96458202D01*
X144454813Y-96544824D01*
X144454821Y-96544834D01*
X144500567Y-96597628D01*
X144500570Y-96597631D01*
X144500571Y-96597632D01*
X144533345Y-96629257D01*
X144621680Y-96675465D01*
X144688719Y-96695150D01*
X144760704Y-96705500D01*
X144760707Y-96705500D01*
X149173628Y-96705500D01*
X149173638Y-96705500D01*
X149200952Y-96704036D01*
X149227310Y-96701202D01*
X149322444Y-96671413D01*
X149322447Y-96671410D01*
X149322450Y-96671410D01*
X149383767Y-96637928D01*
X149395350Y-96629257D01*
X149441985Y-96594347D01*
X152844347Y-93191985D01*
X152862626Y-93171635D01*
X152879260Y-93150993D01*
X152925465Y-93062662D01*
X152945150Y-92995623D01*
X152955500Y-92923638D01*
X152955500Y-67324000D01*
X152949661Y-67269687D01*
X152938455Y-67218176D01*
X152931219Y-67191802D01*
X152881888Y-67105172D01*
X152881882Y-67105165D01*
X152836136Y-67052371D01*
X152836133Y-67052368D01*
X152803358Y-67020742D01*
X152715028Y-66974537D01*
X152715026Y-66974536D01*
X152715025Y-66974535D01*
X152715024Y-66974535D01*
X152647985Y-66954850D01*
X152647980Y-66954849D01*
X152647979Y-66954849D01*
X152630596Y-66952349D01*
X152576000Y-66944500D01*
X149647583Y-66944500D01*
X149646750Y-66944533D01*
X149626959Y-66945333D01*
X149608622Y-66946819D01*
X149607005Y-66946950D01*
X149577783Y-66954849D01*
X149517140Y-66971241D01*
X149517137Y-66971242D01*
X149454150Y-67001451D01*
X149454143Y-67001455D01*
X149393712Y-67041917D01*
X149393711Y-67041917D01*
X149080207Y-67324070D01*
X149038617Y-67372140D01*
X149038616Y-67372141D01*
X149004625Y-67423067D01*
X148986667Y-67454622D01*
X148986664Y-67454631D01*
X148975280Y-67499235D01*
X148935971Y-67572656D01*
X148867044Y-67619400D01*
X148847306Y-67625396D01*
X148842301Y-67626597D01*
X148677554Y-67680127D01*
X148677546Y-67680131D01*
X148523216Y-67758765D01*
X148383070Y-67860587D01*
X148260587Y-67983070D01*
X148158765Y-68123216D01*
X148080131Y-68277546D01*
X148080128Y-68277551D01*
X148080127Y-68277555D01*
X148062557Y-68331626D01*
X148018615Y-68402370D01*
X147946829Y-68444590D01*
X147940271Y-68446408D01*
X147853299Y-68468696D01*
X147790312Y-68498906D01*
X147790295Y-68498916D01*
X147729876Y-68539370D01*
X147729875Y-68539370D01*
X146953965Y-69237688D01*
X146953935Y-69237717D01*
X146944012Y-69246648D01*
X146894749Y-69281806D01*
X146846046Y-69331903D01*
X146817337Y-69367257D01*
X146814574Y-69373855D01*
X146795580Y-69392411D01*
X146778545Y-69402438D01*
X146764624Y-69416476D01*
X146743185Y-69423253D01*
X146723810Y-69434660D01*
X146704065Y-69435622D01*
X146685216Y-69441582D01*
X146663082Y-69437620D01*
X146640627Y-69438715D01*
X146622697Y-69430392D01*
X146603237Y-69426909D01*
X146585479Y-69413115D01*
X146565087Y-69403649D01*
X146553079Y-69387947D01*
X146537467Y-69375820D01*
X146525924Y-69358700D01*
X146523433Y-69355179D01*
X146523429Y-69355172D01*
X146503266Y-69331903D01*
X146477677Y-69302371D01*
X146477674Y-69302368D01*
X146444899Y-69270742D01*
X146356569Y-69224537D01*
X146356567Y-69224536D01*
X146356566Y-69224535D01*
X146356565Y-69224535D01*
X146289526Y-69204850D01*
X146289521Y-69204849D01*
X146289520Y-69204849D01*
X146257108Y-69200189D01*
X146217541Y-69194500D01*
X141338862Y-69194500D01*
X141311548Y-69195964D01*
X141311545Y-69195964D01*
X141285189Y-69198798D01*
X141190061Y-69228584D01*
X141190049Y-69228589D01*
X141128732Y-69262071D01*
X141070519Y-69305649D01*
X139205639Y-71170529D01*
X139187377Y-71190860D01*
X139170741Y-71211504D01*
X139170740Y-71211506D01*
X139124537Y-71299832D01*
X139124533Y-71299843D01*
X139104853Y-71366864D01*
X139104849Y-71366882D01*
X139094500Y-71438864D01*
X138238000Y-71438864D01*
X138238000Y-69044825D01*
X138257931Y-68963963D01*
X138297843Y-68913508D01*
X141507480Y-66123312D01*
X141533086Y-66097644D01*
X141556048Y-66071100D01*
X141561757Y-66064263D01*
X141607965Y-65975928D01*
X141627650Y-65908889D01*
X141638000Y-65836904D01*
X141638000Y-59097950D01*
X141636732Y-59072524D01*
X141634603Y-59051238D01*
X141634277Y-59047973D01*
X141634276Y-59047971D01*
X141634276Y-59047967D01*
X141606084Y-58954286D01*
X141573513Y-58892473D01*
X141573511Y-58892470D01*
X141573510Y-58892468D01*
X141530804Y-58833620D01*
X141530797Y-58833611D01*
X136120224Y-53260043D01*
X136097987Y-53239694D01*
X136097951Y-53239662D01*
X136085976Y-53229939D01*
X136075254Y-53221233D01*
X136075183Y-53221176D01*
X136075135Y-53221137D01*
X136073047Y-53219460D01*
X136026309Y-53195450D01*
X135984370Y-53173905D01*
X135928840Y-53158044D01*
X135917189Y-53154716D01*
X135917184Y-53154715D01*
X135845133Y-53144898D01*
X135845122Y-53144897D01*
X134065687Y-53158044D01*
X134012336Y-53164080D01*
X133961762Y-53175278D01*
X133961754Y-53175280D01*
X133936302Y-53182313D01*
X133849671Y-53231645D01*
X133849665Y-53231650D01*
X133796871Y-53277396D01*
X133796868Y-53277399D01*
X133765242Y-53310174D01*
X133765242Y-53310175D01*
X133719037Y-53398504D01*
X133719036Y-53398506D01*
X133719035Y-53398508D01*
X133719035Y-53398509D01*
X133715333Y-53411116D01*
X133699351Y-53465544D01*
X133699349Y-53465553D01*
X133689000Y-53537535D01*
X133689000Y-53601974D01*
X133688692Y-53604305D01*
X133688964Y-53605511D01*
X133683063Y-53647040D01*
X133682040Y-53650855D01*
X133664665Y-53692790D01*
X133662691Y-53696209D01*
X133642668Y-53722302D01*
X133641846Y-53723796D01*
X133641191Y-53724228D01*
X133635040Y-53732245D01*
X133632245Y-53735040D01*
X133596209Y-53762691D01*
X133592790Y-53764665D01*
X133550855Y-53782040D01*
X133549160Y-53782494D01*
X133547037Y-53783063D01*
X133501974Y-53789000D01*
X133498024Y-53789000D01*
X133495704Y-53788694D01*
X133494507Y-53788964D01*
X133452979Y-53783068D01*
X133449163Y-53782045D01*
X133407215Y-53764669D01*
X133403794Y-53762694D01*
X133377716Y-53742685D01*
X133376219Y-53741860D01*
X133375784Y-53741202D01*
X133367753Y-53735040D01*
X133364958Y-53732245D01*
X133337318Y-53696228D01*
X133337307Y-53696209D01*
X133335341Y-53692805D01*
X133317942Y-53650794D01*
X133316917Y-53646967D01*
X133311000Y-53601976D01*
X133311000Y-53545929D01*
X133310999Y-53545925D01*
X133304960Y-53490709D01*
X133304958Y-53490699D01*
X133293368Y-53438350D01*
X133285733Y-53411116D01*
X133285733Y-53411115D01*
X133247713Y-53345480D01*
X133235766Y-53324855D01*
X133235765Y-53324854D01*
X133235764Y-53324852D01*
X133189620Y-53272387D01*
X133156612Y-53241004D01*
X133067938Y-53195450D01*
X133021944Y-53182313D01*
X133000760Y-53176262D01*
X133000755Y-53176261D01*
X132928704Y-53166444D01*
X132928693Y-53166443D01*
X122702237Y-53241995D01*
X122700952Y-53242000D01*
X117725479Y-53242000D01*
X117722440Y-53242054D01*
X117716360Y-53242163D01*
X117712821Y-53242289D01*
X117707508Y-53242479D01*
X117627344Y-53258426D01*
X117561872Y-53282846D01*
X117520802Y-53302496D01*
X117520797Y-53302500D01*
X117446638Y-53369111D01*
X117446627Y-53369124D01*
X117439152Y-53379109D01*
X117374735Y-53431895D01*
X117293166Y-53448698D01*
X117213132Y-53425670D01*
X117168364Y-53388773D01*
X117134655Y-53349871D01*
X117134652Y-53349868D01*
X117101877Y-53318242D01*
X117013547Y-53272037D01*
X117013545Y-53272036D01*
X117013544Y-53272035D01*
X117013543Y-53272035D01*
X116946504Y-53252350D01*
X116946499Y-53252349D01*
X116946498Y-53252349D01*
X116929115Y-53249849D01*
X116874519Y-53242000D01*
X93173862Y-53242000D01*
X93146548Y-53243464D01*
X93146545Y-53243464D01*
X93120189Y-53246298D01*
X93025061Y-53276084D01*
X93025049Y-53276089D01*
X92963732Y-53309571D01*
X92905519Y-53353149D01*
X92905515Y-53353153D01*
X91183552Y-55075116D01*
X89863552Y-56395116D01*
X87793552Y-58465116D01*
X87383552Y-58875116D01*
X87183552Y-59075116D01*
X87013720Y-59244948D01*
X86283552Y-59975116D01*
X86283551Y-59975115D01*
X85818144Y-60440523D01*
X85818139Y-60440529D01*
X85815061Y-60443955D01*
X85815002Y-60444022D01*
X85799874Y-60460865D01*
X85793021Y-60469369D01*
X85793003Y-60469390D01*
X85783240Y-60481505D01*
X85779328Y-60487474D01*
X85773995Y-60495085D01*
X85774011Y-60495097D01*
X85773181Y-60496246D01*
X85773155Y-60496285D01*
X85773132Y-60496314D01*
X85767798Y-60503711D01*
X85751354Y-60541483D01*
X85751355Y-60541484D01*
X85748869Y-60547192D01*
X85737054Y-60569776D01*
X85736291Y-60572372D01*
X85737726Y-60572793D01*
X85728597Y-60593765D01*
X85728596Y-60593768D01*
X85728009Y-60595114D01*
X85728008Y-60595118D01*
X85724778Y-60609962D01*
X85721741Y-60621875D01*
X85717357Y-60636837D01*
X85717348Y-60636880D01*
X85707000Y-60708858D01*
X85707000Y-62309521D01*
X85707163Y-62318635D01*
X85707479Y-62327491D01*
X85723426Y-62407655D01*
X85747846Y-62473127D01*
X85767496Y-62514197D01*
X85767500Y-62514203D01*
X85829550Y-62583283D01*
X85868758Y-62656758D01*
X85869328Y-62740038D01*
X85831131Y-62814044D01*
X85817570Y-62827553D01*
X85817687Y-62827676D01*
X85814868Y-62830347D01*
X85783242Y-62863122D01*
X85783242Y-62863123D01*
X85737037Y-62951452D01*
X85737036Y-62951454D01*
X85717351Y-63018492D01*
X85717349Y-63018501D01*
X85707000Y-63090483D01*
X85707000Y-68106279D01*
X85689741Y-68176298D01*
X85691381Y-68176978D01*
X85687016Y-68187514D01*
X85649500Y-68327523D01*
X85649500Y-68472478D01*
X85687016Y-68612485D01*
X85691380Y-68623020D01*
X85688725Y-68624119D01*
X85706858Y-68686697D01*
X85707000Y-68693720D01*
X85707000Y-69967208D01*
X85707000Y-70975116D01*
X85707000Y-72333449D01*
X85707000Y-74925116D01*
X85707000Y-75125116D01*
X85707000Y-75725116D01*
X85707000Y-76175116D01*
X85707000Y-77425116D01*
X85707000Y-78425116D01*
X85707000Y-79525116D01*
X85707000Y-84491138D01*
X85708464Y-84518451D01*
X85708464Y-84518454D01*
X85711298Y-84544810D01*
X85741084Y-84639938D01*
X85741089Y-84639950D01*
X85774571Y-84701267D01*
X85793653Y-84726757D01*
X85818153Y-84759485D01*
X87550515Y-86491847D01*
X87550524Y-86491855D01*
X87550529Y-86491860D01*
X87570860Y-86510122D01*
X87591504Y-86526758D01*
X87591505Y-86526758D01*
X87591507Y-86526760D01*
X87679838Y-86572965D01*
X87746877Y-86592650D01*
X87818862Y-86603000D01*
X87818865Y-86603000D01*
X90898500Y-86603000D01*
X90952813Y-86597161D01*
X91004306Y-86585959D01*
X91004307Y-86585958D01*
X91004324Y-86585955D01*
X91030698Y-86578719D01*
X91117328Y-86529388D01*
X91170132Y-86483633D01*
X91201757Y-86450859D01*
X91247965Y-86362524D01*
X91267650Y-86295485D01*
X91278000Y-86223500D01*
X91278000Y-81048763D01*
X91277548Y-81033571D01*
X91276671Y-81018848D01*
X91256493Y-80933459D01*
X91230135Y-80871909D01*
X91228990Y-80869235D01*
X91207396Y-80829125D01*
X91173400Y-80794724D01*
X91137326Y-80758218D01*
X91124445Y-80749500D01*
X91079465Y-80719057D01*
X91039616Y-80696990D01*
X91039613Y-80696989D01*
X90942335Y-80675223D01*
X90942323Y-80675221D01*
X90920242Y-80674696D01*
X90839877Y-80652847D01*
X90778871Y-80596153D01*
X90751201Y-80517602D01*
X90763203Y-80435190D01*
X90812130Y-80367796D01*
X90886773Y-80330858D01*
X90914571Y-80327022D01*
X90917206Y-80326872D01*
X90917217Y-80326873D01*
X90986375Y-80316929D01*
X91030698Y-80306455D01*
X91117328Y-80257124D01*
X91170132Y-80211369D01*
X91201757Y-80178595D01*
X91247965Y-80090260D01*
X91267650Y-80023221D01*
X91267650Y-80023215D01*
X91267653Y-80023208D01*
X91268974Y-80017138D01*
X91270596Y-80017491D01*
X91298523Y-79948430D01*
X91316493Y-79927336D01*
X93239868Y-78003963D01*
X93311140Y-77960879D01*
X93362905Y-77953000D01*
X101648824Y-77953000D01*
X101729686Y-77972931D01*
X101792023Y-78028157D01*
X101821555Y-78106027D01*
X101811517Y-78188701D01*
X101768967Y-78250344D01*
X101770050Y-78251427D01*
X101761987Y-78259489D01*
X101761985Y-78259491D01*
X101712715Y-78308761D01*
X101659490Y-78361986D01*
X101659489Y-78361988D01*
X101587016Y-78487512D01*
X101549500Y-78627521D01*
X101549500Y-78772478D01*
X101587016Y-78912487D01*
X101644173Y-79011484D01*
X101659491Y-79038015D01*
X101761985Y-79140509D01*
X101824750Y-79176746D01*
X101887512Y-79212983D01*
X101887514Y-79212983D01*
X101887515Y-79212984D01*
X101989999Y-79240445D01*
X101994388Y-79241621D01*
X102027525Y-79250500D01*
X102082744Y-79250500D01*
X102087961Y-79251786D01*
X102093250Y-79250817D01*
X102128139Y-79261689D01*
X102163606Y-79270431D01*
X102169052Y-79274438D01*
X102172761Y-79275594D01*
X102205781Y-79301463D01*
X102417266Y-79512948D01*
X102460350Y-79584219D01*
X102465379Y-79667349D01*
X102431199Y-79743294D01*
X102365641Y-79794656D01*
X102283723Y-79809668D01*
X102271522Y-79808497D01*
X102270975Y-79808425D01*
X102270972Y-79808425D01*
X102126022Y-79808425D01*
X102126018Y-79808425D01*
X101986009Y-79845941D01*
X101860485Y-79918414D01*
X101860483Y-79918415D01*
X101757987Y-80020911D01*
X101757986Y-80020913D01*
X101685513Y-80146437D01*
X101647997Y-80286446D01*
X101647997Y-80431403D01*
X101685513Y-80571412D01*
X101717728Y-80627208D01*
X101757988Y-80696940D01*
X101860482Y-80799434D01*
X101923247Y-80835671D01*
X101986009Y-80871908D01*
X101986011Y-80871908D01*
X101986012Y-80871909D01*
X102080272Y-80897166D01*
X102153220Y-80937346D01*
X102199140Y-81006825D01*
X102207511Y-81089685D01*
X102176416Y-81166944D01*
X102121341Y-81216439D01*
X102087675Y-81235610D01*
X102087665Y-81235617D01*
X102034871Y-81281363D01*
X102034868Y-81281366D01*
X102003242Y-81314141D01*
X102003242Y-81314142D01*
X101957037Y-81402471D01*
X101957036Y-81402473D01*
X101957035Y-81402475D01*
X101957035Y-81402476D01*
X101951402Y-81421659D01*
X101937351Y-81469511D01*
X101937349Y-81469520D01*
X101927000Y-81541502D01*
X101927000Y-84423500D01*
X101932838Y-84477813D01*
X101944040Y-84529306D01*
X101944043Y-84529316D01*
X101951281Y-84555698D01*
X101951283Y-84555702D01*
X102000609Y-84642324D01*
X102000617Y-84642334D01*
X102046363Y-84695128D01*
X102046366Y-84695131D01*
X102046367Y-84695132D01*
X102079141Y-84726757D01*
X102167476Y-84772965D01*
X102234515Y-84792650D01*
X102306500Y-84803000D01*
X103953000Y-84803000D01*
X104033862Y-84822931D01*
X104096199Y-84878157D01*
X104125731Y-84956027D01*
X104127000Y-84977000D01*
X104127000Y-93572094D01*
X104107069Y-93652956D01*
X104076037Y-93695131D01*
X102710131Y-95061037D01*
X102638860Y-95104121D01*
X102587094Y-95112000D01*
X98492482Y-95112000D01*
X98469719Y-95113220D01*
X98465165Y-95113464D01*
X98438807Y-95116298D01*
X98398869Y-95128803D01*
X98398870Y-95128804D01*
X98343683Y-95146084D01*
X98343678Y-95146086D01*
X98282354Y-95179570D01*
X98224134Y-95223152D01*
X98202245Y-95245041D01*
X98200385Y-95246467D01*
X98199726Y-95247510D01*
X98166188Y-95272704D01*
X98162766Y-95274679D01*
X98120855Y-95292040D01*
X98119160Y-95292494D01*
X98117037Y-95293063D01*
X98084411Y-95297361D01*
X98082769Y-95297837D01*
X98081997Y-95297679D01*
X98071974Y-95299000D01*
X98068025Y-95299000D01*
X98022992Y-95293071D01*
X98019174Y-95292048D01*
X98017003Y-95291148D01*
X98015769Y-95291099D01*
X97977190Y-95274655D01*
X97973761Y-95272675D01*
X97937757Y-95245043D01*
X97915867Y-95223154D01*
X97895509Y-95204868D01*
X97874869Y-95188237D01*
X97874866Y-95188235D01*
X97786545Y-95142036D01*
X97786539Y-95142034D01*
X97719515Y-95122353D01*
X97719507Y-95122351D01*
X97719503Y-95122350D01*
X97719498Y-95122349D01*
X97719497Y-95122349D01*
X97702114Y-95119849D01*
X97647518Y-95112000D01*
X88324000Y-95112000D01*
X88269686Y-95117838D01*
X88218193Y-95129040D01*
X88218183Y-95129043D01*
X88191801Y-95136281D01*
X88191797Y-95136283D01*
X88105175Y-95185609D01*
X88105165Y-95185617D01*
X88052371Y-95231363D01*
X88052368Y-95231366D01*
X88040114Y-95244065D01*
X88037798Y-95246467D01*
X88037456Y-95246821D01*
X88031573Y-95250521D01*
X88027626Y-95256241D01*
X87996610Y-95272519D01*
X87966965Y-95291171D01*
X87958457Y-95292543D01*
X87953884Y-95294944D01*
X87912243Y-95300000D01*
X87793558Y-95300000D01*
X87712696Y-95280069D01*
X87650359Y-95224843D01*
X87620827Y-95146973D01*
X87630865Y-95064299D01*
X87678175Y-94995759D01*
X87691283Y-94985231D01*
X87696784Y-94981233D01*
X87696788Y-94981232D01*
X87836928Y-94879414D01*
X87959414Y-94756928D01*
X88061232Y-94616788D01*
X88139873Y-94462445D01*
X88193402Y-94297701D01*
X88220500Y-94126611D01*
X88220500Y-93987521D01*
X88799500Y-93987521D01*
X88799500Y-94132478D01*
X88837016Y-94272487D01*
X88894173Y-94371484D01*
X88909491Y-94398015D01*
X89011985Y-94500509D01*
X89074750Y-94536746D01*
X89137512Y-94572983D01*
X89137514Y-94572983D01*
X89137515Y-94572984D01*
X89277525Y-94610500D01*
X89277527Y-94610500D01*
X89422473Y-94610500D01*
X89422475Y-94610500D01*
X89562485Y-94572984D01*
X89688015Y-94500509D01*
X89790509Y-94398015D01*
X89862984Y-94272485D01*
X89900500Y-94132475D01*
X89900500Y-94077255D01*
X89920431Y-93996393D01*
X89951460Y-93954221D01*
X95830470Y-88075212D01*
X95876614Y-87995288D01*
X95886203Y-87959500D01*
X95900500Y-87906144D01*
X95900500Y-87200097D01*
X95920431Y-87119235D01*
X95951460Y-87077063D01*
X95990509Y-87038015D01*
X96062984Y-86912485D01*
X96100500Y-86772475D01*
X96100500Y-86627525D01*
X96062984Y-86487515D01*
X96062983Y-86487514D01*
X96062983Y-86487512D01*
X96026746Y-86424750D01*
X95990509Y-86361985D01*
X95888015Y-86259491D01*
X95861484Y-86244173D01*
X95762487Y-86187016D01*
X95622478Y-86149500D01*
X95622475Y-86149500D01*
X95477525Y-86149500D01*
X95477521Y-86149500D01*
X95337512Y-86187016D01*
X95211988Y-86259489D01*
X95211986Y-86259490D01*
X95109490Y-86361986D01*
X95109489Y-86361988D01*
X95037016Y-86487512D01*
X94999500Y-86627521D01*
X94999500Y-86772478D01*
X95037016Y-86912487D01*
X95069645Y-86969000D01*
X95109491Y-87038015D01*
X95148538Y-87077062D01*
X95191621Y-87148331D01*
X95199500Y-87200097D01*
X95199500Y-87642744D01*
X95179569Y-87723606D01*
X95148537Y-87765781D01*
X89455781Y-93458537D01*
X89384510Y-93501621D01*
X89332744Y-93509500D01*
X89277521Y-93509500D01*
X89137512Y-93547016D01*
X89011988Y-93619489D01*
X89011986Y-93619490D01*
X88909490Y-93721986D01*
X88909489Y-93721988D01*
X88837016Y-93847512D01*
X88799500Y-93987521D01*
X88220500Y-93987521D01*
X88220500Y-93953389D01*
X88193402Y-93782299D01*
X88139873Y-93617555D01*
X88061232Y-93463212D01*
X87959414Y-93323072D01*
X87836928Y-93200586D01*
X87696788Y-93098768D01*
X87696785Y-93098766D01*
X87696783Y-93098765D01*
X87542453Y-93020131D01*
X87542445Y-93020127D01*
X87467030Y-92995623D01*
X87377701Y-92966598D01*
X87206611Y-92939500D01*
X87033389Y-92939500D01*
X86865772Y-92966048D01*
X86862299Y-92966598D01*
X86697554Y-93020127D01*
X86697546Y-93020131D01*
X86543216Y-93098765D01*
X86403070Y-93200587D01*
X86280587Y-93323070D01*
X86178765Y-93463216D01*
X86100131Y-93617546D01*
X86100127Y-93617554D01*
X86046598Y-93782299D01*
X86021858Y-93938504D01*
X85989523Y-94015252D01*
X85959653Y-94039840D01*
X85996687Y-94075126D01*
X86021856Y-94141492D01*
X86046598Y-94297700D01*
X86100127Y-94462445D01*
X86100131Y-94462453D01*
X86175563Y-94610499D01*
X86178768Y-94616788D01*
X86280586Y-94756928D01*
X86403072Y-94879414D01*
X86543212Y-94981232D01*
X86543214Y-94981233D01*
X86548717Y-94985231D01*
X86567657Y-95007681D01*
X86589641Y-95027157D01*
X86594174Y-95039112D01*
X86602420Y-95048885D01*
X86608757Y-95077564D01*
X86619173Y-95105027D01*
X86617631Y-95117719D01*
X86620391Y-95130205D01*
X86612675Y-95158542D01*
X86609135Y-95187701D01*
X86601870Y-95198224D01*
X86598512Y-95210561D01*
X86578510Y-95232068D01*
X86561825Y-95256241D01*
X86550503Y-95262182D01*
X86541796Y-95271546D01*
X86514089Y-95281294D01*
X86488083Y-95294944D01*
X86468559Y-95297314D01*
X86463235Y-95299188D01*
X86446442Y-95300000D01*
X86285031Y-95300000D01*
X86204169Y-95280069D01*
X86153531Y-95239946D01*
X86136136Y-95219871D01*
X86136133Y-95219868D01*
X86103358Y-95188242D01*
X86015028Y-95142037D01*
X86015026Y-95142036D01*
X86015025Y-95142035D01*
X86015024Y-95142035D01*
X85947985Y-95122350D01*
X85947980Y-95122349D01*
X85947979Y-95122349D01*
X85930596Y-95119849D01*
X85876000Y-95112000D01*
X85875997Y-95112000D01*
X85484416Y-95112000D01*
X85403554Y-95092069D01*
X85341217Y-95036843D01*
X85311685Y-94958973D01*
X85321723Y-94876299D01*
X85361379Y-94814963D01*
X85419414Y-94756928D01*
X85521232Y-94616788D01*
X85599873Y-94462445D01*
X85653402Y-94297701D01*
X85678142Y-94141492D01*
X85710477Y-94064747D01*
X85740346Y-94040158D01*
X85703313Y-94004872D01*
X85678142Y-93938504D01*
X85653402Y-93782299D01*
X85599873Y-93617555D01*
X85521232Y-93463212D01*
X85419414Y-93323072D01*
X85296928Y-93200586D01*
X85156788Y-93098768D01*
X85156785Y-93098766D01*
X85156783Y-93098765D01*
X85002453Y-93020131D01*
X85002445Y-93020127D01*
X84927030Y-92995623D01*
X84837701Y-92966598D01*
X84666611Y-92939500D01*
X84493389Y-92939500D01*
X84325772Y-92966048D01*
X84322299Y-92966598D01*
X84157554Y-93020127D01*
X84157546Y-93020131D01*
X84003216Y-93098765D01*
X83863070Y-93200587D01*
X83740587Y-93323070D01*
X83638765Y-93463216D01*
X83560131Y-93617546D01*
X83560127Y-93617554D01*
X83559498Y-93619490D01*
X83506598Y-93782299D01*
X83479500Y-93953389D01*
X83479500Y-94126611D01*
X83506598Y-94297700D01*
X83560127Y-94462445D01*
X83560131Y-94462453D01*
X83635563Y-94610499D01*
X83638768Y-94616788D01*
X83740586Y-94756928D01*
X83740587Y-94756929D01*
X83798621Y-94814963D01*
X83841705Y-94886234D01*
X83846734Y-94969364D01*
X83812554Y-95045309D01*
X83746996Y-95096671D01*
X83675584Y-95112000D01*
X83106500Y-95112000D01*
X83052186Y-95117838D01*
X83000693Y-95129040D01*
X83000683Y-95129043D01*
X82974301Y-95136281D01*
X82974297Y-95136283D01*
X82887675Y-95185609D01*
X82887665Y-95185617D01*
X82834871Y-95231363D01*
X82834868Y-95231366D01*
X82803242Y-95264141D01*
X82803242Y-95264142D01*
X82757037Y-95352471D01*
X82757036Y-95352473D01*
X82737351Y-95419511D01*
X82737349Y-95419520D01*
X82727000Y-95491502D01*
X81692869Y-95491502D01*
X81696738Y-91413389D01*
X83479500Y-91413389D01*
X83479500Y-91586611D01*
X83506598Y-91757701D01*
X83560127Y-91922445D01*
X83638768Y-92076788D01*
X83740586Y-92216928D01*
X83863072Y-92339414D01*
X84003212Y-92441232D01*
X84157555Y-92519873D01*
X84322299Y-92573402D01*
X84493389Y-92600500D01*
X84666611Y-92600500D01*
X84837701Y-92573402D01*
X85002445Y-92519873D01*
X85156788Y-92441232D01*
X85296928Y-92339414D01*
X85419414Y-92216928D01*
X85521232Y-92076788D01*
X85599873Y-91922445D01*
X85653402Y-91757701D01*
X85678142Y-91601492D01*
X85683920Y-91587779D01*
X85685178Y-91572950D01*
X85699871Y-91549920D01*
X85710477Y-91524747D01*
X85721966Y-91515288D01*
X85729972Y-91502741D01*
X85738148Y-91498064D01*
X85737333Y-91497287D01*
X85962755Y-91497287D01*
X85976909Y-91516281D01*
X85996687Y-91535126D01*
X86002631Y-91550800D01*
X86010350Y-91561158D01*
X86021856Y-91601490D01*
X86046598Y-91757701D01*
X86100127Y-91922445D01*
X86178768Y-92076788D01*
X86280586Y-92216928D01*
X86403072Y-92339414D01*
X86543212Y-92441232D01*
X86697555Y-92519873D01*
X86862299Y-92573402D01*
X87033389Y-92600500D01*
X87206611Y-92600500D01*
X87377701Y-92573402D01*
X87542445Y-92519873D01*
X87696788Y-92441232D01*
X87836928Y-92339414D01*
X87959414Y-92216928D01*
X88061232Y-92076788D01*
X88139873Y-91922445D01*
X88193402Y-91757701D01*
X88220500Y-91586611D01*
X88220500Y-91413389D01*
X88193402Y-91242299D01*
X88139873Y-91077555D01*
X88061232Y-90923212D01*
X87959414Y-90783072D01*
X87836928Y-90660586D01*
X87696788Y-90558768D01*
X87696785Y-90558766D01*
X87696783Y-90558765D01*
X87542453Y-90480131D01*
X87542445Y-90480127D01*
X87377701Y-90426598D01*
X87206611Y-90399500D01*
X87033389Y-90399500D01*
X86862299Y-90426598D01*
X86697554Y-90480127D01*
X86697546Y-90480131D01*
X86543216Y-90558765D01*
X86403070Y-90660587D01*
X86280587Y-90783070D01*
X86178765Y-90923216D01*
X86100131Y-91077546D01*
X86100127Y-91077554D01*
X86046598Y-91242299D01*
X86021858Y-91398504D01*
X85989523Y-91475252D01*
X85962755Y-91497287D01*
X85737333Y-91497287D01*
X85703313Y-91464872D01*
X85678142Y-91398504D01*
X85653402Y-91242299D01*
X85599873Y-91077555D01*
X85521232Y-90923212D01*
X85419414Y-90783072D01*
X85296928Y-90660586D01*
X85156788Y-90558768D01*
X85156785Y-90558766D01*
X85156783Y-90558765D01*
X85002453Y-90480131D01*
X85002445Y-90480127D01*
X84837701Y-90426598D01*
X84666611Y-90399500D01*
X84493389Y-90399500D01*
X84322299Y-90426598D01*
X84157554Y-90480127D01*
X84157546Y-90480131D01*
X84003216Y-90558765D01*
X83863070Y-90660587D01*
X83740587Y-90783070D01*
X83638765Y-90923216D01*
X83560131Y-91077546D01*
X83560127Y-91077554D01*
X83560127Y-91077555D01*
X83506598Y-91242299D01*
X83479500Y-91413389D01*
X81696738Y-91413389D01*
X81699148Y-88873389D01*
X83479500Y-88873389D01*
X83479500Y-89046611D01*
X83506598Y-89217701D01*
X83530854Y-89292352D01*
X83560127Y-89382445D01*
X83560131Y-89382453D01*
X83623210Y-89506255D01*
X83638768Y-89536788D01*
X83740586Y-89676928D01*
X83863072Y-89799414D01*
X84003212Y-89901232D01*
X84157555Y-89979873D01*
X84322299Y-90033402D01*
X84493389Y-90060500D01*
X84666611Y-90060500D01*
X84837701Y-90033402D01*
X85002445Y-89979873D01*
X85156788Y-89901232D01*
X85296928Y-89799414D01*
X85419414Y-89676928D01*
X85521232Y-89536788D01*
X85599873Y-89382445D01*
X85653402Y-89217701D01*
X85678142Y-89061492D01*
X85710477Y-88984747D01*
X85740346Y-88960158D01*
X85740012Y-88959840D01*
X85959653Y-88959840D01*
X85996687Y-88995126D01*
X86021856Y-89061492D01*
X86046598Y-89217701D01*
X86070854Y-89292352D01*
X86100127Y-89382445D01*
X86100131Y-89382453D01*
X86163210Y-89506255D01*
X86178768Y-89536788D01*
X86280586Y-89676928D01*
X86403072Y-89799414D01*
X86543212Y-89901232D01*
X86697555Y-89979873D01*
X86862299Y-90033402D01*
X87033389Y-90060500D01*
X87206611Y-90060500D01*
X87377701Y-90033402D01*
X87542445Y-89979873D01*
X87696788Y-89901232D01*
X87836928Y-89799414D01*
X87959414Y-89676928D01*
X88061232Y-89536788D01*
X88139873Y-89382445D01*
X88193402Y-89217701D01*
X88220500Y-89046611D01*
X88220500Y-88873389D01*
X88193402Y-88702299D01*
X88139873Y-88537555D01*
X88061232Y-88383212D01*
X87959414Y-88243072D01*
X87836928Y-88120586D01*
X87696788Y-88018768D01*
X87696785Y-88018766D01*
X87696783Y-88018765D01*
X87542453Y-87940131D01*
X87542445Y-87940127D01*
X87437866Y-87906147D01*
X87377701Y-87886598D01*
X87206611Y-87859500D01*
X87033389Y-87859500D01*
X86862299Y-87886598D01*
X86697554Y-87940127D01*
X86697546Y-87940131D01*
X86543216Y-88018765D01*
X86403070Y-88120587D01*
X86280587Y-88243070D01*
X86178765Y-88383216D01*
X86100131Y-88537546D01*
X86100127Y-88537554D01*
X86046598Y-88702299D01*
X86021858Y-88858504D01*
X85989523Y-88935252D01*
X85959653Y-88959840D01*
X85740012Y-88959840D01*
X85703313Y-88924872D01*
X85678142Y-88858504D01*
X85653402Y-88702299D01*
X85599873Y-88537555D01*
X85521232Y-88383212D01*
X85419414Y-88243072D01*
X85296928Y-88120586D01*
X85156788Y-88018768D01*
X85156785Y-88018766D01*
X85156783Y-88018765D01*
X85002453Y-87940131D01*
X85002445Y-87940127D01*
X84897866Y-87906147D01*
X84837701Y-87886598D01*
X84666611Y-87859500D01*
X84493389Y-87859500D01*
X84322299Y-87886598D01*
X84157554Y-87940127D01*
X84157546Y-87940131D01*
X84003216Y-88018765D01*
X83863070Y-88120587D01*
X83740587Y-88243070D01*
X83638765Y-88383216D01*
X83560131Y-88537546D01*
X83560127Y-88537554D01*
X83551098Y-88565343D01*
X83506598Y-88702299D01*
X83479500Y-88873389D01*
X81699148Y-88873389D01*
X81730562Y-55764583D01*
X81730561Y-55764581D01*
X81729084Y-55753278D01*
X81729613Y-55753208D01*
X81727222Y-55719922D01*
X81738288Y-55494682D01*
X81739961Y-55477689D01*
X81741318Y-55468540D01*
X81787973Y-55154014D01*
X81791297Y-55137310D01*
X81870801Y-54819909D01*
X81875747Y-54803602D01*
X81985988Y-54495501D01*
X81992507Y-54479764D01*
X82132408Y-54183967D01*
X82140442Y-54168935D01*
X82308665Y-53888273D01*
X82318141Y-53874093D01*
X82513050Y-53611287D01*
X82523860Y-53598115D01*
X82743599Y-53355671D01*
X82755672Y-53343599D01*
X82783649Y-53318242D01*
X82998115Y-53123860D01*
X83011287Y-53113050D01*
X83274093Y-52918141D01*
X83288273Y-52908665D01*
X83568935Y-52740442D01*
X83583967Y-52732408D01*
X83879764Y-52592507D01*
X83895501Y-52585988D01*
X84203602Y-52475747D01*
X84219909Y-52470801D01*
X84537310Y-52391297D01*
X84554014Y-52387973D01*
X84877694Y-52339960D01*
X84894676Y-52338288D01*
X85225725Y-52322024D01*
X85234263Y-52321815D01*
X85312479Y-52321815D01*
X85312497Y-52321812D01*
X153095743Y-52320500D01*
X153104278Y-52320709D01*
G37*
%TD.AperFunction*%
%TD*%
M02*
