%TF.GenerationSoftware,KiCad,Pcbnew,9.0.3*%
%TF.CreationDate,2026-03-22T00:20:11+01:00*%
%TF.ProjectId,gambos-pcb,67616d62-6f73-42d7-9063-622e6b696361,rev?*%
%TF.SameCoordinates,Original*%
%TF.FileFunction,Paste,Bot*%
%TF.FilePolarity,Positive*%
%FSLAX46Y46*%
G04 Gerber Fmt 4.6, Leading zero omitted, Abs format (unit mm)*
G04 Created by KiCad (PCBNEW 9.0.3) date 2026-03-22 00:20:11*
%MOMM*%
%LPD*%
G01*
G04 APERTURE LIST*
G04 Aperture macros list*
%AMRoundRect*
0 Rectangle with rounded corners*
0 $1 Rounding radius*
0 $2 $3 $4 $5 $6 $7 $8 $9 X,Y pos of 4 corners*
0 Add a 4 corners polygon primitive as box body*
4,1,4,$2,$3,$4,$5,$6,$7,$8,$9,$2,$3,0*
0 Add four circle primitives for the rounded corners*
1,1,$1+$1,$2,$3*
1,1,$1+$1,$4,$5*
1,1,$1+$1,$6,$7*
1,1,$1+$1,$8,$9*
0 Add four rect primitives between the rounded corners*
20,1,$1+$1,$2,$3,$4,$5,0*
20,1,$1+$1,$4,$5,$6,$7,0*
20,1,$1+$1,$6,$7,$8,$9,0*
20,1,$1+$1,$8,$9,$2,$3,0*%
G04 Aperture macros list end*
%ADD10RoundRect,0.225000X-0.225000X-0.250000X0.225000X-0.250000X0.225000X0.250000X-0.225000X0.250000X0*%
%ADD11R,0.250000X0.500000*%
%ADD12R,0.450000X0.500000*%
%ADD13RoundRect,0.200000X-0.200000X-0.275000X0.200000X-0.275000X0.200000X0.275000X-0.200000X0.275000X0*%
%ADD14RoundRect,0.225000X-0.250000X0.225000X-0.250000X-0.225000X0.250000X-0.225000X0.250000X0.225000X0*%
%ADD15RoundRect,0.225000X0.250000X-0.225000X0.250000X0.225000X-0.250000X0.225000X-0.250000X-0.225000X0*%
%ADD16RoundRect,0.225000X0.225000X0.250000X-0.225000X0.250000X-0.225000X-0.250000X0.225000X-0.250000X0*%
%ADD17RoundRect,0.200000X-0.275000X0.200000X-0.275000X-0.200000X0.275000X-0.200000X0.275000X0.200000X0*%
%ADD18RoundRect,0.200000X0.200000X0.275000X-0.200000X0.275000X-0.200000X-0.275000X0.200000X-0.275000X0*%
G04 APERTURE END LIST*
D10*
%TO.C,C33*%
X100425000Y-69190000D03*
X101975000Y-69190000D03*
%TD*%
D11*
%TO.C,D10*%
X103155000Y-101110000D03*
X102655000Y-101110000D03*
D12*
X102155000Y-101110000D03*
D11*
X101655000Y-101110000D03*
X101155000Y-101110000D03*
X101155000Y-100310000D03*
X101655000Y-100310000D03*
D12*
X102155000Y-100310000D03*
D11*
X102655000Y-100310000D03*
X103155000Y-100310000D03*
%TD*%
D13*
%TO.C,R3*%
X103955000Y-96700000D03*
X105605000Y-96700000D03*
%TD*%
D14*
%TO.C,C5*%
X107850000Y-76915000D03*
X107850000Y-78465000D03*
%TD*%
D15*
%TO.C,C20*%
X103158333Y-107745000D03*
X103158333Y-106195000D03*
%TD*%
D10*
%TO.C,C4*%
X100275000Y-71200000D03*
X101825000Y-71200000D03*
%TD*%
D11*
%TO.C,D7*%
X116300000Y-63600000D03*
X116800000Y-63600000D03*
D12*
X117300000Y-63600000D03*
D11*
X117800000Y-63600000D03*
X118300000Y-63600000D03*
X118300000Y-64400000D03*
X117800000Y-64400000D03*
D12*
X117300000Y-64400000D03*
D11*
X116800000Y-64400000D03*
X116300000Y-64400000D03*
%TD*%
D16*
%TO.C,C1*%
X109235000Y-82010000D03*
X107685000Y-82010000D03*
%TD*%
D15*
%TO.C,C31*%
X100400000Y-107745000D03*
X100400000Y-106195000D03*
%TD*%
%TO.C,C6*%
X97000000Y-74125000D03*
X97000000Y-72575000D03*
%TD*%
D17*
%TO.C,R32*%
X111040000Y-69855000D03*
X111040000Y-71505000D03*
%TD*%
D15*
%TO.C,C15*%
X105001667Y-107745000D03*
X105001667Y-106195000D03*
%TD*%
D17*
%TO.C,R37*%
X98705000Y-99460000D03*
X98705000Y-101110000D03*
%TD*%
%TO.C,R31*%
X108190000Y-68370000D03*
X108190000Y-70020000D03*
%TD*%
D15*
%TO.C,C12*%
X106845000Y-107745000D03*
X106845000Y-106195000D03*
%TD*%
D16*
%TO.C,C2*%
X102935000Y-82670000D03*
X101385000Y-82670000D03*
%TD*%
D11*
%TO.C,D5*%
X112600000Y-62900000D03*
X113100000Y-62900000D03*
D12*
X113600000Y-62900000D03*
D11*
X114100000Y-62900000D03*
X114600000Y-62900000D03*
X114600000Y-63700000D03*
X114100000Y-63700000D03*
D12*
X113600000Y-63700000D03*
D11*
X113100000Y-63700000D03*
X112600000Y-63700000D03*
%TD*%
D18*
%TO.C,R38*%
X94840000Y-102390000D03*
X93190000Y-102390000D03*
%TD*%
M02*
