%TF.GenerationSoftware,KiCad,Pcbnew,9.0.3*%
%TF.CreationDate,2026-03-22T00:20:11+01:00*%
%TF.ProjectId,gambos-pcb,67616d62-6f73-42d7-9063-622e6b696361,rev?*%
%TF.SameCoordinates,Original*%
%TF.FileFunction,Copper,L3,Inr*%
%TF.FilePolarity,Positive*%
%FSLAX46Y46*%
G04 Gerber Fmt 4.6, Leading zero omitted, Abs format (unit mm)*
G04 Created by KiCad (PCBNEW 9.0.3) date 2026-03-22 00:20:11*
%MOMM*%
%LPD*%
G01*
G04 APERTURE LIST*
%TA.AperFunction,ComponentPad*%
%ADD10R,1.700000X1.700000*%
%TD*%
%TA.AperFunction,ComponentPad*%
%ADD11C,1.700000*%
%TD*%
%TA.AperFunction,ComponentPad*%
%ADD12C,3.800000*%
%TD*%
%TA.AperFunction,ComponentPad*%
%ADD13C,1.308000*%
%TD*%
%TA.AperFunction,ComponentPad*%
%ADD14R,1.308000X1.308000*%
%TD*%
%TA.AperFunction,ViaPad*%
%ADD15C,0.600000*%
%TD*%
%TA.AperFunction,Conductor*%
%ADD16C,0.700000*%
%TD*%
G04 APERTURE END LIST*
D10*
%TO.N,GND*%
%TO.C,U1*%
X87120000Y-96580000D03*
D11*
%TO.N,+3V3*%
X84580000Y-96580000D03*
%TO.N,NRF24_CE_SLD*%
X87120000Y-94040000D03*
%TO.N,NRF24_CS_SLD*%
X84580000Y-94040000D03*
%TO.N,/Schematic/SPI1.SCK_1*%
X87120000Y-91500000D03*
%TO.N,/Schematic/SPI1.MOSI_1*%
X84580000Y-91500000D03*
%TO.N,/Schematic/SPI1.MISO_1*%
X87120000Y-88960000D03*
%TO.N,IRQ_SLD*%
X84580000Y-88960000D03*
%TD*%
D12*
%TO.N,GND*%
%TO.C,H1*%
X153100000Y-55820000D03*
%TD*%
D13*
%TO.N,+5V*%
%TO.C,C43*%
X143200000Y-80975000D03*
%TO.N,GND*%
X143200000Y-83475000D03*
%TD*%
D12*
%TO.N,GND*%
%TO.C,H4*%
X152940000Y-106140000D03*
%TD*%
D10*
%TO.N,+3V3*%
%TO.C,J5*%
X89800000Y-64960000D03*
D11*
%TO.N,/Schematic/Microcontroller/BOOT0_ESD*%
X89800000Y-67500000D03*
%TO.N,GND*%
X89800000Y-70040000D03*
%TD*%
D10*
%TO.N,GND*%
%TO.C,J10*%
X154180000Y-68700000D03*
D11*
%TO.N,+5V*%
X151640000Y-68700000D03*
%TO.N,/Schematic/Servos and connectors/SERVO1_OUT*%
X149100000Y-68700000D03*
%TD*%
D14*
%TO.N,/Schematic/Power and ESC/V_IN*%
%TO.C,J1*%
X126670000Y-106130000D03*
D13*
%TO.N,GND*%
X124670000Y-106130000D03*
%TD*%
D10*
%TO.N,GND*%
%TO.C,J9*%
X154180000Y-80700000D03*
D11*
%TO.N,+5V*%
X151640000Y-80700000D03*
%TO.N,/Schematic/Servos and connectors/SERVO3_OUT*%
X149100000Y-80700000D03*
%TD*%
D10*
%TO.N,GND*%
%TO.C,J12*%
X154180000Y-92700000D03*
D11*
%TO.N,+5V*%
X151640000Y-92700000D03*
%TO.N,/Schematic/Servos and connectors/SERVO5_OUT*%
X149100000Y-92700000D03*
%TD*%
D13*
%TO.N,+5V*%
%TO.C,C25*%
X143650000Y-72800000D03*
%TO.N,GND*%
X143650000Y-75300000D03*
%TD*%
D10*
%TO.N,GND*%
%TO.C,J7*%
X154180000Y-74700000D03*
D11*
%TO.N,+5V*%
X151640000Y-74700000D03*
%TO.N,/Schematic/Servos and connectors/SERVO2_OUT*%
X149100000Y-74700000D03*
%TD*%
D10*
%TO.N,GND*%
%TO.C,ESC*%
X135190000Y-107612500D03*
D11*
%TO.N,/Schematic/Power and ESC/V_IN*%
X135190000Y-105072500D03*
%TO.N,/Schematic/Servos and connectors/ESC_OUT*%
X135190000Y-102532500D03*
%TD*%
D12*
%TO.N,GND*%
%TO.C,H3*%
X85200000Y-106100000D03*
%TD*%
%TO.N,GND*%
%TO.C,H2*%
X85230000Y-55830000D03*
%TD*%
D10*
%TO.N,GND*%
%TO.C,J11*%
X154180000Y-86700000D03*
D11*
%TO.N,+5V*%
X151640000Y-86700000D03*
%TO.N,/Schematic/Servos and connectors/SERVO4_OUT*%
X149100000Y-86700000D03*
%TD*%
D15*
%TO.N,+3V3*%
X84510000Y-98120000D03*
%TO.N,GND*%
X100240000Y-93720000D03*
X138800000Y-103600000D03*
X139850000Y-103600000D03*
X107100000Y-82950000D03*
X142720000Y-107550000D03*
X101600000Y-59100000D03*
X130900000Y-72800000D03*
X108070000Y-108390000D03*
X94880000Y-87120000D03*
X93100000Y-82800000D03*
X95050000Y-80200000D03*
X150900000Y-64100000D03*
X101550000Y-80970000D03*
X125800000Y-109000000D03*
X83700000Y-70400000D03*
X122000000Y-108800000D03*
X125500000Y-97000000D03*
X123800000Y-72200000D03*
X149800000Y-53700000D03*
X91800000Y-71000000D03*
X97200000Y-91900000D03*
X89000000Y-53700000D03*
X98450000Y-72000000D03*
X130500000Y-58900000D03*
X128900000Y-108800000D03*
X83800000Y-82700000D03*
X83700000Y-61900000D03*
X90750000Y-80500000D03*
X146610000Y-85680000D03*
X148600000Y-108300000D03*
X89260000Y-105140000D03*
X119100000Y-78800000D03*
X119000000Y-87500000D03*
X108165000Y-86780000D03*
X153700000Y-59300000D03*
X142700000Y-53800000D03*
X146680000Y-69910000D03*
X124990000Y-52800000D03*
X136500000Y-60000000D03*
X83600000Y-73200000D03*
X137400000Y-90200000D03*
X122300000Y-52800000D03*
X93100000Y-84800000D03*
X145400000Y-59700000D03*
X145900000Y-65300000D03*
X117400000Y-65800000D03*
X140400000Y-100700000D03*
X93600000Y-106100000D03*
X150400000Y-57500000D03*
X95350000Y-74800000D03*
X122490000Y-77450000D03*
X92400000Y-92700000D03*
X103400000Y-63700000D03*
X94200000Y-74800000D03*
X90050000Y-77450000D03*
X90550000Y-78450000D03*
X104360000Y-100170000D03*
X153100000Y-102100000D03*
X106300000Y-78700000D03*
X146150000Y-78460000D03*
X138650000Y-79620000D03*
X104230000Y-101790000D03*
X91950000Y-74950000D03*
X154700000Y-72200000D03*
X97340000Y-70859999D03*
X90000000Y-88800000D03*
X83700000Y-85200000D03*
X106420000Y-75460000D03*
X96240000Y-58460000D03*
X125750000Y-98510000D03*
X96680000Y-60770000D03*
X98070000Y-95110000D03*
X130900000Y-108400000D03*
X133000000Y-94700000D03*
X116990000Y-98150000D03*
X89830000Y-107990000D03*
X111700000Y-55100000D03*
X107300000Y-80300000D03*
X114200000Y-68300000D03*
X108940000Y-77540000D03*
X136000000Y-94700000D03*
X93600000Y-107100000D03*
X108570000Y-92920000D03*
X91100000Y-53600000D03*
X122520000Y-74660000D03*
X90600000Y-75150000D03*
X96950000Y-75750000D03*
X93950000Y-80500000D03*
X133500000Y-53600000D03*
X101435469Y-72287637D03*
X112900000Y-64900000D03*
X112300000Y-108300000D03*
X154900000Y-84400000D03*
X123200000Y-85700000D03*
X138700000Y-72200000D03*
X87300000Y-57900000D03*
X125820000Y-75620000D03*
X119000000Y-85300000D03*
X139000000Y-100700000D03*
X121800000Y-97100000D03*
X138630000Y-76970000D03*
X121800000Y-103100000D03*
X110300000Y-108300000D03*
X148400000Y-105200000D03*
X130500000Y-61800000D03*
X115270000Y-102420000D03*
X108300000Y-72200000D03*
X90100000Y-76200000D03*
X117300000Y-54000000D03*
X124000000Y-63300000D03*
X114630000Y-66470000D03*
X83900000Y-59500000D03*
X145700000Y-53500000D03*
X89100000Y-56200000D03*
X111700000Y-74700000D03*
X92430000Y-67009999D03*
X107100000Y-52700000D03*
X139600000Y-52900000D03*
X90150000Y-79550000D03*
X93110000Y-61530000D03*
X91850000Y-80500000D03*
X134460000Y-94660000D03*
X110840000Y-96560000D03*
X153900000Y-62600000D03*
X111450000Y-92850000D03*
X112250000Y-65760000D03*
X98200000Y-52800000D03*
X149300000Y-99900000D03*
X95868899Y-70797999D03*
X137600000Y-62800000D03*
X127900000Y-97000000D03*
X98330000Y-107530000D03*
X92590000Y-58490000D03*
X154600000Y-78100000D03*
X107500000Y-99600000D03*
X154600000Y-89900000D03*
X135000000Y-52800000D03*
X114500000Y-108300000D03*
X93100000Y-83800000D03*
X121600000Y-71200000D03*
X99810000Y-103150000D03*
X86500000Y-62700000D03*
X154200000Y-65400000D03*
X92800000Y-80500000D03*
X93050000Y-74800000D03*
X99600000Y-86000000D03*
X99480000Y-59500000D03*
X145700000Y-62200000D03*
X93920000Y-108680000D03*
X83600000Y-80000000D03*
X90220000Y-94160000D03*
X83600000Y-75700000D03*
X124100000Y-104000000D03*
X123880000Y-80680000D03*
X123200000Y-84700000D03*
X101800000Y-108700000D03*
X111200000Y-52700000D03*
X152900000Y-99000000D03*
X121800000Y-101200000D03*
X102800000Y-52700000D03*
X116600000Y-108300000D03*
X95900000Y-100200000D03*
X121200000Y-87500000D03*
X125100000Y-74600000D03*
X141800000Y-67200000D03*
X131900000Y-108400000D03*
X151200000Y-60600000D03*
X96870000Y-56420000D03*
X124200000Y-101200000D03*
X83600000Y-77800000D03*
X121800000Y-99200000D03*
X138590000Y-82160000D03*
X102890000Y-78490000D03*
X154700000Y-97100000D03*
X101584265Y-83824265D03*
X103200000Y-92300000D03*
X97700000Y-80775000D03*
X148600000Y-102600000D03*
%TO.N,+3V3*%
X129410000Y-90950000D03*
X108700000Y-83700000D03*
X92918899Y-69797999D03*
X107400000Y-65600000D03*
X120800000Y-57500000D03*
X108880000Y-76170000D03*
X84530000Y-100130000D03*
X129410000Y-91950000D03*
X113000000Y-90430000D03*
X130410000Y-89950000D03*
X131410000Y-88950000D03*
X94620000Y-64830000D03*
X131410000Y-90950000D03*
X135900000Y-54200000D03*
X131410000Y-91950000D03*
X86200000Y-68400000D03*
X84530000Y-101900000D03*
X129410000Y-92950000D03*
X131410000Y-89950000D03*
X104950000Y-63650000D03*
X94718899Y-67397999D03*
X88500000Y-85850000D03*
X140700000Y-63600000D03*
X130410000Y-91950000D03*
X97318899Y-66997999D03*
X90450000Y-85850000D03*
X100850000Y-66700000D03*
X130410000Y-92950000D03*
X117550000Y-105800000D03*
X129410000Y-89000000D03*
X101800000Y-106300000D03*
X129410000Y-89950000D03*
X130410000Y-88950000D03*
X131410000Y-92950000D03*
X113355000Y-106305000D03*
X130410000Y-90950000D03*
X113590000Y-103000000D03*
X98400000Y-74900000D03*
X102800000Y-83800000D03*
X100390000Y-72480000D03*
X106700000Y-90000000D03*
%TO.N,NRST*%
X115460000Y-62800000D03*
X114990000Y-68130000D03*
X102100000Y-78700000D03*
%TO.N,+5V*%
X145600000Y-89270000D03*
X146600000Y-91442000D03*
X126550000Y-86950000D03*
X141340000Y-87400000D03*
X125650000Y-86950000D03*
X140340000Y-88400000D03*
X144820000Y-88510000D03*
X143570000Y-87370000D03*
X145800000Y-88200000D03*
X141340000Y-88400000D03*
X125300000Y-79900000D03*
X145600000Y-90356000D03*
X146600000Y-94700000D03*
X145600000Y-91442000D03*
X143570000Y-88370000D03*
X145600000Y-94700000D03*
X145600000Y-92528000D03*
X146600000Y-90356000D03*
X146600000Y-93614000D03*
X146600000Y-89270000D03*
X145600000Y-93614000D03*
X144800000Y-87500000D03*
X146600000Y-92528000D03*
X142570000Y-88370000D03*
X140340000Y-87400000D03*
X126100000Y-79900000D03*
X142570000Y-87370000D03*
%TO.N,UART4_RX*%
X113100000Y-61100000D03*
X114100000Y-65930000D03*
%TO.N,UART4_TX*%
X111460000Y-65720000D03*
X111460000Y-61500000D03*
%TO.N,FLASH_CS*%
X111660000Y-96560000D03*
X109440000Y-92920000D03*
%TO.N,SWCLK*%
X118400000Y-62400000D03*
%TO.N,SWDIO*%
X120000000Y-62700000D03*
%TO.N,/Schematic/Microcontroller/USER_BTN*%
X102198497Y-80358925D03*
X124850000Y-73850000D03*
%TO.N,NRF24_CE_SLD*%
X89350000Y-94060000D03*
X95550000Y-86700000D03*
%TO.N,/Schematic/Servos and connectors/ESC_OUT*%
X125100000Y-99200000D03*
%TO.N,/Schematic/SPI2.SCK_2*%
X100975000Y-103090000D03*
%TO.N,/Schematic/SPI2.MOSI_2*%
X103150000Y-103080000D03*
%TO.N,/Schematic/SPI2.MISO_2*%
X98750000Y-102535000D03*
%TO.N,/Schematic/I2C.SDA*%
X96400000Y-57500000D03*
X98500000Y-59500000D03*
%TO.N,Net-(U7-PC10)*%
X108100000Y-71000000D03*
%TO.N,Net-(U7-PC11)*%
X107290000Y-75330000D03*
%TO.N,SWO*%
X116500000Y-62300000D03*
%TO.N,Net-(J2-DAT1)*%
X97625000Y-102830000D03*
%TO.N,SD_CS*%
X104255000Y-102610000D03*
X105670000Y-93700000D03*
%TD*%
D16*
%TO.N,GND*%
X90840000Y-70040000D02*
X91800000Y-71000000D01*
X89800000Y-70040000D02*
X90840000Y-70040000D01*
%TD*%
%TA.AperFunction,Conductor*%
%TO.N,GND*%
G36*
X153103036Y-52320648D02*
G01*
X153436929Y-52337052D01*
X153449037Y-52338245D01*
X153552146Y-52353539D01*
X153776699Y-52386849D01*
X153788617Y-52389219D01*
X154109951Y-52469709D01*
X154121588Y-52473240D01*
X154192806Y-52498722D01*
X154433467Y-52584832D01*
X154444688Y-52589479D01*
X154744163Y-52731120D01*
X154754871Y-52736844D01*
X155038988Y-52907137D01*
X155049106Y-52913897D01*
X155315170Y-53111224D01*
X155324576Y-53118944D01*
X155570013Y-53341395D01*
X155578604Y-53349986D01*
X155765755Y-53556475D01*
X155801055Y-53595423D01*
X155808775Y-53604829D01*
X156006102Y-53870893D01*
X156012862Y-53881011D01*
X156141776Y-54096092D01*
X156183148Y-54165116D01*
X156188883Y-54175844D01*
X156329393Y-54472928D01*
X156330514Y-54475297D01*
X156335170Y-54486540D01*
X156446759Y-54798411D01*
X156450292Y-54810055D01*
X156530777Y-55131369D01*
X156533151Y-55143305D01*
X156581754Y-55470962D01*
X156582947Y-55483072D01*
X156599339Y-55816745D01*
X156599487Y-55823211D01*
X156444567Y-106064650D01*
X156444567Y-106064659D01*
X156444539Y-106073355D01*
X156444339Y-106074108D01*
X156444339Y-106137017D01*
X156444338Y-106137335D01*
X156444328Y-106137366D01*
X156444190Y-106143029D01*
X156427763Y-106477402D01*
X156426570Y-106489512D01*
X156377897Y-106817636D01*
X156375523Y-106829570D01*
X156294921Y-107151353D01*
X156291388Y-107162998D01*
X156179642Y-107475307D01*
X156174986Y-107486550D01*
X156033153Y-107786432D01*
X156027416Y-107797164D01*
X155856882Y-108081681D01*
X155850122Y-108091798D01*
X155652520Y-108358235D01*
X155644800Y-108367642D01*
X155422033Y-108613428D01*
X155413428Y-108622033D01*
X155167642Y-108844800D01*
X155158235Y-108852520D01*
X154891798Y-109050122D01*
X154881681Y-109056882D01*
X154597164Y-109227416D01*
X154586432Y-109233153D01*
X154286550Y-109374986D01*
X154275307Y-109379642D01*
X153962998Y-109491388D01*
X153951353Y-109494921D01*
X153629570Y-109575523D01*
X153617636Y-109577897D01*
X153289513Y-109626570D01*
X153277402Y-109627763D01*
X153025925Y-109640117D01*
X153011140Y-109639510D01*
X85263767Y-109629510D01*
X85255926Y-109629508D01*
X85255892Y-109629500D01*
X85193047Y-109629500D01*
X85193045Y-109629499D01*
X85186981Y-109629351D01*
X84853071Y-109612947D01*
X84840960Y-109611754D01*
X84513304Y-109563151D01*
X84501369Y-109560777D01*
X84180055Y-109480292D01*
X84168411Y-109476759D01*
X83856540Y-109365170D01*
X83845301Y-109360515D01*
X83545844Y-109218883D01*
X83535121Y-109213150D01*
X83269178Y-109053751D01*
X83251011Y-109042862D01*
X83240893Y-109036102D01*
X82974829Y-108838775D01*
X82965423Y-108831055D01*
X82926475Y-108795755D01*
X82719986Y-108608604D01*
X82711395Y-108600013D01*
X82488944Y-108354576D01*
X82481224Y-108345170D01*
X82283897Y-108079106D01*
X82277137Y-108068988D01*
X82106844Y-107784871D01*
X82101120Y-107774163D01*
X81959479Y-107474688D01*
X81954829Y-107463459D01*
X81926604Y-107384576D01*
X81858314Y-107193717D01*
X81843240Y-107151588D01*
X81839707Y-107139944D01*
X81759219Y-106818617D01*
X81756848Y-106806694D01*
X81755593Y-106798234D01*
X125871499Y-106798234D01*
X125879883Y-106840381D01*
X125911820Y-106888178D01*
X125911821Y-106888179D01*
X125959618Y-106920116D01*
X126001765Y-106928500D01*
X126001768Y-106928500D01*
X127338234Y-106928500D01*
X127380381Y-106920116D01*
X127404415Y-106904057D01*
X127428179Y-106888179D01*
X127460116Y-106840381D01*
X127468500Y-106798234D01*
X127468500Y-106745943D01*
X140539500Y-106745943D01*
X140539500Y-106904057D01*
X140546050Y-106928500D01*
X140580423Y-107056783D01*
X140580426Y-107056790D01*
X140659475Y-107193709D01*
X140659479Y-107193714D01*
X140659480Y-107193716D01*
X140771284Y-107305520D01*
X140771286Y-107305521D01*
X140771290Y-107305524D01*
X140908209Y-107384573D01*
X140908216Y-107384577D01*
X141060943Y-107425500D01*
X141060945Y-107425500D01*
X141219055Y-107425500D01*
X141219057Y-107425500D01*
X141371784Y-107384577D01*
X141508716Y-107305520D01*
X141620520Y-107193716D01*
X141699577Y-107056784D01*
X141740500Y-106904057D01*
X141740500Y-106745943D01*
X143539500Y-106745943D01*
X143539500Y-106904057D01*
X143546050Y-106928500D01*
X143580423Y-107056783D01*
X143580426Y-107056790D01*
X143659475Y-107193709D01*
X143659479Y-107193714D01*
X143659480Y-107193716D01*
X143771284Y-107305520D01*
X143771286Y-107305521D01*
X143771290Y-107305524D01*
X143908209Y-107384573D01*
X143908216Y-107384577D01*
X144060943Y-107425500D01*
X144060945Y-107425500D01*
X144219055Y-107425500D01*
X144219057Y-107425500D01*
X144371784Y-107384577D01*
X144508716Y-107305520D01*
X144620520Y-107193716D01*
X144699577Y-107056784D01*
X144740500Y-106904057D01*
X144740500Y-106745943D01*
X144699577Y-106593216D01*
X144639704Y-106489512D01*
X144620524Y-106456290D01*
X144620518Y-106456282D01*
X144508717Y-106344481D01*
X144508709Y-106344475D01*
X144371790Y-106265426D01*
X144371786Y-106265424D01*
X144371784Y-106265423D01*
X144219057Y-106224500D01*
X144060943Y-106224500D01*
X143908216Y-106265423D01*
X143908209Y-106265426D01*
X143771290Y-106344475D01*
X143771282Y-106344481D01*
X143659481Y-106456282D01*
X143659475Y-106456290D01*
X143580426Y-106593209D01*
X143580423Y-106593216D01*
X143539500Y-106745943D01*
X141740500Y-106745943D01*
X141699577Y-106593216D01*
X141639704Y-106489512D01*
X141620524Y-106456290D01*
X141620518Y-106456282D01*
X141508717Y-106344481D01*
X141508709Y-106344475D01*
X141371790Y-106265426D01*
X141371786Y-106265424D01*
X141371784Y-106265423D01*
X141219057Y-106224500D01*
X141060943Y-106224500D01*
X140908216Y-106265423D01*
X140908209Y-106265426D01*
X140771290Y-106344475D01*
X140771282Y-106344481D01*
X140659481Y-106456282D01*
X140659475Y-106456290D01*
X140580426Y-106593209D01*
X140580423Y-106593216D01*
X140539500Y-106745943D01*
X127468500Y-106745943D01*
X127468500Y-105461765D01*
X127460116Y-105419618D01*
X127428179Y-105371821D01*
X127428178Y-105371820D01*
X127380381Y-105339883D01*
X127338234Y-105331500D01*
X127338232Y-105331500D01*
X126001768Y-105331500D01*
X126001766Y-105331500D01*
X125959618Y-105339883D01*
X125911821Y-105371820D01*
X125911820Y-105371821D01*
X125879883Y-105419618D01*
X125871500Y-105461765D01*
X125871500Y-105461768D01*
X125871500Y-106798232D01*
X125871500Y-106798234D01*
X125871499Y-106798234D01*
X81755593Y-106798234D01*
X81747622Y-106744500D01*
X81708245Y-106479037D01*
X81707052Y-106466927D01*
X81695976Y-106241480D01*
X101355500Y-106241480D01*
X101355500Y-106358520D01*
X101385792Y-106471571D01*
X101444311Y-106572930D01*
X101527070Y-106655689D01*
X101628429Y-106714208D01*
X101741480Y-106744500D01*
X101741482Y-106744500D01*
X101858517Y-106744500D01*
X101858520Y-106744500D01*
X101971571Y-106714208D01*
X102072930Y-106655689D01*
X102155689Y-106572930D01*
X102214208Y-106471571D01*
X102244500Y-106358520D01*
X102244500Y-106246480D01*
X112910500Y-106246480D01*
X112910500Y-106363520D01*
X112940792Y-106476571D01*
X112999311Y-106577930D01*
X113082070Y-106660689D01*
X113183429Y-106719208D01*
X113296480Y-106749500D01*
X113296482Y-106749500D01*
X113413517Y-106749500D01*
X113413520Y-106749500D01*
X113526571Y-106719208D01*
X113627930Y-106660689D01*
X113710689Y-106577930D01*
X113769208Y-106476571D01*
X113799500Y-106363520D01*
X113799500Y-106246480D01*
X113769208Y-106133429D01*
X113710689Y-106032070D01*
X113627930Y-105949311D01*
X113526571Y-105890792D01*
X113413520Y-105860500D01*
X113296480Y-105860500D01*
X113221112Y-105880694D01*
X113183428Y-105890792D01*
X113082071Y-105949310D01*
X113082068Y-105949312D01*
X112999312Y-106032068D01*
X112999310Y-106032071D01*
X112940792Y-106133428D01*
X112934828Y-106155687D01*
X112910500Y-106246480D01*
X102244500Y-106246480D01*
X102244500Y-106241480D01*
X102214208Y-106128429D01*
X102155689Y-106027070D01*
X102072930Y-105944311D01*
X101971571Y-105885792D01*
X101858520Y-105855500D01*
X101741480Y-105855500D01*
X101666112Y-105875694D01*
X101628428Y-105885792D01*
X101527071Y-105944310D01*
X101527068Y-105944312D01*
X101444312Y-106027068D01*
X101444310Y-106027071D01*
X101385792Y-106128428D01*
X101381880Y-106143029D01*
X101355500Y-106241480D01*
X81695976Y-106241480D01*
X81690860Y-106137335D01*
X81690649Y-106133032D01*
X81690500Y-106126948D01*
X81690500Y-106064110D01*
X81690500Y-106064108D01*
X81687105Y-106051441D01*
X81682881Y-106019238D01*
X81683145Y-105741480D01*
X117105500Y-105741480D01*
X117105500Y-105858520D01*
X117135792Y-105971571D01*
X117194311Y-106072930D01*
X117277070Y-106155689D01*
X117378429Y-106214208D01*
X117491480Y-106244500D01*
X117491482Y-106244500D01*
X117608517Y-106244500D01*
X117608520Y-106244500D01*
X117721571Y-106214208D01*
X117822930Y-106155689D01*
X117905689Y-106072930D01*
X117964208Y-105971571D01*
X117994500Y-105858520D01*
X117994500Y-105741480D01*
X117964208Y-105628429D01*
X117905689Y-105527070D01*
X117822930Y-105444311D01*
X117721571Y-105385792D01*
X117608520Y-105355500D01*
X117491480Y-105355500D01*
X117416112Y-105375694D01*
X117378428Y-105385792D01*
X117277071Y-105444310D01*
X117277068Y-105444312D01*
X117194312Y-105527068D01*
X117194310Y-105527071D01*
X117135792Y-105628428D01*
X117135792Y-105628429D01*
X117105500Y-105741480D01*
X81683145Y-105741480D01*
X81683873Y-104974545D01*
X134195500Y-104974545D01*
X134195500Y-105170454D01*
X134233716Y-105362577D01*
X134233719Y-105362589D01*
X134308683Y-105543570D01*
X134308685Y-105543573D01*
X134417517Y-105706452D01*
X134417523Y-105706460D01*
X134556039Y-105844976D01*
X134556047Y-105844982D01*
X134718926Y-105953814D01*
X134718929Y-105953816D01*
X134876864Y-106019234D01*
X134899915Y-106028782D01*
X135077511Y-106064108D01*
X135092045Y-106066999D01*
X135092048Y-106067000D01*
X135092050Y-106067000D01*
X135287952Y-106067000D01*
X135287953Y-106066999D01*
X135480085Y-106028782D01*
X135661072Y-105953815D01*
X135823957Y-105844979D01*
X135962479Y-105706457D01*
X136071315Y-105543572D01*
X136146282Y-105362585D01*
X136184500Y-105170450D01*
X136184500Y-104974550D01*
X136184500Y-104974547D01*
X136184499Y-104974545D01*
X136146283Y-104782422D01*
X136146282Y-104782415D01*
X136146280Y-104782410D01*
X136071316Y-104601429D01*
X136071314Y-104601426D01*
X135962482Y-104438547D01*
X135962476Y-104438539D01*
X135823960Y-104300023D01*
X135823952Y-104300017D01*
X135661073Y-104191185D01*
X135661070Y-104191183D01*
X135480089Y-104116219D01*
X135480077Y-104116216D01*
X135287953Y-104078000D01*
X135287950Y-104078000D01*
X135092050Y-104078000D01*
X135092047Y-104078000D01*
X134899922Y-104116216D01*
X134899910Y-104116219D01*
X134718929Y-104191183D01*
X134718926Y-104191185D01*
X134556047Y-104300017D01*
X134556039Y-104300023D01*
X134417523Y-104438539D01*
X134417517Y-104438547D01*
X134308685Y-104601426D01*
X134308683Y-104601429D01*
X134233719Y-104782410D01*
X134233716Y-104782422D01*
X134195500Y-104974545D01*
X81683873Y-104974545D01*
X81685615Y-103138517D01*
X81685963Y-102771480D01*
X97180500Y-102771480D01*
X97180500Y-102888520D01*
X97210792Y-103001571D01*
X97269311Y-103102930D01*
X97352070Y-103185689D01*
X97453429Y-103244208D01*
X97566480Y-103274500D01*
X97566482Y-103274500D01*
X97683517Y-103274500D01*
X97683520Y-103274500D01*
X97796571Y-103244208D01*
X97897930Y-103185689D01*
X97980689Y-103102930D01*
X98021940Y-103031480D01*
X100530500Y-103031480D01*
X100530500Y-103148520D01*
X100560792Y-103261571D01*
X100619311Y-103362930D01*
X100702070Y-103445689D01*
X100803429Y-103504208D01*
X100916480Y-103534500D01*
X100916482Y-103534500D01*
X101033517Y-103534500D01*
X101033520Y-103534500D01*
X101146571Y-103504208D01*
X101247930Y-103445689D01*
X101330689Y-103362930D01*
X101389208Y-103261571D01*
X101419500Y-103148520D01*
X101419500Y-103031480D01*
X101416821Y-103021480D01*
X102705500Y-103021480D01*
X102705500Y-103138520D01*
X102735792Y-103251571D01*
X102794311Y-103352930D01*
X102877070Y-103435689D01*
X102978429Y-103494208D01*
X103091480Y-103524500D01*
X103091482Y-103524500D01*
X103208517Y-103524500D01*
X103208520Y-103524500D01*
X103321571Y-103494208D01*
X103422930Y-103435689D01*
X103505689Y-103352930D01*
X103564208Y-103251571D01*
X103594500Y-103138520D01*
X103594500Y-103021480D01*
X103564208Y-102908429D01*
X103505689Y-102807070D01*
X103422930Y-102724311D01*
X103321571Y-102665792D01*
X103321572Y-102665792D01*
X103318072Y-102664854D01*
X103311626Y-102663127D01*
X103245840Y-102645500D01*
X103208520Y-102635500D01*
X103091480Y-102635500D01*
X103016112Y-102655694D01*
X102978428Y-102665792D01*
X102877071Y-102724310D01*
X102877068Y-102724312D01*
X102794312Y-102807068D01*
X102794310Y-102807071D01*
X102735792Y-102908428D01*
X102726936Y-102941480D01*
X102705500Y-103021480D01*
X101416821Y-103021480D01*
X101389208Y-102918429D01*
X101330689Y-102817070D01*
X101247930Y-102734311D01*
X101146571Y-102675792D01*
X101033520Y-102645500D01*
X100916480Y-102645500D01*
X100850692Y-102663128D01*
X100803428Y-102675792D01*
X100702071Y-102734310D01*
X100702068Y-102734312D01*
X100619312Y-102817068D01*
X100619310Y-102817071D01*
X100560792Y-102918428D01*
X100560792Y-102918429D01*
X100530500Y-103031480D01*
X98021940Y-103031480D01*
X98039208Y-103001571D01*
X98069500Y-102888520D01*
X98069500Y-102771480D01*
X98039208Y-102658429D01*
X97980689Y-102557070D01*
X97900099Y-102476480D01*
X98305500Y-102476480D01*
X98305500Y-102593520D01*
X98335792Y-102706571D01*
X98394311Y-102807930D01*
X98477070Y-102890689D01*
X98578429Y-102949208D01*
X98691480Y-102979500D01*
X98691482Y-102979500D01*
X98808517Y-102979500D01*
X98808520Y-102979500D01*
X98921571Y-102949208D01*
X98979150Y-102915964D01*
X98979153Y-102915964D01*
X99022923Y-102890693D01*
X99022922Y-102890693D01*
X99022930Y-102890689D01*
X99105689Y-102807930D01*
X99164208Y-102706571D01*
X99194500Y-102593520D01*
X99194500Y-102551480D01*
X103810500Y-102551480D01*
X103810500Y-102668520D01*
X103840792Y-102781571D01*
X103899311Y-102882930D01*
X103982070Y-102965689D01*
X104083429Y-103024208D01*
X104196480Y-103054500D01*
X104196482Y-103054500D01*
X104313517Y-103054500D01*
X104313520Y-103054500D01*
X104426571Y-103024208D01*
X104527930Y-102965689D01*
X104552139Y-102941480D01*
X113145500Y-102941480D01*
X113145500Y-103058520D01*
X113175792Y-103171571D01*
X113234311Y-103272930D01*
X113317070Y-103355689D01*
X113418429Y-103414208D01*
X113531480Y-103444500D01*
X113531482Y-103444500D01*
X113648517Y-103444500D01*
X113648520Y-103444500D01*
X113761571Y-103414208D01*
X113862930Y-103355689D01*
X113945689Y-103272930D01*
X114004208Y-103171571D01*
X114034500Y-103058520D01*
X114034500Y-102941480D01*
X114004208Y-102828429D01*
X113945689Y-102727070D01*
X113862930Y-102644311D01*
X113761571Y-102585792D01*
X113648520Y-102555500D01*
X113531480Y-102555500D01*
X113456112Y-102575694D01*
X113418428Y-102585792D01*
X113317071Y-102644310D01*
X113317068Y-102644312D01*
X113234312Y-102727068D01*
X113234310Y-102727071D01*
X113175792Y-102828428D01*
X113175792Y-102828429D01*
X113145500Y-102941480D01*
X104552139Y-102941480D01*
X104610689Y-102882930D01*
X104669208Y-102781571D01*
X104699500Y-102668520D01*
X104699500Y-102551480D01*
X104669208Y-102438429D01*
X104666966Y-102434545D01*
X134195500Y-102434545D01*
X134195500Y-102630454D01*
X134233716Y-102822577D01*
X134233719Y-102822589D01*
X134308683Y-103003570D01*
X134308685Y-103003573D01*
X134417517Y-103166452D01*
X134417523Y-103166460D01*
X134556039Y-103304976D01*
X134556047Y-103304982D01*
X134718926Y-103413814D01*
X134718929Y-103413816D01*
X134899910Y-103488780D01*
X134899915Y-103488782D01*
X135079482Y-103524500D01*
X135092045Y-103526999D01*
X135092048Y-103527000D01*
X135092050Y-103527000D01*
X135287952Y-103527000D01*
X135287953Y-103526999D01*
X135480085Y-103488782D01*
X135608268Y-103435687D01*
X135661070Y-103413816D01*
X135661073Y-103413814D01*
X135737225Y-103362931D01*
X135823957Y-103304979D01*
X135962479Y-103166457D01*
X136071315Y-103003572D01*
X136146282Y-102822585D01*
X136184500Y-102630450D01*
X136184500Y-102434550D01*
X136184500Y-102434547D01*
X136184499Y-102434545D01*
X136165110Y-102337070D01*
X136146282Y-102242415D01*
X136117501Y-102172931D01*
X136071316Y-102061429D01*
X136071314Y-102061426D01*
X135962482Y-101898547D01*
X135962476Y-101898539D01*
X135823960Y-101760023D01*
X135823952Y-101760017D01*
X135661073Y-101651185D01*
X135661070Y-101651183D01*
X135480089Y-101576219D01*
X135480077Y-101576216D01*
X135287953Y-101538000D01*
X135287950Y-101538000D01*
X135092050Y-101538000D01*
X135092047Y-101538000D01*
X134899922Y-101576216D01*
X134899910Y-101576219D01*
X134718929Y-101651183D01*
X134718926Y-101651185D01*
X134556047Y-101760017D01*
X134556039Y-101760023D01*
X134417523Y-101898539D01*
X134417517Y-101898547D01*
X134308685Y-102061426D01*
X134308683Y-102061429D01*
X134233719Y-102242410D01*
X134233716Y-102242422D01*
X134195500Y-102434545D01*
X104666966Y-102434545D01*
X104610689Y-102337070D01*
X104527930Y-102254311D01*
X104426571Y-102195792D01*
X104313520Y-102165500D01*
X104196480Y-102165500D01*
X104121112Y-102185694D01*
X104083428Y-102195792D01*
X103982071Y-102254310D01*
X103982068Y-102254312D01*
X103899312Y-102337068D01*
X103899310Y-102337071D01*
X103840792Y-102438428D01*
X103840792Y-102438429D01*
X103810500Y-102551480D01*
X99194500Y-102551480D01*
X99194500Y-102476480D01*
X99164208Y-102363429D01*
X99105689Y-102262070D01*
X99022930Y-102179311D01*
X98921571Y-102120792D01*
X98808520Y-102090500D01*
X98691480Y-102090500D01*
X98616112Y-102110694D01*
X98578428Y-102120792D01*
X98477071Y-102179310D01*
X98477068Y-102179312D01*
X98394312Y-102262068D01*
X98394310Y-102262071D01*
X98335792Y-102363428D01*
X98335792Y-102363429D01*
X98305500Y-102476480D01*
X97900099Y-102476480D01*
X97897930Y-102474311D01*
X97796571Y-102415792D01*
X97683520Y-102385500D01*
X97566480Y-102385500D01*
X97491112Y-102405694D01*
X97453428Y-102415792D01*
X97352071Y-102474310D01*
X97352068Y-102474312D01*
X97269312Y-102557068D01*
X97269310Y-102557071D01*
X97210792Y-102658428D01*
X97200694Y-102696112D01*
X97180500Y-102771480D01*
X81685963Y-102771480D01*
X81685971Y-102763235D01*
X81686845Y-101841480D01*
X84085500Y-101841480D01*
X84085500Y-101958520D01*
X84115792Y-102071571D01*
X84174311Y-102172930D01*
X84257070Y-102255689D01*
X84358429Y-102314208D01*
X84471480Y-102344500D01*
X84471482Y-102344500D01*
X84588517Y-102344500D01*
X84588520Y-102344500D01*
X84701571Y-102314208D01*
X84802930Y-102255689D01*
X84885689Y-102172930D01*
X84944208Y-102071571D01*
X84974500Y-101958520D01*
X84974500Y-101841480D01*
X84944208Y-101728429D01*
X84885689Y-101627070D01*
X84802930Y-101544311D01*
X84701571Y-101485792D01*
X84588520Y-101455500D01*
X84471480Y-101455500D01*
X84396112Y-101475694D01*
X84358428Y-101485792D01*
X84257071Y-101544310D01*
X84257068Y-101544312D01*
X84174312Y-101627068D01*
X84174310Y-101627071D01*
X84115792Y-101728428D01*
X84115792Y-101728429D01*
X84085500Y-101841480D01*
X81686845Y-101841480D01*
X81686853Y-101833235D01*
X81688524Y-100071480D01*
X84085500Y-100071480D01*
X84085500Y-100188520D01*
X84115792Y-100301571D01*
X84174311Y-100402930D01*
X84257070Y-100485689D01*
X84358429Y-100544208D01*
X84471480Y-100574500D01*
X84471482Y-100574500D01*
X84588517Y-100574500D01*
X84588520Y-100574500D01*
X84701571Y-100544208D01*
X84802930Y-100485689D01*
X84885689Y-100402930D01*
X84944208Y-100301571D01*
X84974500Y-100188520D01*
X84974500Y-100071480D01*
X84944208Y-99958429D01*
X84885689Y-99857070D01*
X84802930Y-99774311D01*
X84701571Y-99715792D01*
X84588520Y-99685500D01*
X84471480Y-99685500D01*
X84396112Y-99705694D01*
X84358428Y-99715792D01*
X84257071Y-99774310D01*
X84257068Y-99774312D01*
X84174312Y-99857068D01*
X84174310Y-99857071D01*
X84115792Y-99958428D01*
X84115792Y-99958429D01*
X84085500Y-100071480D01*
X81688524Y-100071480D01*
X81689406Y-99141480D01*
X124655500Y-99141480D01*
X124655500Y-99258520D01*
X124685792Y-99371571D01*
X124744311Y-99472930D01*
X124827070Y-99555689D01*
X124928429Y-99614208D01*
X125041480Y-99644500D01*
X125041482Y-99644500D01*
X125158517Y-99644500D01*
X125158520Y-99644500D01*
X125271571Y-99614208D01*
X125372930Y-99555689D01*
X125455689Y-99472930D01*
X125514208Y-99371571D01*
X125544500Y-99258520D01*
X125544500Y-99141480D01*
X125514208Y-99028429D01*
X125455689Y-98927070D01*
X125372930Y-98844311D01*
X125271571Y-98785792D01*
X125158520Y-98755500D01*
X125041480Y-98755500D01*
X124966112Y-98775694D01*
X124928428Y-98785792D01*
X124827071Y-98844310D01*
X124827068Y-98844312D01*
X124744312Y-98927068D01*
X124744310Y-98927071D01*
X124685792Y-99028428D01*
X124685792Y-99028429D01*
X124655500Y-99141480D01*
X81689406Y-99141480D01*
X81691930Y-96482045D01*
X83585500Y-96482045D01*
X83585500Y-96677954D01*
X83623716Y-96870077D01*
X83623719Y-96870089D01*
X83698683Y-97051070D01*
X83698685Y-97051073D01*
X83807517Y-97213952D01*
X83807523Y-97213960D01*
X83946039Y-97352476D01*
X83946047Y-97352482D01*
X84108926Y-97461314D01*
X84108929Y-97461316D01*
X84256806Y-97522568D01*
X84311210Y-97566409D01*
X84333275Y-97632703D01*
X84315996Y-97700402D01*
X84271355Y-97744515D01*
X84237076Y-97764306D01*
X84237068Y-97764312D01*
X84154312Y-97847068D01*
X84154310Y-97847071D01*
X84095792Y-97948428D01*
X84095792Y-97948429D01*
X84065500Y-98061480D01*
X84065500Y-98178520D01*
X84095792Y-98291571D01*
X84154311Y-98392930D01*
X84237070Y-98475689D01*
X84338429Y-98534208D01*
X84451480Y-98564500D01*
X84451482Y-98564500D01*
X84568517Y-98564500D01*
X84568520Y-98564500D01*
X84681571Y-98534208D01*
X84782930Y-98475689D01*
X84865689Y-98392930D01*
X84924208Y-98291571D01*
X84954500Y-98178520D01*
X84954500Y-98061480D01*
X84924208Y-97948429D01*
X84865689Y-97847070D01*
X84782930Y-97764311D01*
X84782928Y-97764309D01*
X84781991Y-97763590D01*
X84781401Y-97762782D01*
X84777183Y-97758564D01*
X84777841Y-97757905D01*
X84740791Y-97707160D01*
X84736639Y-97637414D01*
X84770855Y-97576495D01*
X84832574Y-97543745D01*
X84833101Y-97543638D01*
X84870085Y-97536282D01*
X85051072Y-97461315D01*
X85213957Y-97352479D01*
X85352479Y-97213957D01*
X85461315Y-97051072D01*
X85536282Y-96870085D01*
X85574500Y-96677950D01*
X85574500Y-96501480D01*
X111215500Y-96501480D01*
X111215500Y-96618520D01*
X111245792Y-96731571D01*
X111304311Y-96832930D01*
X111387070Y-96915689D01*
X111488429Y-96974208D01*
X111601480Y-97004500D01*
X111601482Y-97004500D01*
X111718517Y-97004500D01*
X111718520Y-97004500D01*
X111831571Y-96974208D01*
X111932930Y-96915689D01*
X112015689Y-96832930D01*
X112074208Y-96731571D01*
X112104500Y-96618520D01*
X112104500Y-96501480D01*
X112074208Y-96388429D01*
X112015689Y-96287070D01*
X111932930Y-96204311D01*
X111831571Y-96145792D01*
X111718520Y-96115500D01*
X111601480Y-96115500D01*
X111526112Y-96135694D01*
X111488428Y-96145792D01*
X111387071Y-96204310D01*
X111387068Y-96204312D01*
X111304312Y-96287068D01*
X111304310Y-96287071D01*
X111245792Y-96388428D01*
X111245792Y-96388429D01*
X111215500Y-96501480D01*
X85574500Y-96501480D01*
X85574500Y-96482050D01*
X85574500Y-96482047D01*
X85574499Y-96482045D01*
X85573265Y-96475840D01*
X85536282Y-96289915D01*
X85535103Y-96287068D01*
X85461316Y-96108929D01*
X85461314Y-96108926D01*
X85352482Y-95946047D01*
X85352476Y-95946039D01*
X85213960Y-95807523D01*
X85213952Y-95807517D01*
X85051073Y-95698685D01*
X85051070Y-95698683D01*
X84870089Y-95623719D01*
X84870077Y-95623716D01*
X84677953Y-95585500D01*
X84677950Y-95585500D01*
X84482050Y-95585500D01*
X84482047Y-95585500D01*
X84289922Y-95623716D01*
X84289910Y-95623719D01*
X84108929Y-95698683D01*
X84108926Y-95698685D01*
X83946047Y-95807517D01*
X83946039Y-95807523D01*
X83807523Y-95946039D01*
X83807517Y-95946047D01*
X83698685Y-96108926D01*
X83698683Y-96108929D01*
X83623719Y-96289910D01*
X83623716Y-96289922D01*
X83585500Y-96482045D01*
X81691930Y-96482045D01*
X81694340Y-93942045D01*
X83585500Y-93942045D01*
X83585500Y-94137954D01*
X83623716Y-94330077D01*
X83623719Y-94330089D01*
X83698683Y-94511070D01*
X83698685Y-94511073D01*
X83807517Y-94673952D01*
X83807523Y-94673960D01*
X83946039Y-94812476D01*
X83946047Y-94812482D01*
X84108926Y-94921314D01*
X84108929Y-94921316D01*
X84289910Y-94996280D01*
X84289915Y-94996282D01*
X84482045Y-95034499D01*
X84482048Y-95034500D01*
X84482050Y-95034500D01*
X84677952Y-95034500D01*
X84677953Y-95034499D01*
X84870085Y-94996282D01*
X85051072Y-94921315D01*
X85213957Y-94812479D01*
X85352479Y-94673957D01*
X85461315Y-94511072D01*
X85536282Y-94330085D01*
X85574500Y-94137950D01*
X85574500Y-93942050D01*
X85574500Y-93942047D01*
X85574499Y-93942045D01*
X86125500Y-93942045D01*
X86125500Y-94137954D01*
X86163716Y-94330077D01*
X86163719Y-94330089D01*
X86238683Y-94511070D01*
X86238685Y-94511073D01*
X86347517Y-94673952D01*
X86347523Y-94673960D01*
X86486039Y-94812476D01*
X86486047Y-94812482D01*
X86648926Y-94921314D01*
X86648929Y-94921316D01*
X86829910Y-94996280D01*
X86829915Y-94996282D01*
X87022045Y-95034499D01*
X87022048Y-95034500D01*
X87022050Y-95034500D01*
X87217952Y-95034500D01*
X87217953Y-95034499D01*
X87410085Y-94996282D01*
X87591072Y-94921315D01*
X87753957Y-94812479D01*
X87892479Y-94673957D01*
X88001315Y-94511072D01*
X88076282Y-94330085D01*
X88114500Y-94137950D01*
X88114500Y-94001480D01*
X88905500Y-94001480D01*
X88905500Y-94118520D01*
X88935792Y-94231571D01*
X88994311Y-94332930D01*
X89077070Y-94415689D01*
X89178429Y-94474208D01*
X89291480Y-94504500D01*
X89291482Y-94504500D01*
X89408517Y-94504500D01*
X89408520Y-94504500D01*
X89521571Y-94474208D01*
X89622930Y-94415689D01*
X89705689Y-94332930D01*
X89764208Y-94231571D01*
X89794500Y-94118520D01*
X89794500Y-94001480D01*
X89764208Y-93888429D01*
X89705689Y-93787070D01*
X89622930Y-93704311D01*
X89521571Y-93645792D01*
X89505478Y-93641480D01*
X105225500Y-93641480D01*
X105225500Y-93758520D01*
X105255792Y-93871571D01*
X105314311Y-93972930D01*
X105397070Y-94055689D01*
X105498429Y-94114208D01*
X105611480Y-94144500D01*
X105611482Y-94144500D01*
X105728517Y-94144500D01*
X105728520Y-94144500D01*
X105841571Y-94114208D01*
X105942930Y-94055689D01*
X106025689Y-93972930D01*
X106084208Y-93871571D01*
X106114500Y-93758520D01*
X106114500Y-93650000D01*
X128800000Y-93650000D01*
X131849999Y-93750000D01*
X131850000Y-93750000D01*
X131850000Y-93025314D01*
X131854500Y-93008520D01*
X131854500Y-92891480D01*
X131850000Y-92874685D01*
X131850000Y-92041638D01*
X131854225Y-92009545D01*
X131854500Y-92008520D01*
X131854500Y-91891480D01*
X131854499Y-91891474D01*
X131854225Y-91890451D01*
X131850000Y-91858359D01*
X131850000Y-91025314D01*
X131854500Y-91008520D01*
X131854500Y-90891480D01*
X131850000Y-90874685D01*
X131850000Y-90041638D01*
X131854225Y-90009545D01*
X131854500Y-90008520D01*
X131854500Y-89891480D01*
X131854499Y-89891474D01*
X131854225Y-89890451D01*
X131850000Y-89858359D01*
X131850000Y-89025314D01*
X131854500Y-89008520D01*
X131854500Y-88891480D01*
X131850000Y-88874685D01*
X131850000Y-87750000D01*
X128800000Y-87750000D01*
X128800000Y-93650000D01*
X106114500Y-93650000D01*
X106114500Y-93641480D01*
X106084208Y-93528429D01*
X106025689Y-93427070D01*
X105942930Y-93344311D01*
X105841571Y-93285792D01*
X105728520Y-93255500D01*
X105611480Y-93255500D01*
X105566610Y-93267523D01*
X105498428Y-93285792D01*
X105397071Y-93344310D01*
X105397068Y-93344312D01*
X105314312Y-93427068D01*
X105314310Y-93427071D01*
X105255792Y-93528428D01*
X105255792Y-93528429D01*
X105225500Y-93641480D01*
X89505478Y-93641480D01*
X89408520Y-93615500D01*
X89291480Y-93615500D01*
X89216112Y-93635694D01*
X89178428Y-93645792D01*
X89077071Y-93704310D01*
X89077068Y-93704312D01*
X88994312Y-93787068D01*
X88994310Y-93787071D01*
X88935792Y-93888428D01*
X88935792Y-93888429D01*
X88905500Y-94001480D01*
X88114500Y-94001480D01*
X88114500Y-93942050D01*
X88114500Y-93942047D01*
X88114499Y-93942045D01*
X88100481Y-93871571D01*
X88076282Y-93749915D01*
X88057392Y-93704310D01*
X88001316Y-93568929D01*
X88001314Y-93568926D01*
X87892482Y-93406047D01*
X87892476Y-93406039D01*
X87753960Y-93267523D01*
X87753952Y-93267517D01*
X87591073Y-93158685D01*
X87591070Y-93158683D01*
X87410089Y-93083719D01*
X87410077Y-93083716D01*
X87217953Y-93045500D01*
X87217950Y-93045500D01*
X87022050Y-93045500D01*
X87022047Y-93045500D01*
X86829922Y-93083716D01*
X86829910Y-93083719D01*
X86648929Y-93158683D01*
X86648926Y-93158685D01*
X86486047Y-93267517D01*
X86486039Y-93267523D01*
X86347523Y-93406039D01*
X86347517Y-93406047D01*
X86238685Y-93568926D01*
X86238683Y-93568929D01*
X86163719Y-93749910D01*
X86163716Y-93749922D01*
X86125500Y-93942045D01*
X85574499Y-93942045D01*
X85560481Y-93871571D01*
X85536282Y-93749915D01*
X85517392Y-93704310D01*
X85461316Y-93568929D01*
X85461314Y-93568926D01*
X85352482Y-93406047D01*
X85352476Y-93406039D01*
X85213960Y-93267523D01*
X85213952Y-93267517D01*
X85051073Y-93158685D01*
X85051070Y-93158683D01*
X84870089Y-93083719D01*
X84870077Y-93083716D01*
X84677953Y-93045500D01*
X84677950Y-93045500D01*
X84482050Y-93045500D01*
X84482047Y-93045500D01*
X84289922Y-93083716D01*
X84289910Y-93083719D01*
X84108929Y-93158683D01*
X84108926Y-93158685D01*
X83946047Y-93267517D01*
X83946039Y-93267523D01*
X83807523Y-93406039D01*
X83807517Y-93406047D01*
X83698685Y-93568926D01*
X83698683Y-93568929D01*
X83623719Y-93749910D01*
X83623716Y-93749922D01*
X83585500Y-93942045D01*
X81694340Y-93942045D01*
X81695365Y-92861480D01*
X108995500Y-92861480D01*
X108995500Y-92978520D01*
X109025792Y-93091571D01*
X109084311Y-93192930D01*
X109167070Y-93275689D01*
X109268429Y-93334208D01*
X109381480Y-93364500D01*
X109381482Y-93364500D01*
X109498517Y-93364500D01*
X109498520Y-93364500D01*
X109611571Y-93334208D01*
X109712930Y-93275689D01*
X109795689Y-93192930D01*
X109854208Y-93091571D01*
X109884500Y-92978520D01*
X109884500Y-92861480D01*
X109854208Y-92748429D01*
X109795689Y-92647070D01*
X109712930Y-92564311D01*
X109611571Y-92505792D01*
X109498520Y-92475500D01*
X109381480Y-92475500D01*
X109310575Y-92494499D01*
X109268428Y-92505792D01*
X109167071Y-92564310D01*
X109167068Y-92564312D01*
X109084312Y-92647068D01*
X109084310Y-92647071D01*
X109025792Y-92748428D01*
X109025792Y-92748429D01*
X108995500Y-92861480D01*
X81695365Y-92861480D01*
X81696750Y-91402045D01*
X83585500Y-91402045D01*
X83585500Y-91597954D01*
X83623716Y-91790077D01*
X83623719Y-91790089D01*
X83698683Y-91971070D01*
X83698685Y-91971073D01*
X83807517Y-92133952D01*
X83807523Y-92133960D01*
X83946039Y-92272476D01*
X83946047Y-92272482D01*
X84108926Y-92381314D01*
X84108929Y-92381316D01*
X84289910Y-92456280D01*
X84289915Y-92456282D01*
X84482045Y-92494499D01*
X84482048Y-92494500D01*
X84482050Y-92494500D01*
X84677952Y-92494500D01*
X84677953Y-92494499D01*
X84870085Y-92456282D01*
X85051072Y-92381315D01*
X85213957Y-92272479D01*
X85352479Y-92133957D01*
X85461315Y-91971072D01*
X85536282Y-91790085D01*
X85574500Y-91597950D01*
X85574500Y-91402050D01*
X85574500Y-91402047D01*
X85574499Y-91402045D01*
X86125500Y-91402045D01*
X86125500Y-91597954D01*
X86163716Y-91790077D01*
X86163719Y-91790089D01*
X86238683Y-91971070D01*
X86238685Y-91971073D01*
X86347517Y-92133952D01*
X86347523Y-92133960D01*
X86486039Y-92272476D01*
X86486047Y-92272482D01*
X86648926Y-92381314D01*
X86648929Y-92381316D01*
X86829910Y-92456280D01*
X86829915Y-92456282D01*
X87022045Y-92494499D01*
X87022048Y-92494500D01*
X87022050Y-92494500D01*
X87217952Y-92494500D01*
X87217953Y-92494499D01*
X87410085Y-92456282D01*
X87591072Y-92381315D01*
X87753957Y-92272479D01*
X87892479Y-92133957D01*
X88001315Y-91971072D01*
X88076282Y-91790085D01*
X88114500Y-91597950D01*
X88114500Y-91402050D01*
X88114500Y-91402047D01*
X88114499Y-91402045D01*
X88076283Y-91209922D01*
X88076282Y-91209915D01*
X88076280Y-91209910D01*
X88001316Y-91028929D01*
X88001314Y-91028926D01*
X87892482Y-90866047D01*
X87892476Y-90866039D01*
X87753960Y-90727523D01*
X87753952Y-90727517D01*
X87591073Y-90618685D01*
X87591070Y-90618683D01*
X87410089Y-90543719D01*
X87410077Y-90543716D01*
X87217953Y-90505500D01*
X87217950Y-90505500D01*
X87022050Y-90505500D01*
X87022047Y-90505500D01*
X86829922Y-90543716D01*
X86829910Y-90543719D01*
X86648929Y-90618683D01*
X86648926Y-90618685D01*
X86486047Y-90727517D01*
X86486039Y-90727523D01*
X86347523Y-90866039D01*
X86347517Y-90866047D01*
X86238685Y-91028926D01*
X86238683Y-91028929D01*
X86163719Y-91209910D01*
X86163716Y-91209922D01*
X86125500Y-91402045D01*
X85574499Y-91402045D01*
X85536283Y-91209922D01*
X85536282Y-91209915D01*
X85536280Y-91209910D01*
X85461316Y-91028929D01*
X85461314Y-91028926D01*
X85352482Y-90866047D01*
X85352476Y-90866039D01*
X85213960Y-90727523D01*
X85213952Y-90727517D01*
X85051073Y-90618685D01*
X85051070Y-90618683D01*
X84870089Y-90543719D01*
X84870077Y-90543716D01*
X84677953Y-90505500D01*
X84677950Y-90505500D01*
X84482050Y-90505500D01*
X84482047Y-90505500D01*
X84289922Y-90543716D01*
X84289910Y-90543719D01*
X84108929Y-90618683D01*
X84108926Y-90618685D01*
X83946047Y-90727517D01*
X83946039Y-90727523D01*
X83807523Y-90866039D01*
X83807517Y-90866047D01*
X83698685Y-91028926D01*
X83698683Y-91028929D01*
X83623719Y-91209910D01*
X83623716Y-91209922D01*
X83585500Y-91402045D01*
X81696750Y-91402045D01*
X81697104Y-91028926D01*
X81699160Y-88862045D01*
X83585500Y-88862045D01*
X83585500Y-89057954D01*
X83623716Y-89250077D01*
X83623719Y-89250089D01*
X83698683Y-89431070D01*
X83698685Y-89431073D01*
X83807517Y-89593952D01*
X83807523Y-89593960D01*
X83946039Y-89732476D01*
X83946047Y-89732482D01*
X84108926Y-89841314D01*
X84108929Y-89841316D01*
X84289910Y-89916280D01*
X84289915Y-89916282D01*
X84482045Y-89954499D01*
X84482048Y-89954500D01*
X84482050Y-89954500D01*
X84677952Y-89954500D01*
X84677953Y-89954499D01*
X84870085Y-89916282D01*
X85051072Y-89841315D01*
X85213957Y-89732479D01*
X85352479Y-89593957D01*
X85461315Y-89431072D01*
X85536282Y-89250085D01*
X85574500Y-89057950D01*
X85574500Y-88862050D01*
X85574500Y-88862047D01*
X85574499Y-88862045D01*
X86125500Y-88862045D01*
X86125500Y-89057954D01*
X86163716Y-89250077D01*
X86163719Y-89250089D01*
X86238683Y-89431070D01*
X86238685Y-89431073D01*
X86347517Y-89593952D01*
X86347523Y-89593960D01*
X86486039Y-89732476D01*
X86486047Y-89732482D01*
X86648926Y-89841314D01*
X86648929Y-89841316D01*
X86829910Y-89916280D01*
X86829915Y-89916282D01*
X87022045Y-89954499D01*
X87022048Y-89954500D01*
X87022050Y-89954500D01*
X87217952Y-89954500D01*
X87217953Y-89954499D01*
X87283405Y-89941480D01*
X106255500Y-89941480D01*
X106255500Y-90058520D01*
X106285792Y-90171571D01*
X106344311Y-90272930D01*
X106427070Y-90355689D01*
X106528429Y-90414208D01*
X106641480Y-90444500D01*
X106641482Y-90444500D01*
X106758517Y-90444500D01*
X106758520Y-90444500D01*
X106871571Y-90414208D01*
X106945579Y-90371480D01*
X112555500Y-90371480D01*
X112555500Y-90488520D01*
X112585792Y-90601571D01*
X112644311Y-90702930D01*
X112727070Y-90785689D01*
X112828429Y-90844208D01*
X112941480Y-90874500D01*
X112941482Y-90874500D01*
X113058517Y-90874500D01*
X113058520Y-90874500D01*
X113171571Y-90844208D01*
X113272930Y-90785689D01*
X113355689Y-90702930D01*
X113414208Y-90601571D01*
X113444500Y-90488520D01*
X113444500Y-90371480D01*
X113414208Y-90258429D01*
X113355689Y-90157070D01*
X113272930Y-90074311D01*
X113171571Y-90015792D01*
X113058520Y-89985500D01*
X112941480Y-89985500D01*
X112866112Y-90005694D01*
X112828428Y-90015792D01*
X112727071Y-90074310D01*
X112727068Y-90074312D01*
X112644312Y-90157068D01*
X112644310Y-90157071D01*
X112585792Y-90258428D01*
X112585792Y-90258429D01*
X112555500Y-90371480D01*
X106945579Y-90371480D01*
X106972930Y-90355689D01*
X107055689Y-90272930D01*
X107114208Y-90171571D01*
X107144500Y-90058520D01*
X107144500Y-89941480D01*
X107114208Y-89828429D01*
X107055689Y-89727070D01*
X106972930Y-89644311D01*
X106871571Y-89585792D01*
X106758520Y-89555500D01*
X106641480Y-89555500D01*
X106566112Y-89575694D01*
X106528428Y-89585792D01*
X106427071Y-89644310D01*
X106427068Y-89644312D01*
X106344312Y-89727068D01*
X106344310Y-89727071D01*
X106285792Y-89828428D01*
X106285792Y-89828429D01*
X106255500Y-89941480D01*
X87283405Y-89941480D01*
X87410085Y-89916282D01*
X87591072Y-89841315D01*
X87753957Y-89732479D01*
X87892479Y-89593957D01*
X88001315Y-89431072D01*
X88076282Y-89250085D01*
X88114500Y-89057950D01*
X88114500Y-88862050D01*
X88114500Y-88862047D01*
X88114499Y-88862045D01*
X88076283Y-88669922D01*
X88076282Y-88669915D01*
X88076280Y-88669910D01*
X88001316Y-88488929D01*
X88001314Y-88488926D01*
X87892482Y-88326047D01*
X87892476Y-88326039D01*
X87753960Y-88187523D01*
X87753952Y-88187517D01*
X87591073Y-88078685D01*
X87591070Y-88078683D01*
X87410089Y-88003719D01*
X87410077Y-88003716D01*
X87217953Y-87965500D01*
X87217950Y-87965500D01*
X87022050Y-87965500D01*
X87022047Y-87965500D01*
X86829922Y-88003716D01*
X86829910Y-88003719D01*
X86648929Y-88078683D01*
X86648926Y-88078685D01*
X86486047Y-88187517D01*
X86486039Y-88187523D01*
X86347523Y-88326039D01*
X86347517Y-88326047D01*
X86238685Y-88488926D01*
X86238683Y-88488929D01*
X86163719Y-88669910D01*
X86163716Y-88669922D01*
X86125500Y-88862045D01*
X85574499Y-88862045D01*
X85536283Y-88669922D01*
X85536282Y-88669915D01*
X85536280Y-88669910D01*
X85461316Y-88488929D01*
X85461314Y-88488926D01*
X85352482Y-88326047D01*
X85352476Y-88326039D01*
X85213960Y-88187523D01*
X85213952Y-88187517D01*
X85051073Y-88078685D01*
X85051070Y-88078683D01*
X84870089Y-88003719D01*
X84870077Y-88003716D01*
X84677953Y-87965500D01*
X84677950Y-87965500D01*
X84482050Y-87965500D01*
X84482047Y-87965500D01*
X84289922Y-88003716D01*
X84289910Y-88003719D01*
X84108929Y-88078683D01*
X84108926Y-88078685D01*
X83946047Y-88187517D01*
X83946039Y-88187523D01*
X83807523Y-88326039D01*
X83807517Y-88326047D01*
X83698685Y-88488926D01*
X83698683Y-88488929D01*
X83623719Y-88669910D01*
X83623716Y-88669922D01*
X83585500Y-88862045D01*
X81699160Y-88862045D01*
X81699166Y-88855840D01*
X81700264Y-87698520D01*
X81701267Y-86641480D01*
X95105500Y-86641480D01*
X95105500Y-86758520D01*
X95135792Y-86871571D01*
X95194311Y-86972930D01*
X95277070Y-87055689D01*
X95378429Y-87114208D01*
X95491480Y-87144500D01*
X95491482Y-87144500D01*
X95608517Y-87144500D01*
X95608520Y-87144500D01*
X95721571Y-87114208D01*
X95822930Y-87055689D01*
X95905689Y-86972930D01*
X95952714Y-86891480D01*
X125205500Y-86891480D01*
X125205500Y-87008520D01*
X125235792Y-87121571D01*
X125294311Y-87222930D01*
X125377070Y-87305689D01*
X125478429Y-87364208D01*
X125591480Y-87394500D01*
X125591482Y-87394500D01*
X125708517Y-87394500D01*
X125708520Y-87394500D01*
X125821571Y-87364208D01*
X125922930Y-87305689D01*
X126005689Y-87222930D01*
X126005689Y-87222929D01*
X126011436Y-87217183D01*
X126013679Y-87219426D01*
X126058040Y-87187028D01*
X126127785Y-87182866D01*
X126188709Y-87217072D01*
X126190371Y-87218990D01*
X126194311Y-87222930D01*
X126277070Y-87305689D01*
X126378429Y-87364208D01*
X126491480Y-87394500D01*
X126491482Y-87394500D01*
X126608517Y-87394500D01*
X126608520Y-87394500D01*
X126721571Y-87364208D01*
X126822930Y-87305689D01*
X126905689Y-87222930D01*
X126964208Y-87121571D01*
X126994500Y-87008520D01*
X126994500Y-86930000D01*
X139880000Y-86930000D01*
X139880000Y-88840000D01*
X140264686Y-88840000D01*
X140281480Y-88844500D01*
X140398520Y-88844500D01*
X140415314Y-88840000D01*
X141248361Y-88840000D01*
X141280448Y-88844223D01*
X141281480Y-88844500D01*
X141281482Y-88844500D01*
X141398518Y-88844500D01*
X141398520Y-88844500D01*
X141399551Y-88844223D01*
X141431639Y-88840000D01*
X144141363Y-88840000D01*
X144208402Y-88859685D01*
X144234640Y-88882297D01*
X144556794Y-89250089D01*
X145069277Y-89835174D01*
X145098642Y-89898573D01*
X145100000Y-89916876D01*
X145100000Y-95100000D01*
X145370595Y-95100000D01*
X145420028Y-95113247D01*
X145420919Y-95111097D01*
X145428421Y-95114203D01*
X145428429Y-95114208D01*
X145541480Y-95144500D01*
X145541482Y-95144500D01*
X145658517Y-95144500D01*
X145658520Y-95144500D01*
X145771571Y-95114208D01*
X145771580Y-95114202D01*
X145779081Y-95111097D01*
X145779971Y-95113247D01*
X145829405Y-95100000D01*
X146370595Y-95100000D01*
X146420028Y-95113247D01*
X146420919Y-95111097D01*
X146428421Y-95114203D01*
X146428429Y-95114208D01*
X146541480Y-95144500D01*
X146541482Y-95144500D01*
X146658517Y-95144500D01*
X146658520Y-95144500D01*
X146771571Y-95114208D01*
X146771580Y-95114202D01*
X146779081Y-95111097D01*
X146779971Y-95113247D01*
X146829405Y-95100000D01*
X147150000Y-95100000D01*
X147150000Y-92602045D01*
X148105500Y-92602045D01*
X148105500Y-92797954D01*
X148143716Y-92990077D01*
X148143719Y-92990089D01*
X148218683Y-93171070D01*
X148218685Y-93171073D01*
X148327517Y-93333952D01*
X148327523Y-93333960D01*
X148466039Y-93472476D01*
X148466047Y-93472482D01*
X148628926Y-93581314D01*
X148628929Y-93581316D01*
X148794749Y-93650000D01*
X148809915Y-93656282D01*
X149002045Y-93694499D01*
X149002048Y-93694500D01*
X149002050Y-93694500D01*
X149197952Y-93694500D01*
X149197953Y-93694499D01*
X149390085Y-93656282D01*
X149571072Y-93581315D01*
X149733957Y-93472479D01*
X149872479Y-93333957D01*
X149981315Y-93171072D01*
X150056282Y-92990085D01*
X150094500Y-92797950D01*
X150094500Y-92602050D01*
X150094500Y-92602047D01*
X150094499Y-92602045D01*
X150645500Y-92602045D01*
X150645500Y-92797954D01*
X150683716Y-92990077D01*
X150683719Y-92990089D01*
X150758683Y-93171070D01*
X150758685Y-93171073D01*
X150867517Y-93333952D01*
X150867523Y-93333960D01*
X151006039Y-93472476D01*
X151006047Y-93472482D01*
X151168926Y-93581314D01*
X151168929Y-93581316D01*
X151334749Y-93650000D01*
X151349915Y-93656282D01*
X151542045Y-93694499D01*
X151542048Y-93694500D01*
X151542050Y-93694500D01*
X151737952Y-93694500D01*
X151737953Y-93694499D01*
X151930085Y-93656282D01*
X152111072Y-93581315D01*
X152273957Y-93472479D01*
X152412479Y-93333957D01*
X152521315Y-93171072D01*
X152596282Y-92990085D01*
X152634500Y-92797950D01*
X152634500Y-92602050D01*
X152634500Y-92602047D01*
X152634499Y-92602045D01*
X152613107Y-92494499D01*
X152596282Y-92409915D01*
X152539356Y-92272482D01*
X152521316Y-92228929D01*
X152521314Y-92228926D01*
X152412482Y-92066047D01*
X152412476Y-92066039D01*
X152273960Y-91927523D01*
X152273952Y-91927517D01*
X152111073Y-91818685D01*
X152111070Y-91818683D01*
X151930089Y-91743719D01*
X151930077Y-91743716D01*
X151737953Y-91705500D01*
X151737950Y-91705500D01*
X151542050Y-91705500D01*
X151542047Y-91705500D01*
X151349922Y-91743716D01*
X151349910Y-91743719D01*
X151168929Y-91818683D01*
X151168926Y-91818685D01*
X151006047Y-91927517D01*
X151006039Y-91927523D01*
X150867523Y-92066039D01*
X150867517Y-92066047D01*
X150758685Y-92228926D01*
X150758683Y-92228929D01*
X150683719Y-92409910D01*
X150683716Y-92409922D01*
X150645500Y-92602045D01*
X150094499Y-92602045D01*
X150073107Y-92494499D01*
X150056282Y-92409915D01*
X149999356Y-92272482D01*
X149981316Y-92228929D01*
X149981314Y-92228926D01*
X149872482Y-92066047D01*
X149872476Y-92066039D01*
X149733960Y-91927523D01*
X149733952Y-91927517D01*
X149571073Y-91818685D01*
X149571070Y-91818683D01*
X149390089Y-91743719D01*
X149390077Y-91743716D01*
X149197953Y-91705500D01*
X149197950Y-91705500D01*
X149002050Y-91705500D01*
X149002047Y-91705500D01*
X148809922Y-91743716D01*
X148809910Y-91743719D01*
X148628929Y-91818683D01*
X148628926Y-91818685D01*
X148466047Y-91927517D01*
X148466039Y-91927523D01*
X148327523Y-92066039D01*
X148327517Y-92066047D01*
X148218685Y-92228926D01*
X148218683Y-92228929D01*
X148143719Y-92409910D01*
X148143716Y-92409922D01*
X148105500Y-92602045D01*
X147150000Y-92602045D01*
X147150000Y-88800000D01*
X146400003Y-87900002D01*
X146399999Y-87899999D01*
X145199999Y-87099999D01*
X144307498Y-86972499D01*
X144010000Y-86930000D01*
X144009998Y-86930000D01*
X143645314Y-86930000D01*
X143628520Y-86925500D01*
X143511480Y-86925500D01*
X143494686Y-86930000D01*
X142661639Y-86930000D01*
X142629551Y-86925776D01*
X142628520Y-86925500D01*
X142511480Y-86925500D01*
X142510448Y-86925776D01*
X142478361Y-86930000D01*
X139880000Y-86930000D01*
X126994500Y-86930000D01*
X126994500Y-86891480D01*
X126964208Y-86778429D01*
X126905689Y-86677070D01*
X126830664Y-86602045D01*
X148105500Y-86602045D01*
X148105500Y-86797954D01*
X148143716Y-86990077D01*
X148143719Y-86990089D01*
X148218683Y-87171070D01*
X148218685Y-87171073D01*
X148327517Y-87333952D01*
X148327523Y-87333960D01*
X148466039Y-87472476D01*
X148466047Y-87472482D01*
X148628926Y-87581314D01*
X148628929Y-87581316D01*
X148809910Y-87656280D01*
X148809915Y-87656282D01*
X149002045Y-87694499D01*
X149002048Y-87694500D01*
X149002050Y-87694500D01*
X149197952Y-87694500D01*
X149197953Y-87694499D01*
X149390085Y-87656282D01*
X149571072Y-87581315D01*
X149733957Y-87472479D01*
X149872479Y-87333957D01*
X149981315Y-87171072D01*
X149992322Y-87144500D01*
X150056280Y-86990089D01*
X150056282Y-86990085D01*
X150094500Y-86797950D01*
X150094500Y-86602050D01*
X150094500Y-86602047D01*
X150094499Y-86602045D01*
X150645500Y-86602045D01*
X150645500Y-86797954D01*
X150683716Y-86990077D01*
X150683719Y-86990089D01*
X150758683Y-87171070D01*
X150758685Y-87171073D01*
X150867517Y-87333952D01*
X150867523Y-87333960D01*
X151006039Y-87472476D01*
X151006047Y-87472482D01*
X151168926Y-87581314D01*
X151168929Y-87581316D01*
X151349910Y-87656280D01*
X151349915Y-87656282D01*
X151542045Y-87694499D01*
X151542048Y-87694500D01*
X151542050Y-87694500D01*
X151737952Y-87694500D01*
X151737953Y-87694499D01*
X151930085Y-87656282D01*
X152111072Y-87581315D01*
X152273957Y-87472479D01*
X152412479Y-87333957D01*
X152521315Y-87171072D01*
X152532322Y-87144500D01*
X152596280Y-86990089D01*
X152596282Y-86990085D01*
X152634500Y-86797950D01*
X152634500Y-86602050D01*
X152634500Y-86602047D01*
X152634499Y-86602045D01*
X152615295Y-86505500D01*
X152596282Y-86409915D01*
X152596280Y-86409910D01*
X152521316Y-86228929D01*
X152521314Y-86228926D01*
X152412482Y-86066047D01*
X152412476Y-86066039D01*
X152273960Y-85927523D01*
X152273952Y-85927517D01*
X152111073Y-85818685D01*
X152111070Y-85818683D01*
X151930089Y-85743719D01*
X151930077Y-85743716D01*
X151737953Y-85705500D01*
X151737950Y-85705500D01*
X151542050Y-85705500D01*
X151542047Y-85705500D01*
X151349922Y-85743716D01*
X151349910Y-85743719D01*
X151168929Y-85818683D01*
X151168926Y-85818685D01*
X151006047Y-85927517D01*
X151006039Y-85927523D01*
X150867523Y-86066039D01*
X150867517Y-86066047D01*
X150758685Y-86228926D01*
X150758683Y-86228929D01*
X150683719Y-86409910D01*
X150683716Y-86409922D01*
X150645500Y-86602045D01*
X150094499Y-86602045D01*
X150075295Y-86505500D01*
X150056282Y-86409915D01*
X150056280Y-86409910D01*
X149981316Y-86228929D01*
X149981314Y-86228926D01*
X149872482Y-86066047D01*
X149872476Y-86066039D01*
X149733960Y-85927523D01*
X149733952Y-85927517D01*
X149571073Y-85818685D01*
X149571070Y-85818683D01*
X149390089Y-85743719D01*
X149390077Y-85743716D01*
X149197953Y-85705500D01*
X149197950Y-85705500D01*
X149002050Y-85705500D01*
X149002047Y-85705500D01*
X148809922Y-85743716D01*
X148809910Y-85743719D01*
X148628929Y-85818683D01*
X148628926Y-85818685D01*
X148466047Y-85927517D01*
X148466039Y-85927523D01*
X148327523Y-86066039D01*
X148327517Y-86066047D01*
X148218685Y-86228926D01*
X148218683Y-86228929D01*
X148143719Y-86409910D01*
X148143716Y-86409922D01*
X148105500Y-86602045D01*
X126830664Y-86602045D01*
X126822930Y-86594311D01*
X126721571Y-86535792D01*
X126608520Y-86505500D01*
X126491480Y-86505500D01*
X126416112Y-86525694D01*
X126378428Y-86535792D01*
X126277071Y-86594310D01*
X126277068Y-86594312D01*
X126188564Y-86682817D01*
X126186325Y-86680578D01*
X126141911Y-86712988D01*
X126072164Y-86717121D01*
X126011254Y-86682890D01*
X126009600Y-86680981D01*
X125922931Y-86594312D01*
X125922930Y-86594311D01*
X125821571Y-86535792D01*
X125708520Y-86505500D01*
X125591480Y-86505500D01*
X125516112Y-86525694D01*
X125478428Y-86535792D01*
X125377071Y-86594310D01*
X125377068Y-86594312D01*
X125294312Y-86677068D01*
X125294310Y-86677071D01*
X125235792Y-86778428D01*
X125235792Y-86778429D01*
X125205500Y-86891480D01*
X95952714Y-86891480D01*
X95964208Y-86871571D01*
X95994500Y-86758520D01*
X95994500Y-86641480D01*
X95964208Y-86528429D01*
X95905689Y-86427070D01*
X95822930Y-86344311D01*
X95721571Y-86285792D01*
X95608520Y-86255500D01*
X95491480Y-86255500D01*
X95416112Y-86275694D01*
X95378428Y-86285792D01*
X95277071Y-86344310D01*
X95277068Y-86344312D01*
X95194312Y-86427068D01*
X95194310Y-86427071D01*
X95135792Y-86528428D01*
X95135792Y-86528429D01*
X95105500Y-86641480D01*
X81701267Y-86641480D01*
X81701275Y-86633235D01*
X81702073Y-85791480D01*
X88055500Y-85791480D01*
X88055500Y-85908520D01*
X88085792Y-86021571D01*
X88144311Y-86122930D01*
X88227070Y-86205689D01*
X88328429Y-86264208D01*
X88441480Y-86294500D01*
X88441482Y-86294500D01*
X88558517Y-86294500D01*
X88558520Y-86294500D01*
X88671571Y-86264208D01*
X88772930Y-86205689D01*
X88855689Y-86122930D01*
X88914208Y-86021571D01*
X88944500Y-85908520D01*
X88944500Y-85791480D01*
X90005500Y-85791480D01*
X90005500Y-85908520D01*
X90035792Y-86021571D01*
X90094311Y-86122930D01*
X90177070Y-86205689D01*
X90278429Y-86264208D01*
X90391480Y-86294500D01*
X90391482Y-86294500D01*
X90508517Y-86294500D01*
X90508520Y-86294500D01*
X90621571Y-86264208D01*
X90722930Y-86205689D01*
X90805689Y-86122930D01*
X90864208Y-86021571D01*
X90894500Y-85908520D01*
X90894500Y-85791480D01*
X90864208Y-85678429D01*
X90805689Y-85577070D01*
X90722930Y-85494311D01*
X90621571Y-85435792D01*
X90508520Y-85405500D01*
X90391480Y-85405500D01*
X90316112Y-85425694D01*
X90278428Y-85435792D01*
X90177071Y-85494310D01*
X90177068Y-85494312D01*
X90094312Y-85577068D01*
X90094310Y-85577071D01*
X90035792Y-85678428D01*
X90035792Y-85678429D01*
X90005500Y-85791480D01*
X88944500Y-85791480D01*
X88914208Y-85678429D01*
X88855689Y-85577070D01*
X88772930Y-85494311D01*
X88671571Y-85435792D01*
X88558520Y-85405500D01*
X88441480Y-85405500D01*
X88366112Y-85425694D01*
X88328428Y-85435792D01*
X88227071Y-85494310D01*
X88227068Y-85494312D01*
X88144312Y-85577068D01*
X88144310Y-85577071D01*
X88085792Y-85678428D01*
X88085792Y-85678429D01*
X88055500Y-85791480D01*
X81702073Y-85791480D01*
X81702081Y-85783235D01*
X81704018Y-83741480D01*
X102355500Y-83741480D01*
X102355500Y-83858520D01*
X102385792Y-83971571D01*
X102444311Y-84072930D01*
X102527070Y-84155689D01*
X102628429Y-84214208D01*
X102741480Y-84244500D01*
X102741482Y-84244500D01*
X102858517Y-84244500D01*
X102858520Y-84244500D01*
X102971571Y-84214208D01*
X103072930Y-84155689D01*
X103155689Y-84072930D01*
X103214208Y-83971571D01*
X103244500Y-83858520D01*
X103244500Y-83741480D01*
X103217705Y-83641480D01*
X108255500Y-83641480D01*
X108255500Y-83758520D01*
X108285792Y-83871571D01*
X108344311Y-83972930D01*
X108427070Y-84055689D01*
X108528429Y-84114208D01*
X108641480Y-84144500D01*
X108641482Y-84144500D01*
X108758517Y-84144500D01*
X108758520Y-84144500D01*
X108871571Y-84114208D01*
X108972930Y-84055689D01*
X109055689Y-83972930D01*
X109114208Y-83871571D01*
X109144500Y-83758520D01*
X109144500Y-83641480D01*
X109114208Y-83528429D01*
X109055689Y-83427070D01*
X108972930Y-83344311D01*
X108871571Y-83285792D01*
X108758520Y-83255500D01*
X108641480Y-83255500D01*
X108566112Y-83275694D01*
X108528428Y-83285792D01*
X108427071Y-83344310D01*
X108427068Y-83344312D01*
X108344312Y-83427068D01*
X108344310Y-83427071D01*
X108285792Y-83528428D01*
X108285792Y-83528429D01*
X108255500Y-83641480D01*
X103217705Y-83641480D01*
X103214208Y-83628429D01*
X103155689Y-83527070D01*
X103072930Y-83444311D01*
X102971571Y-83385792D01*
X102858520Y-83355500D01*
X102741480Y-83355500D01*
X102666112Y-83375694D01*
X102628428Y-83385792D01*
X102527071Y-83444310D01*
X102527068Y-83444312D01*
X102444312Y-83527068D01*
X102444310Y-83527071D01*
X102385792Y-83628428D01*
X102385792Y-83628429D01*
X102355500Y-83741480D01*
X81704018Y-83741480D01*
X81704026Y-83733235D01*
X81706718Y-80896350D01*
X142401500Y-80896350D01*
X142401500Y-81053649D01*
X142432183Y-81207906D01*
X142432186Y-81207915D01*
X142492378Y-81353232D01*
X142492379Y-81353235D01*
X142579763Y-81484013D01*
X142579766Y-81484017D01*
X142690982Y-81595233D01*
X142690986Y-81595236D01*
X142821764Y-81682620D01*
X142821766Y-81682620D01*
X142821768Y-81682622D01*
X142967086Y-81742814D01*
X142967088Y-81742814D01*
X142967093Y-81742816D01*
X143121350Y-81773499D01*
X143121353Y-81773500D01*
X143121355Y-81773500D01*
X143278647Y-81773500D01*
X143278648Y-81773499D01*
X143330068Y-81763271D01*
X143432906Y-81742816D01*
X143432909Y-81742814D01*
X143432914Y-81742814D01*
X143578232Y-81682622D01*
X143709014Y-81595236D01*
X143820236Y-81484014D01*
X143907622Y-81353232D01*
X143967814Y-81207914D01*
X143975143Y-81171072D01*
X143998499Y-81053649D01*
X143998500Y-81053647D01*
X143998500Y-80896352D01*
X143998499Y-80896350D01*
X143967816Y-80742093D01*
X143967814Y-80742090D01*
X143967814Y-80742086D01*
X143909808Y-80602045D01*
X148105500Y-80602045D01*
X148105500Y-80797954D01*
X148143716Y-80990077D01*
X148143719Y-80990089D01*
X148218683Y-81171070D01*
X148218685Y-81171073D01*
X148327517Y-81333952D01*
X148327523Y-81333960D01*
X148466039Y-81472476D01*
X148466047Y-81472482D01*
X148628926Y-81581314D01*
X148628929Y-81581316D01*
X148809910Y-81656280D01*
X148809915Y-81656282D01*
X149002045Y-81694499D01*
X149002048Y-81694500D01*
X149002050Y-81694500D01*
X149197952Y-81694500D01*
X149197953Y-81694499D01*
X149390085Y-81656282D01*
X149571072Y-81581315D01*
X149733957Y-81472479D01*
X149872479Y-81333957D01*
X149981315Y-81171072D01*
X150056282Y-80990085D01*
X150094500Y-80797950D01*
X150094500Y-80602050D01*
X150094500Y-80602047D01*
X150094499Y-80602045D01*
X150645500Y-80602045D01*
X150645500Y-80797954D01*
X150683716Y-80990077D01*
X150683719Y-80990089D01*
X150758683Y-81171070D01*
X150758685Y-81171073D01*
X150867517Y-81333952D01*
X150867523Y-81333960D01*
X151006039Y-81472476D01*
X151006047Y-81472482D01*
X151168926Y-81581314D01*
X151168929Y-81581316D01*
X151349910Y-81656280D01*
X151349915Y-81656282D01*
X151542045Y-81694499D01*
X151542048Y-81694500D01*
X151542050Y-81694500D01*
X151737952Y-81694500D01*
X151737953Y-81694499D01*
X151930085Y-81656282D01*
X152111072Y-81581315D01*
X152273957Y-81472479D01*
X152412479Y-81333957D01*
X152521315Y-81171072D01*
X152596282Y-80990085D01*
X152634500Y-80797950D01*
X152634500Y-80602050D01*
X152634500Y-80602047D01*
X152634499Y-80602045D01*
X152607434Y-80465982D01*
X152596282Y-80409915D01*
X152573438Y-80354764D01*
X152521316Y-80228929D01*
X152521314Y-80228926D01*
X152412482Y-80066047D01*
X152412476Y-80066039D01*
X152273960Y-79927523D01*
X152273952Y-79927517D01*
X152111073Y-79818685D01*
X152111070Y-79818683D01*
X151930089Y-79743719D01*
X151930077Y-79743716D01*
X151737953Y-79705500D01*
X151737950Y-79705500D01*
X151542050Y-79705500D01*
X151542047Y-79705500D01*
X151349922Y-79743716D01*
X151349910Y-79743719D01*
X151168929Y-79818683D01*
X151168926Y-79818685D01*
X151006047Y-79927517D01*
X151006039Y-79927523D01*
X150867523Y-80066039D01*
X150867517Y-80066047D01*
X150758685Y-80228926D01*
X150758683Y-80228929D01*
X150683719Y-80409910D01*
X150683716Y-80409922D01*
X150645500Y-80602045D01*
X150094499Y-80602045D01*
X150067434Y-80465982D01*
X150056282Y-80409915D01*
X150033438Y-80354764D01*
X149981316Y-80228929D01*
X149981314Y-80228926D01*
X149872482Y-80066047D01*
X149872476Y-80066039D01*
X149733960Y-79927523D01*
X149733952Y-79927517D01*
X149571073Y-79818685D01*
X149571070Y-79818683D01*
X149390089Y-79743719D01*
X149390077Y-79743716D01*
X149197953Y-79705500D01*
X149197950Y-79705500D01*
X149002050Y-79705500D01*
X149002047Y-79705500D01*
X148809922Y-79743716D01*
X148809910Y-79743719D01*
X148628929Y-79818683D01*
X148628926Y-79818685D01*
X148466047Y-79927517D01*
X148466039Y-79927523D01*
X148327523Y-80066039D01*
X148327517Y-80066047D01*
X148218685Y-80228926D01*
X148218683Y-80228929D01*
X148143719Y-80409910D01*
X148143716Y-80409922D01*
X148105500Y-80602045D01*
X143909808Y-80602045D01*
X143907622Y-80596768D01*
X143907621Y-80596766D01*
X143907620Y-80596764D01*
X143820236Y-80465986D01*
X143820233Y-80465982D01*
X143709017Y-80354766D01*
X143709013Y-80354763D01*
X143578235Y-80267379D01*
X143578232Y-80267378D01*
X143432915Y-80207186D01*
X143432906Y-80207183D01*
X143278648Y-80176500D01*
X143278645Y-80176500D01*
X143121355Y-80176500D01*
X143121352Y-80176500D01*
X142967093Y-80207183D01*
X142967084Y-80207186D01*
X142821767Y-80267378D01*
X142821764Y-80267379D01*
X142690986Y-80354763D01*
X142690982Y-80354766D01*
X142579766Y-80465982D01*
X142579763Y-80465986D01*
X142492379Y-80596764D01*
X142492378Y-80596767D01*
X142432186Y-80742084D01*
X142432183Y-80742093D01*
X142401500Y-80896350D01*
X81706718Y-80896350D01*
X81707283Y-80300405D01*
X101753997Y-80300405D01*
X101753997Y-80417445D01*
X101784289Y-80530496D01*
X101842808Y-80631855D01*
X101925567Y-80714614D01*
X102026926Y-80773133D01*
X102139977Y-80803425D01*
X102139979Y-80803425D01*
X102257014Y-80803425D01*
X102257017Y-80803425D01*
X102370068Y-80773133D01*
X102471427Y-80714614D01*
X102554186Y-80631855D01*
X102612705Y-80530496D01*
X102642997Y-80417445D01*
X102642997Y-80300405D01*
X102612705Y-80187354D01*
X102554186Y-80085995D01*
X102471427Y-80003236D01*
X102471425Y-80003235D01*
X102471420Y-80003231D01*
X102370075Y-79944720D01*
X102370070Y-79944718D01*
X102370068Y-79944717D01*
X102257017Y-79914425D01*
X102139977Y-79914425D01*
X102091095Y-79927523D01*
X102026925Y-79944717D01*
X101925568Y-80003235D01*
X101925565Y-80003237D01*
X101842809Y-80085993D01*
X101842807Y-80085996D01*
X101784289Y-80187353D01*
X101778976Y-80207183D01*
X101753997Y-80300405D01*
X81707283Y-80300405D01*
X81707291Y-80292160D01*
X81707719Y-79841480D01*
X124855500Y-79841480D01*
X124855500Y-79958520D01*
X124885792Y-80071571D01*
X124944311Y-80172930D01*
X125027070Y-80255689D01*
X125128429Y-80314208D01*
X125241480Y-80344500D01*
X125241482Y-80344500D01*
X125358517Y-80344500D01*
X125358520Y-80344500D01*
X125471571Y-80314208D01*
X125572930Y-80255689D01*
X125612319Y-80216300D01*
X125673642Y-80182815D01*
X125743334Y-80187799D01*
X125787681Y-80216300D01*
X125827070Y-80255689D01*
X125928429Y-80314208D01*
X126041480Y-80344500D01*
X126041482Y-80344500D01*
X126158517Y-80344500D01*
X126158520Y-80344500D01*
X126271571Y-80314208D01*
X126372930Y-80255689D01*
X126455689Y-80172930D01*
X126514208Y-80071571D01*
X126544500Y-79958520D01*
X126544500Y-79841480D01*
X126514208Y-79728429D01*
X126455689Y-79627070D01*
X126372930Y-79544311D01*
X126271571Y-79485792D01*
X126158520Y-79455500D01*
X126041480Y-79455500D01*
X125966112Y-79475694D01*
X125928428Y-79485792D01*
X125827071Y-79544310D01*
X125827068Y-79544312D01*
X125787681Y-79583700D01*
X125726358Y-79617185D01*
X125656666Y-79612201D01*
X125612319Y-79583700D01*
X125572931Y-79544312D01*
X125572930Y-79544311D01*
X125471571Y-79485792D01*
X125358520Y-79455500D01*
X125241480Y-79455500D01*
X125166112Y-79475694D01*
X125128428Y-79485792D01*
X125027071Y-79544310D01*
X125027068Y-79544312D01*
X124944312Y-79627068D01*
X124944310Y-79627071D01*
X124885792Y-79728428D01*
X124885792Y-79728429D01*
X124855500Y-79841480D01*
X81707719Y-79841480D01*
X81708857Y-78641480D01*
X101655500Y-78641480D01*
X101655500Y-78758520D01*
X101685792Y-78871571D01*
X101744311Y-78972930D01*
X101827070Y-79055689D01*
X101928429Y-79114208D01*
X102041480Y-79144500D01*
X102041482Y-79144500D01*
X102158517Y-79144500D01*
X102158520Y-79144500D01*
X102271571Y-79114208D01*
X102372930Y-79055689D01*
X102455689Y-78972930D01*
X102514208Y-78871571D01*
X102544500Y-78758520D01*
X102544500Y-78641480D01*
X102514208Y-78528429D01*
X102455689Y-78427070D01*
X102372930Y-78344311D01*
X102271571Y-78285792D01*
X102158520Y-78255500D01*
X102041480Y-78255500D01*
X101966112Y-78275694D01*
X101928428Y-78285792D01*
X101827071Y-78344310D01*
X101827068Y-78344312D01*
X101744312Y-78427068D01*
X101744310Y-78427071D01*
X101685792Y-78528428D01*
X101685792Y-78528429D01*
X101655500Y-78641480D01*
X81708857Y-78641480D01*
X81708865Y-78633235D01*
X81711257Y-76111480D01*
X108435500Y-76111480D01*
X108435500Y-76228520D01*
X108465792Y-76341571D01*
X108524311Y-76442930D01*
X108607070Y-76525689D01*
X108708429Y-76584208D01*
X108821480Y-76614500D01*
X108821482Y-76614500D01*
X108938517Y-76614500D01*
X108938520Y-76614500D01*
X109051571Y-76584208D01*
X109152930Y-76525689D01*
X109235689Y-76442930D01*
X109294208Y-76341571D01*
X109324500Y-76228520D01*
X109324500Y-76111480D01*
X109294208Y-75998429D01*
X109235689Y-75897070D01*
X109152930Y-75814311D01*
X109051571Y-75755792D01*
X108938520Y-75725500D01*
X108821480Y-75725500D01*
X108751665Y-75744207D01*
X108708428Y-75755792D01*
X108607071Y-75814310D01*
X108607068Y-75814312D01*
X108524312Y-75897068D01*
X108524310Y-75897071D01*
X108465792Y-75998428D01*
X108465792Y-75998429D01*
X108435500Y-76111480D01*
X81711257Y-76111480D01*
X81711265Y-76103235D01*
X81711365Y-75998429D01*
X81712463Y-74841480D01*
X97955500Y-74841480D01*
X97955500Y-74958520D01*
X97985792Y-75071571D01*
X98044311Y-75172930D01*
X98127070Y-75255689D01*
X98228429Y-75314208D01*
X98341480Y-75344500D01*
X98341482Y-75344500D01*
X98458517Y-75344500D01*
X98458520Y-75344500D01*
X98571571Y-75314208D01*
X98645579Y-75271480D01*
X106845500Y-75271480D01*
X106845500Y-75388520D01*
X106875792Y-75501571D01*
X106934311Y-75602930D01*
X107017070Y-75685689D01*
X107118429Y-75744208D01*
X107231480Y-75774500D01*
X107231482Y-75774500D01*
X107348517Y-75774500D01*
X107348520Y-75774500D01*
X107461571Y-75744208D01*
X107562930Y-75685689D01*
X107645689Y-75602930D01*
X107704208Y-75501571D01*
X107734500Y-75388520D01*
X107734500Y-75271480D01*
X107704208Y-75158429D01*
X107645689Y-75057070D01*
X107562930Y-74974311D01*
X107461571Y-74915792D01*
X107348520Y-74885500D01*
X107231480Y-74885500D01*
X107156112Y-74905694D01*
X107118428Y-74915792D01*
X107017071Y-74974310D01*
X107017068Y-74974312D01*
X106934312Y-75057068D01*
X106934310Y-75057071D01*
X106875792Y-75158428D01*
X106875792Y-75158429D01*
X106845500Y-75271480D01*
X98645579Y-75271480D01*
X98672930Y-75255689D01*
X98755689Y-75172930D01*
X98814208Y-75071571D01*
X98844500Y-74958520D01*
X98844500Y-74841480D01*
X98814208Y-74728429D01*
X98755689Y-74627070D01*
X98730664Y-74602045D01*
X148105500Y-74602045D01*
X148105500Y-74797954D01*
X148143716Y-74990077D01*
X148143719Y-74990089D01*
X148218683Y-75171070D01*
X148218685Y-75171073D01*
X148327517Y-75333952D01*
X148327523Y-75333960D01*
X148466039Y-75472476D01*
X148466047Y-75472482D01*
X148628926Y-75581314D01*
X148628929Y-75581316D01*
X148809910Y-75656280D01*
X148809915Y-75656282D01*
X149002045Y-75694499D01*
X149002048Y-75694500D01*
X149002050Y-75694500D01*
X149197952Y-75694500D01*
X149197953Y-75694499D01*
X149390085Y-75656282D01*
X149571072Y-75581315D01*
X149733957Y-75472479D01*
X149872479Y-75333957D01*
X149981315Y-75171072D01*
X150056282Y-74990085D01*
X150094500Y-74797950D01*
X150094500Y-74602050D01*
X150094500Y-74602047D01*
X150094499Y-74602045D01*
X150645500Y-74602045D01*
X150645500Y-74797954D01*
X150683716Y-74990077D01*
X150683719Y-74990089D01*
X150758683Y-75171070D01*
X150758685Y-75171073D01*
X150867517Y-75333952D01*
X150867523Y-75333960D01*
X151006039Y-75472476D01*
X151006047Y-75472482D01*
X151168926Y-75581314D01*
X151168929Y-75581316D01*
X151349910Y-75656280D01*
X151349915Y-75656282D01*
X151542045Y-75694499D01*
X151542048Y-75694500D01*
X151542050Y-75694500D01*
X151737952Y-75694500D01*
X151737953Y-75694499D01*
X151930085Y-75656282D01*
X152111072Y-75581315D01*
X152273957Y-75472479D01*
X152412479Y-75333957D01*
X152521315Y-75171072D01*
X152596282Y-74990085D01*
X152634500Y-74797950D01*
X152634500Y-74602050D01*
X152634500Y-74602047D01*
X152634499Y-74602045D01*
X152596283Y-74409922D01*
X152596282Y-74409915D01*
X152548476Y-74294500D01*
X152521316Y-74228929D01*
X152521314Y-74228926D01*
X152412482Y-74066047D01*
X152412476Y-74066039D01*
X152273960Y-73927523D01*
X152273952Y-73927517D01*
X152111073Y-73818685D01*
X152111070Y-73818683D01*
X151930089Y-73743719D01*
X151930077Y-73743716D01*
X151737953Y-73705500D01*
X151737950Y-73705500D01*
X151542050Y-73705500D01*
X151542047Y-73705500D01*
X151349922Y-73743716D01*
X151349910Y-73743719D01*
X151168929Y-73818683D01*
X151168926Y-73818685D01*
X151006047Y-73927517D01*
X151006039Y-73927523D01*
X150867523Y-74066039D01*
X150867517Y-74066047D01*
X150758685Y-74228926D01*
X150758683Y-74228929D01*
X150683719Y-74409910D01*
X150683716Y-74409922D01*
X150645500Y-74602045D01*
X150094499Y-74602045D01*
X150056283Y-74409922D01*
X150056282Y-74409915D01*
X150008476Y-74294500D01*
X149981316Y-74228929D01*
X149981314Y-74228926D01*
X149872482Y-74066047D01*
X149872476Y-74066039D01*
X149733960Y-73927523D01*
X149733952Y-73927517D01*
X149571073Y-73818685D01*
X149571070Y-73818683D01*
X149390089Y-73743719D01*
X149390077Y-73743716D01*
X149197953Y-73705500D01*
X149197950Y-73705500D01*
X149002050Y-73705500D01*
X149002047Y-73705500D01*
X148809922Y-73743716D01*
X148809910Y-73743719D01*
X148628929Y-73818683D01*
X148628926Y-73818685D01*
X148466047Y-73927517D01*
X148466039Y-73927523D01*
X148327523Y-74066039D01*
X148327517Y-74066047D01*
X148218685Y-74228926D01*
X148218683Y-74228929D01*
X148143719Y-74409910D01*
X148143716Y-74409922D01*
X148105500Y-74602045D01*
X98730664Y-74602045D01*
X98672930Y-74544311D01*
X98571571Y-74485792D01*
X98458520Y-74455500D01*
X98341480Y-74455500D01*
X98266112Y-74475694D01*
X98228428Y-74485792D01*
X98127071Y-74544310D01*
X98127068Y-74544312D01*
X98044312Y-74627068D01*
X98044310Y-74627071D01*
X97985792Y-74728428D01*
X97985792Y-74728429D01*
X97955500Y-74841480D01*
X81712463Y-74841480D01*
X81713459Y-73791480D01*
X124405500Y-73791480D01*
X124405500Y-73908520D01*
X124435792Y-74021571D01*
X124494311Y-74122930D01*
X124577070Y-74205689D01*
X124678429Y-74264208D01*
X124791480Y-74294500D01*
X124791482Y-74294500D01*
X124908517Y-74294500D01*
X124908520Y-74294500D01*
X125021571Y-74264208D01*
X125122930Y-74205689D01*
X125205689Y-74122930D01*
X125264208Y-74021571D01*
X125294500Y-73908520D01*
X125294500Y-73791480D01*
X125264208Y-73678429D01*
X125205689Y-73577070D01*
X125122930Y-73494311D01*
X125021571Y-73435792D01*
X124908520Y-73405500D01*
X124791480Y-73405500D01*
X124736496Y-73420233D01*
X124678428Y-73435792D01*
X124577071Y-73494310D01*
X124577068Y-73494312D01*
X124494312Y-73577068D01*
X124494310Y-73577071D01*
X124435792Y-73678428D01*
X124435792Y-73678429D01*
X124405500Y-73791480D01*
X81713459Y-73791480D01*
X81714759Y-72421480D01*
X99945500Y-72421480D01*
X99945500Y-72538520D01*
X99975792Y-72651571D01*
X100034311Y-72752930D01*
X100117070Y-72835689D01*
X100218429Y-72894208D01*
X100331480Y-72924500D01*
X100331482Y-72924500D01*
X100448517Y-72924500D01*
X100448520Y-72924500D01*
X100561571Y-72894208D01*
X100662930Y-72835689D01*
X100745689Y-72752930D01*
X100763922Y-72721350D01*
X142851500Y-72721350D01*
X142851500Y-72878649D01*
X142882183Y-73032906D01*
X142882186Y-73032915D01*
X142942378Y-73178232D01*
X142942379Y-73178235D01*
X143029763Y-73309013D01*
X143029766Y-73309017D01*
X143140982Y-73420233D01*
X143140986Y-73420236D01*
X143271764Y-73507620D01*
X143271766Y-73507620D01*
X143271768Y-73507622D01*
X143417086Y-73567814D01*
X143417088Y-73567814D01*
X143417093Y-73567816D01*
X143571350Y-73598499D01*
X143571353Y-73598500D01*
X143571355Y-73598500D01*
X143728647Y-73598500D01*
X143728648Y-73598499D01*
X143780068Y-73588271D01*
X143882906Y-73567816D01*
X143882909Y-73567814D01*
X143882914Y-73567814D01*
X144028232Y-73507622D01*
X144159014Y-73420236D01*
X144270236Y-73309014D01*
X144357622Y-73178232D01*
X144417814Y-73032914D01*
X144448500Y-72878645D01*
X144448500Y-72721355D01*
X144448500Y-72721352D01*
X144448499Y-72721350D01*
X144417816Y-72567093D01*
X144417813Y-72567084D01*
X144357622Y-72421768D01*
X144357620Y-72421766D01*
X144357620Y-72421764D01*
X144270236Y-72290986D01*
X144270233Y-72290982D01*
X144159017Y-72179766D01*
X144159013Y-72179763D01*
X144028235Y-72092379D01*
X144028232Y-72092378D01*
X143882915Y-72032186D01*
X143882906Y-72032183D01*
X143728648Y-72001500D01*
X143728645Y-72001500D01*
X143571355Y-72001500D01*
X143571352Y-72001500D01*
X143417093Y-72032183D01*
X143417084Y-72032186D01*
X143271767Y-72092378D01*
X143271764Y-72092379D01*
X143140986Y-72179763D01*
X143140982Y-72179766D01*
X143029766Y-72290982D01*
X143029763Y-72290986D01*
X142942379Y-72421764D01*
X142942378Y-72421767D01*
X142882186Y-72567084D01*
X142882183Y-72567093D01*
X142851500Y-72721350D01*
X100763922Y-72721350D01*
X100804208Y-72651571D01*
X100834500Y-72538520D01*
X100834500Y-72421480D01*
X100804208Y-72308429D01*
X100745689Y-72207070D01*
X100662930Y-72124311D01*
X100561571Y-72065792D01*
X100448520Y-72035500D01*
X100331480Y-72035500D01*
X100256112Y-72055694D01*
X100218428Y-72065792D01*
X100117071Y-72124310D01*
X100117068Y-72124312D01*
X100034312Y-72207068D01*
X100034310Y-72207071D01*
X99975792Y-72308428D01*
X99975792Y-72308429D01*
X99945500Y-72421480D01*
X81714759Y-72421480D01*
X81716163Y-70941480D01*
X107655500Y-70941480D01*
X107655500Y-71058520D01*
X107685792Y-71171571D01*
X107744311Y-71272930D01*
X107827070Y-71355689D01*
X107928429Y-71414208D01*
X108041480Y-71444500D01*
X108041482Y-71444500D01*
X108158517Y-71444500D01*
X108158520Y-71444500D01*
X108271571Y-71414208D01*
X108372930Y-71355689D01*
X108455689Y-71272930D01*
X108514208Y-71171571D01*
X108544500Y-71058520D01*
X108544500Y-70941480D01*
X108514208Y-70828429D01*
X108455689Y-70727070D01*
X108372930Y-70644311D01*
X108271571Y-70585792D01*
X108158520Y-70555500D01*
X108041480Y-70555500D01*
X107966112Y-70575694D01*
X107928428Y-70585792D01*
X107827071Y-70644310D01*
X107827068Y-70644312D01*
X107744312Y-70727068D01*
X107744310Y-70727071D01*
X107685792Y-70828428D01*
X107685792Y-70828429D01*
X107655500Y-70941480D01*
X81716163Y-70941480D01*
X81716910Y-70153686D01*
X81717303Y-69739479D01*
X92474399Y-69739479D01*
X92474399Y-69856519D01*
X92504691Y-69969570D01*
X92563210Y-70070929D01*
X92645969Y-70153688D01*
X92747328Y-70212207D01*
X92860379Y-70242499D01*
X92860381Y-70242499D01*
X92977416Y-70242499D01*
X92977419Y-70242499D01*
X93090470Y-70212207D01*
X93191829Y-70153688D01*
X93274588Y-70070929D01*
X93333107Y-69969570D01*
X93363399Y-69856519D01*
X93363399Y-69739479D01*
X93333107Y-69626428D01*
X93274588Y-69525069D01*
X93191829Y-69442310D01*
X93090470Y-69383791D01*
X92977419Y-69353499D01*
X92860379Y-69353499D01*
X92785011Y-69373693D01*
X92747327Y-69383791D01*
X92645970Y-69442309D01*
X92645967Y-69442311D01*
X92563211Y-69525067D01*
X92563209Y-69525070D01*
X92504691Y-69626427D01*
X92504691Y-69626428D01*
X92474399Y-69739479D01*
X81717303Y-69739479D01*
X81717311Y-69731234D01*
X81718490Y-68488569D01*
X81718630Y-68341480D01*
X85755500Y-68341480D01*
X85755500Y-68458520D01*
X85785792Y-68571571D01*
X85844311Y-68672930D01*
X85927070Y-68755689D01*
X86028429Y-68814208D01*
X86141480Y-68844500D01*
X86141482Y-68844500D01*
X86258517Y-68844500D01*
X86258520Y-68844500D01*
X86371571Y-68814208D01*
X86472930Y-68755689D01*
X86555689Y-68672930D01*
X86596614Y-68602045D01*
X148105500Y-68602045D01*
X148105500Y-68797954D01*
X148143716Y-68990077D01*
X148143719Y-68990089D01*
X148218683Y-69171070D01*
X148218685Y-69171073D01*
X148327517Y-69333952D01*
X148327523Y-69333960D01*
X148466039Y-69472476D01*
X148466047Y-69472482D01*
X148628926Y-69581314D01*
X148628929Y-69581316D01*
X148809910Y-69656280D01*
X148809915Y-69656282D01*
X149002045Y-69694499D01*
X149002048Y-69694500D01*
X149002050Y-69694500D01*
X149197952Y-69694500D01*
X149197953Y-69694499D01*
X149390085Y-69656282D01*
X149571072Y-69581315D01*
X149733957Y-69472479D01*
X149872479Y-69333957D01*
X149981315Y-69171072D01*
X150056282Y-68990085D01*
X150094500Y-68797950D01*
X150094500Y-68602050D01*
X150094500Y-68602047D01*
X150094499Y-68602045D01*
X150645500Y-68602045D01*
X150645500Y-68797954D01*
X150683716Y-68990077D01*
X150683719Y-68990089D01*
X150758683Y-69171070D01*
X150758685Y-69171073D01*
X150867517Y-69333952D01*
X150867523Y-69333960D01*
X151006039Y-69472476D01*
X151006047Y-69472482D01*
X151168926Y-69581314D01*
X151168929Y-69581316D01*
X151349910Y-69656280D01*
X151349915Y-69656282D01*
X151542045Y-69694499D01*
X151542048Y-69694500D01*
X151542050Y-69694500D01*
X151737952Y-69694500D01*
X151737953Y-69694499D01*
X151930085Y-69656282D01*
X152111072Y-69581315D01*
X152273957Y-69472479D01*
X152412479Y-69333957D01*
X152521315Y-69171072D01*
X152596282Y-68990085D01*
X152634500Y-68797950D01*
X152634500Y-68602050D01*
X152634500Y-68602047D01*
X152634499Y-68602045D01*
X152628437Y-68571571D01*
X152596282Y-68409915D01*
X152567936Y-68341482D01*
X152521316Y-68228929D01*
X152521314Y-68228926D01*
X152412482Y-68066047D01*
X152412476Y-68066039D01*
X152273960Y-67927523D01*
X152273952Y-67927517D01*
X152111073Y-67818685D01*
X152111070Y-67818683D01*
X151930089Y-67743719D01*
X151930077Y-67743716D01*
X151737953Y-67705500D01*
X151737950Y-67705500D01*
X151542050Y-67705500D01*
X151542047Y-67705500D01*
X151349922Y-67743716D01*
X151349910Y-67743719D01*
X151168929Y-67818683D01*
X151168926Y-67818685D01*
X151006047Y-67927517D01*
X151006039Y-67927523D01*
X150867523Y-68066039D01*
X150867517Y-68066047D01*
X150758685Y-68228926D01*
X150758683Y-68228929D01*
X150683719Y-68409910D01*
X150683716Y-68409922D01*
X150645500Y-68602045D01*
X150094499Y-68602045D01*
X150088437Y-68571571D01*
X150056282Y-68409915D01*
X150027936Y-68341482D01*
X149981316Y-68228929D01*
X149981314Y-68228926D01*
X149872482Y-68066047D01*
X149872476Y-68066039D01*
X149733960Y-67927523D01*
X149733952Y-67927517D01*
X149571073Y-67818685D01*
X149571070Y-67818683D01*
X149390089Y-67743719D01*
X149390077Y-67743716D01*
X149197953Y-67705500D01*
X149197950Y-67705500D01*
X149002050Y-67705500D01*
X149002047Y-67705500D01*
X148809922Y-67743716D01*
X148809910Y-67743719D01*
X148628929Y-67818683D01*
X148628926Y-67818685D01*
X148466047Y-67927517D01*
X148466039Y-67927523D01*
X148327523Y-68066039D01*
X148327517Y-68066047D01*
X148218685Y-68228926D01*
X148218683Y-68228929D01*
X148143719Y-68409910D01*
X148143716Y-68409922D01*
X148105500Y-68602045D01*
X86596614Y-68602045D01*
X86614208Y-68571571D01*
X86644500Y-68458520D01*
X86644500Y-68341480D01*
X86614208Y-68228429D01*
X86555689Y-68127070D01*
X86472930Y-68044311D01*
X86371571Y-67985792D01*
X86258520Y-67955500D01*
X86141480Y-67955500D01*
X86083365Y-67971072D01*
X86028428Y-67985792D01*
X85927071Y-68044310D01*
X85927068Y-68044312D01*
X85844312Y-68127068D01*
X85844310Y-68127071D01*
X85785792Y-68228428D01*
X85785792Y-68228429D01*
X85755500Y-68341480D01*
X81718630Y-68341480D01*
X81719521Y-67402045D01*
X88805500Y-67402045D01*
X88805500Y-67597954D01*
X88843716Y-67790077D01*
X88843719Y-67790089D01*
X88918683Y-67971070D01*
X88918685Y-67971073D01*
X89027517Y-68133952D01*
X89027523Y-68133960D01*
X89166039Y-68272476D01*
X89166047Y-68272482D01*
X89328926Y-68381314D01*
X89328929Y-68381316D01*
X89509910Y-68456280D01*
X89509915Y-68456282D01*
X89672233Y-68488569D01*
X89702045Y-68494499D01*
X89702048Y-68494500D01*
X89702050Y-68494500D01*
X89897952Y-68494500D01*
X89897953Y-68494499D01*
X90090085Y-68456282D01*
X90271072Y-68381315D01*
X90433957Y-68272479D01*
X90572479Y-68133957D01*
X90614225Y-68071480D01*
X114545500Y-68071480D01*
X114545500Y-68188520D01*
X114575792Y-68301571D01*
X114634311Y-68402930D01*
X114717070Y-68485689D01*
X114818429Y-68544208D01*
X114931480Y-68574500D01*
X114931482Y-68574500D01*
X115048517Y-68574500D01*
X115048520Y-68574500D01*
X115161571Y-68544208D01*
X115262930Y-68485689D01*
X115345689Y-68402930D01*
X115404208Y-68301571D01*
X115434500Y-68188520D01*
X115434500Y-68071480D01*
X115404208Y-67958429D01*
X115345689Y-67857070D01*
X115262930Y-67774311D01*
X115161571Y-67715792D01*
X115048520Y-67685500D01*
X114931480Y-67685500D01*
X114856839Y-67705500D01*
X114818428Y-67715792D01*
X114717071Y-67774310D01*
X114717068Y-67774312D01*
X114634312Y-67857068D01*
X114634310Y-67857071D01*
X114575792Y-67958428D01*
X114575792Y-67958429D01*
X114545500Y-68071480D01*
X90614225Y-68071480D01*
X90681315Y-67971072D01*
X90756282Y-67790085D01*
X90794500Y-67597950D01*
X90794500Y-67402050D01*
X90794500Y-67402047D01*
X90794499Y-67402045D01*
X90785250Y-67355543D01*
X90782055Y-67339479D01*
X94274399Y-67339479D01*
X94274399Y-67456519D01*
X94304691Y-67569570D01*
X94363210Y-67670929D01*
X94445969Y-67753688D01*
X94547328Y-67812207D01*
X94660379Y-67842499D01*
X94660381Y-67842499D01*
X94777416Y-67842499D01*
X94777419Y-67842499D01*
X94890470Y-67812207D01*
X94991829Y-67753688D01*
X95074588Y-67670929D01*
X95133107Y-67569570D01*
X95163399Y-67456519D01*
X95163399Y-67339479D01*
X95133107Y-67226428D01*
X95074588Y-67125069D01*
X94991829Y-67042310D01*
X94991828Y-67042309D01*
X94991825Y-67042307D01*
X94985646Y-67038740D01*
X94985645Y-67038739D01*
X94890476Y-66983794D01*
X94890473Y-66983792D01*
X94890470Y-66983791D01*
X94777419Y-66953499D01*
X94660379Y-66953499D01*
X94587869Y-66972928D01*
X94547327Y-66983791D01*
X94445970Y-67042309D01*
X94445967Y-67042311D01*
X94363211Y-67125067D01*
X94363209Y-67125070D01*
X94304691Y-67226427D01*
X94304691Y-67226428D01*
X94274399Y-67339479D01*
X90782055Y-67339479D01*
X90765730Y-67257413D01*
X90756282Y-67209915D01*
X90739571Y-67169570D01*
X90681316Y-67028929D01*
X90681314Y-67028926D01*
X90621548Y-66939479D01*
X96874399Y-66939479D01*
X96874399Y-67056519D01*
X96904691Y-67169570D01*
X96963210Y-67270929D01*
X97045969Y-67353688D01*
X97147328Y-67412207D01*
X97260379Y-67442499D01*
X97260381Y-67442499D01*
X97377416Y-67442499D01*
X97377419Y-67442499D01*
X97490470Y-67412207D01*
X97591829Y-67353688D01*
X97674588Y-67270929D01*
X97733107Y-67169570D01*
X97763399Y-67056519D01*
X97763399Y-66939479D01*
X97733107Y-66826428D01*
X97674588Y-66725069D01*
X97591829Y-66642310D01*
X97590391Y-66641480D01*
X100405500Y-66641480D01*
X100405500Y-66758520D01*
X100435792Y-66871571D01*
X100494311Y-66972930D01*
X100577070Y-67055689D01*
X100678429Y-67114208D01*
X100791480Y-67144500D01*
X100791482Y-67144500D01*
X100908517Y-67144500D01*
X100908520Y-67144500D01*
X101021571Y-67114208D01*
X101122930Y-67055689D01*
X101205689Y-66972930D01*
X101264208Y-66871571D01*
X101294500Y-66758520D01*
X101294500Y-66641480D01*
X101264208Y-66528429D01*
X101205689Y-66427070D01*
X101122930Y-66344311D01*
X101021571Y-66285792D01*
X100908520Y-66255500D01*
X100791480Y-66255500D01*
X100716112Y-66275694D01*
X100678428Y-66285792D01*
X100577071Y-66344310D01*
X100577068Y-66344312D01*
X100494312Y-66427068D01*
X100494310Y-66427071D01*
X100435792Y-66528428D01*
X100435792Y-66528429D01*
X100405500Y-66641480D01*
X97590391Y-66641480D01*
X97490470Y-66583791D01*
X97377419Y-66553499D01*
X97260379Y-66553499D01*
X97185011Y-66573693D01*
X97147327Y-66583791D01*
X97045970Y-66642309D01*
X97045967Y-66642311D01*
X96963211Y-66725067D01*
X96963209Y-66725070D01*
X96904691Y-66826427D01*
X96904691Y-66826428D01*
X96874399Y-66939479D01*
X90621548Y-66939479D01*
X90572482Y-66866047D01*
X90572476Y-66866039D01*
X90433960Y-66727523D01*
X90433952Y-66727517D01*
X90271073Y-66618685D01*
X90271070Y-66618683D01*
X90090089Y-66543719D01*
X90090077Y-66543716D01*
X89897953Y-66505500D01*
X89897950Y-66505500D01*
X89702050Y-66505500D01*
X89702047Y-66505500D01*
X89509922Y-66543716D01*
X89509910Y-66543719D01*
X89328929Y-66618683D01*
X89328926Y-66618685D01*
X89166047Y-66727517D01*
X89166039Y-66727523D01*
X89027523Y-66866039D01*
X89027517Y-66866047D01*
X88918685Y-67028926D01*
X88918683Y-67028929D01*
X88843719Y-67209910D01*
X88843716Y-67209922D01*
X88805500Y-67402045D01*
X81719521Y-67402045D01*
X81721018Y-65824234D01*
X88805499Y-65824234D01*
X88813883Y-65866381D01*
X88845820Y-65914178D01*
X88845821Y-65914179D01*
X88893618Y-65946116D01*
X88935765Y-65954500D01*
X88935768Y-65954500D01*
X90664234Y-65954500D01*
X90706381Y-65946116D01*
X90754179Y-65914179D01*
X90786116Y-65866381D01*
X90794500Y-65824234D01*
X90794500Y-65541480D01*
X106955500Y-65541480D01*
X106955500Y-65658520D01*
X106985792Y-65771571D01*
X107044311Y-65872930D01*
X107127070Y-65955689D01*
X107228429Y-66014208D01*
X107341480Y-66044500D01*
X107341482Y-66044500D01*
X107458517Y-66044500D01*
X107458520Y-66044500D01*
X107571571Y-66014208D01*
X107672930Y-65955689D01*
X107755689Y-65872930D01*
X107814208Y-65771571D01*
X107843707Y-65661480D01*
X111015500Y-65661480D01*
X111015500Y-65778520D01*
X111045792Y-65891571D01*
X111104311Y-65992930D01*
X111187070Y-66075689D01*
X111288429Y-66134208D01*
X111401480Y-66164500D01*
X111401482Y-66164500D01*
X111518517Y-66164500D01*
X111518520Y-66164500D01*
X111631571Y-66134208D01*
X111732930Y-66075689D01*
X111815689Y-65992930D01*
X111874208Y-65891571D01*
X111879591Y-65871480D01*
X113655500Y-65871480D01*
X113655500Y-65988520D01*
X113685792Y-66101571D01*
X113744311Y-66202930D01*
X113827070Y-66285689D01*
X113928429Y-66344208D01*
X114041480Y-66374500D01*
X114041482Y-66374500D01*
X114158517Y-66374500D01*
X114158520Y-66374500D01*
X114271571Y-66344208D01*
X114372930Y-66285689D01*
X114455689Y-66202930D01*
X114514208Y-66101571D01*
X114544500Y-65988520D01*
X114544500Y-65871480D01*
X114514208Y-65758429D01*
X114455689Y-65657070D01*
X114372930Y-65574311D01*
X114271571Y-65515792D01*
X114158520Y-65485500D01*
X114041480Y-65485500D01*
X113966112Y-65505694D01*
X113928428Y-65515792D01*
X113827071Y-65574310D01*
X113827068Y-65574312D01*
X113744312Y-65657068D01*
X113744310Y-65657071D01*
X113685792Y-65758428D01*
X113675694Y-65796112D01*
X113655500Y-65871480D01*
X111879591Y-65871480D01*
X111904500Y-65778520D01*
X111904500Y-65661480D01*
X111874208Y-65548429D01*
X111815689Y-65447070D01*
X111732930Y-65364311D01*
X111631571Y-65305792D01*
X111518520Y-65275500D01*
X111401480Y-65275500D01*
X111326112Y-65295694D01*
X111288428Y-65305792D01*
X111187071Y-65364310D01*
X111187068Y-65364312D01*
X111104312Y-65447068D01*
X111104310Y-65447071D01*
X111045792Y-65548428D01*
X111045792Y-65548429D01*
X111015500Y-65661480D01*
X107843707Y-65661480D01*
X107844500Y-65658520D01*
X107844500Y-65541480D01*
X107814208Y-65428429D01*
X107755689Y-65327070D01*
X107672930Y-65244311D01*
X107571571Y-65185792D01*
X107458520Y-65155500D01*
X107341480Y-65155500D01*
X107266112Y-65175694D01*
X107228428Y-65185792D01*
X107127071Y-65244310D01*
X107127068Y-65244312D01*
X107044312Y-65327068D01*
X107044310Y-65327071D01*
X106985792Y-65428428D01*
X106985792Y-65428429D01*
X106955500Y-65541480D01*
X90794500Y-65541480D01*
X90794500Y-64771480D01*
X94175500Y-64771480D01*
X94175500Y-64888520D01*
X94205792Y-65001571D01*
X94264311Y-65102930D01*
X94347070Y-65185689D01*
X94448429Y-65244208D01*
X94561480Y-65274500D01*
X94561482Y-65274500D01*
X94678517Y-65274500D01*
X94678520Y-65274500D01*
X94791571Y-65244208D01*
X94892930Y-65185689D01*
X94975689Y-65102930D01*
X95034208Y-65001571D01*
X95064500Y-64888520D01*
X95064500Y-64771480D01*
X95034208Y-64658429D01*
X94975689Y-64557070D01*
X94892930Y-64474311D01*
X94791571Y-64415792D01*
X94678520Y-64385500D01*
X94561480Y-64385500D01*
X94486112Y-64405694D01*
X94448428Y-64415792D01*
X94347071Y-64474310D01*
X94347068Y-64474312D01*
X94264312Y-64557068D01*
X94264310Y-64557071D01*
X94205792Y-64658428D01*
X94205792Y-64658429D01*
X94175500Y-64771480D01*
X90794500Y-64771480D01*
X90794500Y-64095765D01*
X90786116Y-64053618D01*
X90754179Y-64005821D01*
X90754178Y-64005820D01*
X90706381Y-63973883D01*
X90664234Y-63965500D01*
X90664232Y-63965500D01*
X88935768Y-63965500D01*
X88935766Y-63965500D01*
X88893618Y-63973883D01*
X88845821Y-64005820D01*
X88845820Y-64005821D01*
X88813883Y-64053618D01*
X88805500Y-64095765D01*
X88805500Y-64095768D01*
X88805500Y-65824232D01*
X88805500Y-65824234D01*
X88805499Y-65824234D01*
X81721018Y-65824234D01*
X81723136Y-63591480D01*
X104505500Y-63591480D01*
X104505500Y-63708520D01*
X104535792Y-63821571D01*
X104594311Y-63922930D01*
X104677070Y-64005689D01*
X104778429Y-64064208D01*
X104891480Y-64094500D01*
X104891482Y-64094500D01*
X105008517Y-64094500D01*
X105008520Y-64094500D01*
X105121571Y-64064208D01*
X105222930Y-64005689D01*
X105305689Y-63922930D01*
X105364208Y-63821571D01*
X105394500Y-63708520D01*
X105394500Y-63591480D01*
X105381103Y-63541480D01*
X140255500Y-63541480D01*
X140255500Y-63658520D01*
X140285792Y-63771571D01*
X140344311Y-63872930D01*
X140427070Y-63955689D01*
X140528429Y-64014208D01*
X140641480Y-64044500D01*
X140641482Y-64044500D01*
X140758517Y-64044500D01*
X140758520Y-64044500D01*
X140871571Y-64014208D01*
X140972930Y-63955689D01*
X141055689Y-63872930D01*
X141114208Y-63771571D01*
X141144500Y-63658520D01*
X141144500Y-63541480D01*
X141114208Y-63428429D01*
X141055689Y-63327070D01*
X140972930Y-63244311D01*
X140871571Y-63185792D01*
X140758520Y-63155500D01*
X140641480Y-63155500D01*
X140566112Y-63175694D01*
X140528428Y-63185792D01*
X140427071Y-63244310D01*
X140427068Y-63244312D01*
X140344312Y-63327068D01*
X140344310Y-63327071D01*
X140285792Y-63428428D01*
X140285792Y-63428429D01*
X140255500Y-63541480D01*
X105381103Y-63541480D01*
X105364208Y-63478429D01*
X105305689Y-63377070D01*
X105222930Y-63294311D01*
X105121571Y-63235792D01*
X105008520Y-63205500D01*
X104891480Y-63205500D01*
X104816112Y-63225694D01*
X104778428Y-63235792D01*
X104677071Y-63294310D01*
X104677068Y-63294312D01*
X104594312Y-63377068D01*
X104594310Y-63377071D01*
X104535792Y-63478428D01*
X104535792Y-63478429D01*
X104505500Y-63591480D01*
X81723136Y-63591480D01*
X81723943Y-62741480D01*
X115015500Y-62741480D01*
X115015500Y-62858520D01*
X115045792Y-62971571D01*
X115104311Y-63072930D01*
X115187070Y-63155689D01*
X115288429Y-63214208D01*
X115401480Y-63244500D01*
X115401482Y-63244500D01*
X115518517Y-63244500D01*
X115518520Y-63244500D01*
X115631571Y-63214208D01*
X115732930Y-63155689D01*
X115815689Y-63072930D01*
X115874208Y-62971571D01*
X115904500Y-62858520D01*
X115904500Y-62741480D01*
X115874208Y-62628429D01*
X115815689Y-62527070D01*
X115732930Y-62444311D01*
X115631571Y-62385792D01*
X115518520Y-62355500D01*
X115401480Y-62355500D01*
X115326112Y-62375694D01*
X115288428Y-62385792D01*
X115187071Y-62444310D01*
X115187068Y-62444312D01*
X115104312Y-62527068D01*
X115104310Y-62527071D01*
X115045792Y-62628428D01*
X115045792Y-62628429D01*
X115015500Y-62741480D01*
X81723943Y-62741480D01*
X81724417Y-62241480D01*
X116055500Y-62241480D01*
X116055500Y-62358520D01*
X116085792Y-62471571D01*
X116144311Y-62572930D01*
X116227070Y-62655689D01*
X116328429Y-62714208D01*
X116441480Y-62744500D01*
X116441482Y-62744500D01*
X116558517Y-62744500D01*
X116558520Y-62744500D01*
X116671571Y-62714208D01*
X116772930Y-62655689D01*
X116855689Y-62572930D01*
X116914208Y-62471571D01*
X116944500Y-62358520D01*
X116944500Y-62341480D01*
X117955500Y-62341480D01*
X117955500Y-62458520D01*
X117985792Y-62571571D01*
X118044311Y-62672930D01*
X118127070Y-62755689D01*
X118228429Y-62814208D01*
X118341480Y-62844500D01*
X118341482Y-62844500D01*
X118458517Y-62844500D01*
X118458520Y-62844500D01*
X118571571Y-62814208D01*
X118672930Y-62755689D01*
X118755689Y-62672930D01*
X118773846Y-62641480D01*
X119555500Y-62641480D01*
X119555500Y-62758520D01*
X119585792Y-62871571D01*
X119644311Y-62972930D01*
X119727070Y-63055689D01*
X119828429Y-63114208D01*
X119941480Y-63144500D01*
X119941482Y-63144500D01*
X120058517Y-63144500D01*
X120058520Y-63144500D01*
X120171571Y-63114208D01*
X120272930Y-63055689D01*
X120355689Y-62972930D01*
X120414208Y-62871571D01*
X120444500Y-62758520D01*
X120444500Y-62641480D01*
X120414208Y-62528429D01*
X120355689Y-62427070D01*
X120272930Y-62344311D01*
X120171571Y-62285792D01*
X120058520Y-62255500D01*
X119941480Y-62255500D01*
X119866112Y-62275694D01*
X119828428Y-62285792D01*
X119727071Y-62344310D01*
X119727068Y-62344312D01*
X119644312Y-62427068D01*
X119644310Y-62427071D01*
X119585792Y-62528428D01*
X119585792Y-62528429D01*
X119555500Y-62641480D01*
X118773846Y-62641480D01*
X118814208Y-62571571D01*
X118844500Y-62458520D01*
X118844500Y-62341480D01*
X118814208Y-62228429D01*
X118755689Y-62127070D01*
X118672930Y-62044311D01*
X118571571Y-61985792D01*
X118458520Y-61955500D01*
X118341480Y-61955500D01*
X118266112Y-61975694D01*
X118228428Y-61985792D01*
X118127071Y-62044310D01*
X118127068Y-62044312D01*
X118044312Y-62127068D01*
X118044310Y-62127071D01*
X117985792Y-62228428D01*
X117985792Y-62228429D01*
X117955500Y-62341480D01*
X116944500Y-62341480D01*
X116944500Y-62241480D01*
X116914208Y-62128429D01*
X116855689Y-62027070D01*
X116772930Y-61944311D01*
X116671571Y-61885792D01*
X116558520Y-61855500D01*
X116441480Y-61855500D01*
X116366112Y-61875694D01*
X116328428Y-61885792D01*
X116227071Y-61944310D01*
X116227068Y-61944312D01*
X116144312Y-62027068D01*
X116144310Y-62027071D01*
X116085792Y-62128428D01*
X116085792Y-62128429D01*
X116055500Y-62241480D01*
X81724417Y-62241480D01*
X81725176Y-61441480D01*
X111015500Y-61441480D01*
X111015500Y-61558520D01*
X111045792Y-61671571D01*
X111104311Y-61772930D01*
X111187070Y-61855689D01*
X111288429Y-61914208D01*
X111401480Y-61944500D01*
X111401482Y-61944500D01*
X111518517Y-61944500D01*
X111518520Y-61944500D01*
X111631571Y-61914208D01*
X111732930Y-61855689D01*
X111815689Y-61772930D01*
X111874208Y-61671571D01*
X111904500Y-61558520D01*
X111904500Y-61441480D01*
X111874208Y-61328429D01*
X111815689Y-61227070D01*
X111732930Y-61144311D01*
X111732929Y-61144310D01*
X111732926Y-61144308D01*
X111726747Y-61140741D01*
X111726746Y-61140740D01*
X111631577Y-61085795D01*
X111631574Y-61085793D01*
X111631571Y-61085792D01*
X111518520Y-61055500D01*
X111401480Y-61055500D01*
X111326112Y-61075694D01*
X111288428Y-61085792D01*
X111187071Y-61144310D01*
X111187068Y-61144312D01*
X111104312Y-61227068D01*
X111104310Y-61227071D01*
X111045792Y-61328428D01*
X111045792Y-61328429D01*
X111015500Y-61441480D01*
X81725176Y-61441480D01*
X81725556Y-61041480D01*
X112655500Y-61041480D01*
X112655500Y-61158520D01*
X112685792Y-61271571D01*
X112744311Y-61372930D01*
X112827070Y-61455689D01*
X112928429Y-61514208D01*
X113041480Y-61544500D01*
X113041482Y-61544500D01*
X113158517Y-61544500D01*
X113158520Y-61544500D01*
X113271571Y-61514208D01*
X113372930Y-61455689D01*
X113455689Y-61372930D01*
X113514208Y-61271571D01*
X113544500Y-61158520D01*
X113544500Y-61041480D01*
X113514208Y-60928429D01*
X113455689Y-60827070D01*
X113372930Y-60744311D01*
X113271571Y-60685792D01*
X113158520Y-60655500D01*
X113041480Y-60655500D01*
X112966112Y-60675694D01*
X112928428Y-60685792D01*
X112827071Y-60744310D01*
X112827068Y-60744312D01*
X112744312Y-60827068D01*
X112744310Y-60827071D01*
X112685792Y-60928428D01*
X112685792Y-60928429D01*
X112655500Y-61041480D01*
X81725556Y-61041480D01*
X81727074Y-59441480D01*
X98055500Y-59441480D01*
X98055500Y-59558520D01*
X98085792Y-59671571D01*
X98144311Y-59772930D01*
X98227070Y-59855689D01*
X98328429Y-59914208D01*
X98441480Y-59944500D01*
X98441482Y-59944500D01*
X98558517Y-59944500D01*
X98558520Y-59944500D01*
X98671571Y-59914208D01*
X98772930Y-59855689D01*
X98855689Y-59772930D01*
X98914208Y-59671571D01*
X98944500Y-59558520D01*
X98944500Y-59441480D01*
X98914208Y-59328429D01*
X98855689Y-59227070D01*
X98772930Y-59144311D01*
X98671571Y-59085792D01*
X98558520Y-59055500D01*
X98441480Y-59055500D01*
X98366112Y-59075694D01*
X98328428Y-59085792D01*
X98227071Y-59144310D01*
X98227068Y-59144312D01*
X98144312Y-59227068D01*
X98144310Y-59227071D01*
X98085792Y-59328428D01*
X98085792Y-59328429D01*
X98055500Y-59441480D01*
X81727074Y-59441480D01*
X81728001Y-58465056D01*
X114164499Y-58465056D01*
X114189881Y-58592654D01*
X114189883Y-58592662D01*
X114239672Y-58712864D01*
X114239673Y-58712866D01*
X114311955Y-58821043D01*
X114311958Y-58821047D01*
X114403952Y-58913041D01*
X114403956Y-58913044D01*
X114512136Y-58985328D01*
X114632339Y-59035117D01*
X114663587Y-59041332D01*
X114759943Y-59060500D01*
X114759946Y-59060500D01*
X114890056Y-59060500D01*
X114954292Y-59047721D01*
X115017661Y-59035117D01*
X115137864Y-58985328D01*
X115246044Y-58913044D01*
X115338044Y-58821044D01*
X115410328Y-58712864D01*
X115460117Y-58592661D01*
X115485500Y-58465056D01*
X117974499Y-58465056D01*
X117999881Y-58592654D01*
X117999883Y-58592662D01*
X118049672Y-58712864D01*
X118049673Y-58712866D01*
X118121955Y-58821043D01*
X118121958Y-58821047D01*
X118213952Y-58913041D01*
X118213956Y-58913044D01*
X118322136Y-58985328D01*
X118442339Y-59035117D01*
X118473587Y-59041332D01*
X118569943Y-59060500D01*
X118569946Y-59060500D01*
X118700056Y-59060500D01*
X118764292Y-59047721D01*
X118827661Y-59035117D01*
X118947864Y-58985328D01*
X119056044Y-58913044D01*
X119148044Y-58821044D01*
X119220328Y-58712864D01*
X119270117Y-58592661D01*
X119295500Y-58465054D01*
X119295500Y-58334946D01*
X119295500Y-58334943D01*
X119270118Y-58207345D01*
X119270117Y-58207339D01*
X119220328Y-58087136D01*
X119148044Y-57978956D01*
X119148041Y-57978952D01*
X119056047Y-57886958D01*
X119056043Y-57886955D01*
X118947866Y-57814673D01*
X118947864Y-57814672D01*
X118827662Y-57764883D01*
X118827654Y-57764881D01*
X118700056Y-57739500D01*
X118700054Y-57739500D01*
X118569946Y-57739500D01*
X118569944Y-57739500D01*
X118442345Y-57764881D01*
X118442337Y-57764883D01*
X118322135Y-57814672D01*
X118322133Y-57814673D01*
X118213956Y-57886955D01*
X118213952Y-57886958D01*
X118121958Y-57978952D01*
X118121955Y-57978956D01*
X118049673Y-58087133D01*
X118049672Y-58087135D01*
X117999883Y-58207337D01*
X117999881Y-58207345D01*
X117974500Y-58334943D01*
X117974500Y-58334946D01*
X117974500Y-58465054D01*
X117974500Y-58465056D01*
X117974499Y-58465056D01*
X115485500Y-58465056D01*
X115485500Y-58465054D01*
X115485500Y-58334946D01*
X115485500Y-58334943D01*
X115460118Y-58207345D01*
X115460117Y-58207339D01*
X115410328Y-58087136D01*
X115338044Y-57978956D01*
X115338041Y-57978952D01*
X115246047Y-57886958D01*
X115246043Y-57886955D01*
X115137866Y-57814673D01*
X115137864Y-57814672D01*
X115017662Y-57764883D01*
X115017654Y-57764881D01*
X114890056Y-57739500D01*
X114890054Y-57739500D01*
X114759946Y-57739500D01*
X114759944Y-57739500D01*
X114632345Y-57764881D01*
X114632337Y-57764883D01*
X114512135Y-57814672D01*
X114512133Y-57814673D01*
X114403956Y-57886955D01*
X114403952Y-57886958D01*
X114311958Y-57978952D01*
X114311955Y-57978956D01*
X114239673Y-58087133D01*
X114239672Y-58087135D01*
X114189883Y-58207337D01*
X114189881Y-58207345D01*
X114164500Y-58334943D01*
X114164500Y-58334946D01*
X114164500Y-58465054D01*
X114164500Y-58465056D01*
X114164499Y-58465056D01*
X81728001Y-58465056D01*
X81728972Y-57441480D01*
X95955500Y-57441480D01*
X95955500Y-57558520D01*
X95985792Y-57671571D01*
X96044311Y-57772930D01*
X96127070Y-57855689D01*
X96228429Y-57914208D01*
X96341480Y-57944500D01*
X96341482Y-57944500D01*
X96458517Y-57944500D01*
X96458520Y-57944500D01*
X96571571Y-57914208D01*
X96672930Y-57855689D01*
X96755689Y-57772930D01*
X96814208Y-57671571D01*
X96844500Y-57558520D01*
X96844500Y-57441480D01*
X120355500Y-57441480D01*
X120355500Y-57558520D01*
X120385792Y-57671571D01*
X120444311Y-57772930D01*
X120527070Y-57855689D01*
X120628429Y-57914208D01*
X120741480Y-57944500D01*
X120741482Y-57944500D01*
X120858517Y-57944500D01*
X120858520Y-57944500D01*
X120971571Y-57914208D01*
X121072930Y-57855689D01*
X121155689Y-57772930D01*
X121214208Y-57671571D01*
X121244500Y-57558520D01*
X121244500Y-57441480D01*
X121214208Y-57328429D01*
X121155689Y-57227070D01*
X121072930Y-57144311D01*
X120971571Y-57085792D01*
X120858520Y-57055500D01*
X120741480Y-57055500D01*
X120666112Y-57075694D01*
X120628428Y-57085792D01*
X120527071Y-57144310D01*
X120527068Y-57144312D01*
X120444312Y-57227068D01*
X120444310Y-57227071D01*
X120385792Y-57328428D01*
X120385792Y-57328429D01*
X120355500Y-57441480D01*
X96844500Y-57441480D01*
X96814208Y-57328429D01*
X96755689Y-57227070D01*
X96672930Y-57144311D01*
X96571571Y-57085792D01*
X96458520Y-57055500D01*
X96341480Y-57055500D01*
X96266112Y-57075694D01*
X96228428Y-57085792D01*
X96127071Y-57144310D01*
X96127068Y-57144312D01*
X96044312Y-57227068D01*
X96044310Y-57227071D01*
X95985792Y-57328428D01*
X95985792Y-57328429D01*
X95955500Y-57441480D01*
X81728972Y-57441480D01*
X81729175Y-57227071D01*
X81730562Y-55764582D01*
X81730395Y-55763306D01*
X81730141Y-55762864D01*
X81729637Y-55757509D01*
X81729509Y-55756525D01*
X81729544Y-55756520D01*
X81726838Y-55727729D01*
X81738409Y-55492214D01*
X81739602Y-55480110D01*
X81740959Y-55470962D01*
X81788331Y-55151602D01*
X81790700Y-55139691D01*
X81871399Y-54817522D01*
X81874929Y-54805889D01*
X81932676Y-54644500D01*
X81986807Y-54493212D01*
X81991462Y-54481975D01*
X82043679Y-54371571D01*
X82133460Y-54181742D01*
X82139179Y-54171042D01*
X82156898Y-54141480D01*
X135455500Y-54141480D01*
X135455500Y-54258520D01*
X135485792Y-54371571D01*
X135544311Y-54472930D01*
X135627070Y-54555689D01*
X135728429Y-54614208D01*
X135841480Y-54644500D01*
X135841482Y-54644500D01*
X135958517Y-54644500D01*
X135958520Y-54644500D01*
X136071571Y-54614208D01*
X136172930Y-54555689D01*
X136255689Y-54472930D01*
X136314208Y-54371571D01*
X136344500Y-54258520D01*
X136344500Y-54141480D01*
X136314208Y-54028429D01*
X136255689Y-53927070D01*
X136172930Y-53844311D01*
X136071571Y-53785792D01*
X135958520Y-53755500D01*
X135841480Y-53755500D01*
X135766112Y-53775694D01*
X135728428Y-53785792D01*
X135627071Y-53844310D01*
X135627068Y-53844312D01*
X135544312Y-53927068D01*
X135544310Y-53927071D01*
X135485792Y-54028428D01*
X135485792Y-54028429D01*
X135455500Y-54141480D01*
X82156898Y-54141480D01*
X82309924Y-53886173D01*
X82316667Y-53876080D01*
X82514517Y-53609309D01*
X82522213Y-53599931D01*
X82745254Y-53353845D01*
X82753845Y-53345254D01*
X82999931Y-53122213D01*
X83009309Y-53114517D01*
X83276080Y-52916667D01*
X83286173Y-52909924D01*
X83571042Y-52739179D01*
X83581742Y-52733460D01*
X83881975Y-52591462D01*
X83893212Y-52586807D01*
X84205897Y-52474926D01*
X84217522Y-52471399D01*
X84539691Y-52390700D01*
X84551602Y-52388331D01*
X84880111Y-52339601D01*
X84892217Y-52338409D01*
X85226967Y-52321963D01*
X85233046Y-52321815D01*
X85295892Y-52321815D01*
X85295897Y-52321813D01*
X153096955Y-52320500D01*
X153103036Y-52320648D01*
G37*
%TD.AperFunction*%
%TD*%
M02*
