%TF.GenerationSoftware,KiCad,Pcbnew,9.0.3*%
%TF.CreationDate,2026-03-22T00:20:11+01:00*%
%TF.ProjectId,gambos-pcb,67616d62-6f73-42d7-9063-622e6b696361,rev?*%
%TF.SameCoordinates,Original*%
%TF.FileFunction,Legend,Top*%
%TF.FilePolarity,Positive*%
%FSLAX46Y46*%
G04 Gerber Fmt 4.6, Leading zero omitted, Abs format (unit mm)*
G04 Created by KiCad (PCBNEW 9.0.3) date 2026-03-22 00:20:11*
%MOMM*%
%LPD*%
G01*
G04 APERTURE LIST*
%ADD10C,0.150000*%
%ADD11C,0.200000*%
%ADD12C,0.120000*%
%ADD13C,0.152400*%
%ADD14C,0.000000*%
%ADD15C,0.127000*%
%ADD16C,0.100000*%
G04 APERTURE END LIST*
D10*
X144186779Y-67069819D02*
X144186779Y-67879342D01*
X144186779Y-67879342D02*
X144234398Y-67974580D01*
X144234398Y-67974580D02*
X144282017Y-68022200D01*
X144282017Y-68022200D02*
X144377255Y-68069819D01*
X144377255Y-68069819D02*
X144567731Y-68069819D01*
X144567731Y-68069819D02*
X144662969Y-68022200D01*
X144662969Y-68022200D02*
X144710588Y-67974580D01*
X144710588Y-67974580D02*
X144758207Y-67879342D01*
X144758207Y-67879342D02*
X144758207Y-67069819D01*
X145186779Y-68022200D02*
X145329636Y-68069819D01*
X145329636Y-68069819D02*
X145567731Y-68069819D01*
X145567731Y-68069819D02*
X145662969Y-68022200D01*
X145662969Y-68022200D02*
X145710588Y-67974580D01*
X145710588Y-67974580D02*
X145758207Y-67879342D01*
X145758207Y-67879342D02*
X145758207Y-67784104D01*
X145758207Y-67784104D02*
X145710588Y-67688866D01*
X145710588Y-67688866D02*
X145662969Y-67641247D01*
X145662969Y-67641247D02*
X145567731Y-67593628D01*
X145567731Y-67593628D02*
X145377255Y-67546009D01*
X145377255Y-67546009D02*
X145282017Y-67498390D01*
X145282017Y-67498390D02*
X145234398Y-67450771D01*
X145234398Y-67450771D02*
X145186779Y-67355533D01*
X145186779Y-67355533D02*
X145186779Y-67260295D01*
X145186779Y-67260295D02*
X145234398Y-67165057D01*
X145234398Y-67165057D02*
X145282017Y-67117438D01*
X145282017Y-67117438D02*
X145377255Y-67069819D01*
X145377255Y-67069819D02*
X145615350Y-67069819D01*
X145615350Y-67069819D02*
X145758207Y-67117438D01*
X146758207Y-68069819D02*
X146424874Y-67593628D01*
X146186779Y-68069819D02*
X146186779Y-67069819D01*
X146186779Y-67069819D02*
X146567731Y-67069819D01*
X146567731Y-67069819D02*
X146662969Y-67117438D01*
X146662969Y-67117438D02*
X146710588Y-67165057D01*
X146710588Y-67165057D02*
X146758207Y-67260295D01*
X146758207Y-67260295D02*
X146758207Y-67403152D01*
X146758207Y-67403152D02*
X146710588Y-67498390D01*
X146710588Y-67498390D02*
X146662969Y-67546009D01*
X146662969Y-67546009D02*
X146567731Y-67593628D01*
X146567731Y-67593628D02*
X146186779Y-67593628D01*
X154089160Y-95522200D02*
X154232017Y-95569819D01*
X154232017Y-95569819D02*
X154470112Y-95569819D01*
X154470112Y-95569819D02*
X154565350Y-95522200D01*
X154565350Y-95522200D02*
X154612969Y-95474580D01*
X154612969Y-95474580D02*
X154660588Y-95379342D01*
X154660588Y-95379342D02*
X154660588Y-95284104D01*
X154660588Y-95284104D02*
X154612969Y-95188866D01*
X154612969Y-95188866D02*
X154565350Y-95141247D01*
X154565350Y-95141247D02*
X154470112Y-95093628D01*
X154470112Y-95093628D02*
X154279636Y-95046009D01*
X154279636Y-95046009D02*
X154184398Y-94998390D01*
X154184398Y-94998390D02*
X154136779Y-94950771D01*
X154136779Y-94950771D02*
X154089160Y-94855533D01*
X154089160Y-94855533D02*
X154089160Y-94760295D01*
X154089160Y-94760295D02*
X154136779Y-94665057D01*
X154136779Y-94665057D02*
X154184398Y-94617438D01*
X154184398Y-94617438D02*
X154279636Y-94569819D01*
X154279636Y-94569819D02*
X154517731Y-94569819D01*
X154517731Y-94569819D02*
X154660588Y-94617438D01*
X155565350Y-94569819D02*
X155089160Y-94569819D01*
X155089160Y-94569819D02*
X155041541Y-95046009D01*
X155041541Y-95046009D02*
X155089160Y-94998390D01*
X155089160Y-94998390D02*
X155184398Y-94950771D01*
X155184398Y-94950771D02*
X155422493Y-94950771D01*
X155422493Y-94950771D02*
X155517731Y-94998390D01*
X155517731Y-94998390D02*
X155565350Y-95046009D01*
X155565350Y-95046009D02*
X155612969Y-95141247D01*
X155612969Y-95141247D02*
X155612969Y-95379342D01*
X155612969Y-95379342D02*
X155565350Y-95474580D01*
X155565350Y-95474580D02*
X155517731Y-95522200D01*
X155517731Y-95522200D02*
X155422493Y-95569819D01*
X155422493Y-95569819D02*
X155184398Y-95569819D01*
X155184398Y-95569819D02*
X155089160Y-95522200D01*
X155089160Y-95522200D02*
X155041541Y-95474580D01*
X153889160Y-71522200D02*
X154032017Y-71569819D01*
X154032017Y-71569819D02*
X154270112Y-71569819D01*
X154270112Y-71569819D02*
X154365350Y-71522200D01*
X154365350Y-71522200D02*
X154412969Y-71474580D01*
X154412969Y-71474580D02*
X154460588Y-71379342D01*
X154460588Y-71379342D02*
X154460588Y-71284104D01*
X154460588Y-71284104D02*
X154412969Y-71188866D01*
X154412969Y-71188866D02*
X154365350Y-71141247D01*
X154365350Y-71141247D02*
X154270112Y-71093628D01*
X154270112Y-71093628D02*
X154079636Y-71046009D01*
X154079636Y-71046009D02*
X153984398Y-70998390D01*
X153984398Y-70998390D02*
X153936779Y-70950771D01*
X153936779Y-70950771D02*
X153889160Y-70855533D01*
X153889160Y-70855533D02*
X153889160Y-70760295D01*
X153889160Y-70760295D02*
X153936779Y-70665057D01*
X153936779Y-70665057D02*
X153984398Y-70617438D01*
X153984398Y-70617438D02*
X154079636Y-70569819D01*
X154079636Y-70569819D02*
X154317731Y-70569819D01*
X154317731Y-70569819D02*
X154460588Y-70617438D01*
X155412969Y-71569819D02*
X154841541Y-71569819D01*
X155127255Y-71569819D02*
X155127255Y-70569819D01*
X155127255Y-70569819D02*
X155032017Y-70712676D01*
X155032017Y-70712676D02*
X154936779Y-70807914D01*
X154936779Y-70807914D02*
X154841541Y-70855533D01*
D11*
X111589600Y-59497945D02*
X111637219Y-59355088D01*
X111637219Y-59355088D02*
X111637219Y-59116993D01*
X111637219Y-59116993D02*
X111589600Y-59021755D01*
X111589600Y-59021755D02*
X111541980Y-58974136D01*
X111541980Y-58974136D02*
X111446742Y-58926517D01*
X111446742Y-58926517D02*
X111351504Y-58926517D01*
X111351504Y-58926517D02*
X111256266Y-58974136D01*
X111256266Y-58974136D02*
X111208647Y-59021755D01*
X111208647Y-59021755D02*
X111161028Y-59116993D01*
X111161028Y-59116993D02*
X111113409Y-59307469D01*
X111113409Y-59307469D02*
X111065790Y-59402707D01*
X111065790Y-59402707D02*
X111018171Y-59450326D01*
X111018171Y-59450326D02*
X110922933Y-59497945D01*
X110922933Y-59497945D02*
X110827695Y-59497945D01*
X110827695Y-59497945D02*
X110732457Y-59450326D01*
X110732457Y-59450326D02*
X110684838Y-59402707D01*
X110684838Y-59402707D02*
X110637219Y-59307469D01*
X110637219Y-59307469D02*
X110637219Y-59069374D01*
X110637219Y-59069374D02*
X110684838Y-58926517D01*
X110637219Y-58593183D02*
X111637219Y-58355088D01*
X111637219Y-58355088D02*
X110922933Y-58164612D01*
X110922933Y-58164612D02*
X111637219Y-57974136D01*
X111637219Y-57974136D02*
X110637219Y-57736041D01*
X111637219Y-57355088D02*
X110637219Y-57355088D01*
X110637219Y-57355088D02*
X110637219Y-57116993D01*
X110637219Y-57116993D02*
X110684838Y-56974136D01*
X110684838Y-56974136D02*
X110780076Y-56878898D01*
X110780076Y-56878898D02*
X110875314Y-56831279D01*
X110875314Y-56831279D02*
X111065790Y-56783660D01*
X111065790Y-56783660D02*
X111208647Y-56783660D01*
X111208647Y-56783660D02*
X111399123Y-56831279D01*
X111399123Y-56831279D02*
X111494361Y-56878898D01*
X111494361Y-56878898D02*
X111589600Y-56974136D01*
X111589600Y-56974136D02*
X111637219Y-57116993D01*
X111637219Y-57116993D02*
X111637219Y-57355088D01*
X134069673Y-99743409D02*
X134403006Y-99743409D01*
X134545863Y-100267219D02*
X134069673Y-100267219D01*
X134069673Y-100267219D02*
X134069673Y-99267219D01*
X134069673Y-99267219D02*
X134545863Y-99267219D01*
X134926816Y-100219600D02*
X135069673Y-100267219D01*
X135069673Y-100267219D02*
X135307768Y-100267219D01*
X135307768Y-100267219D02*
X135403006Y-100219600D01*
X135403006Y-100219600D02*
X135450625Y-100171980D01*
X135450625Y-100171980D02*
X135498244Y-100076742D01*
X135498244Y-100076742D02*
X135498244Y-99981504D01*
X135498244Y-99981504D02*
X135450625Y-99886266D01*
X135450625Y-99886266D02*
X135403006Y-99838647D01*
X135403006Y-99838647D02*
X135307768Y-99791028D01*
X135307768Y-99791028D02*
X135117292Y-99743409D01*
X135117292Y-99743409D02*
X135022054Y-99695790D01*
X135022054Y-99695790D02*
X134974435Y-99648171D01*
X134974435Y-99648171D02*
X134926816Y-99552933D01*
X134926816Y-99552933D02*
X134926816Y-99457695D01*
X134926816Y-99457695D02*
X134974435Y-99362457D01*
X134974435Y-99362457D02*
X135022054Y-99314838D01*
X135022054Y-99314838D02*
X135117292Y-99267219D01*
X135117292Y-99267219D02*
X135355387Y-99267219D01*
X135355387Y-99267219D02*
X135498244Y-99314838D01*
X136498244Y-100171980D02*
X136450625Y-100219600D01*
X136450625Y-100219600D02*
X136307768Y-100267219D01*
X136307768Y-100267219D02*
X136212530Y-100267219D01*
X136212530Y-100267219D02*
X136069673Y-100219600D01*
X136069673Y-100219600D02*
X135974435Y-100124361D01*
X135974435Y-100124361D02*
X135926816Y-100029123D01*
X135926816Y-100029123D02*
X135879197Y-99838647D01*
X135879197Y-99838647D02*
X135879197Y-99695790D01*
X135879197Y-99695790D02*
X135926816Y-99505314D01*
X135926816Y-99505314D02*
X135974435Y-99410076D01*
X135974435Y-99410076D02*
X136069673Y-99314838D01*
X136069673Y-99314838D02*
X136212530Y-99267219D01*
X136212530Y-99267219D02*
X136307768Y-99267219D01*
X136307768Y-99267219D02*
X136450625Y-99314838D01*
X136450625Y-99314838D02*
X136498244Y-99362457D01*
G36*
X118090683Y-69910653D02*
G01*
X117939558Y-69949487D01*
X117792463Y-69971927D01*
X117656175Y-69980170D01*
X117522165Y-69969243D01*
X117398528Y-69937175D01*
X117283217Y-69884091D01*
X117203915Y-69830957D01*
X117135277Y-69768605D01*
X117076459Y-69696503D01*
X117027036Y-69613715D01*
X116979586Y-69494407D01*
X116949559Y-69355088D01*
X116938926Y-69192029D01*
X116948639Y-69034855D01*
X116976302Y-68897642D01*
X117020350Y-68777488D01*
X117083628Y-68667156D01*
X117162861Y-68574043D01*
X117259128Y-68496395D01*
X117338644Y-68453650D01*
X117436929Y-68420825D01*
X117557723Y-68399388D01*
X117705360Y-68391615D01*
X117837879Y-68397350D01*
X117966136Y-68414373D01*
X118090683Y-68442540D01*
X118090683Y-68681043D01*
X118034355Y-68655811D01*
X117970241Y-68633965D01*
X117837068Y-68602732D01*
X117715710Y-68590917D01*
X117633657Y-68598504D01*
X117556560Y-68621018D01*
X117483068Y-68658878D01*
X117419181Y-68710558D01*
X117364929Y-68778777D01*
X117320128Y-68866423D01*
X117289502Y-68960994D01*
X117270430Y-69066248D01*
X117263799Y-69183786D01*
X117272680Y-69314674D01*
X117297781Y-69426462D01*
X117337525Y-69522202D01*
X117391386Y-69604372D01*
X117460776Y-69673691D01*
X117540498Y-69722684D01*
X117632608Y-69752767D01*
X117740256Y-69763283D01*
X117799699Y-69758154D01*
X117799699Y-69223995D01*
X118090683Y-69223995D01*
X118090683Y-69910653D01*
G37*
G36*
X119406572Y-69945000D02*
G01*
X119092049Y-69945000D01*
X118981315Y-69558119D01*
X118524367Y-69558119D01*
X118398338Y-69945000D01*
X118186213Y-69945000D01*
X118372316Y-69370540D01*
X118584817Y-69370540D01*
X118931123Y-69370540D01*
X118771297Y-68799195D01*
X118584817Y-69370540D01*
X118372316Y-69370540D01*
X118678057Y-68426786D01*
X118981315Y-68426786D01*
X119406572Y-69945000D01*
G37*
G36*
X119515474Y-69945000D02*
G01*
X119515474Y-68426786D01*
X119865901Y-68426786D01*
X120068776Y-69109414D01*
X120071890Y-69109414D01*
X120283923Y-68426786D01*
X120607789Y-68426786D01*
X120607789Y-69945000D01*
X120380277Y-69945000D01*
X120380277Y-68779870D01*
X120377163Y-68779870D01*
X120162015Y-69540533D01*
X119930473Y-69540533D01*
X119720363Y-68778862D01*
X119717341Y-68778862D01*
X119717341Y-69945000D01*
X119515474Y-69945000D01*
G37*
G36*
X121498459Y-68432595D02*
G01*
X121588104Y-68447502D01*
X121648538Y-68468368D01*
X121702776Y-68500818D01*
X121746435Y-68541300D01*
X121780704Y-68590459D01*
X121805175Y-68645674D01*
X121820150Y-68706331D01*
X121825309Y-68773550D01*
X121818490Y-68845489D01*
X121798519Y-68910830D01*
X121765317Y-68971020D01*
X121719994Y-69022903D01*
X121652427Y-69075372D01*
X121556856Y-69128465D01*
X121676321Y-69189194D01*
X121760616Y-69252204D01*
X121817066Y-69317234D01*
X121858179Y-69393138D01*
X121882631Y-69473315D01*
X121890888Y-69559310D01*
X121883460Y-69638623D01*
X121861828Y-69709752D01*
X121826078Y-69774390D01*
X121775117Y-69833716D01*
X121714535Y-69879571D01*
X121638103Y-69914237D01*
X121542270Y-69936790D01*
X121422583Y-69945000D01*
X120834477Y-69945000D01*
X120834477Y-69745697D01*
X121137735Y-69745697D01*
X121301683Y-69745697D01*
X121396690Y-69737065D01*
X121461757Y-69714669D01*
X121505107Y-69681584D01*
X121536974Y-69635962D01*
X121556283Y-69583543D01*
X121562992Y-69522398D01*
X121552581Y-69444659D01*
X121522489Y-69379375D01*
X121471768Y-69323463D01*
X121406827Y-69283070D01*
X121322866Y-69256989D01*
X121214580Y-69247442D01*
X121137735Y-69247442D01*
X121137735Y-69745697D01*
X120834477Y-69745697D01*
X120834477Y-69048140D01*
X121137735Y-69048140D01*
X121212565Y-69048140D01*
X121309779Y-69039019D01*
X121382457Y-69014419D01*
X121436413Y-68976607D01*
X121477623Y-68924976D01*
X121502211Y-68865952D01*
X121510694Y-68797180D01*
X121504496Y-68741310D01*
X121487597Y-68699434D01*
X121460960Y-68668128D01*
X121424372Y-68647735D01*
X121359909Y-68632396D01*
X121254514Y-68626088D01*
X121137735Y-68626088D01*
X121137735Y-69048140D01*
X120834477Y-69048140D01*
X120834477Y-68426786D01*
X121370376Y-68426786D01*
X121498459Y-68432595D01*
G37*
G36*
X122711619Y-68401089D02*
G01*
X122814755Y-68427984D01*
X122903461Y-68470983D01*
X122980051Y-68530137D01*
X123045943Y-68606854D01*
X123097665Y-68693112D01*
X123139431Y-68792182D01*
X123170740Y-68905880D01*
X123190610Y-69036325D01*
X123197618Y-69185893D01*
X123190588Y-69335427D01*
X123170654Y-69465865D01*
X123139239Y-69579584D01*
X123097321Y-69678700D01*
X123045394Y-69765023D01*
X122979283Y-69841769D01*
X122902611Y-69900913D01*
X122813982Y-69943872D01*
X122711114Y-69970719D01*
X122591010Y-69980170D01*
X122470909Y-69970720D01*
X122368031Y-69943874D01*
X122279381Y-69900916D01*
X122202682Y-69841771D01*
X122136536Y-69765023D01*
X122084642Y-69678705D01*
X122042749Y-69579591D01*
X122011352Y-69465873D01*
X121991429Y-69335432D01*
X121984450Y-69186900D01*
X122313306Y-69186900D01*
X122318208Y-69350712D01*
X122330888Y-69467882D01*
X122348661Y-69548593D01*
X122377346Y-69625141D01*
X122410340Y-69682373D01*
X122447029Y-69723990D01*
X122491633Y-69755917D01*
X122539180Y-69774587D01*
X122591010Y-69780868D01*
X122642824Y-69774576D01*
X122690181Y-69755898D01*
X122734442Y-69723990D01*
X122770914Y-69682425D01*
X122804087Y-69625034D01*
X122833360Y-69548044D01*
X122851666Y-69466986D01*
X122864694Y-69349924D01*
X122869722Y-69186900D01*
X122864942Y-69023092D01*
X122852607Y-68906559D01*
X122835375Y-68826856D01*
X122807423Y-68751313D01*
X122774594Y-68693583D01*
X122737465Y-68650451D01*
X122692358Y-68617024D01*
X122644019Y-68597495D01*
X122591010Y-68590917D01*
X122538646Y-68597425D01*
X122490788Y-68616766D01*
X122446022Y-68649902D01*
X122409246Y-68692724D01*
X122376410Y-68750576D01*
X122348111Y-68826856D01*
X122330617Y-68907186D01*
X122318132Y-69023824D01*
X122313306Y-69186900D01*
X121984450Y-69186900D01*
X121984403Y-69185893D01*
X121991411Y-69036325D01*
X122011281Y-68905880D01*
X122042590Y-68792182D01*
X122084356Y-68693112D01*
X122136078Y-68606854D01*
X122202007Y-68530131D01*
X122278617Y-68470974D01*
X122367327Y-68427977D01*
X122470446Y-68401087D01*
X122591010Y-68391615D01*
X122711619Y-68401089D01*
G37*
G36*
X123330059Y-69931078D02*
G01*
X123330059Y-69682866D01*
X123492374Y-69739215D01*
X123638762Y-69770858D01*
X123771619Y-69780868D01*
X123864033Y-69773169D01*
X123939440Y-69751714D01*
X124001147Y-69717945D01*
X124051497Y-69670910D01*
X124079830Y-69619702D01*
X124089257Y-69562149D01*
X124082094Y-69511582D01*
X124060589Y-69465154D01*
X124017307Y-69422862D01*
X123911021Y-69355794D01*
X123628188Y-69203203D01*
X123503054Y-69127054D01*
X123435572Y-69071679D01*
X123386526Y-69011809D01*
X123351491Y-68947390D01*
X123330070Y-68877701D01*
X123322823Y-68802584D01*
X123331195Y-68720392D01*
X123355795Y-68645637D01*
X123396974Y-68576527D01*
X123456546Y-68511874D01*
X123525762Y-68463370D01*
X123616581Y-68425797D01*
X123734304Y-68400838D01*
X123885375Y-68391615D01*
X124032990Y-68397287D01*
X124173863Y-68414007D01*
X124308618Y-68441441D01*
X124308618Y-68679486D01*
X124161752Y-68629146D01*
X124023590Y-68600249D01*
X123892611Y-68590917D01*
X123801651Y-68596896D01*
X123732643Y-68612906D01*
X123680944Y-68636804D01*
X123638130Y-68671865D01*
X123614474Y-68710238D01*
X123606664Y-68753674D01*
X123611405Y-68791307D01*
X123626173Y-68829970D01*
X123658430Y-68866069D01*
X123746065Y-68921653D01*
X124059582Y-69090638D01*
X124190061Y-69168105D01*
X124278320Y-69236391D01*
X124334172Y-69296718D01*
X124374864Y-69366469D01*
X124399508Y-69443973D01*
X124407994Y-69531283D01*
X124400563Y-69611668D01*
X124378507Y-69687250D01*
X124341407Y-69759344D01*
X124291023Y-69822497D01*
X124225403Y-69876636D01*
X124142105Y-69922010D01*
X124051569Y-69952270D01*
X123933613Y-69972614D01*
X123781969Y-69980170D01*
X123645841Y-69975097D01*
X123495661Y-69959138D01*
X123330059Y-69931078D01*
G37*
G36*
X124703284Y-69399849D02*
G01*
X124703284Y-69200547D01*
X125537404Y-69200547D01*
X125537404Y-69399849D01*
X124703284Y-69399849D01*
G37*
G36*
X126241556Y-69945000D02*
G01*
X125806132Y-68831252D01*
X126129906Y-68831252D01*
X126446536Y-69640184D01*
X126768296Y-68831252D01*
X126988572Y-68831252D01*
X126544905Y-69945000D01*
X126241556Y-69945000D01*
G37*
G36*
X127245027Y-69945000D02*
G01*
X127245027Y-69745697D01*
X127548285Y-69745697D01*
X127548285Y-68631950D01*
X127245027Y-68631950D01*
X127245027Y-68456095D01*
X127851635Y-68391615D01*
X127851635Y-69745697D01*
X128154893Y-69745697D01*
X128154893Y-69945000D01*
X127245027Y-69945000D01*
G37*
G36*
X128737137Y-69945000D02*
G01*
X128737137Y-69593290D01*
X129090679Y-69593290D01*
X129090679Y-69945000D01*
X128737137Y-69945000D01*
G37*
G36*
X130280908Y-68400336D02*
G01*
X130370723Y-68425489D01*
X130450797Y-68466507D01*
X130522744Y-68524093D01*
X130587460Y-68600168D01*
X130637293Y-68683310D01*
X130677963Y-68781039D01*
X130708779Y-68895595D01*
X130728536Y-69029577D01*
X130735563Y-69185893D01*
X130728536Y-69342208D01*
X130708779Y-69476191D01*
X130677963Y-69590747D01*
X130637293Y-69688476D01*
X130587460Y-69771618D01*
X130522744Y-69847692D01*
X130450797Y-69905278D01*
X130370723Y-69946296D01*
X130280908Y-69971450D01*
X130179147Y-69980170D01*
X130077388Y-69971451D01*
X129987563Y-69946299D01*
X129907470Y-69905281D01*
X129835495Y-69847694D01*
X129770743Y-69771618D01*
X129720943Y-69688481D01*
X129680298Y-69590754D01*
X129649500Y-69476199D01*
X129629755Y-69342213D01*
X129622732Y-69185893D01*
X129951635Y-69185893D01*
X129960158Y-69428631D01*
X129980807Y-69577780D01*
X130007414Y-69661892D01*
X130040796Y-69716061D01*
X130079802Y-69752180D01*
X130125171Y-69773508D01*
X130179056Y-69780868D01*
X130232987Y-69773504D01*
X130278368Y-69752172D01*
X130317357Y-69716053D01*
X130350697Y-69661892D01*
X130377349Y-69577776D01*
X130398032Y-69428628D01*
X130406568Y-69185893D01*
X130398016Y-68942418D01*
X130377321Y-68793236D01*
X130350697Y-68709436D01*
X130317384Y-68655515D01*
X130278407Y-68619530D01*
X130233018Y-68598262D01*
X130179056Y-68590917D01*
X130125140Y-68598258D01*
X130079763Y-68619521D01*
X130040770Y-68655507D01*
X130007414Y-68709436D01*
X129980835Y-68793233D01*
X129960173Y-68942415D01*
X129951635Y-69185893D01*
X129622732Y-69185893D01*
X129629755Y-69029572D01*
X129649500Y-68895587D01*
X129680298Y-68781031D01*
X129720943Y-68683305D01*
X129770743Y-68600168D01*
X129835495Y-68524091D01*
X129907470Y-68466504D01*
X129987563Y-68425487D01*
X130077388Y-68400335D01*
X130179147Y-68391615D01*
X130280908Y-68400336D01*
G37*
D10*
X154089160Y-83522200D02*
X154232017Y-83569819D01*
X154232017Y-83569819D02*
X154470112Y-83569819D01*
X154470112Y-83569819D02*
X154565350Y-83522200D01*
X154565350Y-83522200D02*
X154612969Y-83474580D01*
X154612969Y-83474580D02*
X154660588Y-83379342D01*
X154660588Y-83379342D02*
X154660588Y-83284104D01*
X154660588Y-83284104D02*
X154612969Y-83188866D01*
X154612969Y-83188866D02*
X154565350Y-83141247D01*
X154565350Y-83141247D02*
X154470112Y-83093628D01*
X154470112Y-83093628D02*
X154279636Y-83046009D01*
X154279636Y-83046009D02*
X154184398Y-82998390D01*
X154184398Y-82998390D02*
X154136779Y-82950771D01*
X154136779Y-82950771D02*
X154089160Y-82855533D01*
X154089160Y-82855533D02*
X154089160Y-82760295D01*
X154089160Y-82760295D02*
X154136779Y-82665057D01*
X154136779Y-82665057D02*
X154184398Y-82617438D01*
X154184398Y-82617438D02*
X154279636Y-82569819D01*
X154279636Y-82569819D02*
X154517731Y-82569819D01*
X154517731Y-82569819D02*
X154660588Y-82617438D01*
X154993922Y-82569819D02*
X155612969Y-82569819D01*
X155612969Y-82569819D02*
X155279636Y-82950771D01*
X155279636Y-82950771D02*
X155422493Y-82950771D01*
X155422493Y-82950771D02*
X155517731Y-82998390D01*
X155517731Y-82998390D02*
X155565350Y-83046009D01*
X155565350Y-83046009D02*
X155612969Y-83141247D01*
X155612969Y-83141247D02*
X155612969Y-83379342D01*
X155612969Y-83379342D02*
X155565350Y-83474580D01*
X155565350Y-83474580D02*
X155517731Y-83522200D01*
X155517731Y-83522200D02*
X155422493Y-83569819D01*
X155422493Y-83569819D02*
X155136779Y-83569819D01*
X155136779Y-83569819D02*
X155041541Y-83522200D01*
X155041541Y-83522200D02*
X154993922Y-83474580D01*
X154089160Y-77522200D02*
X154232017Y-77569819D01*
X154232017Y-77569819D02*
X154470112Y-77569819D01*
X154470112Y-77569819D02*
X154565350Y-77522200D01*
X154565350Y-77522200D02*
X154612969Y-77474580D01*
X154612969Y-77474580D02*
X154660588Y-77379342D01*
X154660588Y-77379342D02*
X154660588Y-77284104D01*
X154660588Y-77284104D02*
X154612969Y-77188866D01*
X154612969Y-77188866D02*
X154565350Y-77141247D01*
X154565350Y-77141247D02*
X154470112Y-77093628D01*
X154470112Y-77093628D02*
X154279636Y-77046009D01*
X154279636Y-77046009D02*
X154184398Y-76998390D01*
X154184398Y-76998390D02*
X154136779Y-76950771D01*
X154136779Y-76950771D02*
X154089160Y-76855533D01*
X154089160Y-76855533D02*
X154089160Y-76760295D01*
X154089160Y-76760295D02*
X154136779Y-76665057D01*
X154136779Y-76665057D02*
X154184398Y-76617438D01*
X154184398Y-76617438D02*
X154279636Y-76569819D01*
X154279636Y-76569819D02*
X154517731Y-76569819D01*
X154517731Y-76569819D02*
X154660588Y-76617438D01*
X155041541Y-76665057D02*
X155089160Y-76617438D01*
X155089160Y-76617438D02*
X155184398Y-76569819D01*
X155184398Y-76569819D02*
X155422493Y-76569819D01*
X155422493Y-76569819D02*
X155517731Y-76617438D01*
X155517731Y-76617438D02*
X155565350Y-76665057D01*
X155565350Y-76665057D02*
X155612969Y-76760295D01*
X155612969Y-76760295D02*
X155612969Y-76855533D01*
X155612969Y-76855533D02*
X155565350Y-76998390D01*
X155565350Y-76998390D02*
X154993922Y-77569819D01*
X154993922Y-77569819D02*
X155612969Y-77569819D01*
X153889160Y-89522200D02*
X154032017Y-89569819D01*
X154032017Y-89569819D02*
X154270112Y-89569819D01*
X154270112Y-89569819D02*
X154365350Y-89522200D01*
X154365350Y-89522200D02*
X154412969Y-89474580D01*
X154412969Y-89474580D02*
X154460588Y-89379342D01*
X154460588Y-89379342D02*
X154460588Y-89284104D01*
X154460588Y-89284104D02*
X154412969Y-89188866D01*
X154412969Y-89188866D02*
X154365350Y-89141247D01*
X154365350Y-89141247D02*
X154270112Y-89093628D01*
X154270112Y-89093628D02*
X154079636Y-89046009D01*
X154079636Y-89046009D02*
X153984398Y-88998390D01*
X153984398Y-88998390D02*
X153936779Y-88950771D01*
X153936779Y-88950771D02*
X153889160Y-88855533D01*
X153889160Y-88855533D02*
X153889160Y-88760295D01*
X153889160Y-88760295D02*
X153936779Y-88665057D01*
X153936779Y-88665057D02*
X153984398Y-88617438D01*
X153984398Y-88617438D02*
X154079636Y-88569819D01*
X154079636Y-88569819D02*
X154317731Y-88569819D01*
X154317731Y-88569819D02*
X154460588Y-88617438D01*
X155317731Y-88903152D02*
X155317731Y-89569819D01*
X155079636Y-88522200D02*
X154841541Y-89236485D01*
X154841541Y-89236485D02*
X155460588Y-89236485D01*
X133758207Y-68069819D02*
X133424874Y-67593628D01*
X133186779Y-68069819D02*
X133186779Y-67069819D01*
X133186779Y-67069819D02*
X133567731Y-67069819D01*
X133567731Y-67069819D02*
X133662969Y-67117438D01*
X133662969Y-67117438D02*
X133710588Y-67165057D01*
X133710588Y-67165057D02*
X133758207Y-67260295D01*
X133758207Y-67260295D02*
X133758207Y-67403152D01*
X133758207Y-67403152D02*
X133710588Y-67498390D01*
X133710588Y-67498390D02*
X133662969Y-67546009D01*
X133662969Y-67546009D02*
X133567731Y-67593628D01*
X133567731Y-67593628D02*
X133186779Y-67593628D01*
X134139160Y-68022200D02*
X134282017Y-68069819D01*
X134282017Y-68069819D02*
X134520112Y-68069819D01*
X134520112Y-68069819D02*
X134615350Y-68022200D01*
X134615350Y-68022200D02*
X134662969Y-67974580D01*
X134662969Y-67974580D02*
X134710588Y-67879342D01*
X134710588Y-67879342D02*
X134710588Y-67784104D01*
X134710588Y-67784104D02*
X134662969Y-67688866D01*
X134662969Y-67688866D02*
X134615350Y-67641247D01*
X134615350Y-67641247D02*
X134520112Y-67593628D01*
X134520112Y-67593628D02*
X134329636Y-67546009D01*
X134329636Y-67546009D02*
X134234398Y-67498390D01*
X134234398Y-67498390D02*
X134186779Y-67450771D01*
X134186779Y-67450771D02*
X134139160Y-67355533D01*
X134139160Y-67355533D02*
X134139160Y-67260295D01*
X134139160Y-67260295D02*
X134186779Y-67165057D01*
X134186779Y-67165057D02*
X134234398Y-67117438D01*
X134234398Y-67117438D02*
X134329636Y-67069819D01*
X134329636Y-67069819D02*
X134567731Y-67069819D01*
X134567731Y-67069819D02*
X134710588Y-67117438D01*
X134996303Y-67069819D02*
X135567731Y-67069819D01*
X135282017Y-68069819D02*
X135282017Y-67069819D01*
X89948095Y-96104819D02*
X89948095Y-96914342D01*
X89948095Y-96914342D02*
X89995714Y-97009580D01*
X89995714Y-97009580D02*
X90043333Y-97057200D01*
X90043333Y-97057200D02*
X90138571Y-97104819D01*
X90138571Y-97104819D02*
X90329047Y-97104819D01*
X90329047Y-97104819D02*
X90424285Y-97057200D01*
X90424285Y-97057200D02*
X90471904Y-97009580D01*
X90471904Y-97009580D02*
X90519523Y-96914342D01*
X90519523Y-96914342D02*
X90519523Y-96104819D01*
X91519523Y-97104819D02*
X90948095Y-97104819D01*
X91233809Y-97104819D02*
X91233809Y-96104819D01*
X91233809Y-96104819D02*
X91138571Y-96247676D01*
X91138571Y-96247676D02*
X91043333Y-96342914D01*
X91043333Y-96342914D02*
X90948095Y-96390533D01*
X145791905Y-102644819D02*
X145791905Y-101644819D01*
X145791905Y-101644819D02*
X146030000Y-101644819D01*
X146030000Y-101644819D02*
X146172857Y-101692438D01*
X146172857Y-101692438D02*
X146268095Y-101787676D01*
X146268095Y-101787676D02*
X146315714Y-101882914D01*
X146315714Y-101882914D02*
X146363333Y-102073390D01*
X146363333Y-102073390D02*
X146363333Y-102216247D01*
X146363333Y-102216247D02*
X146315714Y-102406723D01*
X146315714Y-102406723D02*
X146268095Y-102501961D01*
X146268095Y-102501961D02*
X146172857Y-102597200D01*
X146172857Y-102597200D02*
X146030000Y-102644819D01*
X146030000Y-102644819D02*
X145791905Y-102644819D01*
X147220476Y-101644819D02*
X147030000Y-101644819D01*
X147030000Y-101644819D02*
X146934762Y-101692438D01*
X146934762Y-101692438D02*
X146887143Y-101740057D01*
X146887143Y-101740057D02*
X146791905Y-101882914D01*
X146791905Y-101882914D02*
X146744286Y-102073390D01*
X146744286Y-102073390D02*
X146744286Y-102454342D01*
X146744286Y-102454342D02*
X146791905Y-102549580D01*
X146791905Y-102549580D02*
X146839524Y-102597200D01*
X146839524Y-102597200D02*
X146934762Y-102644819D01*
X146934762Y-102644819D02*
X147125238Y-102644819D01*
X147125238Y-102644819D02*
X147220476Y-102597200D01*
X147220476Y-102597200D02*
X147268095Y-102549580D01*
X147268095Y-102549580D02*
X147315714Y-102454342D01*
X147315714Y-102454342D02*
X147315714Y-102216247D01*
X147315714Y-102216247D02*
X147268095Y-102121009D01*
X147268095Y-102121009D02*
X147220476Y-102073390D01*
X147220476Y-102073390D02*
X147125238Y-102025771D01*
X147125238Y-102025771D02*
X146934762Y-102025771D01*
X146934762Y-102025771D02*
X146839524Y-102073390D01*
X146839524Y-102073390D02*
X146791905Y-102121009D01*
X146791905Y-102121009D02*
X146744286Y-102216247D01*
X94373333Y-83379580D02*
X94325714Y-83427200D01*
X94325714Y-83427200D02*
X94182857Y-83474819D01*
X94182857Y-83474819D02*
X94087619Y-83474819D01*
X94087619Y-83474819D02*
X93944762Y-83427200D01*
X93944762Y-83427200D02*
X93849524Y-83331961D01*
X93849524Y-83331961D02*
X93801905Y-83236723D01*
X93801905Y-83236723D02*
X93754286Y-83046247D01*
X93754286Y-83046247D02*
X93754286Y-82903390D01*
X93754286Y-82903390D02*
X93801905Y-82712914D01*
X93801905Y-82712914D02*
X93849524Y-82617676D01*
X93849524Y-82617676D02*
X93944762Y-82522438D01*
X93944762Y-82522438D02*
X94087619Y-82474819D01*
X94087619Y-82474819D02*
X94182857Y-82474819D01*
X94182857Y-82474819D02*
X94325714Y-82522438D01*
X94325714Y-82522438D02*
X94373333Y-82570057D01*
X94706667Y-82474819D02*
X95373333Y-82474819D01*
X95373333Y-82474819D02*
X94944762Y-83474819D01*
X121954819Y-90852857D02*
X121478628Y-91186190D01*
X121954819Y-91424285D02*
X120954819Y-91424285D01*
X120954819Y-91424285D02*
X120954819Y-91043333D01*
X120954819Y-91043333D02*
X121002438Y-90948095D01*
X121002438Y-90948095D02*
X121050057Y-90900476D01*
X121050057Y-90900476D02*
X121145295Y-90852857D01*
X121145295Y-90852857D02*
X121288152Y-90852857D01*
X121288152Y-90852857D02*
X121383390Y-90900476D01*
X121383390Y-90900476D02*
X121431009Y-90948095D01*
X121431009Y-90948095D02*
X121478628Y-91043333D01*
X121478628Y-91043333D02*
X121478628Y-91424285D01*
X121050057Y-90471904D02*
X121002438Y-90424285D01*
X121002438Y-90424285D02*
X120954819Y-90329047D01*
X120954819Y-90329047D02*
X120954819Y-90090952D01*
X120954819Y-90090952D02*
X121002438Y-89995714D01*
X121002438Y-89995714D02*
X121050057Y-89948095D01*
X121050057Y-89948095D02*
X121145295Y-89900476D01*
X121145295Y-89900476D02*
X121240533Y-89900476D01*
X121240533Y-89900476D02*
X121383390Y-89948095D01*
X121383390Y-89948095D02*
X121954819Y-90519523D01*
X121954819Y-90519523D02*
X121954819Y-89900476D01*
X120954819Y-89281428D02*
X120954819Y-89186190D01*
X120954819Y-89186190D02*
X121002438Y-89090952D01*
X121002438Y-89090952D02*
X121050057Y-89043333D01*
X121050057Y-89043333D02*
X121145295Y-88995714D01*
X121145295Y-88995714D02*
X121335771Y-88948095D01*
X121335771Y-88948095D02*
X121573866Y-88948095D01*
X121573866Y-88948095D02*
X121764342Y-88995714D01*
X121764342Y-88995714D02*
X121859580Y-89043333D01*
X121859580Y-89043333D02*
X121907200Y-89090952D01*
X121907200Y-89090952D02*
X121954819Y-89186190D01*
X121954819Y-89186190D02*
X121954819Y-89281428D01*
X121954819Y-89281428D02*
X121907200Y-89376666D01*
X121907200Y-89376666D02*
X121859580Y-89424285D01*
X121859580Y-89424285D02*
X121764342Y-89471904D01*
X121764342Y-89471904D02*
X121573866Y-89519523D01*
X121573866Y-89519523D02*
X121335771Y-89519523D01*
X121335771Y-89519523D02*
X121145295Y-89471904D01*
X121145295Y-89471904D02*
X121050057Y-89424285D01*
X121050057Y-89424285D02*
X121002438Y-89376666D01*
X121002438Y-89376666D02*
X120954819Y-89281428D01*
X120946666Y-59434819D02*
X120946666Y-60149104D01*
X120946666Y-60149104D02*
X120899047Y-60291961D01*
X120899047Y-60291961D02*
X120803809Y-60387200D01*
X120803809Y-60387200D02*
X120660952Y-60434819D01*
X120660952Y-60434819D02*
X120565714Y-60434819D01*
X121851428Y-59768152D02*
X121851428Y-60434819D01*
X121613333Y-59387200D02*
X121375238Y-60101485D01*
X121375238Y-60101485D02*
X121994285Y-60101485D01*
X96557142Y-87974819D02*
X96223809Y-87498628D01*
X95985714Y-87974819D02*
X95985714Y-86974819D01*
X95985714Y-86974819D02*
X96366666Y-86974819D01*
X96366666Y-86974819D02*
X96461904Y-87022438D01*
X96461904Y-87022438D02*
X96509523Y-87070057D01*
X96509523Y-87070057D02*
X96557142Y-87165295D01*
X96557142Y-87165295D02*
X96557142Y-87308152D01*
X96557142Y-87308152D02*
X96509523Y-87403390D01*
X96509523Y-87403390D02*
X96461904Y-87451009D01*
X96461904Y-87451009D02*
X96366666Y-87498628D01*
X96366666Y-87498628D02*
X95985714Y-87498628D01*
X96938095Y-87070057D02*
X96985714Y-87022438D01*
X96985714Y-87022438D02*
X97080952Y-86974819D01*
X97080952Y-86974819D02*
X97319047Y-86974819D01*
X97319047Y-86974819D02*
X97414285Y-87022438D01*
X97414285Y-87022438D02*
X97461904Y-87070057D01*
X97461904Y-87070057D02*
X97509523Y-87165295D01*
X97509523Y-87165295D02*
X97509523Y-87260533D01*
X97509523Y-87260533D02*
X97461904Y-87403390D01*
X97461904Y-87403390D02*
X96890476Y-87974819D01*
X96890476Y-87974819D02*
X97509523Y-87974819D01*
X97890476Y-87070057D02*
X97938095Y-87022438D01*
X97938095Y-87022438D02*
X98033333Y-86974819D01*
X98033333Y-86974819D02*
X98271428Y-86974819D01*
X98271428Y-86974819D02*
X98366666Y-87022438D01*
X98366666Y-87022438D02*
X98414285Y-87070057D01*
X98414285Y-87070057D02*
X98461904Y-87165295D01*
X98461904Y-87165295D02*
X98461904Y-87260533D01*
X98461904Y-87260533D02*
X98414285Y-87403390D01*
X98414285Y-87403390D02*
X97842857Y-87974819D01*
X97842857Y-87974819D02*
X98461904Y-87974819D01*
X103338095Y-53654819D02*
X103338095Y-54464342D01*
X103338095Y-54464342D02*
X103385714Y-54559580D01*
X103385714Y-54559580D02*
X103433333Y-54607200D01*
X103433333Y-54607200D02*
X103528571Y-54654819D01*
X103528571Y-54654819D02*
X103719047Y-54654819D01*
X103719047Y-54654819D02*
X103814285Y-54607200D01*
X103814285Y-54607200D02*
X103861904Y-54559580D01*
X103861904Y-54559580D02*
X103909523Y-54464342D01*
X103909523Y-54464342D02*
X103909523Y-53654819D01*
X104528571Y-54083390D02*
X104433333Y-54035771D01*
X104433333Y-54035771D02*
X104385714Y-53988152D01*
X104385714Y-53988152D02*
X104338095Y-53892914D01*
X104338095Y-53892914D02*
X104338095Y-53845295D01*
X104338095Y-53845295D02*
X104385714Y-53750057D01*
X104385714Y-53750057D02*
X104433333Y-53702438D01*
X104433333Y-53702438D02*
X104528571Y-53654819D01*
X104528571Y-53654819D02*
X104719047Y-53654819D01*
X104719047Y-53654819D02*
X104814285Y-53702438D01*
X104814285Y-53702438D02*
X104861904Y-53750057D01*
X104861904Y-53750057D02*
X104909523Y-53845295D01*
X104909523Y-53845295D02*
X104909523Y-53892914D01*
X104909523Y-53892914D02*
X104861904Y-53988152D01*
X104861904Y-53988152D02*
X104814285Y-54035771D01*
X104814285Y-54035771D02*
X104719047Y-54083390D01*
X104719047Y-54083390D02*
X104528571Y-54083390D01*
X104528571Y-54083390D02*
X104433333Y-54131009D01*
X104433333Y-54131009D02*
X104385714Y-54178628D01*
X104385714Y-54178628D02*
X104338095Y-54273866D01*
X104338095Y-54273866D02*
X104338095Y-54464342D01*
X104338095Y-54464342D02*
X104385714Y-54559580D01*
X104385714Y-54559580D02*
X104433333Y-54607200D01*
X104433333Y-54607200D02*
X104528571Y-54654819D01*
X104528571Y-54654819D02*
X104719047Y-54654819D01*
X104719047Y-54654819D02*
X104814285Y-54607200D01*
X104814285Y-54607200D02*
X104861904Y-54559580D01*
X104861904Y-54559580D02*
X104909523Y-54464342D01*
X104909523Y-54464342D02*
X104909523Y-54273866D01*
X104909523Y-54273866D02*
X104861904Y-54178628D01*
X104861904Y-54178628D02*
X104814285Y-54131009D01*
X104814285Y-54131009D02*
X104719047Y-54083390D01*
X93497142Y-71739580D02*
X93449523Y-71787200D01*
X93449523Y-71787200D02*
X93306666Y-71834819D01*
X93306666Y-71834819D02*
X93211428Y-71834819D01*
X93211428Y-71834819D02*
X93068571Y-71787200D01*
X93068571Y-71787200D02*
X92973333Y-71691961D01*
X92973333Y-71691961D02*
X92925714Y-71596723D01*
X92925714Y-71596723D02*
X92878095Y-71406247D01*
X92878095Y-71406247D02*
X92878095Y-71263390D01*
X92878095Y-71263390D02*
X92925714Y-71072914D01*
X92925714Y-71072914D02*
X92973333Y-70977676D01*
X92973333Y-70977676D02*
X93068571Y-70882438D01*
X93068571Y-70882438D02*
X93211428Y-70834819D01*
X93211428Y-70834819D02*
X93306666Y-70834819D01*
X93306666Y-70834819D02*
X93449523Y-70882438D01*
X93449523Y-70882438D02*
X93497142Y-70930057D01*
X94449523Y-71834819D02*
X93878095Y-71834819D01*
X94163809Y-71834819D02*
X94163809Y-70834819D01*
X94163809Y-70834819D02*
X94068571Y-70977676D01*
X94068571Y-70977676D02*
X93973333Y-71072914D01*
X93973333Y-71072914D02*
X93878095Y-71120533D01*
X95306666Y-70834819D02*
X95116190Y-70834819D01*
X95116190Y-70834819D02*
X95020952Y-70882438D01*
X95020952Y-70882438D02*
X94973333Y-70930057D01*
X94973333Y-70930057D02*
X94878095Y-71072914D01*
X94878095Y-71072914D02*
X94830476Y-71263390D01*
X94830476Y-71263390D02*
X94830476Y-71644342D01*
X94830476Y-71644342D02*
X94878095Y-71739580D01*
X94878095Y-71739580D02*
X94925714Y-71787200D01*
X94925714Y-71787200D02*
X95020952Y-71834819D01*
X95020952Y-71834819D02*
X95211428Y-71834819D01*
X95211428Y-71834819D02*
X95306666Y-71787200D01*
X95306666Y-71787200D02*
X95354285Y-71739580D01*
X95354285Y-71739580D02*
X95401904Y-71644342D01*
X95401904Y-71644342D02*
X95401904Y-71406247D01*
X95401904Y-71406247D02*
X95354285Y-71311009D01*
X95354285Y-71311009D02*
X95306666Y-71263390D01*
X95306666Y-71263390D02*
X95211428Y-71215771D01*
X95211428Y-71215771D02*
X95020952Y-71215771D01*
X95020952Y-71215771D02*
X94925714Y-71263390D01*
X94925714Y-71263390D02*
X94878095Y-71311009D01*
X94878095Y-71311009D02*
X94830476Y-71406247D01*
X136888305Y-53554819D02*
X136888305Y-54364342D01*
X136888305Y-54364342D02*
X136935924Y-54459580D01*
X136935924Y-54459580D02*
X136983543Y-54507200D01*
X136983543Y-54507200D02*
X137078781Y-54554819D01*
X137078781Y-54554819D02*
X137269257Y-54554819D01*
X137269257Y-54554819D02*
X137364495Y-54507200D01*
X137364495Y-54507200D02*
X137412114Y-54459580D01*
X137412114Y-54459580D02*
X137459733Y-54364342D01*
X137459733Y-54364342D02*
X137459733Y-53554819D01*
X138459733Y-54554819D02*
X137888305Y-54554819D01*
X138174019Y-54554819D02*
X138174019Y-53554819D01*
X138174019Y-53554819D02*
X138078781Y-53697676D01*
X138078781Y-53697676D02*
X137983543Y-53792914D01*
X137983543Y-53792914D02*
X137888305Y-53840533D01*
X138840686Y-53650057D02*
X138888305Y-53602438D01*
X138888305Y-53602438D02*
X138983543Y-53554819D01*
X138983543Y-53554819D02*
X139221638Y-53554819D01*
X139221638Y-53554819D02*
X139316876Y-53602438D01*
X139316876Y-53602438D02*
X139364495Y-53650057D01*
X139364495Y-53650057D02*
X139412114Y-53745295D01*
X139412114Y-53745295D02*
X139412114Y-53840533D01*
X139412114Y-53840533D02*
X139364495Y-53983390D01*
X139364495Y-53983390D02*
X138793067Y-54554819D01*
X138793067Y-54554819D02*
X139412114Y-54554819D01*
X133153019Y-58441599D02*
X133391114Y-58441599D01*
X133295876Y-58679694D02*
X133391114Y-58441599D01*
X133391114Y-58441599D02*
X133295876Y-58203504D01*
X133581590Y-58584456D02*
X133391114Y-58441599D01*
X133391114Y-58441599D02*
X133581590Y-58298742D01*
X107954819Y-69762857D02*
X107478628Y-70096190D01*
X107954819Y-70334285D02*
X106954819Y-70334285D01*
X106954819Y-70334285D02*
X106954819Y-69953333D01*
X106954819Y-69953333D02*
X107002438Y-69858095D01*
X107002438Y-69858095D02*
X107050057Y-69810476D01*
X107050057Y-69810476D02*
X107145295Y-69762857D01*
X107145295Y-69762857D02*
X107288152Y-69762857D01*
X107288152Y-69762857D02*
X107383390Y-69810476D01*
X107383390Y-69810476D02*
X107431009Y-69858095D01*
X107431009Y-69858095D02*
X107478628Y-69953333D01*
X107478628Y-69953333D02*
X107478628Y-70334285D01*
X107050057Y-69381904D02*
X107002438Y-69334285D01*
X107002438Y-69334285D02*
X106954819Y-69239047D01*
X106954819Y-69239047D02*
X106954819Y-69000952D01*
X106954819Y-69000952D02*
X107002438Y-68905714D01*
X107002438Y-68905714D02*
X107050057Y-68858095D01*
X107050057Y-68858095D02*
X107145295Y-68810476D01*
X107145295Y-68810476D02*
X107240533Y-68810476D01*
X107240533Y-68810476D02*
X107383390Y-68858095D01*
X107383390Y-68858095D02*
X107954819Y-69429523D01*
X107954819Y-69429523D02*
X107954819Y-68810476D01*
X106954819Y-67953333D02*
X106954819Y-68143809D01*
X106954819Y-68143809D02*
X107002438Y-68239047D01*
X107002438Y-68239047D02*
X107050057Y-68286666D01*
X107050057Y-68286666D02*
X107192914Y-68381904D01*
X107192914Y-68381904D02*
X107383390Y-68429523D01*
X107383390Y-68429523D02*
X107764342Y-68429523D01*
X107764342Y-68429523D02*
X107859580Y-68381904D01*
X107859580Y-68381904D02*
X107907200Y-68334285D01*
X107907200Y-68334285D02*
X107954819Y-68239047D01*
X107954819Y-68239047D02*
X107954819Y-68048571D01*
X107954819Y-68048571D02*
X107907200Y-67953333D01*
X107907200Y-67953333D02*
X107859580Y-67905714D01*
X107859580Y-67905714D02*
X107764342Y-67858095D01*
X107764342Y-67858095D02*
X107526247Y-67858095D01*
X107526247Y-67858095D02*
X107431009Y-67905714D01*
X107431009Y-67905714D02*
X107383390Y-67953333D01*
X107383390Y-67953333D02*
X107335771Y-68048571D01*
X107335771Y-68048571D02*
X107335771Y-68239047D01*
X107335771Y-68239047D02*
X107383390Y-68334285D01*
X107383390Y-68334285D02*
X107431009Y-68381904D01*
X107431009Y-68381904D02*
X107526247Y-68429523D01*
X102627142Y-72244819D02*
X102293809Y-71768628D01*
X102055714Y-72244819D02*
X102055714Y-71244819D01*
X102055714Y-71244819D02*
X102436666Y-71244819D01*
X102436666Y-71244819D02*
X102531904Y-71292438D01*
X102531904Y-71292438D02*
X102579523Y-71340057D01*
X102579523Y-71340057D02*
X102627142Y-71435295D01*
X102627142Y-71435295D02*
X102627142Y-71578152D01*
X102627142Y-71578152D02*
X102579523Y-71673390D01*
X102579523Y-71673390D02*
X102531904Y-71721009D01*
X102531904Y-71721009D02*
X102436666Y-71768628D01*
X102436666Y-71768628D02*
X102055714Y-71768628D01*
X103008095Y-71340057D02*
X103055714Y-71292438D01*
X103055714Y-71292438D02*
X103150952Y-71244819D01*
X103150952Y-71244819D02*
X103389047Y-71244819D01*
X103389047Y-71244819D02*
X103484285Y-71292438D01*
X103484285Y-71292438D02*
X103531904Y-71340057D01*
X103531904Y-71340057D02*
X103579523Y-71435295D01*
X103579523Y-71435295D02*
X103579523Y-71530533D01*
X103579523Y-71530533D02*
X103531904Y-71673390D01*
X103531904Y-71673390D02*
X102960476Y-72244819D01*
X102960476Y-72244819D02*
X103579523Y-72244819D01*
X104055714Y-72244819D02*
X104246190Y-72244819D01*
X104246190Y-72244819D02*
X104341428Y-72197200D01*
X104341428Y-72197200D02*
X104389047Y-72149580D01*
X104389047Y-72149580D02*
X104484285Y-72006723D01*
X104484285Y-72006723D02*
X104531904Y-71816247D01*
X104531904Y-71816247D02*
X104531904Y-71435295D01*
X104531904Y-71435295D02*
X104484285Y-71340057D01*
X104484285Y-71340057D02*
X104436666Y-71292438D01*
X104436666Y-71292438D02*
X104341428Y-71244819D01*
X104341428Y-71244819D02*
X104150952Y-71244819D01*
X104150952Y-71244819D02*
X104055714Y-71292438D01*
X104055714Y-71292438D02*
X104008095Y-71340057D01*
X104008095Y-71340057D02*
X103960476Y-71435295D01*
X103960476Y-71435295D02*
X103960476Y-71673390D01*
X103960476Y-71673390D02*
X104008095Y-71768628D01*
X104008095Y-71768628D02*
X104055714Y-71816247D01*
X104055714Y-71816247D02*
X104150952Y-71863866D01*
X104150952Y-71863866D02*
X104341428Y-71863866D01*
X104341428Y-71863866D02*
X104436666Y-71816247D01*
X104436666Y-71816247D02*
X104484285Y-71768628D01*
X104484285Y-71768628D02*
X104531904Y-71673390D01*
X148007142Y-90059580D02*
X147959523Y-90107200D01*
X147959523Y-90107200D02*
X147816666Y-90154819D01*
X147816666Y-90154819D02*
X147721428Y-90154819D01*
X147721428Y-90154819D02*
X147578571Y-90107200D01*
X147578571Y-90107200D02*
X147483333Y-90011961D01*
X147483333Y-90011961D02*
X147435714Y-89916723D01*
X147435714Y-89916723D02*
X147388095Y-89726247D01*
X147388095Y-89726247D02*
X147388095Y-89583390D01*
X147388095Y-89583390D02*
X147435714Y-89392914D01*
X147435714Y-89392914D02*
X147483333Y-89297676D01*
X147483333Y-89297676D02*
X147578571Y-89202438D01*
X147578571Y-89202438D02*
X147721428Y-89154819D01*
X147721428Y-89154819D02*
X147816666Y-89154819D01*
X147816666Y-89154819D02*
X147959523Y-89202438D01*
X147959523Y-89202438D02*
X148007142Y-89250057D01*
X148864285Y-89488152D02*
X148864285Y-90154819D01*
X148626190Y-89107200D02*
X148388095Y-89821485D01*
X148388095Y-89821485D02*
X149007142Y-89821485D01*
X149340476Y-89250057D02*
X149388095Y-89202438D01*
X149388095Y-89202438D02*
X149483333Y-89154819D01*
X149483333Y-89154819D02*
X149721428Y-89154819D01*
X149721428Y-89154819D02*
X149816666Y-89202438D01*
X149816666Y-89202438D02*
X149864285Y-89250057D01*
X149864285Y-89250057D02*
X149911904Y-89345295D01*
X149911904Y-89345295D02*
X149911904Y-89440533D01*
X149911904Y-89440533D02*
X149864285Y-89583390D01*
X149864285Y-89583390D02*
X149292857Y-90154819D01*
X149292857Y-90154819D02*
X149911904Y-90154819D01*
X87827142Y-103199580D02*
X87779523Y-103247200D01*
X87779523Y-103247200D02*
X87636666Y-103294819D01*
X87636666Y-103294819D02*
X87541428Y-103294819D01*
X87541428Y-103294819D02*
X87398571Y-103247200D01*
X87398571Y-103247200D02*
X87303333Y-103151961D01*
X87303333Y-103151961D02*
X87255714Y-103056723D01*
X87255714Y-103056723D02*
X87208095Y-102866247D01*
X87208095Y-102866247D02*
X87208095Y-102723390D01*
X87208095Y-102723390D02*
X87255714Y-102532914D01*
X87255714Y-102532914D02*
X87303333Y-102437676D01*
X87303333Y-102437676D02*
X87398571Y-102342438D01*
X87398571Y-102342438D02*
X87541428Y-102294819D01*
X87541428Y-102294819D02*
X87636666Y-102294819D01*
X87636666Y-102294819D02*
X87779523Y-102342438D01*
X87779523Y-102342438D02*
X87827142Y-102390057D01*
X88160476Y-102294819D02*
X88779523Y-102294819D01*
X88779523Y-102294819D02*
X88446190Y-102675771D01*
X88446190Y-102675771D02*
X88589047Y-102675771D01*
X88589047Y-102675771D02*
X88684285Y-102723390D01*
X88684285Y-102723390D02*
X88731904Y-102771009D01*
X88731904Y-102771009D02*
X88779523Y-102866247D01*
X88779523Y-102866247D02*
X88779523Y-103104342D01*
X88779523Y-103104342D02*
X88731904Y-103199580D01*
X88731904Y-103199580D02*
X88684285Y-103247200D01*
X88684285Y-103247200D02*
X88589047Y-103294819D01*
X88589047Y-103294819D02*
X88303333Y-103294819D01*
X88303333Y-103294819D02*
X88208095Y-103247200D01*
X88208095Y-103247200D02*
X88160476Y-103199580D01*
X89636666Y-102294819D02*
X89446190Y-102294819D01*
X89446190Y-102294819D02*
X89350952Y-102342438D01*
X89350952Y-102342438D02*
X89303333Y-102390057D01*
X89303333Y-102390057D02*
X89208095Y-102532914D01*
X89208095Y-102532914D02*
X89160476Y-102723390D01*
X89160476Y-102723390D02*
X89160476Y-103104342D01*
X89160476Y-103104342D02*
X89208095Y-103199580D01*
X89208095Y-103199580D02*
X89255714Y-103247200D01*
X89255714Y-103247200D02*
X89350952Y-103294819D01*
X89350952Y-103294819D02*
X89541428Y-103294819D01*
X89541428Y-103294819D02*
X89636666Y-103247200D01*
X89636666Y-103247200D02*
X89684285Y-103199580D01*
X89684285Y-103199580D02*
X89731904Y-103104342D01*
X89731904Y-103104342D02*
X89731904Y-102866247D01*
X89731904Y-102866247D02*
X89684285Y-102771009D01*
X89684285Y-102771009D02*
X89636666Y-102723390D01*
X89636666Y-102723390D02*
X89541428Y-102675771D01*
X89541428Y-102675771D02*
X89350952Y-102675771D01*
X89350952Y-102675771D02*
X89255714Y-102723390D01*
X89255714Y-102723390D02*
X89208095Y-102771009D01*
X89208095Y-102771009D02*
X89160476Y-102866247D01*
X126704819Y-60742857D02*
X126228628Y-61076190D01*
X126704819Y-61314285D02*
X125704819Y-61314285D01*
X125704819Y-61314285D02*
X125704819Y-60933333D01*
X125704819Y-60933333D02*
X125752438Y-60838095D01*
X125752438Y-60838095D02*
X125800057Y-60790476D01*
X125800057Y-60790476D02*
X125895295Y-60742857D01*
X125895295Y-60742857D02*
X126038152Y-60742857D01*
X126038152Y-60742857D02*
X126133390Y-60790476D01*
X126133390Y-60790476D02*
X126181009Y-60838095D01*
X126181009Y-60838095D02*
X126228628Y-60933333D01*
X126228628Y-60933333D02*
X126228628Y-61314285D01*
X125704819Y-60409523D02*
X125704819Y-59790476D01*
X125704819Y-59790476D02*
X126085771Y-60123809D01*
X126085771Y-60123809D02*
X126085771Y-59980952D01*
X126085771Y-59980952D02*
X126133390Y-59885714D01*
X126133390Y-59885714D02*
X126181009Y-59838095D01*
X126181009Y-59838095D02*
X126276247Y-59790476D01*
X126276247Y-59790476D02*
X126514342Y-59790476D01*
X126514342Y-59790476D02*
X126609580Y-59838095D01*
X126609580Y-59838095D02*
X126657200Y-59885714D01*
X126657200Y-59885714D02*
X126704819Y-59980952D01*
X126704819Y-59980952D02*
X126704819Y-60266666D01*
X126704819Y-60266666D02*
X126657200Y-60361904D01*
X126657200Y-60361904D02*
X126609580Y-60409523D01*
X125704819Y-59171428D02*
X125704819Y-59076190D01*
X125704819Y-59076190D02*
X125752438Y-58980952D01*
X125752438Y-58980952D02*
X125800057Y-58933333D01*
X125800057Y-58933333D02*
X125895295Y-58885714D01*
X125895295Y-58885714D02*
X126085771Y-58838095D01*
X126085771Y-58838095D02*
X126323866Y-58838095D01*
X126323866Y-58838095D02*
X126514342Y-58885714D01*
X126514342Y-58885714D02*
X126609580Y-58933333D01*
X126609580Y-58933333D02*
X126657200Y-58980952D01*
X126657200Y-58980952D02*
X126704819Y-59076190D01*
X126704819Y-59076190D02*
X126704819Y-59171428D01*
X126704819Y-59171428D02*
X126657200Y-59266666D01*
X126657200Y-59266666D02*
X126609580Y-59314285D01*
X126609580Y-59314285D02*
X126514342Y-59361904D01*
X126514342Y-59361904D02*
X126323866Y-59409523D01*
X126323866Y-59409523D02*
X126085771Y-59409523D01*
X126085771Y-59409523D02*
X125895295Y-59361904D01*
X125895295Y-59361904D02*
X125800057Y-59314285D01*
X125800057Y-59314285D02*
X125752438Y-59266666D01*
X125752438Y-59266666D02*
X125704819Y-59171428D01*
X139269580Y-85122857D02*
X139317200Y-85170476D01*
X139317200Y-85170476D02*
X139364819Y-85313333D01*
X139364819Y-85313333D02*
X139364819Y-85408571D01*
X139364819Y-85408571D02*
X139317200Y-85551428D01*
X139317200Y-85551428D02*
X139221961Y-85646666D01*
X139221961Y-85646666D02*
X139126723Y-85694285D01*
X139126723Y-85694285D02*
X138936247Y-85741904D01*
X138936247Y-85741904D02*
X138793390Y-85741904D01*
X138793390Y-85741904D02*
X138602914Y-85694285D01*
X138602914Y-85694285D02*
X138507676Y-85646666D01*
X138507676Y-85646666D02*
X138412438Y-85551428D01*
X138412438Y-85551428D02*
X138364819Y-85408571D01*
X138364819Y-85408571D02*
X138364819Y-85313333D01*
X138364819Y-85313333D02*
X138412438Y-85170476D01*
X138412438Y-85170476D02*
X138460057Y-85122857D01*
X138698152Y-84265714D02*
X139364819Y-84265714D01*
X138317200Y-84503809D02*
X139031485Y-84741904D01*
X139031485Y-84741904D02*
X139031485Y-84122857D01*
X138364819Y-83837142D02*
X138364819Y-83218095D01*
X138364819Y-83218095D02*
X138745771Y-83551428D01*
X138745771Y-83551428D02*
X138745771Y-83408571D01*
X138745771Y-83408571D02*
X138793390Y-83313333D01*
X138793390Y-83313333D02*
X138841009Y-83265714D01*
X138841009Y-83265714D02*
X138936247Y-83218095D01*
X138936247Y-83218095D02*
X139174342Y-83218095D01*
X139174342Y-83218095D02*
X139269580Y-83265714D01*
X139269580Y-83265714D02*
X139317200Y-83313333D01*
X139317200Y-83313333D02*
X139364819Y-83408571D01*
X139364819Y-83408571D02*
X139364819Y-83694285D01*
X139364819Y-83694285D02*
X139317200Y-83789523D01*
X139317200Y-83789523D02*
X139269580Y-83837142D01*
X143157533Y-78699761D02*
X143157533Y-78090238D01*
X143462295Y-78394999D02*
X142852771Y-78394999D01*
X140184819Y-99122857D02*
X139708628Y-99456190D01*
X140184819Y-99694285D02*
X139184819Y-99694285D01*
X139184819Y-99694285D02*
X139184819Y-99313333D01*
X139184819Y-99313333D02*
X139232438Y-99218095D01*
X139232438Y-99218095D02*
X139280057Y-99170476D01*
X139280057Y-99170476D02*
X139375295Y-99122857D01*
X139375295Y-99122857D02*
X139518152Y-99122857D01*
X139518152Y-99122857D02*
X139613390Y-99170476D01*
X139613390Y-99170476D02*
X139661009Y-99218095D01*
X139661009Y-99218095D02*
X139708628Y-99313333D01*
X139708628Y-99313333D02*
X139708628Y-99694285D01*
X140184819Y-98170476D02*
X140184819Y-98741904D01*
X140184819Y-98456190D02*
X139184819Y-98456190D01*
X139184819Y-98456190D02*
X139327676Y-98551428D01*
X139327676Y-98551428D02*
X139422914Y-98646666D01*
X139422914Y-98646666D02*
X139470533Y-98741904D01*
X140184819Y-97218095D02*
X140184819Y-97789523D01*
X140184819Y-97503809D02*
X139184819Y-97503809D01*
X139184819Y-97503809D02*
X139327676Y-97599047D01*
X139327676Y-97599047D02*
X139422914Y-97694285D01*
X139422914Y-97694285D02*
X139470533Y-97789523D01*
X121023333Y-104834819D02*
X120690000Y-104358628D01*
X120451905Y-104834819D02*
X120451905Y-103834819D01*
X120451905Y-103834819D02*
X120832857Y-103834819D01*
X120832857Y-103834819D02*
X120928095Y-103882438D01*
X120928095Y-103882438D02*
X120975714Y-103930057D01*
X120975714Y-103930057D02*
X121023333Y-104025295D01*
X121023333Y-104025295D02*
X121023333Y-104168152D01*
X121023333Y-104168152D02*
X120975714Y-104263390D01*
X120975714Y-104263390D02*
X120928095Y-104311009D01*
X120928095Y-104311009D02*
X120832857Y-104358628D01*
X120832857Y-104358628D02*
X120451905Y-104358628D01*
X121928095Y-103834819D02*
X121451905Y-103834819D01*
X121451905Y-103834819D02*
X121404286Y-104311009D01*
X121404286Y-104311009D02*
X121451905Y-104263390D01*
X121451905Y-104263390D02*
X121547143Y-104215771D01*
X121547143Y-104215771D02*
X121785238Y-104215771D01*
X121785238Y-104215771D02*
X121880476Y-104263390D01*
X121880476Y-104263390D02*
X121928095Y-104311009D01*
X121928095Y-104311009D02*
X121975714Y-104406247D01*
X121975714Y-104406247D02*
X121975714Y-104644342D01*
X121975714Y-104644342D02*
X121928095Y-104739580D01*
X121928095Y-104739580D02*
X121880476Y-104787200D01*
X121880476Y-104787200D02*
X121785238Y-104834819D01*
X121785238Y-104834819D02*
X121547143Y-104834819D01*
X121547143Y-104834819D02*
X121451905Y-104787200D01*
X121451905Y-104787200D02*
X121404286Y-104739580D01*
X114574819Y-96831904D02*
X115384342Y-96831904D01*
X115384342Y-96831904D02*
X115479580Y-96784285D01*
X115479580Y-96784285D02*
X115527200Y-96736666D01*
X115527200Y-96736666D02*
X115574819Y-96641428D01*
X115574819Y-96641428D02*
X115574819Y-96450952D01*
X115574819Y-96450952D02*
X115527200Y-96355714D01*
X115527200Y-96355714D02*
X115479580Y-96308095D01*
X115479580Y-96308095D02*
X115384342Y-96260476D01*
X115384342Y-96260476D02*
X114574819Y-96260476D01*
X114670057Y-95831904D02*
X114622438Y-95784285D01*
X114622438Y-95784285D02*
X114574819Y-95689047D01*
X114574819Y-95689047D02*
X114574819Y-95450952D01*
X114574819Y-95450952D02*
X114622438Y-95355714D01*
X114622438Y-95355714D02*
X114670057Y-95308095D01*
X114670057Y-95308095D02*
X114765295Y-95260476D01*
X114765295Y-95260476D02*
X114860533Y-95260476D01*
X114860533Y-95260476D02*
X115003390Y-95308095D01*
X115003390Y-95308095D02*
X115574819Y-95879523D01*
X115574819Y-95879523D02*
X115574819Y-95260476D01*
X111304819Y-99569999D02*
X111542914Y-99569999D01*
X111447676Y-99808094D02*
X111542914Y-99569999D01*
X111542914Y-99569999D02*
X111447676Y-99331904D01*
X111733390Y-99712856D02*
X111542914Y-99569999D01*
X111542914Y-99569999D02*
X111733390Y-99427142D01*
X136557142Y-64359580D02*
X136509523Y-64407200D01*
X136509523Y-64407200D02*
X136366666Y-64454819D01*
X136366666Y-64454819D02*
X136271428Y-64454819D01*
X136271428Y-64454819D02*
X136128571Y-64407200D01*
X136128571Y-64407200D02*
X136033333Y-64311961D01*
X136033333Y-64311961D02*
X135985714Y-64216723D01*
X135985714Y-64216723D02*
X135938095Y-64026247D01*
X135938095Y-64026247D02*
X135938095Y-63883390D01*
X135938095Y-63883390D02*
X135985714Y-63692914D01*
X135985714Y-63692914D02*
X136033333Y-63597676D01*
X136033333Y-63597676D02*
X136128571Y-63502438D01*
X136128571Y-63502438D02*
X136271428Y-63454819D01*
X136271428Y-63454819D02*
X136366666Y-63454819D01*
X136366666Y-63454819D02*
X136509523Y-63502438D01*
X136509523Y-63502438D02*
X136557142Y-63550057D01*
X136938095Y-63550057D02*
X136985714Y-63502438D01*
X136985714Y-63502438D02*
X137080952Y-63454819D01*
X137080952Y-63454819D02*
X137319047Y-63454819D01*
X137319047Y-63454819D02*
X137414285Y-63502438D01*
X137414285Y-63502438D02*
X137461904Y-63550057D01*
X137461904Y-63550057D02*
X137509523Y-63645295D01*
X137509523Y-63645295D02*
X137509523Y-63740533D01*
X137509523Y-63740533D02*
X137461904Y-63883390D01*
X137461904Y-63883390D02*
X136890476Y-64454819D01*
X136890476Y-64454819D02*
X137509523Y-64454819D01*
X138080952Y-63883390D02*
X137985714Y-63835771D01*
X137985714Y-63835771D02*
X137938095Y-63788152D01*
X137938095Y-63788152D02*
X137890476Y-63692914D01*
X137890476Y-63692914D02*
X137890476Y-63645295D01*
X137890476Y-63645295D02*
X137938095Y-63550057D01*
X137938095Y-63550057D02*
X137985714Y-63502438D01*
X137985714Y-63502438D02*
X138080952Y-63454819D01*
X138080952Y-63454819D02*
X138271428Y-63454819D01*
X138271428Y-63454819D02*
X138366666Y-63502438D01*
X138366666Y-63502438D02*
X138414285Y-63550057D01*
X138414285Y-63550057D02*
X138461904Y-63645295D01*
X138461904Y-63645295D02*
X138461904Y-63692914D01*
X138461904Y-63692914D02*
X138414285Y-63788152D01*
X138414285Y-63788152D02*
X138366666Y-63835771D01*
X138366666Y-63835771D02*
X138271428Y-63883390D01*
X138271428Y-63883390D02*
X138080952Y-63883390D01*
X138080952Y-63883390D02*
X137985714Y-63931009D01*
X137985714Y-63931009D02*
X137938095Y-63978628D01*
X137938095Y-63978628D02*
X137890476Y-64073866D01*
X137890476Y-64073866D02*
X137890476Y-64264342D01*
X137890476Y-64264342D02*
X137938095Y-64359580D01*
X137938095Y-64359580D02*
X137985714Y-64407200D01*
X137985714Y-64407200D02*
X138080952Y-64454819D01*
X138080952Y-64454819D02*
X138271428Y-64454819D01*
X138271428Y-64454819D02*
X138366666Y-64407200D01*
X138366666Y-64407200D02*
X138414285Y-64359580D01*
X138414285Y-64359580D02*
X138461904Y-64264342D01*
X138461904Y-64264342D02*
X138461904Y-64073866D01*
X138461904Y-64073866D02*
X138414285Y-63978628D01*
X138414285Y-63978628D02*
X138366666Y-63931009D01*
X138366666Y-63931009D02*
X138271428Y-63883390D01*
X130457142Y-75904819D02*
X130123809Y-75428628D01*
X129885714Y-75904819D02*
X129885714Y-74904819D01*
X129885714Y-74904819D02*
X130266666Y-74904819D01*
X130266666Y-74904819D02*
X130361904Y-74952438D01*
X130361904Y-74952438D02*
X130409523Y-75000057D01*
X130409523Y-75000057D02*
X130457142Y-75095295D01*
X130457142Y-75095295D02*
X130457142Y-75238152D01*
X130457142Y-75238152D02*
X130409523Y-75333390D01*
X130409523Y-75333390D02*
X130361904Y-75381009D01*
X130361904Y-75381009D02*
X130266666Y-75428628D01*
X130266666Y-75428628D02*
X129885714Y-75428628D01*
X131409523Y-75904819D02*
X130838095Y-75904819D01*
X131123809Y-75904819D02*
X131123809Y-74904819D01*
X131123809Y-74904819D02*
X131028571Y-75047676D01*
X131028571Y-75047676D02*
X130933333Y-75142914D01*
X130933333Y-75142914D02*
X130838095Y-75190533D01*
X132314285Y-74904819D02*
X131838095Y-74904819D01*
X131838095Y-74904819D02*
X131790476Y-75381009D01*
X131790476Y-75381009D02*
X131838095Y-75333390D01*
X131838095Y-75333390D02*
X131933333Y-75285771D01*
X131933333Y-75285771D02*
X132171428Y-75285771D01*
X132171428Y-75285771D02*
X132266666Y-75333390D01*
X132266666Y-75333390D02*
X132314285Y-75381009D01*
X132314285Y-75381009D02*
X132361904Y-75476247D01*
X132361904Y-75476247D02*
X132361904Y-75714342D01*
X132361904Y-75714342D02*
X132314285Y-75809580D01*
X132314285Y-75809580D02*
X132266666Y-75857200D01*
X132266666Y-75857200D02*
X132171428Y-75904819D01*
X132171428Y-75904819D02*
X131933333Y-75904819D01*
X131933333Y-75904819D02*
X131838095Y-75857200D01*
X131838095Y-75857200D02*
X131790476Y-75809580D01*
X89466666Y-62034819D02*
X89466666Y-62749104D01*
X89466666Y-62749104D02*
X89419047Y-62891961D01*
X89419047Y-62891961D02*
X89323809Y-62987200D01*
X89323809Y-62987200D02*
X89180952Y-63034819D01*
X89180952Y-63034819D02*
X89085714Y-63034819D01*
X90419047Y-62034819D02*
X89942857Y-62034819D01*
X89942857Y-62034819D02*
X89895238Y-62511009D01*
X89895238Y-62511009D02*
X89942857Y-62463390D01*
X89942857Y-62463390D02*
X90038095Y-62415771D01*
X90038095Y-62415771D02*
X90276190Y-62415771D01*
X90276190Y-62415771D02*
X90371428Y-62463390D01*
X90371428Y-62463390D02*
X90419047Y-62511009D01*
X90419047Y-62511009D02*
X90466666Y-62606247D01*
X90466666Y-62606247D02*
X90466666Y-62844342D01*
X90466666Y-62844342D02*
X90419047Y-62939580D01*
X90419047Y-62939580D02*
X90371428Y-62987200D01*
X90371428Y-62987200D02*
X90276190Y-63034819D01*
X90276190Y-63034819D02*
X90038095Y-63034819D01*
X90038095Y-63034819D02*
X89942857Y-62987200D01*
X89942857Y-62987200D02*
X89895238Y-62939580D01*
X111759580Y-95342857D02*
X111807200Y-95390476D01*
X111807200Y-95390476D02*
X111854819Y-95533333D01*
X111854819Y-95533333D02*
X111854819Y-95628571D01*
X111854819Y-95628571D02*
X111807200Y-95771428D01*
X111807200Y-95771428D02*
X111711961Y-95866666D01*
X111711961Y-95866666D02*
X111616723Y-95914285D01*
X111616723Y-95914285D02*
X111426247Y-95961904D01*
X111426247Y-95961904D02*
X111283390Y-95961904D01*
X111283390Y-95961904D02*
X111092914Y-95914285D01*
X111092914Y-95914285D02*
X110997676Y-95866666D01*
X110997676Y-95866666D02*
X110902438Y-95771428D01*
X110902438Y-95771428D02*
X110854819Y-95628571D01*
X110854819Y-95628571D02*
X110854819Y-95533333D01*
X110854819Y-95533333D02*
X110902438Y-95390476D01*
X110902438Y-95390476D02*
X110950057Y-95342857D01*
X111854819Y-94390476D02*
X111854819Y-94961904D01*
X111854819Y-94676190D02*
X110854819Y-94676190D01*
X110854819Y-94676190D02*
X110997676Y-94771428D01*
X110997676Y-94771428D02*
X111092914Y-94866666D01*
X111092914Y-94866666D02*
X111140533Y-94961904D01*
X111854819Y-93438095D02*
X111854819Y-94009523D01*
X111854819Y-93723809D02*
X110854819Y-93723809D01*
X110854819Y-93723809D02*
X110997676Y-93819047D01*
X110997676Y-93819047D02*
X111092914Y-93914285D01*
X111092914Y-93914285D02*
X111140533Y-94009523D01*
X100459580Y-57842857D02*
X100507200Y-57890476D01*
X100507200Y-57890476D02*
X100554819Y-58033333D01*
X100554819Y-58033333D02*
X100554819Y-58128571D01*
X100554819Y-58128571D02*
X100507200Y-58271428D01*
X100507200Y-58271428D02*
X100411961Y-58366666D01*
X100411961Y-58366666D02*
X100316723Y-58414285D01*
X100316723Y-58414285D02*
X100126247Y-58461904D01*
X100126247Y-58461904D02*
X99983390Y-58461904D01*
X99983390Y-58461904D02*
X99792914Y-58414285D01*
X99792914Y-58414285D02*
X99697676Y-58366666D01*
X99697676Y-58366666D02*
X99602438Y-58271428D01*
X99602438Y-58271428D02*
X99554819Y-58128571D01*
X99554819Y-58128571D02*
X99554819Y-58033333D01*
X99554819Y-58033333D02*
X99602438Y-57890476D01*
X99602438Y-57890476D02*
X99650057Y-57842857D01*
X99554819Y-57509523D02*
X99554819Y-56890476D01*
X99554819Y-56890476D02*
X99935771Y-57223809D01*
X99935771Y-57223809D02*
X99935771Y-57080952D01*
X99935771Y-57080952D02*
X99983390Y-56985714D01*
X99983390Y-56985714D02*
X100031009Y-56938095D01*
X100031009Y-56938095D02*
X100126247Y-56890476D01*
X100126247Y-56890476D02*
X100364342Y-56890476D01*
X100364342Y-56890476D02*
X100459580Y-56938095D01*
X100459580Y-56938095D02*
X100507200Y-56985714D01*
X100507200Y-56985714D02*
X100554819Y-57080952D01*
X100554819Y-57080952D02*
X100554819Y-57366666D01*
X100554819Y-57366666D02*
X100507200Y-57461904D01*
X100507200Y-57461904D02*
X100459580Y-57509523D01*
X99983390Y-56319047D02*
X99935771Y-56414285D01*
X99935771Y-56414285D02*
X99888152Y-56461904D01*
X99888152Y-56461904D02*
X99792914Y-56509523D01*
X99792914Y-56509523D02*
X99745295Y-56509523D01*
X99745295Y-56509523D02*
X99650057Y-56461904D01*
X99650057Y-56461904D02*
X99602438Y-56414285D01*
X99602438Y-56414285D02*
X99554819Y-56319047D01*
X99554819Y-56319047D02*
X99554819Y-56128571D01*
X99554819Y-56128571D02*
X99602438Y-56033333D01*
X99602438Y-56033333D02*
X99650057Y-55985714D01*
X99650057Y-55985714D02*
X99745295Y-55938095D01*
X99745295Y-55938095D02*
X99792914Y-55938095D01*
X99792914Y-55938095D02*
X99888152Y-55985714D01*
X99888152Y-55985714D02*
X99935771Y-56033333D01*
X99935771Y-56033333D02*
X99983390Y-56128571D01*
X99983390Y-56128571D02*
X99983390Y-56319047D01*
X99983390Y-56319047D02*
X100031009Y-56414285D01*
X100031009Y-56414285D02*
X100078628Y-56461904D01*
X100078628Y-56461904D02*
X100173866Y-56509523D01*
X100173866Y-56509523D02*
X100364342Y-56509523D01*
X100364342Y-56509523D02*
X100459580Y-56461904D01*
X100459580Y-56461904D02*
X100507200Y-56414285D01*
X100507200Y-56414285D02*
X100554819Y-56319047D01*
X100554819Y-56319047D02*
X100554819Y-56128571D01*
X100554819Y-56128571D02*
X100507200Y-56033333D01*
X100507200Y-56033333D02*
X100459580Y-55985714D01*
X100459580Y-55985714D02*
X100364342Y-55938095D01*
X100364342Y-55938095D02*
X100173866Y-55938095D01*
X100173866Y-55938095D02*
X100078628Y-55985714D01*
X100078628Y-55985714D02*
X100031009Y-56033333D01*
X100031009Y-56033333D02*
X99983390Y-56128571D01*
X125416666Y-101724819D02*
X125416666Y-102439104D01*
X125416666Y-102439104D02*
X125369047Y-102581961D01*
X125369047Y-102581961D02*
X125273809Y-102677200D01*
X125273809Y-102677200D02*
X125130952Y-102724819D01*
X125130952Y-102724819D02*
X125035714Y-102724819D01*
X126416666Y-102724819D02*
X125845238Y-102724819D01*
X126130952Y-102724819D02*
X126130952Y-101724819D01*
X126130952Y-101724819D02*
X126035714Y-101867676D01*
X126035714Y-101867676D02*
X125940476Y-101962914D01*
X125940476Y-101962914D02*
X125845238Y-102010533D01*
X106657142Y-62759580D02*
X106609523Y-62807200D01*
X106609523Y-62807200D02*
X106466666Y-62854819D01*
X106466666Y-62854819D02*
X106371428Y-62854819D01*
X106371428Y-62854819D02*
X106228571Y-62807200D01*
X106228571Y-62807200D02*
X106133333Y-62711961D01*
X106133333Y-62711961D02*
X106085714Y-62616723D01*
X106085714Y-62616723D02*
X106038095Y-62426247D01*
X106038095Y-62426247D02*
X106038095Y-62283390D01*
X106038095Y-62283390D02*
X106085714Y-62092914D01*
X106085714Y-62092914D02*
X106133333Y-61997676D01*
X106133333Y-61997676D02*
X106228571Y-61902438D01*
X106228571Y-61902438D02*
X106371428Y-61854819D01*
X106371428Y-61854819D02*
X106466666Y-61854819D01*
X106466666Y-61854819D02*
X106609523Y-61902438D01*
X106609523Y-61902438D02*
X106657142Y-61950057D01*
X107609523Y-62854819D02*
X107038095Y-62854819D01*
X107323809Y-62854819D02*
X107323809Y-61854819D01*
X107323809Y-61854819D02*
X107228571Y-61997676D01*
X107228571Y-61997676D02*
X107133333Y-62092914D01*
X107133333Y-62092914D02*
X107038095Y-62140533D01*
X108180952Y-62283390D02*
X108085714Y-62235771D01*
X108085714Y-62235771D02*
X108038095Y-62188152D01*
X108038095Y-62188152D02*
X107990476Y-62092914D01*
X107990476Y-62092914D02*
X107990476Y-62045295D01*
X107990476Y-62045295D02*
X108038095Y-61950057D01*
X108038095Y-61950057D02*
X108085714Y-61902438D01*
X108085714Y-61902438D02*
X108180952Y-61854819D01*
X108180952Y-61854819D02*
X108371428Y-61854819D01*
X108371428Y-61854819D02*
X108466666Y-61902438D01*
X108466666Y-61902438D02*
X108514285Y-61950057D01*
X108514285Y-61950057D02*
X108561904Y-62045295D01*
X108561904Y-62045295D02*
X108561904Y-62092914D01*
X108561904Y-62092914D02*
X108514285Y-62188152D01*
X108514285Y-62188152D02*
X108466666Y-62235771D01*
X108466666Y-62235771D02*
X108371428Y-62283390D01*
X108371428Y-62283390D02*
X108180952Y-62283390D01*
X108180952Y-62283390D02*
X108085714Y-62331009D01*
X108085714Y-62331009D02*
X108038095Y-62378628D01*
X108038095Y-62378628D02*
X107990476Y-62473866D01*
X107990476Y-62473866D02*
X107990476Y-62664342D01*
X107990476Y-62664342D02*
X108038095Y-62759580D01*
X108038095Y-62759580D02*
X108085714Y-62807200D01*
X108085714Y-62807200D02*
X108180952Y-62854819D01*
X108180952Y-62854819D02*
X108371428Y-62854819D01*
X108371428Y-62854819D02*
X108466666Y-62807200D01*
X108466666Y-62807200D02*
X108514285Y-62759580D01*
X108514285Y-62759580D02*
X108561904Y-62664342D01*
X108561904Y-62664342D02*
X108561904Y-62473866D01*
X108561904Y-62473866D02*
X108514285Y-62378628D01*
X108514285Y-62378628D02*
X108466666Y-62331009D01*
X108466666Y-62331009D02*
X108371428Y-62283390D01*
X113534819Y-70302857D02*
X113058628Y-70636190D01*
X113534819Y-70874285D02*
X112534819Y-70874285D01*
X112534819Y-70874285D02*
X112534819Y-70493333D01*
X112534819Y-70493333D02*
X112582438Y-70398095D01*
X112582438Y-70398095D02*
X112630057Y-70350476D01*
X112630057Y-70350476D02*
X112725295Y-70302857D01*
X112725295Y-70302857D02*
X112868152Y-70302857D01*
X112868152Y-70302857D02*
X112963390Y-70350476D01*
X112963390Y-70350476D02*
X113011009Y-70398095D01*
X113011009Y-70398095D02*
X113058628Y-70493333D01*
X113058628Y-70493333D02*
X113058628Y-70874285D01*
X112630057Y-69921904D02*
X112582438Y-69874285D01*
X112582438Y-69874285D02*
X112534819Y-69779047D01*
X112534819Y-69779047D02*
X112534819Y-69540952D01*
X112534819Y-69540952D02*
X112582438Y-69445714D01*
X112582438Y-69445714D02*
X112630057Y-69398095D01*
X112630057Y-69398095D02*
X112725295Y-69350476D01*
X112725295Y-69350476D02*
X112820533Y-69350476D01*
X112820533Y-69350476D02*
X112963390Y-69398095D01*
X112963390Y-69398095D02*
X113534819Y-69969523D01*
X113534819Y-69969523D02*
X113534819Y-69350476D01*
X112534819Y-69017142D02*
X112534819Y-68350476D01*
X112534819Y-68350476D02*
X113534819Y-68779047D01*
X118361905Y-104774819D02*
X118361905Y-103774819D01*
X118361905Y-103774819D02*
X118600000Y-103774819D01*
X118600000Y-103774819D02*
X118742857Y-103822438D01*
X118742857Y-103822438D02*
X118838095Y-103917676D01*
X118838095Y-103917676D02*
X118885714Y-104012914D01*
X118885714Y-104012914D02*
X118933333Y-104203390D01*
X118933333Y-104203390D02*
X118933333Y-104346247D01*
X118933333Y-104346247D02*
X118885714Y-104536723D01*
X118885714Y-104536723D02*
X118838095Y-104631961D01*
X118838095Y-104631961D02*
X118742857Y-104727200D01*
X118742857Y-104727200D02*
X118600000Y-104774819D01*
X118600000Y-104774819D02*
X118361905Y-104774819D01*
X119885714Y-104774819D02*
X119314286Y-104774819D01*
X119600000Y-104774819D02*
X119600000Y-103774819D01*
X119600000Y-103774819D02*
X119504762Y-103917676D01*
X119504762Y-103917676D02*
X119409524Y-104012914D01*
X119409524Y-104012914D02*
X119314286Y-104060533D01*
X126757142Y-75559580D02*
X126709523Y-75607200D01*
X126709523Y-75607200D02*
X126566666Y-75654819D01*
X126566666Y-75654819D02*
X126471428Y-75654819D01*
X126471428Y-75654819D02*
X126328571Y-75607200D01*
X126328571Y-75607200D02*
X126233333Y-75511961D01*
X126233333Y-75511961D02*
X126185714Y-75416723D01*
X126185714Y-75416723D02*
X126138095Y-75226247D01*
X126138095Y-75226247D02*
X126138095Y-75083390D01*
X126138095Y-75083390D02*
X126185714Y-74892914D01*
X126185714Y-74892914D02*
X126233333Y-74797676D01*
X126233333Y-74797676D02*
X126328571Y-74702438D01*
X126328571Y-74702438D02*
X126471428Y-74654819D01*
X126471428Y-74654819D02*
X126566666Y-74654819D01*
X126566666Y-74654819D02*
X126709523Y-74702438D01*
X126709523Y-74702438D02*
X126757142Y-74750057D01*
X127709523Y-75654819D02*
X127138095Y-75654819D01*
X127423809Y-75654819D02*
X127423809Y-74654819D01*
X127423809Y-74654819D02*
X127328571Y-74797676D01*
X127328571Y-74797676D02*
X127233333Y-74892914D01*
X127233333Y-74892914D02*
X127138095Y-74940533D01*
X128042857Y-74654819D02*
X128661904Y-74654819D01*
X128661904Y-74654819D02*
X128328571Y-75035771D01*
X128328571Y-75035771D02*
X128471428Y-75035771D01*
X128471428Y-75035771D02*
X128566666Y-75083390D01*
X128566666Y-75083390D02*
X128614285Y-75131009D01*
X128614285Y-75131009D02*
X128661904Y-75226247D01*
X128661904Y-75226247D02*
X128661904Y-75464342D01*
X128661904Y-75464342D02*
X128614285Y-75559580D01*
X128614285Y-75559580D02*
X128566666Y-75607200D01*
X128566666Y-75607200D02*
X128471428Y-75654819D01*
X128471428Y-75654819D02*
X128185714Y-75654819D01*
X128185714Y-75654819D02*
X128090476Y-75607200D01*
X128090476Y-75607200D02*
X128042857Y-75559580D01*
X148107142Y-96059580D02*
X148059523Y-96107200D01*
X148059523Y-96107200D02*
X147916666Y-96154819D01*
X147916666Y-96154819D02*
X147821428Y-96154819D01*
X147821428Y-96154819D02*
X147678571Y-96107200D01*
X147678571Y-96107200D02*
X147583333Y-96011961D01*
X147583333Y-96011961D02*
X147535714Y-95916723D01*
X147535714Y-95916723D02*
X147488095Y-95726247D01*
X147488095Y-95726247D02*
X147488095Y-95583390D01*
X147488095Y-95583390D02*
X147535714Y-95392914D01*
X147535714Y-95392914D02*
X147583333Y-95297676D01*
X147583333Y-95297676D02*
X147678571Y-95202438D01*
X147678571Y-95202438D02*
X147821428Y-95154819D01*
X147821428Y-95154819D02*
X147916666Y-95154819D01*
X147916666Y-95154819D02*
X148059523Y-95202438D01*
X148059523Y-95202438D02*
X148107142Y-95250057D01*
X148440476Y-95154819D02*
X149059523Y-95154819D01*
X149059523Y-95154819D02*
X148726190Y-95535771D01*
X148726190Y-95535771D02*
X148869047Y-95535771D01*
X148869047Y-95535771D02*
X148964285Y-95583390D01*
X148964285Y-95583390D02*
X149011904Y-95631009D01*
X149011904Y-95631009D02*
X149059523Y-95726247D01*
X149059523Y-95726247D02*
X149059523Y-95964342D01*
X149059523Y-95964342D02*
X149011904Y-96059580D01*
X149011904Y-96059580D02*
X148964285Y-96107200D01*
X148964285Y-96107200D02*
X148869047Y-96154819D01*
X148869047Y-96154819D02*
X148583333Y-96154819D01*
X148583333Y-96154819D02*
X148488095Y-96107200D01*
X148488095Y-96107200D02*
X148440476Y-96059580D01*
X149535714Y-96154819D02*
X149726190Y-96154819D01*
X149726190Y-96154819D02*
X149821428Y-96107200D01*
X149821428Y-96107200D02*
X149869047Y-96059580D01*
X149869047Y-96059580D02*
X149964285Y-95916723D01*
X149964285Y-95916723D02*
X150011904Y-95726247D01*
X150011904Y-95726247D02*
X150011904Y-95345295D01*
X150011904Y-95345295D02*
X149964285Y-95250057D01*
X149964285Y-95250057D02*
X149916666Y-95202438D01*
X149916666Y-95202438D02*
X149821428Y-95154819D01*
X149821428Y-95154819D02*
X149630952Y-95154819D01*
X149630952Y-95154819D02*
X149535714Y-95202438D01*
X149535714Y-95202438D02*
X149488095Y-95250057D01*
X149488095Y-95250057D02*
X149440476Y-95345295D01*
X149440476Y-95345295D02*
X149440476Y-95583390D01*
X149440476Y-95583390D02*
X149488095Y-95678628D01*
X149488095Y-95678628D02*
X149535714Y-95726247D01*
X149535714Y-95726247D02*
X149630952Y-95773866D01*
X149630952Y-95773866D02*
X149821428Y-95773866D01*
X149821428Y-95773866D02*
X149916666Y-95726247D01*
X149916666Y-95726247D02*
X149964285Y-95678628D01*
X149964285Y-95678628D02*
X150011904Y-95583390D01*
X148107142Y-84059580D02*
X148059523Y-84107200D01*
X148059523Y-84107200D02*
X147916666Y-84154819D01*
X147916666Y-84154819D02*
X147821428Y-84154819D01*
X147821428Y-84154819D02*
X147678571Y-84107200D01*
X147678571Y-84107200D02*
X147583333Y-84011961D01*
X147583333Y-84011961D02*
X147535714Y-83916723D01*
X147535714Y-83916723D02*
X147488095Y-83726247D01*
X147488095Y-83726247D02*
X147488095Y-83583390D01*
X147488095Y-83583390D02*
X147535714Y-83392914D01*
X147535714Y-83392914D02*
X147583333Y-83297676D01*
X147583333Y-83297676D02*
X147678571Y-83202438D01*
X147678571Y-83202438D02*
X147821428Y-83154819D01*
X147821428Y-83154819D02*
X147916666Y-83154819D01*
X147916666Y-83154819D02*
X148059523Y-83202438D01*
X148059523Y-83202438D02*
X148107142Y-83250057D01*
X148964285Y-83488152D02*
X148964285Y-84154819D01*
X148726190Y-83107200D02*
X148488095Y-83821485D01*
X148488095Y-83821485D02*
X149107142Y-83821485D01*
X150011904Y-84154819D02*
X149440476Y-84154819D01*
X149726190Y-84154819D02*
X149726190Y-83154819D01*
X149726190Y-83154819D02*
X149630952Y-83297676D01*
X149630952Y-83297676D02*
X149535714Y-83392914D01*
X149535714Y-83392914D02*
X149440476Y-83440533D01*
X145427142Y-99904819D02*
X145093809Y-99428628D01*
X144855714Y-99904819D02*
X144855714Y-98904819D01*
X144855714Y-98904819D02*
X145236666Y-98904819D01*
X145236666Y-98904819D02*
X145331904Y-98952438D01*
X145331904Y-98952438D02*
X145379523Y-99000057D01*
X145379523Y-99000057D02*
X145427142Y-99095295D01*
X145427142Y-99095295D02*
X145427142Y-99238152D01*
X145427142Y-99238152D02*
X145379523Y-99333390D01*
X145379523Y-99333390D02*
X145331904Y-99381009D01*
X145331904Y-99381009D02*
X145236666Y-99428628D01*
X145236666Y-99428628D02*
X144855714Y-99428628D01*
X146379523Y-99904819D02*
X145808095Y-99904819D01*
X146093809Y-99904819D02*
X146093809Y-98904819D01*
X146093809Y-98904819D02*
X145998571Y-99047676D01*
X145998571Y-99047676D02*
X145903333Y-99142914D01*
X145903333Y-99142914D02*
X145808095Y-99190533D01*
X146760476Y-99000057D02*
X146808095Y-98952438D01*
X146808095Y-98952438D02*
X146903333Y-98904819D01*
X146903333Y-98904819D02*
X147141428Y-98904819D01*
X147141428Y-98904819D02*
X147236666Y-98952438D01*
X147236666Y-98952438D02*
X147284285Y-99000057D01*
X147284285Y-99000057D02*
X147331904Y-99095295D01*
X147331904Y-99095295D02*
X147331904Y-99190533D01*
X147331904Y-99190533D02*
X147284285Y-99333390D01*
X147284285Y-99333390D02*
X146712857Y-99904819D01*
X146712857Y-99904819D02*
X147331904Y-99904819D01*
X103487142Y-88479580D02*
X103439523Y-88527200D01*
X103439523Y-88527200D02*
X103296666Y-88574819D01*
X103296666Y-88574819D02*
X103201428Y-88574819D01*
X103201428Y-88574819D02*
X103058571Y-88527200D01*
X103058571Y-88527200D02*
X102963333Y-88431961D01*
X102963333Y-88431961D02*
X102915714Y-88336723D01*
X102915714Y-88336723D02*
X102868095Y-88146247D01*
X102868095Y-88146247D02*
X102868095Y-88003390D01*
X102868095Y-88003390D02*
X102915714Y-87812914D01*
X102915714Y-87812914D02*
X102963333Y-87717676D01*
X102963333Y-87717676D02*
X103058571Y-87622438D01*
X103058571Y-87622438D02*
X103201428Y-87574819D01*
X103201428Y-87574819D02*
X103296666Y-87574819D01*
X103296666Y-87574819D02*
X103439523Y-87622438D01*
X103439523Y-87622438D02*
X103487142Y-87670057D01*
X103820476Y-87574819D02*
X104439523Y-87574819D01*
X104439523Y-87574819D02*
X104106190Y-87955771D01*
X104106190Y-87955771D02*
X104249047Y-87955771D01*
X104249047Y-87955771D02*
X104344285Y-88003390D01*
X104344285Y-88003390D02*
X104391904Y-88051009D01*
X104391904Y-88051009D02*
X104439523Y-88146247D01*
X104439523Y-88146247D02*
X104439523Y-88384342D01*
X104439523Y-88384342D02*
X104391904Y-88479580D01*
X104391904Y-88479580D02*
X104344285Y-88527200D01*
X104344285Y-88527200D02*
X104249047Y-88574819D01*
X104249047Y-88574819D02*
X103963333Y-88574819D01*
X103963333Y-88574819D02*
X103868095Y-88527200D01*
X103868095Y-88527200D02*
X103820476Y-88479580D01*
X104820476Y-87670057D02*
X104868095Y-87622438D01*
X104868095Y-87622438D02*
X104963333Y-87574819D01*
X104963333Y-87574819D02*
X105201428Y-87574819D01*
X105201428Y-87574819D02*
X105296666Y-87622438D01*
X105296666Y-87622438D02*
X105344285Y-87670057D01*
X105344285Y-87670057D02*
X105391904Y-87765295D01*
X105391904Y-87765295D02*
X105391904Y-87860533D01*
X105391904Y-87860533D02*
X105344285Y-88003390D01*
X105344285Y-88003390D02*
X104772857Y-88574819D01*
X104772857Y-88574819D02*
X105391904Y-88574819D01*
X102207142Y-65654819D02*
X101873809Y-65178628D01*
X101635714Y-65654819D02*
X101635714Y-64654819D01*
X101635714Y-64654819D02*
X102016666Y-64654819D01*
X102016666Y-64654819D02*
X102111904Y-64702438D01*
X102111904Y-64702438D02*
X102159523Y-64750057D01*
X102159523Y-64750057D02*
X102207142Y-64845295D01*
X102207142Y-64845295D02*
X102207142Y-64988152D01*
X102207142Y-64988152D02*
X102159523Y-65083390D01*
X102159523Y-65083390D02*
X102111904Y-65131009D01*
X102111904Y-65131009D02*
X102016666Y-65178628D01*
X102016666Y-65178628D02*
X101635714Y-65178628D01*
X102540476Y-64654819D02*
X103159523Y-64654819D01*
X103159523Y-64654819D02*
X102826190Y-65035771D01*
X102826190Y-65035771D02*
X102969047Y-65035771D01*
X102969047Y-65035771D02*
X103064285Y-65083390D01*
X103064285Y-65083390D02*
X103111904Y-65131009D01*
X103111904Y-65131009D02*
X103159523Y-65226247D01*
X103159523Y-65226247D02*
X103159523Y-65464342D01*
X103159523Y-65464342D02*
X103111904Y-65559580D01*
X103111904Y-65559580D02*
X103064285Y-65607200D01*
X103064285Y-65607200D02*
X102969047Y-65654819D01*
X102969047Y-65654819D02*
X102683333Y-65654819D01*
X102683333Y-65654819D02*
X102588095Y-65607200D01*
X102588095Y-65607200D02*
X102540476Y-65559580D01*
X104016666Y-64988152D02*
X104016666Y-65654819D01*
X103778571Y-64607200D02*
X103540476Y-65321485D01*
X103540476Y-65321485D02*
X104159523Y-65321485D01*
X96662142Y-89839819D02*
X96328809Y-89363628D01*
X96090714Y-89839819D02*
X96090714Y-88839819D01*
X96090714Y-88839819D02*
X96471666Y-88839819D01*
X96471666Y-88839819D02*
X96566904Y-88887438D01*
X96566904Y-88887438D02*
X96614523Y-88935057D01*
X96614523Y-88935057D02*
X96662142Y-89030295D01*
X96662142Y-89030295D02*
X96662142Y-89173152D01*
X96662142Y-89173152D02*
X96614523Y-89268390D01*
X96614523Y-89268390D02*
X96566904Y-89316009D01*
X96566904Y-89316009D02*
X96471666Y-89363628D01*
X96471666Y-89363628D02*
X96090714Y-89363628D01*
X97043095Y-88935057D02*
X97090714Y-88887438D01*
X97090714Y-88887438D02*
X97185952Y-88839819D01*
X97185952Y-88839819D02*
X97424047Y-88839819D01*
X97424047Y-88839819D02*
X97519285Y-88887438D01*
X97519285Y-88887438D02*
X97566904Y-88935057D01*
X97566904Y-88935057D02*
X97614523Y-89030295D01*
X97614523Y-89030295D02*
X97614523Y-89125533D01*
X97614523Y-89125533D02*
X97566904Y-89268390D01*
X97566904Y-89268390D02*
X96995476Y-89839819D01*
X96995476Y-89839819D02*
X97614523Y-89839819D01*
X97947857Y-88839819D02*
X98566904Y-88839819D01*
X98566904Y-88839819D02*
X98233571Y-89220771D01*
X98233571Y-89220771D02*
X98376428Y-89220771D01*
X98376428Y-89220771D02*
X98471666Y-89268390D01*
X98471666Y-89268390D02*
X98519285Y-89316009D01*
X98519285Y-89316009D02*
X98566904Y-89411247D01*
X98566904Y-89411247D02*
X98566904Y-89649342D01*
X98566904Y-89649342D02*
X98519285Y-89744580D01*
X98519285Y-89744580D02*
X98471666Y-89792200D01*
X98471666Y-89792200D02*
X98376428Y-89839819D01*
X98376428Y-89839819D02*
X98090714Y-89839819D01*
X98090714Y-89839819D02*
X97995476Y-89792200D01*
X97995476Y-89792200D02*
X97947857Y-89744580D01*
X106657142Y-59159580D02*
X106609523Y-59207200D01*
X106609523Y-59207200D02*
X106466666Y-59254819D01*
X106466666Y-59254819D02*
X106371428Y-59254819D01*
X106371428Y-59254819D02*
X106228571Y-59207200D01*
X106228571Y-59207200D02*
X106133333Y-59111961D01*
X106133333Y-59111961D02*
X106085714Y-59016723D01*
X106085714Y-59016723D02*
X106038095Y-58826247D01*
X106038095Y-58826247D02*
X106038095Y-58683390D01*
X106038095Y-58683390D02*
X106085714Y-58492914D01*
X106085714Y-58492914D02*
X106133333Y-58397676D01*
X106133333Y-58397676D02*
X106228571Y-58302438D01*
X106228571Y-58302438D02*
X106371428Y-58254819D01*
X106371428Y-58254819D02*
X106466666Y-58254819D01*
X106466666Y-58254819D02*
X106609523Y-58302438D01*
X106609523Y-58302438D02*
X106657142Y-58350057D01*
X107609523Y-59254819D02*
X107038095Y-59254819D01*
X107323809Y-59254819D02*
X107323809Y-58254819D01*
X107323809Y-58254819D02*
X107228571Y-58397676D01*
X107228571Y-58397676D02*
X107133333Y-58492914D01*
X107133333Y-58492914D02*
X107038095Y-58540533D01*
X108085714Y-59254819D02*
X108276190Y-59254819D01*
X108276190Y-59254819D02*
X108371428Y-59207200D01*
X108371428Y-59207200D02*
X108419047Y-59159580D01*
X108419047Y-59159580D02*
X108514285Y-59016723D01*
X108514285Y-59016723D02*
X108561904Y-58826247D01*
X108561904Y-58826247D02*
X108561904Y-58445295D01*
X108561904Y-58445295D02*
X108514285Y-58350057D01*
X108514285Y-58350057D02*
X108466666Y-58302438D01*
X108466666Y-58302438D02*
X108371428Y-58254819D01*
X108371428Y-58254819D02*
X108180952Y-58254819D01*
X108180952Y-58254819D02*
X108085714Y-58302438D01*
X108085714Y-58302438D02*
X108038095Y-58350057D01*
X108038095Y-58350057D02*
X107990476Y-58445295D01*
X107990476Y-58445295D02*
X107990476Y-58683390D01*
X107990476Y-58683390D02*
X108038095Y-58778628D01*
X108038095Y-58778628D02*
X108085714Y-58826247D01*
X108085714Y-58826247D02*
X108180952Y-58873866D01*
X108180952Y-58873866D02*
X108371428Y-58873866D01*
X108371428Y-58873866D02*
X108466666Y-58826247D01*
X108466666Y-58826247D02*
X108514285Y-58778628D01*
X108514285Y-58778628D02*
X108561904Y-58683390D01*
X120643333Y-79474819D02*
X120310000Y-78998628D01*
X120071905Y-79474819D02*
X120071905Y-78474819D01*
X120071905Y-78474819D02*
X120452857Y-78474819D01*
X120452857Y-78474819D02*
X120548095Y-78522438D01*
X120548095Y-78522438D02*
X120595714Y-78570057D01*
X120595714Y-78570057D02*
X120643333Y-78665295D01*
X120643333Y-78665295D02*
X120643333Y-78808152D01*
X120643333Y-78808152D02*
X120595714Y-78903390D01*
X120595714Y-78903390D02*
X120548095Y-78951009D01*
X120548095Y-78951009D02*
X120452857Y-78998628D01*
X120452857Y-78998628D02*
X120071905Y-78998628D01*
X121119524Y-79474819D02*
X121310000Y-79474819D01*
X121310000Y-79474819D02*
X121405238Y-79427200D01*
X121405238Y-79427200D02*
X121452857Y-79379580D01*
X121452857Y-79379580D02*
X121548095Y-79236723D01*
X121548095Y-79236723D02*
X121595714Y-79046247D01*
X121595714Y-79046247D02*
X121595714Y-78665295D01*
X121595714Y-78665295D02*
X121548095Y-78570057D01*
X121548095Y-78570057D02*
X121500476Y-78522438D01*
X121500476Y-78522438D02*
X121405238Y-78474819D01*
X121405238Y-78474819D02*
X121214762Y-78474819D01*
X121214762Y-78474819D02*
X121119524Y-78522438D01*
X121119524Y-78522438D02*
X121071905Y-78570057D01*
X121071905Y-78570057D02*
X121024286Y-78665295D01*
X121024286Y-78665295D02*
X121024286Y-78903390D01*
X121024286Y-78903390D02*
X121071905Y-78998628D01*
X121071905Y-78998628D02*
X121119524Y-79046247D01*
X121119524Y-79046247D02*
X121214762Y-79093866D01*
X121214762Y-79093866D02*
X121405238Y-79093866D01*
X121405238Y-79093866D02*
X121500476Y-79046247D01*
X121500476Y-79046247D02*
X121548095Y-78998628D01*
X121548095Y-78998628D02*
X121595714Y-78903390D01*
X98227142Y-62279580D02*
X98179523Y-62327200D01*
X98179523Y-62327200D02*
X98036666Y-62374819D01*
X98036666Y-62374819D02*
X97941428Y-62374819D01*
X97941428Y-62374819D02*
X97798571Y-62327200D01*
X97798571Y-62327200D02*
X97703333Y-62231961D01*
X97703333Y-62231961D02*
X97655714Y-62136723D01*
X97655714Y-62136723D02*
X97608095Y-61946247D01*
X97608095Y-61946247D02*
X97608095Y-61803390D01*
X97608095Y-61803390D02*
X97655714Y-61612914D01*
X97655714Y-61612914D02*
X97703333Y-61517676D01*
X97703333Y-61517676D02*
X97798571Y-61422438D01*
X97798571Y-61422438D02*
X97941428Y-61374819D01*
X97941428Y-61374819D02*
X98036666Y-61374819D01*
X98036666Y-61374819D02*
X98179523Y-61422438D01*
X98179523Y-61422438D02*
X98227142Y-61470057D01*
X98608095Y-61470057D02*
X98655714Y-61422438D01*
X98655714Y-61422438D02*
X98750952Y-61374819D01*
X98750952Y-61374819D02*
X98989047Y-61374819D01*
X98989047Y-61374819D02*
X99084285Y-61422438D01*
X99084285Y-61422438D02*
X99131904Y-61470057D01*
X99131904Y-61470057D02*
X99179523Y-61565295D01*
X99179523Y-61565295D02*
X99179523Y-61660533D01*
X99179523Y-61660533D02*
X99131904Y-61803390D01*
X99131904Y-61803390D02*
X98560476Y-62374819D01*
X98560476Y-62374819D02*
X99179523Y-62374819D01*
X99512857Y-61374819D02*
X100131904Y-61374819D01*
X100131904Y-61374819D02*
X99798571Y-61755771D01*
X99798571Y-61755771D02*
X99941428Y-61755771D01*
X99941428Y-61755771D02*
X100036666Y-61803390D01*
X100036666Y-61803390D02*
X100084285Y-61851009D01*
X100084285Y-61851009D02*
X100131904Y-61946247D01*
X100131904Y-61946247D02*
X100131904Y-62184342D01*
X100131904Y-62184342D02*
X100084285Y-62279580D01*
X100084285Y-62279580D02*
X100036666Y-62327200D01*
X100036666Y-62327200D02*
X99941428Y-62374819D01*
X99941428Y-62374819D02*
X99655714Y-62374819D01*
X99655714Y-62374819D02*
X99560476Y-62327200D01*
X99560476Y-62327200D02*
X99512857Y-62279580D01*
X98317142Y-63989580D02*
X98269523Y-64037200D01*
X98269523Y-64037200D02*
X98126666Y-64084819D01*
X98126666Y-64084819D02*
X98031428Y-64084819D01*
X98031428Y-64084819D02*
X97888571Y-64037200D01*
X97888571Y-64037200D02*
X97793333Y-63941961D01*
X97793333Y-63941961D02*
X97745714Y-63846723D01*
X97745714Y-63846723D02*
X97698095Y-63656247D01*
X97698095Y-63656247D02*
X97698095Y-63513390D01*
X97698095Y-63513390D02*
X97745714Y-63322914D01*
X97745714Y-63322914D02*
X97793333Y-63227676D01*
X97793333Y-63227676D02*
X97888571Y-63132438D01*
X97888571Y-63132438D02*
X98031428Y-63084819D01*
X98031428Y-63084819D02*
X98126666Y-63084819D01*
X98126666Y-63084819D02*
X98269523Y-63132438D01*
X98269523Y-63132438D02*
X98317142Y-63180057D01*
X98698095Y-63180057D02*
X98745714Y-63132438D01*
X98745714Y-63132438D02*
X98840952Y-63084819D01*
X98840952Y-63084819D02*
X99079047Y-63084819D01*
X99079047Y-63084819D02*
X99174285Y-63132438D01*
X99174285Y-63132438D02*
X99221904Y-63180057D01*
X99221904Y-63180057D02*
X99269523Y-63275295D01*
X99269523Y-63275295D02*
X99269523Y-63370533D01*
X99269523Y-63370533D02*
X99221904Y-63513390D01*
X99221904Y-63513390D02*
X98650476Y-64084819D01*
X98650476Y-64084819D02*
X99269523Y-64084819D01*
X100126666Y-63418152D02*
X100126666Y-64084819D01*
X99888571Y-63037200D02*
X99650476Y-63751485D01*
X99650476Y-63751485D02*
X100269523Y-63751485D01*
X104157231Y-78904210D02*
X104157231Y-79714651D01*
X104157231Y-79714651D02*
X104204904Y-79809997D01*
X104204904Y-79809997D02*
X104252577Y-79857671D01*
X104252577Y-79857671D02*
X104347923Y-79905344D01*
X104347923Y-79905344D02*
X104538615Y-79905344D01*
X104538615Y-79905344D02*
X104633961Y-79857671D01*
X104633961Y-79857671D02*
X104681634Y-79809997D01*
X104681634Y-79809997D02*
X104729307Y-79714651D01*
X104729307Y-79714651D02*
X104729307Y-78904210D01*
X105110692Y-78904210D02*
X105778114Y-78904210D01*
X105778114Y-78904210D02*
X105349057Y-79905344D01*
X130457142Y-79544819D02*
X130123809Y-79068628D01*
X129885714Y-79544819D02*
X129885714Y-78544819D01*
X129885714Y-78544819D02*
X130266666Y-78544819D01*
X130266666Y-78544819D02*
X130361904Y-78592438D01*
X130361904Y-78592438D02*
X130409523Y-78640057D01*
X130409523Y-78640057D02*
X130457142Y-78735295D01*
X130457142Y-78735295D02*
X130457142Y-78878152D01*
X130457142Y-78878152D02*
X130409523Y-78973390D01*
X130409523Y-78973390D02*
X130361904Y-79021009D01*
X130361904Y-79021009D02*
X130266666Y-79068628D01*
X130266666Y-79068628D02*
X129885714Y-79068628D01*
X131409523Y-79544819D02*
X130838095Y-79544819D01*
X131123809Y-79544819D02*
X131123809Y-78544819D01*
X131123809Y-78544819D02*
X131028571Y-78687676D01*
X131028571Y-78687676D02*
X130933333Y-78782914D01*
X130933333Y-78782914D02*
X130838095Y-78830533D01*
X131742857Y-78544819D02*
X132409523Y-78544819D01*
X132409523Y-78544819D02*
X131980952Y-79544819D01*
X120413333Y-72974819D02*
X120080000Y-72498628D01*
X119841905Y-72974819D02*
X119841905Y-71974819D01*
X119841905Y-71974819D02*
X120222857Y-71974819D01*
X120222857Y-71974819D02*
X120318095Y-72022438D01*
X120318095Y-72022438D02*
X120365714Y-72070057D01*
X120365714Y-72070057D02*
X120413333Y-72165295D01*
X120413333Y-72165295D02*
X120413333Y-72308152D01*
X120413333Y-72308152D02*
X120365714Y-72403390D01*
X120365714Y-72403390D02*
X120318095Y-72451009D01*
X120318095Y-72451009D02*
X120222857Y-72498628D01*
X120222857Y-72498628D02*
X119841905Y-72498628D01*
X120984762Y-72403390D02*
X120889524Y-72355771D01*
X120889524Y-72355771D02*
X120841905Y-72308152D01*
X120841905Y-72308152D02*
X120794286Y-72212914D01*
X120794286Y-72212914D02*
X120794286Y-72165295D01*
X120794286Y-72165295D02*
X120841905Y-72070057D01*
X120841905Y-72070057D02*
X120889524Y-72022438D01*
X120889524Y-72022438D02*
X120984762Y-71974819D01*
X120984762Y-71974819D02*
X121175238Y-71974819D01*
X121175238Y-71974819D02*
X121270476Y-72022438D01*
X121270476Y-72022438D02*
X121318095Y-72070057D01*
X121318095Y-72070057D02*
X121365714Y-72165295D01*
X121365714Y-72165295D02*
X121365714Y-72212914D01*
X121365714Y-72212914D02*
X121318095Y-72308152D01*
X121318095Y-72308152D02*
X121270476Y-72355771D01*
X121270476Y-72355771D02*
X121175238Y-72403390D01*
X121175238Y-72403390D02*
X120984762Y-72403390D01*
X120984762Y-72403390D02*
X120889524Y-72451009D01*
X120889524Y-72451009D02*
X120841905Y-72498628D01*
X120841905Y-72498628D02*
X120794286Y-72593866D01*
X120794286Y-72593866D02*
X120794286Y-72784342D01*
X120794286Y-72784342D02*
X120841905Y-72879580D01*
X120841905Y-72879580D02*
X120889524Y-72927200D01*
X120889524Y-72927200D02*
X120984762Y-72974819D01*
X120984762Y-72974819D02*
X121175238Y-72974819D01*
X121175238Y-72974819D02*
X121270476Y-72927200D01*
X121270476Y-72927200D02*
X121318095Y-72879580D01*
X121318095Y-72879580D02*
X121365714Y-72784342D01*
X121365714Y-72784342D02*
X121365714Y-72593866D01*
X121365714Y-72593866D02*
X121318095Y-72498628D01*
X121318095Y-72498628D02*
X121270476Y-72451009D01*
X121270476Y-72451009D02*
X121175238Y-72403390D01*
X139724780Y-74832857D02*
X139772400Y-74880476D01*
X139772400Y-74880476D02*
X139820019Y-75023333D01*
X139820019Y-75023333D02*
X139820019Y-75118571D01*
X139820019Y-75118571D02*
X139772400Y-75261428D01*
X139772400Y-75261428D02*
X139677161Y-75356666D01*
X139677161Y-75356666D02*
X139581923Y-75404285D01*
X139581923Y-75404285D02*
X139391447Y-75451904D01*
X139391447Y-75451904D02*
X139248590Y-75451904D01*
X139248590Y-75451904D02*
X139058114Y-75404285D01*
X139058114Y-75404285D02*
X138962876Y-75356666D01*
X138962876Y-75356666D02*
X138867638Y-75261428D01*
X138867638Y-75261428D02*
X138820019Y-75118571D01*
X138820019Y-75118571D02*
X138820019Y-75023333D01*
X138820019Y-75023333D02*
X138867638Y-74880476D01*
X138867638Y-74880476D02*
X138915257Y-74832857D01*
X138915257Y-74451904D02*
X138867638Y-74404285D01*
X138867638Y-74404285D02*
X138820019Y-74309047D01*
X138820019Y-74309047D02*
X138820019Y-74070952D01*
X138820019Y-74070952D02*
X138867638Y-73975714D01*
X138867638Y-73975714D02*
X138915257Y-73928095D01*
X138915257Y-73928095D02*
X139010495Y-73880476D01*
X139010495Y-73880476D02*
X139105733Y-73880476D01*
X139105733Y-73880476D02*
X139248590Y-73928095D01*
X139248590Y-73928095D02*
X139820019Y-74499523D01*
X139820019Y-74499523D02*
X139820019Y-73880476D01*
X138820019Y-72975714D02*
X138820019Y-73451904D01*
X138820019Y-73451904D02*
X139296209Y-73499523D01*
X139296209Y-73499523D02*
X139248590Y-73451904D01*
X139248590Y-73451904D02*
X139200971Y-73356666D01*
X139200971Y-73356666D02*
X139200971Y-73118571D01*
X139200971Y-73118571D02*
X139248590Y-73023333D01*
X139248590Y-73023333D02*
X139296209Y-72975714D01*
X139296209Y-72975714D02*
X139391447Y-72928095D01*
X139391447Y-72928095D02*
X139629542Y-72928095D01*
X139629542Y-72928095D02*
X139724780Y-72975714D01*
X139724780Y-72975714D02*
X139772400Y-73023333D01*
X139772400Y-73023333D02*
X139820019Y-73118571D01*
X139820019Y-73118571D02*
X139820019Y-73356666D01*
X139820019Y-73356666D02*
X139772400Y-73451904D01*
X139772400Y-73451904D02*
X139724780Y-73499523D01*
X143687533Y-70324761D02*
X143687533Y-69715238D01*
X143992295Y-70019999D02*
X143382771Y-70019999D01*
X83645180Y-64361905D02*
X82835657Y-64361905D01*
X82835657Y-64361905D02*
X82740419Y-64409524D01*
X82740419Y-64409524D02*
X82692800Y-64457143D01*
X82692800Y-64457143D02*
X82645180Y-64552381D01*
X82645180Y-64552381D02*
X82645180Y-64742857D01*
X82645180Y-64742857D02*
X82692800Y-64838095D01*
X82692800Y-64838095D02*
X82740419Y-64885714D01*
X82740419Y-64885714D02*
X82835657Y-64933333D01*
X82835657Y-64933333D02*
X83645180Y-64933333D01*
X82645180Y-65933333D02*
X82645180Y-65361905D01*
X82645180Y-65647619D02*
X83645180Y-65647619D01*
X83645180Y-65647619D02*
X83502323Y-65552381D01*
X83502323Y-65552381D02*
X83407085Y-65457143D01*
X83407085Y-65457143D02*
X83359466Y-65361905D01*
X83645180Y-66266667D02*
X83645180Y-66885714D01*
X83645180Y-66885714D02*
X83264228Y-66552381D01*
X83264228Y-66552381D02*
X83264228Y-66695238D01*
X83264228Y-66695238D02*
X83216609Y-66790476D01*
X83216609Y-66790476D02*
X83168990Y-66838095D01*
X83168990Y-66838095D02*
X83073752Y-66885714D01*
X83073752Y-66885714D02*
X82835657Y-66885714D01*
X82835657Y-66885714D02*
X82740419Y-66838095D01*
X82740419Y-66838095D02*
X82692800Y-66790476D01*
X82692800Y-66790476D02*
X82645180Y-66695238D01*
X82645180Y-66695238D02*
X82645180Y-66409524D01*
X82645180Y-66409524D02*
X82692800Y-66314286D01*
X82692800Y-66314286D02*
X82740419Y-66266667D01*
X87254819Y-62899999D02*
X87492914Y-62899999D01*
X87397676Y-63138094D02*
X87492914Y-62899999D01*
X87492914Y-62899999D02*
X87397676Y-62661904D01*
X87683390Y-63042856D02*
X87492914Y-62899999D01*
X87492914Y-62899999D02*
X87683390Y-62757142D01*
X130457142Y-77654819D02*
X130123809Y-77178628D01*
X129885714Y-77654819D02*
X129885714Y-76654819D01*
X129885714Y-76654819D02*
X130266666Y-76654819D01*
X130266666Y-76654819D02*
X130361904Y-76702438D01*
X130361904Y-76702438D02*
X130409523Y-76750057D01*
X130409523Y-76750057D02*
X130457142Y-76845295D01*
X130457142Y-76845295D02*
X130457142Y-76988152D01*
X130457142Y-76988152D02*
X130409523Y-77083390D01*
X130409523Y-77083390D02*
X130361904Y-77131009D01*
X130361904Y-77131009D02*
X130266666Y-77178628D01*
X130266666Y-77178628D02*
X129885714Y-77178628D01*
X131409523Y-77654819D02*
X130838095Y-77654819D01*
X131123809Y-77654819D02*
X131123809Y-76654819D01*
X131123809Y-76654819D02*
X131028571Y-76797676D01*
X131028571Y-76797676D02*
X130933333Y-76892914D01*
X130933333Y-76892914D02*
X130838095Y-76940533D01*
X132266666Y-76654819D02*
X132076190Y-76654819D01*
X132076190Y-76654819D02*
X131980952Y-76702438D01*
X131980952Y-76702438D02*
X131933333Y-76750057D01*
X131933333Y-76750057D02*
X131838095Y-76892914D01*
X131838095Y-76892914D02*
X131790476Y-77083390D01*
X131790476Y-77083390D02*
X131790476Y-77464342D01*
X131790476Y-77464342D02*
X131838095Y-77559580D01*
X131838095Y-77559580D02*
X131885714Y-77607200D01*
X131885714Y-77607200D02*
X131980952Y-77654819D01*
X131980952Y-77654819D02*
X132171428Y-77654819D01*
X132171428Y-77654819D02*
X132266666Y-77607200D01*
X132266666Y-77607200D02*
X132314285Y-77559580D01*
X132314285Y-77559580D02*
X132361904Y-77464342D01*
X132361904Y-77464342D02*
X132361904Y-77226247D01*
X132361904Y-77226247D02*
X132314285Y-77131009D01*
X132314285Y-77131009D02*
X132266666Y-77083390D01*
X132266666Y-77083390D02*
X132171428Y-77035771D01*
X132171428Y-77035771D02*
X131980952Y-77035771D01*
X131980952Y-77035771D02*
X131885714Y-77083390D01*
X131885714Y-77083390D02*
X131838095Y-77131009D01*
X131838095Y-77131009D02*
X131790476Y-77226247D01*
X109017142Y-67144819D02*
X108683809Y-66668628D01*
X108445714Y-67144819D02*
X108445714Y-66144819D01*
X108445714Y-66144819D02*
X108826666Y-66144819D01*
X108826666Y-66144819D02*
X108921904Y-66192438D01*
X108921904Y-66192438D02*
X108969523Y-66240057D01*
X108969523Y-66240057D02*
X109017142Y-66335295D01*
X109017142Y-66335295D02*
X109017142Y-66478152D01*
X109017142Y-66478152D02*
X108969523Y-66573390D01*
X108969523Y-66573390D02*
X108921904Y-66621009D01*
X108921904Y-66621009D02*
X108826666Y-66668628D01*
X108826666Y-66668628D02*
X108445714Y-66668628D01*
X109350476Y-66144819D02*
X109969523Y-66144819D01*
X109969523Y-66144819D02*
X109636190Y-66525771D01*
X109636190Y-66525771D02*
X109779047Y-66525771D01*
X109779047Y-66525771D02*
X109874285Y-66573390D01*
X109874285Y-66573390D02*
X109921904Y-66621009D01*
X109921904Y-66621009D02*
X109969523Y-66716247D01*
X109969523Y-66716247D02*
X109969523Y-66954342D01*
X109969523Y-66954342D02*
X109921904Y-67049580D01*
X109921904Y-67049580D02*
X109874285Y-67097200D01*
X109874285Y-67097200D02*
X109779047Y-67144819D01*
X109779047Y-67144819D02*
X109493333Y-67144819D01*
X109493333Y-67144819D02*
X109398095Y-67097200D01*
X109398095Y-67097200D02*
X109350476Y-67049580D01*
X110302857Y-66144819D02*
X110921904Y-66144819D01*
X110921904Y-66144819D02*
X110588571Y-66525771D01*
X110588571Y-66525771D02*
X110731428Y-66525771D01*
X110731428Y-66525771D02*
X110826666Y-66573390D01*
X110826666Y-66573390D02*
X110874285Y-66621009D01*
X110874285Y-66621009D02*
X110921904Y-66716247D01*
X110921904Y-66716247D02*
X110921904Y-66954342D01*
X110921904Y-66954342D02*
X110874285Y-67049580D01*
X110874285Y-67049580D02*
X110826666Y-67097200D01*
X110826666Y-67097200D02*
X110731428Y-67144819D01*
X110731428Y-67144819D02*
X110445714Y-67144819D01*
X110445714Y-67144819D02*
X110350476Y-67097200D01*
X110350476Y-67097200D02*
X110302857Y-67049580D01*
X137874761Y-96770057D02*
X137779523Y-96722438D01*
X137779523Y-96722438D02*
X137684285Y-96627200D01*
X137684285Y-96627200D02*
X137541428Y-96484342D01*
X137541428Y-96484342D02*
X137446190Y-96436723D01*
X137446190Y-96436723D02*
X137350952Y-96436723D01*
X137398571Y-96674819D02*
X137303333Y-96627200D01*
X137303333Y-96627200D02*
X137208095Y-96531961D01*
X137208095Y-96531961D02*
X137160476Y-96341485D01*
X137160476Y-96341485D02*
X137160476Y-96008152D01*
X137160476Y-96008152D02*
X137208095Y-95817676D01*
X137208095Y-95817676D02*
X137303333Y-95722438D01*
X137303333Y-95722438D02*
X137398571Y-95674819D01*
X137398571Y-95674819D02*
X137589047Y-95674819D01*
X137589047Y-95674819D02*
X137684285Y-95722438D01*
X137684285Y-95722438D02*
X137779523Y-95817676D01*
X137779523Y-95817676D02*
X137827142Y-96008152D01*
X137827142Y-96008152D02*
X137827142Y-96341485D01*
X137827142Y-96341485D02*
X137779523Y-96531961D01*
X137779523Y-96531961D02*
X137684285Y-96627200D01*
X137684285Y-96627200D02*
X137589047Y-96674819D01*
X137589047Y-96674819D02*
X137398571Y-96674819D01*
X138684285Y-96008152D02*
X138684285Y-96674819D01*
X138446190Y-95627200D02*
X138208095Y-96341485D01*
X138208095Y-96341485D02*
X138827142Y-96341485D01*
X100607142Y-70654819D02*
X100273809Y-70178628D01*
X100035714Y-70654819D02*
X100035714Y-69654819D01*
X100035714Y-69654819D02*
X100416666Y-69654819D01*
X100416666Y-69654819D02*
X100511904Y-69702438D01*
X100511904Y-69702438D02*
X100559523Y-69750057D01*
X100559523Y-69750057D02*
X100607142Y-69845295D01*
X100607142Y-69845295D02*
X100607142Y-69988152D01*
X100607142Y-69988152D02*
X100559523Y-70083390D01*
X100559523Y-70083390D02*
X100511904Y-70131009D01*
X100511904Y-70131009D02*
X100416666Y-70178628D01*
X100416666Y-70178628D02*
X100035714Y-70178628D01*
X100988095Y-69750057D02*
X101035714Y-69702438D01*
X101035714Y-69702438D02*
X101130952Y-69654819D01*
X101130952Y-69654819D02*
X101369047Y-69654819D01*
X101369047Y-69654819D02*
X101464285Y-69702438D01*
X101464285Y-69702438D02*
X101511904Y-69750057D01*
X101511904Y-69750057D02*
X101559523Y-69845295D01*
X101559523Y-69845295D02*
X101559523Y-69940533D01*
X101559523Y-69940533D02*
X101511904Y-70083390D01*
X101511904Y-70083390D02*
X100940476Y-70654819D01*
X100940476Y-70654819D02*
X101559523Y-70654819D01*
X102464285Y-69654819D02*
X101988095Y-69654819D01*
X101988095Y-69654819D02*
X101940476Y-70131009D01*
X101940476Y-70131009D02*
X101988095Y-70083390D01*
X101988095Y-70083390D02*
X102083333Y-70035771D01*
X102083333Y-70035771D02*
X102321428Y-70035771D01*
X102321428Y-70035771D02*
X102416666Y-70083390D01*
X102416666Y-70083390D02*
X102464285Y-70131009D01*
X102464285Y-70131009D02*
X102511904Y-70226247D01*
X102511904Y-70226247D02*
X102511904Y-70464342D01*
X102511904Y-70464342D02*
X102464285Y-70559580D01*
X102464285Y-70559580D02*
X102416666Y-70607200D01*
X102416666Y-70607200D02*
X102321428Y-70654819D01*
X102321428Y-70654819D02*
X102083333Y-70654819D01*
X102083333Y-70654819D02*
X101988095Y-70607200D01*
X101988095Y-70607200D02*
X101940476Y-70559580D01*
X84983333Y-83459580D02*
X84935714Y-83507200D01*
X84935714Y-83507200D02*
X84792857Y-83554819D01*
X84792857Y-83554819D02*
X84697619Y-83554819D01*
X84697619Y-83554819D02*
X84554762Y-83507200D01*
X84554762Y-83507200D02*
X84459524Y-83411961D01*
X84459524Y-83411961D02*
X84411905Y-83316723D01*
X84411905Y-83316723D02*
X84364286Y-83126247D01*
X84364286Y-83126247D02*
X84364286Y-82983390D01*
X84364286Y-82983390D02*
X84411905Y-82792914D01*
X84411905Y-82792914D02*
X84459524Y-82697676D01*
X84459524Y-82697676D02*
X84554762Y-82602438D01*
X84554762Y-82602438D02*
X84697619Y-82554819D01*
X84697619Y-82554819D02*
X84792857Y-82554819D01*
X84792857Y-82554819D02*
X84935714Y-82602438D01*
X84935714Y-82602438D02*
X84983333Y-82650057D01*
X85554762Y-82983390D02*
X85459524Y-82935771D01*
X85459524Y-82935771D02*
X85411905Y-82888152D01*
X85411905Y-82888152D02*
X85364286Y-82792914D01*
X85364286Y-82792914D02*
X85364286Y-82745295D01*
X85364286Y-82745295D02*
X85411905Y-82650057D01*
X85411905Y-82650057D02*
X85459524Y-82602438D01*
X85459524Y-82602438D02*
X85554762Y-82554819D01*
X85554762Y-82554819D02*
X85745238Y-82554819D01*
X85745238Y-82554819D02*
X85840476Y-82602438D01*
X85840476Y-82602438D02*
X85888095Y-82650057D01*
X85888095Y-82650057D02*
X85935714Y-82745295D01*
X85935714Y-82745295D02*
X85935714Y-82792914D01*
X85935714Y-82792914D02*
X85888095Y-82888152D01*
X85888095Y-82888152D02*
X85840476Y-82935771D01*
X85840476Y-82935771D02*
X85745238Y-82983390D01*
X85745238Y-82983390D02*
X85554762Y-82983390D01*
X85554762Y-82983390D02*
X85459524Y-83031009D01*
X85459524Y-83031009D02*
X85411905Y-83078628D01*
X85411905Y-83078628D02*
X85364286Y-83173866D01*
X85364286Y-83173866D02*
X85364286Y-83364342D01*
X85364286Y-83364342D02*
X85411905Y-83459580D01*
X85411905Y-83459580D02*
X85459524Y-83507200D01*
X85459524Y-83507200D02*
X85554762Y-83554819D01*
X85554762Y-83554819D02*
X85745238Y-83554819D01*
X85745238Y-83554819D02*
X85840476Y-83507200D01*
X85840476Y-83507200D02*
X85888095Y-83459580D01*
X85888095Y-83459580D02*
X85935714Y-83364342D01*
X85935714Y-83364342D02*
X85935714Y-83173866D01*
X85935714Y-83173866D02*
X85888095Y-83078628D01*
X85888095Y-83078628D02*
X85840476Y-83031009D01*
X85840476Y-83031009D02*
X85745238Y-82983390D01*
X130457142Y-83404819D02*
X130123809Y-82928628D01*
X129885714Y-83404819D02*
X129885714Y-82404819D01*
X129885714Y-82404819D02*
X130266666Y-82404819D01*
X130266666Y-82404819D02*
X130361904Y-82452438D01*
X130361904Y-82452438D02*
X130409523Y-82500057D01*
X130409523Y-82500057D02*
X130457142Y-82595295D01*
X130457142Y-82595295D02*
X130457142Y-82738152D01*
X130457142Y-82738152D02*
X130409523Y-82833390D01*
X130409523Y-82833390D02*
X130361904Y-82881009D01*
X130361904Y-82881009D02*
X130266666Y-82928628D01*
X130266666Y-82928628D02*
X129885714Y-82928628D01*
X131409523Y-83404819D02*
X130838095Y-83404819D01*
X131123809Y-83404819D02*
X131123809Y-82404819D01*
X131123809Y-82404819D02*
X131028571Y-82547676D01*
X131028571Y-82547676D02*
X130933333Y-82642914D01*
X130933333Y-82642914D02*
X130838095Y-82690533D01*
X131885714Y-83404819D02*
X132076190Y-83404819D01*
X132076190Y-83404819D02*
X132171428Y-83357200D01*
X132171428Y-83357200D02*
X132219047Y-83309580D01*
X132219047Y-83309580D02*
X132314285Y-83166723D01*
X132314285Y-83166723D02*
X132361904Y-82976247D01*
X132361904Y-82976247D02*
X132361904Y-82595295D01*
X132361904Y-82595295D02*
X132314285Y-82500057D01*
X132314285Y-82500057D02*
X132266666Y-82452438D01*
X132266666Y-82452438D02*
X132171428Y-82404819D01*
X132171428Y-82404819D02*
X131980952Y-82404819D01*
X131980952Y-82404819D02*
X131885714Y-82452438D01*
X131885714Y-82452438D02*
X131838095Y-82500057D01*
X131838095Y-82500057D02*
X131790476Y-82595295D01*
X131790476Y-82595295D02*
X131790476Y-82833390D01*
X131790476Y-82833390D02*
X131838095Y-82928628D01*
X131838095Y-82928628D02*
X131885714Y-82976247D01*
X131885714Y-82976247D02*
X131980952Y-83023866D01*
X131980952Y-83023866D02*
X132171428Y-83023866D01*
X132171428Y-83023866D02*
X132266666Y-82976247D01*
X132266666Y-82976247D02*
X132314285Y-82928628D01*
X132314285Y-82928628D02*
X132361904Y-82833390D01*
X148107142Y-78059580D02*
X148059523Y-78107200D01*
X148059523Y-78107200D02*
X147916666Y-78154819D01*
X147916666Y-78154819D02*
X147821428Y-78154819D01*
X147821428Y-78154819D02*
X147678571Y-78107200D01*
X147678571Y-78107200D02*
X147583333Y-78011961D01*
X147583333Y-78011961D02*
X147535714Y-77916723D01*
X147535714Y-77916723D02*
X147488095Y-77726247D01*
X147488095Y-77726247D02*
X147488095Y-77583390D01*
X147488095Y-77583390D02*
X147535714Y-77392914D01*
X147535714Y-77392914D02*
X147583333Y-77297676D01*
X147583333Y-77297676D02*
X147678571Y-77202438D01*
X147678571Y-77202438D02*
X147821428Y-77154819D01*
X147821428Y-77154819D02*
X147916666Y-77154819D01*
X147916666Y-77154819D02*
X148059523Y-77202438D01*
X148059523Y-77202438D02*
X148107142Y-77250057D01*
X148964285Y-77488152D02*
X148964285Y-78154819D01*
X148726190Y-77107200D02*
X148488095Y-77821485D01*
X148488095Y-77821485D02*
X149107142Y-77821485D01*
X149678571Y-77154819D02*
X149773809Y-77154819D01*
X149773809Y-77154819D02*
X149869047Y-77202438D01*
X149869047Y-77202438D02*
X149916666Y-77250057D01*
X149916666Y-77250057D02*
X149964285Y-77345295D01*
X149964285Y-77345295D02*
X150011904Y-77535771D01*
X150011904Y-77535771D02*
X150011904Y-77773866D01*
X150011904Y-77773866D02*
X149964285Y-77964342D01*
X149964285Y-77964342D02*
X149916666Y-78059580D01*
X149916666Y-78059580D02*
X149869047Y-78107200D01*
X149869047Y-78107200D02*
X149773809Y-78154819D01*
X149773809Y-78154819D02*
X149678571Y-78154819D01*
X149678571Y-78154819D02*
X149583333Y-78107200D01*
X149583333Y-78107200D02*
X149535714Y-78059580D01*
X149535714Y-78059580D02*
X149488095Y-77964342D01*
X149488095Y-77964342D02*
X149440476Y-77773866D01*
X149440476Y-77773866D02*
X149440476Y-77535771D01*
X149440476Y-77535771D02*
X149488095Y-77345295D01*
X149488095Y-77345295D02*
X149535714Y-77250057D01*
X149535714Y-77250057D02*
X149583333Y-77202438D01*
X149583333Y-77202438D02*
X149678571Y-77154819D01*
X148107142Y-72059580D02*
X148059523Y-72107200D01*
X148059523Y-72107200D02*
X147916666Y-72154819D01*
X147916666Y-72154819D02*
X147821428Y-72154819D01*
X147821428Y-72154819D02*
X147678571Y-72107200D01*
X147678571Y-72107200D02*
X147583333Y-72011961D01*
X147583333Y-72011961D02*
X147535714Y-71916723D01*
X147535714Y-71916723D02*
X147488095Y-71726247D01*
X147488095Y-71726247D02*
X147488095Y-71583390D01*
X147488095Y-71583390D02*
X147535714Y-71392914D01*
X147535714Y-71392914D02*
X147583333Y-71297676D01*
X147583333Y-71297676D02*
X147678571Y-71202438D01*
X147678571Y-71202438D02*
X147821428Y-71154819D01*
X147821428Y-71154819D02*
X147916666Y-71154819D01*
X147916666Y-71154819D02*
X148059523Y-71202438D01*
X148059523Y-71202438D02*
X148107142Y-71250057D01*
X148488095Y-71250057D02*
X148535714Y-71202438D01*
X148535714Y-71202438D02*
X148630952Y-71154819D01*
X148630952Y-71154819D02*
X148869047Y-71154819D01*
X148869047Y-71154819D02*
X148964285Y-71202438D01*
X148964285Y-71202438D02*
X149011904Y-71250057D01*
X149011904Y-71250057D02*
X149059523Y-71345295D01*
X149059523Y-71345295D02*
X149059523Y-71440533D01*
X149059523Y-71440533D02*
X149011904Y-71583390D01*
X149011904Y-71583390D02*
X148440476Y-72154819D01*
X148440476Y-72154819D02*
X149059523Y-72154819D01*
X149916666Y-71154819D02*
X149726190Y-71154819D01*
X149726190Y-71154819D02*
X149630952Y-71202438D01*
X149630952Y-71202438D02*
X149583333Y-71250057D01*
X149583333Y-71250057D02*
X149488095Y-71392914D01*
X149488095Y-71392914D02*
X149440476Y-71583390D01*
X149440476Y-71583390D02*
X149440476Y-71964342D01*
X149440476Y-71964342D02*
X149488095Y-72059580D01*
X149488095Y-72059580D02*
X149535714Y-72107200D01*
X149535714Y-72107200D02*
X149630952Y-72154819D01*
X149630952Y-72154819D02*
X149821428Y-72154819D01*
X149821428Y-72154819D02*
X149916666Y-72107200D01*
X149916666Y-72107200D02*
X149964285Y-72059580D01*
X149964285Y-72059580D02*
X150011904Y-71964342D01*
X150011904Y-71964342D02*
X150011904Y-71726247D01*
X150011904Y-71726247D02*
X149964285Y-71631009D01*
X149964285Y-71631009D02*
X149916666Y-71583390D01*
X149916666Y-71583390D02*
X149821428Y-71535771D01*
X149821428Y-71535771D02*
X149630952Y-71535771D01*
X149630952Y-71535771D02*
X149535714Y-71583390D01*
X149535714Y-71583390D02*
X149488095Y-71631009D01*
X149488095Y-71631009D02*
X149440476Y-71726247D01*
X141554819Y-65942857D02*
X141078628Y-66276190D01*
X141554819Y-66514285D02*
X140554819Y-66514285D01*
X140554819Y-66514285D02*
X140554819Y-66133333D01*
X140554819Y-66133333D02*
X140602438Y-66038095D01*
X140602438Y-66038095D02*
X140650057Y-65990476D01*
X140650057Y-65990476D02*
X140745295Y-65942857D01*
X140745295Y-65942857D02*
X140888152Y-65942857D01*
X140888152Y-65942857D02*
X140983390Y-65990476D01*
X140983390Y-65990476D02*
X141031009Y-66038095D01*
X141031009Y-66038095D02*
X141078628Y-66133333D01*
X141078628Y-66133333D02*
X141078628Y-66514285D01*
X141554819Y-64990476D02*
X141554819Y-65561904D01*
X141554819Y-65276190D02*
X140554819Y-65276190D01*
X140554819Y-65276190D02*
X140697676Y-65371428D01*
X140697676Y-65371428D02*
X140792914Y-65466666D01*
X140792914Y-65466666D02*
X140840533Y-65561904D01*
X140554819Y-64657142D02*
X140554819Y-64038095D01*
X140554819Y-64038095D02*
X140935771Y-64371428D01*
X140935771Y-64371428D02*
X140935771Y-64228571D01*
X140935771Y-64228571D02*
X140983390Y-64133333D01*
X140983390Y-64133333D02*
X141031009Y-64085714D01*
X141031009Y-64085714D02*
X141126247Y-64038095D01*
X141126247Y-64038095D02*
X141364342Y-64038095D01*
X141364342Y-64038095D02*
X141459580Y-64085714D01*
X141459580Y-64085714D02*
X141507200Y-64133333D01*
X141507200Y-64133333D02*
X141554819Y-64228571D01*
X141554819Y-64228571D02*
X141554819Y-64514285D01*
X141554819Y-64514285D02*
X141507200Y-64609523D01*
X141507200Y-64609523D02*
X141459580Y-64657142D01*
X93638095Y-56254819D02*
X93638095Y-57064342D01*
X93638095Y-57064342D02*
X93685714Y-57159580D01*
X93685714Y-57159580D02*
X93733333Y-57207200D01*
X93733333Y-57207200D02*
X93828571Y-57254819D01*
X93828571Y-57254819D02*
X94019047Y-57254819D01*
X94019047Y-57254819D02*
X94114285Y-57207200D01*
X94114285Y-57207200D02*
X94161904Y-57159580D01*
X94161904Y-57159580D02*
X94209523Y-57064342D01*
X94209523Y-57064342D02*
X94209523Y-56254819D01*
X95161904Y-56254819D02*
X94685714Y-56254819D01*
X94685714Y-56254819D02*
X94638095Y-56731009D01*
X94638095Y-56731009D02*
X94685714Y-56683390D01*
X94685714Y-56683390D02*
X94780952Y-56635771D01*
X94780952Y-56635771D02*
X95019047Y-56635771D01*
X95019047Y-56635771D02*
X95114285Y-56683390D01*
X95114285Y-56683390D02*
X95161904Y-56731009D01*
X95161904Y-56731009D02*
X95209523Y-56826247D01*
X95209523Y-56826247D02*
X95209523Y-57064342D01*
X95209523Y-57064342D02*
X95161904Y-57159580D01*
X95161904Y-57159580D02*
X95114285Y-57207200D01*
X95114285Y-57207200D02*
X95019047Y-57254819D01*
X95019047Y-57254819D02*
X94780952Y-57254819D01*
X94780952Y-57254819D02*
X94685714Y-57207200D01*
X94685714Y-57207200D02*
X94638095Y-57159580D01*
X130711905Y-100637319D02*
X130711905Y-99637319D01*
X130711905Y-99637319D02*
X130950000Y-99637319D01*
X130950000Y-99637319D02*
X131092857Y-99684938D01*
X131092857Y-99684938D02*
X131188095Y-99780176D01*
X131188095Y-99780176D02*
X131235714Y-99875414D01*
X131235714Y-99875414D02*
X131283333Y-100065890D01*
X131283333Y-100065890D02*
X131283333Y-100208747D01*
X131283333Y-100208747D02*
X131235714Y-100399223D01*
X131235714Y-100399223D02*
X131188095Y-100494461D01*
X131188095Y-100494461D02*
X131092857Y-100589700D01*
X131092857Y-100589700D02*
X130950000Y-100637319D01*
X130950000Y-100637319D02*
X130711905Y-100637319D01*
X131854762Y-100065890D02*
X131759524Y-100018271D01*
X131759524Y-100018271D02*
X131711905Y-99970652D01*
X131711905Y-99970652D02*
X131664286Y-99875414D01*
X131664286Y-99875414D02*
X131664286Y-99827795D01*
X131664286Y-99827795D02*
X131711905Y-99732557D01*
X131711905Y-99732557D02*
X131759524Y-99684938D01*
X131759524Y-99684938D02*
X131854762Y-99637319D01*
X131854762Y-99637319D02*
X132045238Y-99637319D01*
X132045238Y-99637319D02*
X132140476Y-99684938D01*
X132140476Y-99684938D02*
X132188095Y-99732557D01*
X132188095Y-99732557D02*
X132235714Y-99827795D01*
X132235714Y-99827795D02*
X132235714Y-99875414D01*
X132235714Y-99875414D02*
X132188095Y-99970652D01*
X132188095Y-99970652D02*
X132140476Y-100018271D01*
X132140476Y-100018271D02*
X132045238Y-100065890D01*
X132045238Y-100065890D02*
X131854762Y-100065890D01*
X131854762Y-100065890D02*
X131759524Y-100113509D01*
X131759524Y-100113509D02*
X131711905Y-100161128D01*
X131711905Y-100161128D02*
X131664286Y-100256366D01*
X131664286Y-100256366D02*
X131664286Y-100446842D01*
X131664286Y-100446842D02*
X131711905Y-100542080D01*
X131711905Y-100542080D02*
X131759524Y-100589700D01*
X131759524Y-100589700D02*
X131854762Y-100637319D01*
X131854762Y-100637319D02*
X132045238Y-100637319D01*
X132045238Y-100637319D02*
X132140476Y-100589700D01*
X132140476Y-100589700D02*
X132188095Y-100542080D01*
X132188095Y-100542080D02*
X132235714Y-100446842D01*
X132235714Y-100446842D02*
X132235714Y-100256366D01*
X132235714Y-100256366D02*
X132188095Y-100161128D01*
X132188095Y-100161128D02*
X132140476Y-100113509D01*
X132140476Y-100113509D02*
X132045238Y-100065890D01*
X86933333Y-74054819D02*
X86600000Y-73578628D01*
X86361905Y-74054819D02*
X86361905Y-73054819D01*
X86361905Y-73054819D02*
X86742857Y-73054819D01*
X86742857Y-73054819D02*
X86838095Y-73102438D01*
X86838095Y-73102438D02*
X86885714Y-73150057D01*
X86885714Y-73150057D02*
X86933333Y-73245295D01*
X86933333Y-73245295D02*
X86933333Y-73388152D01*
X86933333Y-73388152D02*
X86885714Y-73483390D01*
X86885714Y-73483390D02*
X86838095Y-73531009D01*
X86838095Y-73531009D02*
X86742857Y-73578628D01*
X86742857Y-73578628D02*
X86361905Y-73578628D01*
X87885714Y-74054819D02*
X87314286Y-74054819D01*
X87600000Y-74054819D02*
X87600000Y-73054819D01*
X87600000Y-73054819D02*
X87504762Y-73197676D01*
X87504762Y-73197676D02*
X87409524Y-73292914D01*
X87409524Y-73292914D02*
X87314286Y-73340533D01*
X99447142Y-92984819D02*
X99113809Y-92508628D01*
X98875714Y-92984819D02*
X98875714Y-91984819D01*
X98875714Y-91984819D02*
X99256666Y-91984819D01*
X99256666Y-91984819D02*
X99351904Y-92032438D01*
X99351904Y-92032438D02*
X99399523Y-92080057D01*
X99399523Y-92080057D02*
X99447142Y-92175295D01*
X99447142Y-92175295D02*
X99447142Y-92318152D01*
X99447142Y-92318152D02*
X99399523Y-92413390D01*
X99399523Y-92413390D02*
X99351904Y-92461009D01*
X99351904Y-92461009D02*
X99256666Y-92508628D01*
X99256666Y-92508628D02*
X98875714Y-92508628D01*
X99828095Y-92080057D02*
X99875714Y-92032438D01*
X99875714Y-92032438D02*
X99970952Y-91984819D01*
X99970952Y-91984819D02*
X100209047Y-91984819D01*
X100209047Y-91984819D02*
X100304285Y-92032438D01*
X100304285Y-92032438D02*
X100351904Y-92080057D01*
X100351904Y-92080057D02*
X100399523Y-92175295D01*
X100399523Y-92175295D02*
X100399523Y-92270533D01*
X100399523Y-92270533D02*
X100351904Y-92413390D01*
X100351904Y-92413390D02*
X99780476Y-92984819D01*
X99780476Y-92984819D02*
X100399523Y-92984819D01*
X101256666Y-92318152D02*
X101256666Y-92984819D01*
X101018571Y-91937200D02*
X100780476Y-92651485D01*
X100780476Y-92651485D02*
X101399523Y-92651485D01*
X140033333Y-59279819D02*
X139700000Y-58803628D01*
X139461905Y-59279819D02*
X139461905Y-58279819D01*
X139461905Y-58279819D02*
X139842857Y-58279819D01*
X139842857Y-58279819D02*
X139938095Y-58327438D01*
X139938095Y-58327438D02*
X139985714Y-58375057D01*
X139985714Y-58375057D02*
X140033333Y-58470295D01*
X140033333Y-58470295D02*
X140033333Y-58613152D01*
X140033333Y-58613152D02*
X139985714Y-58708390D01*
X139985714Y-58708390D02*
X139938095Y-58756009D01*
X139938095Y-58756009D02*
X139842857Y-58803628D01*
X139842857Y-58803628D02*
X139461905Y-58803628D01*
X140366667Y-58279819D02*
X141033333Y-58279819D01*
X141033333Y-58279819D02*
X140604762Y-59279819D01*
X109857142Y-54254819D02*
X109523809Y-53778628D01*
X109285714Y-54254819D02*
X109285714Y-53254819D01*
X109285714Y-53254819D02*
X109666666Y-53254819D01*
X109666666Y-53254819D02*
X109761904Y-53302438D01*
X109761904Y-53302438D02*
X109809523Y-53350057D01*
X109809523Y-53350057D02*
X109857142Y-53445295D01*
X109857142Y-53445295D02*
X109857142Y-53588152D01*
X109857142Y-53588152D02*
X109809523Y-53683390D01*
X109809523Y-53683390D02*
X109761904Y-53731009D01*
X109761904Y-53731009D02*
X109666666Y-53778628D01*
X109666666Y-53778628D02*
X109285714Y-53778628D01*
X110190476Y-53254819D02*
X110809523Y-53254819D01*
X110809523Y-53254819D02*
X110476190Y-53635771D01*
X110476190Y-53635771D02*
X110619047Y-53635771D01*
X110619047Y-53635771D02*
X110714285Y-53683390D01*
X110714285Y-53683390D02*
X110761904Y-53731009D01*
X110761904Y-53731009D02*
X110809523Y-53826247D01*
X110809523Y-53826247D02*
X110809523Y-54064342D01*
X110809523Y-54064342D02*
X110761904Y-54159580D01*
X110761904Y-54159580D02*
X110714285Y-54207200D01*
X110714285Y-54207200D02*
X110619047Y-54254819D01*
X110619047Y-54254819D02*
X110333333Y-54254819D01*
X110333333Y-54254819D02*
X110238095Y-54207200D01*
X110238095Y-54207200D02*
X110190476Y-54159580D01*
X111285714Y-54254819D02*
X111476190Y-54254819D01*
X111476190Y-54254819D02*
X111571428Y-54207200D01*
X111571428Y-54207200D02*
X111619047Y-54159580D01*
X111619047Y-54159580D02*
X111714285Y-54016723D01*
X111714285Y-54016723D02*
X111761904Y-53826247D01*
X111761904Y-53826247D02*
X111761904Y-53445295D01*
X111761904Y-53445295D02*
X111714285Y-53350057D01*
X111714285Y-53350057D02*
X111666666Y-53302438D01*
X111666666Y-53302438D02*
X111571428Y-53254819D01*
X111571428Y-53254819D02*
X111380952Y-53254819D01*
X111380952Y-53254819D02*
X111285714Y-53302438D01*
X111285714Y-53302438D02*
X111238095Y-53350057D01*
X111238095Y-53350057D02*
X111190476Y-53445295D01*
X111190476Y-53445295D02*
X111190476Y-53683390D01*
X111190476Y-53683390D02*
X111238095Y-53778628D01*
X111238095Y-53778628D02*
X111285714Y-53826247D01*
X111285714Y-53826247D02*
X111380952Y-53873866D01*
X111380952Y-53873866D02*
X111571428Y-53873866D01*
X111571428Y-53873866D02*
X111666666Y-53826247D01*
X111666666Y-53826247D02*
X111714285Y-53778628D01*
X111714285Y-53778628D02*
X111761904Y-53683390D01*
X87827142Y-101469580D02*
X87779523Y-101517200D01*
X87779523Y-101517200D02*
X87636666Y-101564819D01*
X87636666Y-101564819D02*
X87541428Y-101564819D01*
X87541428Y-101564819D02*
X87398571Y-101517200D01*
X87398571Y-101517200D02*
X87303333Y-101421961D01*
X87303333Y-101421961D02*
X87255714Y-101326723D01*
X87255714Y-101326723D02*
X87208095Y-101136247D01*
X87208095Y-101136247D02*
X87208095Y-100993390D01*
X87208095Y-100993390D02*
X87255714Y-100802914D01*
X87255714Y-100802914D02*
X87303333Y-100707676D01*
X87303333Y-100707676D02*
X87398571Y-100612438D01*
X87398571Y-100612438D02*
X87541428Y-100564819D01*
X87541428Y-100564819D02*
X87636666Y-100564819D01*
X87636666Y-100564819D02*
X87779523Y-100612438D01*
X87779523Y-100612438D02*
X87827142Y-100660057D01*
X88160476Y-100564819D02*
X88779523Y-100564819D01*
X88779523Y-100564819D02*
X88446190Y-100945771D01*
X88446190Y-100945771D02*
X88589047Y-100945771D01*
X88589047Y-100945771D02*
X88684285Y-100993390D01*
X88684285Y-100993390D02*
X88731904Y-101041009D01*
X88731904Y-101041009D02*
X88779523Y-101136247D01*
X88779523Y-101136247D02*
X88779523Y-101374342D01*
X88779523Y-101374342D02*
X88731904Y-101469580D01*
X88731904Y-101469580D02*
X88684285Y-101517200D01*
X88684285Y-101517200D02*
X88589047Y-101564819D01*
X88589047Y-101564819D02*
X88303333Y-101564819D01*
X88303333Y-101564819D02*
X88208095Y-101517200D01*
X88208095Y-101517200D02*
X88160476Y-101469580D01*
X89684285Y-100564819D02*
X89208095Y-100564819D01*
X89208095Y-100564819D02*
X89160476Y-101041009D01*
X89160476Y-101041009D02*
X89208095Y-100993390D01*
X89208095Y-100993390D02*
X89303333Y-100945771D01*
X89303333Y-100945771D02*
X89541428Y-100945771D01*
X89541428Y-100945771D02*
X89636666Y-100993390D01*
X89636666Y-100993390D02*
X89684285Y-101041009D01*
X89684285Y-101041009D02*
X89731904Y-101136247D01*
X89731904Y-101136247D02*
X89731904Y-101374342D01*
X89731904Y-101374342D02*
X89684285Y-101469580D01*
X89684285Y-101469580D02*
X89636666Y-101517200D01*
X89636666Y-101517200D02*
X89541428Y-101564819D01*
X89541428Y-101564819D02*
X89303333Y-101564819D01*
X89303333Y-101564819D02*
X89208095Y-101517200D01*
X89208095Y-101517200D02*
X89160476Y-101469580D01*
X124478095Y-90834819D02*
X124478095Y-91644342D01*
X124478095Y-91644342D02*
X124525714Y-91739580D01*
X124525714Y-91739580D02*
X124573333Y-91787200D01*
X124573333Y-91787200D02*
X124668571Y-91834819D01*
X124668571Y-91834819D02*
X124859047Y-91834819D01*
X124859047Y-91834819D02*
X124954285Y-91787200D01*
X124954285Y-91787200D02*
X125001904Y-91739580D01*
X125001904Y-91739580D02*
X125049523Y-91644342D01*
X125049523Y-91644342D02*
X125049523Y-90834819D01*
X125573333Y-91834819D02*
X125763809Y-91834819D01*
X125763809Y-91834819D02*
X125859047Y-91787200D01*
X125859047Y-91787200D02*
X125906666Y-91739580D01*
X125906666Y-91739580D02*
X126001904Y-91596723D01*
X126001904Y-91596723D02*
X126049523Y-91406247D01*
X126049523Y-91406247D02*
X126049523Y-91025295D01*
X126049523Y-91025295D02*
X126001904Y-90930057D01*
X126001904Y-90930057D02*
X125954285Y-90882438D01*
X125954285Y-90882438D02*
X125859047Y-90834819D01*
X125859047Y-90834819D02*
X125668571Y-90834819D01*
X125668571Y-90834819D02*
X125573333Y-90882438D01*
X125573333Y-90882438D02*
X125525714Y-90930057D01*
X125525714Y-90930057D02*
X125478095Y-91025295D01*
X125478095Y-91025295D02*
X125478095Y-91263390D01*
X125478095Y-91263390D02*
X125525714Y-91358628D01*
X125525714Y-91358628D02*
X125573333Y-91406247D01*
X125573333Y-91406247D02*
X125668571Y-91453866D01*
X125668571Y-91453866D02*
X125859047Y-91453866D01*
X125859047Y-91453866D02*
X125954285Y-91406247D01*
X125954285Y-91406247D02*
X126001904Y-91358628D01*
X126001904Y-91358628D02*
X126049523Y-91263390D01*
X127257142Y-53959580D02*
X127209523Y-54007200D01*
X127209523Y-54007200D02*
X127066666Y-54054819D01*
X127066666Y-54054819D02*
X126971428Y-54054819D01*
X126971428Y-54054819D02*
X126828571Y-54007200D01*
X126828571Y-54007200D02*
X126733333Y-53911961D01*
X126733333Y-53911961D02*
X126685714Y-53816723D01*
X126685714Y-53816723D02*
X126638095Y-53626247D01*
X126638095Y-53626247D02*
X126638095Y-53483390D01*
X126638095Y-53483390D02*
X126685714Y-53292914D01*
X126685714Y-53292914D02*
X126733333Y-53197676D01*
X126733333Y-53197676D02*
X126828571Y-53102438D01*
X126828571Y-53102438D02*
X126971428Y-53054819D01*
X126971428Y-53054819D02*
X127066666Y-53054819D01*
X127066666Y-53054819D02*
X127209523Y-53102438D01*
X127209523Y-53102438D02*
X127257142Y-53150057D01*
X128209523Y-54054819D02*
X127638095Y-54054819D01*
X127923809Y-54054819D02*
X127923809Y-53054819D01*
X127923809Y-53054819D02*
X127828571Y-53197676D01*
X127828571Y-53197676D02*
X127733333Y-53292914D01*
X127733333Y-53292914D02*
X127638095Y-53340533D01*
X128828571Y-53054819D02*
X128923809Y-53054819D01*
X128923809Y-53054819D02*
X129019047Y-53102438D01*
X129019047Y-53102438D02*
X129066666Y-53150057D01*
X129066666Y-53150057D02*
X129114285Y-53245295D01*
X129114285Y-53245295D02*
X129161904Y-53435771D01*
X129161904Y-53435771D02*
X129161904Y-53673866D01*
X129161904Y-53673866D02*
X129114285Y-53864342D01*
X129114285Y-53864342D02*
X129066666Y-53959580D01*
X129066666Y-53959580D02*
X129019047Y-54007200D01*
X129019047Y-54007200D02*
X128923809Y-54054819D01*
X128923809Y-54054819D02*
X128828571Y-54054819D01*
X128828571Y-54054819D02*
X128733333Y-54007200D01*
X128733333Y-54007200D02*
X128685714Y-53959580D01*
X128685714Y-53959580D02*
X128638095Y-53864342D01*
X128638095Y-53864342D02*
X128590476Y-53673866D01*
X128590476Y-53673866D02*
X128590476Y-53435771D01*
X128590476Y-53435771D02*
X128638095Y-53245295D01*
X128638095Y-53245295D02*
X128685714Y-53150057D01*
X128685714Y-53150057D02*
X128733333Y-53102438D01*
X128733333Y-53102438D02*
X128828571Y-53054819D01*
X87632142Y-76559580D02*
X87584523Y-76607200D01*
X87584523Y-76607200D02*
X87441666Y-76654819D01*
X87441666Y-76654819D02*
X87346428Y-76654819D01*
X87346428Y-76654819D02*
X87203571Y-76607200D01*
X87203571Y-76607200D02*
X87108333Y-76511961D01*
X87108333Y-76511961D02*
X87060714Y-76416723D01*
X87060714Y-76416723D02*
X87013095Y-76226247D01*
X87013095Y-76226247D02*
X87013095Y-76083390D01*
X87013095Y-76083390D02*
X87060714Y-75892914D01*
X87060714Y-75892914D02*
X87108333Y-75797676D01*
X87108333Y-75797676D02*
X87203571Y-75702438D01*
X87203571Y-75702438D02*
X87346428Y-75654819D01*
X87346428Y-75654819D02*
X87441666Y-75654819D01*
X87441666Y-75654819D02*
X87584523Y-75702438D01*
X87584523Y-75702438D02*
X87632142Y-75750057D01*
X88013095Y-75750057D02*
X88060714Y-75702438D01*
X88060714Y-75702438D02*
X88155952Y-75654819D01*
X88155952Y-75654819D02*
X88394047Y-75654819D01*
X88394047Y-75654819D02*
X88489285Y-75702438D01*
X88489285Y-75702438D02*
X88536904Y-75750057D01*
X88536904Y-75750057D02*
X88584523Y-75845295D01*
X88584523Y-75845295D02*
X88584523Y-75940533D01*
X88584523Y-75940533D02*
X88536904Y-76083390D01*
X88536904Y-76083390D02*
X87965476Y-76654819D01*
X87965476Y-76654819D02*
X88584523Y-76654819D01*
X89060714Y-76654819D02*
X89251190Y-76654819D01*
X89251190Y-76654819D02*
X89346428Y-76607200D01*
X89346428Y-76607200D02*
X89394047Y-76559580D01*
X89394047Y-76559580D02*
X89489285Y-76416723D01*
X89489285Y-76416723D02*
X89536904Y-76226247D01*
X89536904Y-76226247D02*
X89536904Y-75845295D01*
X89536904Y-75845295D02*
X89489285Y-75750057D01*
X89489285Y-75750057D02*
X89441666Y-75702438D01*
X89441666Y-75702438D02*
X89346428Y-75654819D01*
X89346428Y-75654819D02*
X89155952Y-75654819D01*
X89155952Y-75654819D02*
X89060714Y-75702438D01*
X89060714Y-75702438D02*
X89013095Y-75750057D01*
X89013095Y-75750057D02*
X88965476Y-75845295D01*
X88965476Y-75845295D02*
X88965476Y-76083390D01*
X88965476Y-76083390D02*
X89013095Y-76178628D01*
X89013095Y-76178628D02*
X89060714Y-76226247D01*
X89060714Y-76226247D02*
X89155952Y-76273866D01*
X89155952Y-76273866D02*
X89346428Y-76273866D01*
X89346428Y-76273866D02*
X89441666Y-76226247D01*
X89441666Y-76226247D02*
X89489285Y-76178628D01*
X89489285Y-76178628D02*
X89536904Y-76083390D01*
X106957142Y-92164819D02*
X106623809Y-91688628D01*
X106385714Y-92164819D02*
X106385714Y-91164819D01*
X106385714Y-91164819D02*
X106766666Y-91164819D01*
X106766666Y-91164819D02*
X106861904Y-91212438D01*
X106861904Y-91212438D02*
X106909523Y-91260057D01*
X106909523Y-91260057D02*
X106957142Y-91355295D01*
X106957142Y-91355295D02*
X106957142Y-91498152D01*
X106957142Y-91498152D02*
X106909523Y-91593390D01*
X106909523Y-91593390D02*
X106861904Y-91641009D01*
X106861904Y-91641009D02*
X106766666Y-91688628D01*
X106766666Y-91688628D02*
X106385714Y-91688628D01*
X107909523Y-92164819D02*
X107338095Y-92164819D01*
X107623809Y-92164819D02*
X107623809Y-91164819D01*
X107623809Y-91164819D02*
X107528571Y-91307676D01*
X107528571Y-91307676D02*
X107433333Y-91402914D01*
X107433333Y-91402914D02*
X107338095Y-91450533D01*
X108528571Y-91164819D02*
X108623809Y-91164819D01*
X108623809Y-91164819D02*
X108719047Y-91212438D01*
X108719047Y-91212438D02*
X108766666Y-91260057D01*
X108766666Y-91260057D02*
X108814285Y-91355295D01*
X108814285Y-91355295D02*
X108861904Y-91545771D01*
X108861904Y-91545771D02*
X108861904Y-91783866D01*
X108861904Y-91783866D02*
X108814285Y-91974342D01*
X108814285Y-91974342D02*
X108766666Y-92069580D01*
X108766666Y-92069580D02*
X108719047Y-92117200D01*
X108719047Y-92117200D02*
X108623809Y-92164819D01*
X108623809Y-92164819D02*
X108528571Y-92164819D01*
X108528571Y-92164819D02*
X108433333Y-92117200D01*
X108433333Y-92117200D02*
X108385714Y-92069580D01*
X108385714Y-92069580D02*
X108338095Y-91974342D01*
X108338095Y-91974342D02*
X108290476Y-91783866D01*
X108290476Y-91783866D02*
X108290476Y-91545771D01*
X108290476Y-91545771D02*
X108338095Y-91355295D01*
X108338095Y-91355295D02*
X108385714Y-91260057D01*
X108385714Y-91260057D02*
X108433333Y-91212438D01*
X108433333Y-91212438D02*
X108528571Y-91164819D01*
X130457142Y-81434819D02*
X130123809Y-80958628D01*
X129885714Y-81434819D02*
X129885714Y-80434819D01*
X129885714Y-80434819D02*
X130266666Y-80434819D01*
X130266666Y-80434819D02*
X130361904Y-80482438D01*
X130361904Y-80482438D02*
X130409523Y-80530057D01*
X130409523Y-80530057D02*
X130457142Y-80625295D01*
X130457142Y-80625295D02*
X130457142Y-80768152D01*
X130457142Y-80768152D02*
X130409523Y-80863390D01*
X130409523Y-80863390D02*
X130361904Y-80911009D01*
X130361904Y-80911009D02*
X130266666Y-80958628D01*
X130266666Y-80958628D02*
X129885714Y-80958628D01*
X131409523Y-81434819D02*
X130838095Y-81434819D01*
X131123809Y-81434819D02*
X131123809Y-80434819D01*
X131123809Y-80434819D02*
X131028571Y-80577676D01*
X131028571Y-80577676D02*
X130933333Y-80672914D01*
X130933333Y-80672914D02*
X130838095Y-80720533D01*
X131980952Y-80863390D02*
X131885714Y-80815771D01*
X131885714Y-80815771D02*
X131838095Y-80768152D01*
X131838095Y-80768152D02*
X131790476Y-80672914D01*
X131790476Y-80672914D02*
X131790476Y-80625295D01*
X131790476Y-80625295D02*
X131838095Y-80530057D01*
X131838095Y-80530057D02*
X131885714Y-80482438D01*
X131885714Y-80482438D02*
X131980952Y-80434819D01*
X131980952Y-80434819D02*
X132171428Y-80434819D01*
X132171428Y-80434819D02*
X132266666Y-80482438D01*
X132266666Y-80482438D02*
X132314285Y-80530057D01*
X132314285Y-80530057D02*
X132361904Y-80625295D01*
X132361904Y-80625295D02*
X132361904Y-80672914D01*
X132361904Y-80672914D02*
X132314285Y-80768152D01*
X132314285Y-80768152D02*
X132266666Y-80815771D01*
X132266666Y-80815771D02*
X132171428Y-80863390D01*
X132171428Y-80863390D02*
X131980952Y-80863390D01*
X131980952Y-80863390D02*
X131885714Y-80911009D01*
X131885714Y-80911009D02*
X131838095Y-80958628D01*
X131838095Y-80958628D02*
X131790476Y-81053866D01*
X131790476Y-81053866D02*
X131790476Y-81244342D01*
X131790476Y-81244342D02*
X131838095Y-81339580D01*
X131838095Y-81339580D02*
X131885714Y-81387200D01*
X131885714Y-81387200D02*
X131980952Y-81434819D01*
X131980952Y-81434819D02*
X132171428Y-81434819D01*
X132171428Y-81434819D02*
X132266666Y-81387200D01*
X132266666Y-81387200D02*
X132314285Y-81339580D01*
X132314285Y-81339580D02*
X132361904Y-81244342D01*
X132361904Y-81244342D02*
X132361904Y-81053866D01*
X132361904Y-81053866D02*
X132314285Y-80958628D01*
X132314285Y-80958628D02*
X132266666Y-80911009D01*
X132266666Y-80911009D02*
X132171428Y-80863390D01*
X123698095Y-82394819D02*
X123698095Y-83204342D01*
X123698095Y-83204342D02*
X123745714Y-83299580D01*
X123745714Y-83299580D02*
X123793333Y-83347200D01*
X123793333Y-83347200D02*
X123888571Y-83394819D01*
X123888571Y-83394819D02*
X124079047Y-83394819D01*
X124079047Y-83394819D02*
X124174285Y-83347200D01*
X124174285Y-83347200D02*
X124221904Y-83299580D01*
X124221904Y-83299580D02*
X124269523Y-83204342D01*
X124269523Y-83204342D02*
X124269523Y-82394819D01*
X124650476Y-82394819D02*
X125269523Y-82394819D01*
X125269523Y-82394819D02*
X124936190Y-82775771D01*
X124936190Y-82775771D02*
X125079047Y-82775771D01*
X125079047Y-82775771D02*
X125174285Y-82823390D01*
X125174285Y-82823390D02*
X125221904Y-82871009D01*
X125221904Y-82871009D02*
X125269523Y-82966247D01*
X125269523Y-82966247D02*
X125269523Y-83204342D01*
X125269523Y-83204342D02*
X125221904Y-83299580D01*
X125221904Y-83299580D02*
X125174285Y-83347200D01*
X125174285Y-83347200D02*
X125079047Y-83394819D01*
X125079047Y-83394819D02*
X124793333Y-83394819D01*
X124793333Y-83394819D02*
X124698095Y-83347200D01*
X124698095Y-83347200D02*
X124650476Y-83299580D01*
X138249580Y-88832857D02*
X138297200Y-88880476D01*
X138297200Y-88880476D02*
X138344819Y-89023333D01*
X138344819Y-89023333D02*
X138344819Y-89118571D01*
X138344819Y-89118571D02*
X138297200Y-89261428D01*
X138297200Y-89261428D02*
X138201961Y-89356666D01*
X138201961Y-89356666D02*
X138106723Y-89404285D01*
X138106723Y-89404285D02*
X137916247Y-89451904D01*
X137916247Y-89451904D02*
X137773390Y-89451904D01*
X137773390Y-89451904D02*
X137582914Y-89404285D01*
X137582914Y-89404285D02*
X137487676Y-89356666D01*
X137487676Y-89356666D02*
X137392438Y-89261428D01*
X137392438Y-89261428D02*
X137344819Y-89118571D01*
X137344819Y-89118571D02*
X137344819Y-89023333D01*
X137344819Y-89023333D02*
X137392438Y-88880476D01*
X137392438Y-88880476D02*
X137440057Y-88832857D01*
X137440057Y-88451904D02*
X137392438Y-88404285D01*
X137392438Y-88404285D02*
X137344819Y-88309047D01*
X137344819Y-88309047D02*
X137344819Y-88070952D01*
X137344819Y-88070952D02*
X137392438Y-87975714D01*
X137392438Y-87975714D02*
X137440057Y-87928095D01*
X137440057Y-87928095D02*
X137535295Y-87880476D01*
X137535295Y-87880476D02*
X137630533Y-87880476D01*
X137630533Y-87880476D02*
X137773390Y-87928095D01*
X137773390Y-87928095D02*
X138344819Y-88499523D01*
X138344819Y-88499523D02*
X138344819Y-87880476D01*
X137440057Y-87499523D02*
X137392438Y-87451904D01*
X137392438Y-87451904D02*
X137344819Y-87356666D01*
X137344819Y-87356666D02*
X137344819Y-87118571D01*
X137344819Y-87118571D02*
X137392438Y-87023333D01*
X137392438Y-87023333D02*
X137440057Y-86975714D01*
X137440057Y-86975714D02*
X137535295Y-86928095D01*
X137535295Y-86928095D02*
X137630533Y-86928095D01*
X137630533Y-86928095D02*
X137773390Y-86975714D01*
X137773390Y-86975714D02*
X138344819Y-87547142D01*
X138344819Y-87547142D02*
X138344819Y-86928095D01*
X147907142Y-98109580D02*
X147859523Y-98157200D01*
X147859523Y-98157200D02*
X147716666Y-98204819D01*
X147716666Y-98204819D02*
X147621428Y-98204819D01*
X147621428Y-98204819D02*
X147478571Y-98157200D01*
X147478571Y-98157200D02*
X147383333Y-98061961D01*
X147383333Y-98061961D02*
X147335714Y-97966723D01*
X147335714Y-97966723D02*
X147288095Y-97776247D01*
X147288095Y-97776247D02*
X147288095Y-97633390D01*
X147288095Y-97633390D02*
X147335714Y-97442914D01*
X147335714Y-97442914D02*
X147383333Y-97347676D01*
X147383333Y-97347676D02*
X147478571Y-97252438D01*
X147478571Y-97252438D02*
X147621428Y-97204819D01*
X147621428Y-97204819D02*
X147716666Y-97204819D01*
X147716666Y-97204819D02*
X147859523Y-97252438D01*
X147859523Y-97252438D02*
X147907142Y-97300057D01*
X148859523Y-98204819D02*
X148288095Y-98204819D01*
X148573809Y-98204819D02*
X148573809Y-97204819D01*
X148573809Y-97204819D02*
X148478571Y-97347676D01*
X148478571Y-97347676D02*
X148383333Y-97442914D01*
X148383333Y-97442914D02*
X148288095Y-97490533D01*
X149716666Y-97538152D02*
X149716666Y-98204819D01*
X149478571Y-97157200D02*
X149240476Y-97871485D01*
X149240476Y-97871485D02*
X149859523Y-97871485D01*
X126683333Y-74059580D02*
X126635714Y-74107200D01*
X126635714Y-74107200D02*
X126492857Y-74154819D01*
X126492857Y-74154819D02*
X126397619Y-74154819D01*
X126397619Y-74154819D02*
X126254762Y-74107200D01*
X126254762Y-74107200D02*
X126159524Y-74011961D01*
X126159524Y-74011961D02*
X126111905Y-73916723D01*
X126111905Y-73916723D02*
X126064286Y-73726247D01*
X126064286Y-73726247D02*
X126064286Y-73583390D01*
X126064286Y-73583390D02*
X126111905Y-73392914D01*
X126111905Y-73392914D02*
X126159524Y-73297676D01*
X126159524Y-73297676D02*
X126254762Y-73202438D01*
X126254762Y-73202438D02*
X126397619Y-73154819D01*
X126397619Y-73154819D02*
X126492857Y-73154819D01*
X126492857Y-73154819D02*
X126635714Y-73202438D01*
X126635714Y-73202438D02*
X126683333Y-73250057D01*
X127016667Y-73154819D02*
X127635714Y-73154819D01*
X127635714Y-73154819D02*
X127302381Y-73535771D01*
X127302381Y-73535771D02*
X127445238Y-73535771D01*
X127445238Y-73535771D02*
X127540476Y-73583390D01*
X127540476Y-73583390D02*
X127588095Y-73631009D01*
X127588095Y-73631009D02*
X127635714Y-73726247D01*
X127635714Y-73726247D02*
X127635714Y-73964342D01*
X127635714Y-73964342D02*
X127588095Y-74059580D01*
X127588095Y-74059580D02*
X127540476Y-74107200D01*
X127540476Y-74107200D02*
X127445238Y-74154819D01*
X127445238Y-74154819D02*
X127159524Y-74154819D01*
X127159524Y-74154819D02*
X127064286Y-74107200D01*
X127064286Y-74107200D02*
X127016667Y-74059580D01*
X99309580Y-69492857D02*
X99357200Y-69540476D01*
X99357200Y-69540476D02*
X99404819Y-69683333D01*
X99404819Y-69683333D02*
X99404819Y-69778571D01*
X99404819Y-69778571D02*
X99357200Y-69921428D01*
X99357200Y-69921428D02*
X99261961Y-70016666D01*
X99261961Y-70016666D02*
X99166723Y-70064285D01*
X99166723Y-70064285D02*
X98976247Y-70111904D01*
X98976247Y-70111904D02*
X98833390Y-70111904D01*
X98833390Y-70111904D02*
X98642914Y-70064285D01*
X98642914Y-70064285D02*
X98547676Y-70016666D01*
X98547676Y-70016666D02*
X98452438Y-69921428D01*
X98452438Y-69921428D02*
X98404819Y-69778571D01*
X98404819Y-69778571D02*
X98404819Y-69683333D01*
X98404819Y-69683333D02*
X98452438Y-69540476D01*
X98452438Y-69540476D02*
X98500057Y-69492857D01*
X99404819Y-68540476D02*
X99404819Y-69111904D01*
X99404819Y-68826190D02*
X98404819Y-68826190D01*
X98404819Y-68826190D02*
X98547676Y-68921428D01*
X98547676Y-68921428D02*
X98642914Y-69016666D01*
X98642914Y-69016666D02*
X98690533Y-69111904D01*
X98404819Y-68207142D02*
X98404819Y-67540476D01*
X98404819Y-67540476D02*
X99404819Y-67969047D01*
X122483333Y-76284819D02*
X122150000Y-75808628D01*
X121911905Y-76284819D02*
X121911905Y-75284819D01*
X121911905Y-75284819D02*
X122292857Y-75284819D01*
X122292857Y-75284819D02*
X122388095Y-75332438D01*
X122388095Y-75332438D02*
X122435714Y-75380057D01*
X122435714Y-75380057D02*
X122483333Y-75475295D01*
X122483333Y-75475295D02*
X122483333Y-75618152D01*
X122483333Y-75618152D02*
X122435714Y-75713390D01*
X122435714Y-75713390D02*
X122388095Y-75761009D01*
X122388095Y-75761009D02*
X122292857Y-75808628D01*
X122292857Y-75808628D02*
X121911905Y-75808628D01*
X123340476Y-75284819D02*
X123150000Y-75284819D01*
X123150000Y-75284819D02*
X123054762Y-75332438D01*
X123054762Y-75332438D02*
X123007143Y-75380057D01*
X123007143Y-75380057D02*
X122911905Y-75522914D01*
X122911905Y-75522914D02*
X122864286Y-75713390D01*
X122864286Y-75713390D02*
X122864286Y-76094342D01*
X122864286Y-76094342D02*
X122911905Y-76189580D01*
X122911905Y-76189580D02*
X122959524Y-76237200D01*
X122959524Y-76237200D02*
X123054762Y-76284819D01*
X123054762Y-76284819D02*
X123245238Y-76284819D01*
X123245238Y-76284819D02*
X123340476Y-76237200D01*
X123340476Y-76237200D02*
X123388095Y-76189580D01*
X123388095Y-76189580D02*
X123435714Y-76094342D01*
X123435714Y-76094342D02*
X123435714Y-75856247D01*
X123435714Y-75856247D02*
X123388095Y-75761009D01*
X123388095Y-75761009D02*
X123340476Y-75713390D01*
X123340476Y-75713390D02*
X123245238Y-75665771D01*
X123245238Y-75665771D02*
X123054762Y-75665771D01*
X123054762Y-75665771D02*
X122959524Y-75713390D01*
X122959524Y-75713390D02*
X122911905Y-75761009D01*
X122911905Y-75761009D02*
X122864286Y-75856247D01*
X138237080Y-93442857D02*
X138284700Y-93490476D01*
X138284700Y-93490476D02*
X138332319Y-93633333D01*
X138332319Y-93633333D02*
X138332319Y-93728571D01*
X138332319Y-93728571D02*
X138284700Y-93871428D01*
X138284700Y-93871428D02*
X138189461Y-93966666D01*
X138189461Y-93966666D02*
X138094223Y-94014285D01*
X138094223Y-94014285D02*
X137903747Y-94061904D01*
X137903747Y-94061904D02*
X137760890Y-94061904D01*
X137760890Y-94061904D02*
X137570414Y-94014285D01*
X137570414Y-94014285D02*
X137475176Y-93966666D01*
X137475176Y-93966666D02*
X137379938Y-93871428D01*
X137379938Y-93871428D02*
X137332319Y-93728571D01*
X137332319Y-93728571D02*
X137332319Y-93633333D01*
X137332319Y-93633333D02*
X137379938Y-93490476D01*
X137379938Y-93490476D02*
X137427557Y-93442857D01*
X137427557Y-93061904D02*
X137379938Y-93014285D01*
X137379938Y-93014285D02*
X137332319Y-92919047D01*
X137332319Y-92919047D02*
X137332319Y-92680952D01*
X137332319Y-92680952D02*
X137379938Y-92585714D01*
X137379938Y-92585714D02*
X137427557Y-92538095D01*
X137427557Y-92538095D02*
X137522795Y-92490476D01*
X137522795Y-92490476D02*
X137618033Y-92490476D01*
X137618033Y-92490476D02*
X137760890Y-92538095D01*
X137760890Y-92538095D02*
X138332319Y-93109523D01*
X138332319Y-93109523D02*
X138332319Y-92490476D01*
X138332319Y-91538095D02*
X138332319Y-92109523D01*
X138332319Y-91823809D02*
X137332319Y-91823809D01*
X137332319Y-91823809D02*
X137475176Y-91919047D01*
X137475176Y-91919047D02*
X137570414Y-92014285D01*
X137570414Y-92014285D02*
X137618033Y-92109523D01*
X113284819Y-82906666D02*
X112808628Y-83239999D01*
X113284819Y-83478094D02*
X112284819Y-83478094D01*
X112284819Y-83478094D02*
X112284819Y-83097142D01*
X112284819Y-83097142D02*
X112332438Y-83001904D01*
X112332438Y-83001904D02*
X112380057Y-82954285D01*
X112380057Y-82954285D02*
X112475295Y-82906666D01*
X112475295Y-82906666D02*
X112618152Y-82906666D01*
X112618152Y-82906666D02*
X112713390Y-82954285D01*
X112713390Y-82954285D02*
X112761009Y-83001904D01*
X112761009Y-83001904D02*
X112808628Y-83097142D01*
X112808628Y-83097142D02*
X112808628Y-83478094D01*
X112618152Y-82049523D02*
X113284819Y-82049523D01*
X112237200Y-82287618D02*
X112951485Y-82525713D01*
X112951485Y-82525713D02*
X112951485Y-81906666D01*
X91496666Y-105924819D02*
X91496666Y-106639104D01*
X91496666Y-106639104D02*
X91449047Y-106781961D01*
X91449047Y-106781961D02*
X91353809Y-106877200D01*
X91353809Y-106877200D02*
X91210952Y-106924819D01*
X91210952Y-106924819D02*
X91115714Y-106924819D01*
X91925238Y-106020057D02*
X91972857Y-105972438D01*
X91972857Y-105972438D02*
X92068095Y-105924819D01*
X92068095Y-105924819D02*
X92306190Y-105924819D01*
X92306190Y-105924819D02*
X92401428Y-105972438D01*
X92401428Y-105972438D02*
X92449047Y-106020057D01*
X92449047Y-106020057D02*
X92496666Y-106115295D01*
X92496666Y-106115295D02*
X92496666Y-106210533D01*
X92496666Y-106210533D02*
X92449047Y-106353390D01*
X92449047Y-106353390D02*
X91877619Y-106924819D01*
X91877619Y-106924819D02*
X92496666Y-106924819D01*
X109657142Y-70424819D02*
X109323809Y-69948628D01*
X109085714Y-70424819D02*
X109085714Y-69424819D01*
X109085714Y-69424819D02*
X109466666Y-69424819D01*
X109466666Y-69424819D02*
X109561904Y-69472438D01*
X109561904Y-69472438D02*
X109609523Y-69520057D01*
X109609523Y-69520057D02*
X109657142Y-69615295D01*
X109657142Y-69615295D02*
X109657142Y-69758152D01*
X109657142Y-69758152D02*
X109609523Y-69853390D01*
X109609523Y-69853390D02*
X109561904Y-69901009D01*
X109561904Y-69901009D02*
X109466666Y-69948628D01*
X109466666Y-69948628D02*
X109085714Y-69948628D01*
X110038095Y-69520057D02*
X110085714Y-69472438D01*
X110085714Y-69472438D02*
X110180952Y-69424819D01*
X110180952Y-69424819D02*
X110419047Y-69424819D01*
X110419047Y-69424819D02*
X110514285Y-69472438D01*
X110514285Y-69472438D02*
X110561904Y-69520057D01*
X110561904Y-69520057D02*
X110609523Y-69615295D01*
X110609523Y-69615295D02*
X110609523Y-69710533D01*
X110609523Y-69710533D02*
X110561904Y-69853390D01*
X110561904Y-69853390D02*
X109990476Y-70424819D01*
X109990476Y-70424819D02*
X110609523Y-70424819D01*
X111180952Y-69853390D02*
X111085714Y-69805771D01*
X111085714Y-69805771D02*
X111038095Y-69758152D01*
X111038095Y-69758152D02*
X110990476Y-69662914D01*
X110990476Y-69662914D02*
X110990476Y-69615295D01*
X110990476Y-69615295D02*
X111038095Y-69520057D01*
X111038095Y-69520057D02*
X111085714Y-69472438D01*
X111085714Y-69472438D02*
X111180952Y-69424819D01*
X111180952Y-69424819D02*
X111371428Y-69424819D01*
X111371428Y-69424819D02*
X111466666Y-69472438D01*
X111466666Y-69472438D02*
X111514285Y-69520057D01*
X111514285Y-69520057D02*
X111561904Y-69615295D01*
X111561904Y-69615295D02*
X111561904Y-69662914D01*
X111561904Y-69662914D02*
X111514285Y-69758152D01*
X111514285Y-69758152D02*
X111466666Y-69805771D01*
X111466666Y-69805771D02*
X111371428Y-69853390D01*
X111371428Y-69853390D02*
X111180952Y-69853390D01*
X111180952Y-69853390D02*
X111085714Y-69901009D01*
X111085714Y-69901009D02*
X111038095Y-69948628D01*
X111038095Y-69948628D02*
X110990476Y-70043866D01*
X110990476Y-70043866D02*
X110990476Y-70234342D01*
X110990476Y-70234342D02*
X111038095Y-70329580D01*
X111038095Y-70329580D02*
X111085714Y-70377200D01*
X111085714Y-70377200D02*
X111180952Y-70424819D01*
X111180952Y-70424819D02*
X111371428Y-70424819D01*
X111371428Y-70424819D02*
X111466666Y-70377200D01*
X111466666Y-70377200D02*
X111514285Y-70329580D01*
X111514285Y-70329580D02*
X111561904Y-70234342D01*
X111561904Y-70234342D02*
X111561904Y-70043866D01*
X111561904Y-70043866D02*
X111514285Y-69948628D01*
X111514285Y-69948628D02*
X111466666Y-69901009D01*
X111466666Y-69901009D02*
X111371428Y-69853390D01*
X87827142Y-99739580D02*
X87779523Y-99787200D01*
X87779523Y-99787200D02*
X87636666Y-99834819D01*
X87636666Y-99834819D02*
X87541428Y-99834819D01*
X87541428Y-99834819D02*
X87398571Y-99787200D01*
X87398571Y-99787200D02*
X87303333Y-99691961D01*
X87303333Y-99691961D02*
X87255714Y-99596723D01*
X87255714Y-99596723D02*
X87208095Y-99406247D01*
X87208095Y-99406247D02*
X87208095Y-99263390D01*
X87208095Y-99263390D02*
X87255714Y-99072914D01*
X87255714Y-99072914D02*
X87303333Y-98977676D01*
X87303333Y-98977676D02*
X87398571Y-98882438D01*
X87398571Y-98882438D02*
X87541428Y-98834819D01*
X87541428Y-98834819D02*
X87636666Y-98834819D01*
X87636666Y-98834819D02*
X87779523Y-98882438D01*
X87779523Y-98882438D02*
X87827142Y-98930057D01*
X88160476Y-98834819D02*
X88779523Y-98834819D01*
X88779523Y-98834819D02*
X88446190Y-99215771D01*
X88446190Y-99215771D02*
X88589047Y-99215771D01*
X88589047Y-99215771D02*
X88684285Y-99263390D01*
X88684285Y-99263390D02*
X88731904Y-99311009D01*
X88731904Y-99311009D02*
X88779523Y-99406247D01*
X88779523Y-99406247D02*
X88779523Y-99644342D01*
X88779523Y-99644342D02*
X88731904Y-99739580D01*
X88731904Y-99739580D02*
X88684285Y-99787200D01*
X88684285Y-99787200D02*
X88589047Y-99834819D01*
X88589047Y-99834819D02*
X88303333Y-99834819D01*
X88303333Y-99834819D02*
X88208095Y-99787200D01*
X88208095Y-99787200D02*
X88160476Y-99739580D01*
X89636666Y-99168152D02*
X89636666Y-99834819D01*
X89398571Y-98787200D02*
X89160476Y-99501485D01*
X89160476Y-99501485D02*
X89779523Y-99501485D01*
X97838095Y-65554819D02*
X97838095Y-66364342D01*
X97838095Y-66364342D02*
X97885714Y-66459580D01*
X97885714Y-66459580D02*
X97933333Y-66507200D01*
X97933333Y-66507200D02*
X98028571Y-66554819D01*
X98028571Y-66554819D02*
X98219047Y-66554819D01*
X98219047Y-66554819D02*
X98314285Y-66507200D01*
X98314285Y-66507200D02*
X98361904Y-66459580D01*
X98361904Y-66459580D02*
X98409523Y-66364342D01*
X98409523Y-66364342D02*
X98409523Y-65554819D01*
X99314285Y-65888152D02*
X99314285Y-66554819D01*
X99076190Y-65507200D02*
X98838095Y-66221485D01*
X98838095Y-66221485D02*
X99457142Y-66221485D01*
X84983333Y-85059580D02*
X84935714Y-85107200D01*
X84935714Y-85107200D02*
X84792857Y-85154819D01*
X84792857Y-85154819D02*
X84697619Y-85154819D01*
X84697619Y-85154819D02*
X84554762Y-85107200D01*
X84554762Y-85107200D02*
X84459524Y-85011961D01*
X84459524Y-85011961D02*
X84411905Y-84916723D01*
X84411905Y-84916723D02*
X84364286Y-84726247D01*
X84364286Y-84726247D02*
X84364286Y-84583390D01*
X84364286Y-84583390D02*
X84411905Y-84392914D01*
X84411905Y-84392914D02*
X84459524Y-84297676D01*
X84459524Y-84297676D02*
X84554762Y-84202438D01*
X84554762Y-84202438D02*
X84697619Y-84154819D01*
X84697619Y-84154819D02*
X84792857Y-84154819D01*
X84792857Y-84154819D02*
X84935714Y-84202438D01*
X84935714Y-84202438D02*
X84983333Y-84250057D01*
X85459524Y-85154819D02*
X85650000Y-85154819D01*
X85650000Y-85154819D02*
X85745238Y-85107200D01*
X85745238Y-85107200D02*
X85792857Y-85059580D01*
X85792857Y-85059580D02*
X85888095Y-84916723D01*
X85888095Y-84916723D02*
X85935714Y-84726247D01*
X85935714Y-84726247D02*
X85935714Y-84345295D01*
X85935714Y-84345295D02*
X85888095Y-84250057D01*
X85888095Y-84250057D02*
X85840476Y-84202438D01*
X85840476Y-84202438D02*
X85745238Y-84154819D01*
X85745238Y-84154819D02*
X85554762Y-84154819D01*
X85554762Y-84154819D02*
X85459524Y-84202438D01*
X85459524Y-84202438D02*
X85411905Y-84250057D01*
X85411905Y-84250057D02*
X85364286Y-84345295D01*
X85364286Y-84345295D02*
X85364286Y-84583390D01*
X85364286Y-84583390D02*
X85411905Y-84678628D01*
X85411905Y-84678628D02*
X85459524Y-84726247D01*
X85459524Y-84726247D02*
X85554762Y-84773866D01*
X85554762Y-84773866D02*
X85745238Y-84773866D01*
X85745238Y-84773866D02*
X85840476Y-84726247D01*
X85840476Y-84726247D02*
X85888095Y-84678628D01*
X85888095Y-84678628D02*
X85935714Y-84583390D01*
X115184819Y-82942857D02*
X114708628Y-83276190D01*
X115184819Y-83514285D02*
X114184819Y-83514285D01*
X114184819Y-83514285D02*
X114184819Y-83133333D01*
X114184819Y-83133333D02*
X114232438Y-83038095D01*
X114232438Y-83038095D02*
X114280057Y-82990476D01*
X114280057Y-82990476D02*
X114375295Y-82942857D01*
X114375295Y-82942857D02*
X114518152Y-82942857D01*
X114518152Y-82942857D02*
X114613390Y-82990476D01*
X114613390Y-82990476D02*
X114661009Y-83038095D01*
X114661009Y-83038095D02*
X114708628Y-83133333D01*
X114708628Y-83133333D02*
X114708628Y-83514285D01*
X114184819Y-82609523D02*
X114184819Y-81990476D01*
X114184819Y-81990476D02*
X114565771Y-82323809D01*
X114565771Y-82323809D02*
X114565771Y-82180952D01*
X114565771Y-82180952D02*
X114613390Y-82085714D01*
X114613390Y-82085714D02*
X114661009Y-82038095D01*
X114661009Y-82038095D02*
X114756247Y-81990476D01*
X114756247Y-81990476D02*
X114994342Y-81990476D01*
X114994342Y-81990476D02*
X115089580Y-82038095D01*
X115089580Y-82038095D02*
X115137200Y-82085714D01*
X115137200Y-82085714D02*
X115184819Y-82180952D01*
X115184819Y-82180952D02*
X115184819Y-82466666D01*
X115184819Y-82466666D02*
X115137200Y-82561904D01*
X115137200Y-82561904D02*
X115089580Y-82609523D01*
X114184819Y-81085714D02*
X114184819Y-81561904D01*
X114184819Y-81561904D02*
X114661009Y-81609523D01*
X114661009Y-81609523D02*
X114613390Y-81561904D01*
X114613390Y-81561904D02*
X114565771Y-81466666D01*
X114565771Y-81466666D02*
X114565771Y-81228571D01*
X114565771Y-81228571D02*
X114613390Y-81133333D01*
X114613390Y-81133333D02*
X114661009Y-81085714D01*
X114661009Y-81085714D02*
X114756247Y-81038095D01*
X114756247Y-81038095D02*
X114994342Y-81038095D01*
X114994342Y-81038095D02*
X115089580Y-81085714D01*
X115089580Y-81085714D02*
X115137200Y-81133333D01*
X115137200Y-81133333D02*
X115184819Y-81228571D01*
X115184819Y-81228571D02*
X115184819Y-81466666D01*
X115184819Y-81466666D02*
X115137200Y-81561904D01*
X115137200Y-81561904D02*
X115089580Y-81609523D01*
X87036009Y-84645833D02*
X87036009Y-84979166D01*
X87559819Y-84979166D02*
X86559819Y-84979166D01*
X86559819Y-84979166D02*
X86559819Y-84502976D01*
X87036009Y-83788690D02*
X87083628Y-83645833D01*
X87083628Y-83645833D02*
X87131247Y-83598214D01*
X87131247Y-83598214D02*
X87226485Y-83550595D01*
X87226485Y-83550595D02*
X87369342Y-83550595D01*
X87369342Y-83550595D02*
X87464580Y-83598214D01*
X87464580Y-83598214D02*
X87512200Y-83645833D01*
X87512200Y-83645833D02*
X87559819Y-83741071D01*
X87559819Y-83741071D02*
X87559819Y-84122023D01*
X87559819Y-84122023D02*
X86559819Y-84122023D01*
X86559819Y-84122023D02*
X86559819Y-83788690D01*
X86559819Y-83788690D02*
X86607438Y-83693452D01*
X86607438Y-83693452D02*
X86655057Y-83645833D01*
X86655057Y-83645833D02*
X86750295Y-83598214D01*
X86750295Y-83598214D02*
X86845533Y-83598214D01*
X86845533Y-83598214D02*
X86940771Y-83645833D01*
X86940771Y-83645833D02*
X86988390Y-83693452D01*
X86988390Y-83693452D02*
X87036009Y-83788690D01*
X87036009Y-83788690D02*
X87036009Y-84122023D01*
X87559819Y-82598214D02*
X87559819Y-83169642D01*
X87559819Y-82883928D02*
X86559819Y-82883928D01*
X86559819Y-82883928D02*
X86702676Y-82979166D01*
X86702676Y-82979166D02*
X86797914Y-83074404D01*
X86797914Y-83074404D02*
X86845533Y-83169642D01*
X100547142Y-61019580D02*
X100499523Y-61067200D01*
X100499523Y-61067200D02*
X100356666Y-61114819D01*
X100356666Y-61114819D02*
X100261428Y-61114819D01*
X100261428Y-61114819D02*
X100118571Y-61067200D01*
X100118571Y-61067200D02*
X100023333Y-60971961D01*
X100023333Y-60971961D02*
X99975714Y-60876723D01*
X99975714Y-60876723D02*
X99928095Y-60686247D01*
X99928095Y-60686247D02*
X99928095Y-60543390D01*
X99928095Y-60543390D02*
X99975714Y-60352914D01*
X99975714Y-60352914D02*
X100023333Y-60257676D01*
X100023333Y-60257676D02*
X100118571Y-60162438D01*
X100118571Y-60162438D02*
X100261428Y-60114819D01*
X100261428Y-60114819D02*
X100356666Y-60114819D01*
X100356666Y-60114819D02*
X100499523Y-60162438D01*
X100499523Y-60162438D02*
X100547142Y-60210057D01*
X100880476Y-60114819D02*
X101499523Y-60114819D01*
X101499523Y-60114819D02*
X101166190Y-60495771D01*
X101166190Y-60495771D02*
X101309047Y-60495771D01*
X101309047Y-60495771D02*
X101404285Y-60543390D01*
X101404285Y-60543390D02*
X101451904Y-60591009D01*
X101451904Y-60591009D02*
X101499523Y-60686247D01*
X101499523Y-60686247D02*
X101499523Y-60924342D01*
X101499523Y-60924342D02*
X101451904Y-61019580D01*
X101451904Y-61019580D02*
X101404285Y-61067200D01*
X101404285Y-61067200D02*
X101309047Y-61114819D01*
X101309047Y-61114819D02*
X101023333Y-61114819D01*
X101023333Y-61114819D02*
X100928095Y-61067200D01*
X100928095Y-61067200D02*
X100880476Y-61019580D01*
X101832857Y-60114819D02*
X102499523Y-60114819D01*
X102499523Y-60114819D02*
X102070952Y-61114819D01*
X87723809Y-77878628D02*
X87723809Y-78354819D01*
X87390476Y-77354819D02*
X87723809Y-77878628D01*
X87723809Y-77878628D02*
X88057142Y-77354819D01*
X88342857Y-77450057D02*
X88390476Y-77402438D01*
X88390476Y-77402438D02*
X88485714Y-77354819D01*
X88485714Y-77354819D02*
X88723809Y-77354819D01*
X88723809Y-77354819D02*
X88819047Y-77402438D01*
X88819047Y-77402438D02*
X88866666Y-77450057D01*
X88866666Y-77450057D02*
X88914285Y-77545295D01*
X88914285Y-77545295D02*
X88914285Y-77640533D01*
X88914285Y-77640533D02*
X88866666Y-77783390D01*
X88866666Y-77783390D02*
X88295238Y-78354819D01*
X88295238Y-78354819D02*
X88914285Y-78354819D01*
X87732142Y-80009580D02*
X87684523Y-80057200D01*
X87684523Y-80057200D02*
X87541666Y-80104819D01*
X87541666Y-80104819D02*
X87446428Y-80104819D01*
X87446428Y-80104819D02*
X87303571Y-80057200D01*
X87303571Y-80057200D02*
X87208333Y-79961961D01*
X87208333Y-79961961D02*
X87160714Y-79866723D01*
X87160714Y-79866723D02*
X87113095Y-79676247D01*
X87113095Y-79676247D02*
X87113095Y-79533390D01*
X87113095Y-79533390D02*
X87160714Y-79342914D01*
X87160714Y-79342914D02*
X87208333Y-79247676D01*
X87208333Y-79247676D02*
X87303571Y-79152438D01*
X87303571Y-79152438D02*
X87446428Y-79104819D01*
X87446428Y-79104819D02*
X87541666Y-79104819D01*
X87541666Y-79104819D02*
X87684523Y-79152438D01*
X87684523Y-79152438D02*
X87732142Y-79200057D01*
X88065476Y-79104819D02*
X88684523Y-79104819D01*
X88684523Y-79104819D02*
X88351190Y-79485771D01*
X88351190Y-79485771D02*
X88494047Y-79485771D01*
X88494047Y-79485771D02*
X88589285Y-79533390D01*
X88589285Y-79533390D02*
X88636904Y-79581009D01*
X88636904Y-79581009D02*
X88684523Y-79676247D01*
X88684523Y-79676247D02*
X88684523Y-79914342D01*
X88684523Y-79914342D02*
X88636904Y-80009580D01*
X88636904Y-80009580D02*
X88589285Y-80057200D01*
X88589285Y-80057200D02*
X88494047Y-80104819D01*
X88494047Y-80104819D02*
X88208333Y-80104819D01*
X88208333Y-80104819D02*
X88113095Y-80057200D01*
X88113095Y-80057200D02*
X88065476Y-80009580D01*
X89303571Y-79104819D02*
X89398809Y-79104819D01*
X89398809Y-79104819D02*
X89494047Y-79152438D01*
X89494047Y-79152438D02*
X89541666Y-79200057D01*
X89541666Y-79200057D02*
X89589285Y-79295295D01*
X89589285Y-79295295D02*
X89636904Y-79485771D01*
X89636904Y-79485771D02*
X89636904Y-79723866D01*
X89636904Y-79723866D02*
X89589285Y-79914342D01*
X89589285Y-79914342D02*
X89541666Y-80009580D01*
X89541666Y-80009580D02*
X89494047Y-80057200D01*
X89494047Y-80057200D02*
X89398809Y-80104819D01*
X89398809Y-80104819D02*
X89303571Y-80104819D01*
X89303571Y-80104819D02*
X89208333Y-80057200D01*
X89208333Y-80057200D02*
X89160714Y-80009580D01*
X89160714Y-80009580D02*
X89113095Y-79914342D01*
X89113095Y-79914342D02*
X89065476Y-79723866D01*
X89065476Y-79723866D02*
X89065476Y-79485771D01*
X89065476Y-79485771D02*
X89113095Y-79295295D01*
X89113095Y-79295295D02*
X89160714Y-79200057D01*
X89160714Y-79200057D02*
X89208333Y-79152438D01*
X89208333Y-79152438D02*
X89303571Y-79104819D01*
X117104819Y-82852857D02*
X116628628Y-83186190D01*
X117104819Y-83424285D02*
X116104819Y-83424285D01*
X116104819Y-83424285D02*
X116104819Y-83043333D01*
X116104819Y-83043333D02*
X116152438Y-82948095D01*
X116152438Y-82948095D02*
X116200057Y-82900476D01*
X116200057Y-82900476D02*
X116295295Y-82852857D01*
X116295295Y-82852857D02*
X116438152Y-82852857D01*
X116438152Y-82852857D02*
X116533390Y-82900476D01*
X116533390Y-82900476D02*
X116581009Y-82948095D01*
X116581009Y-82948095D02*
X116628628Y-83043333D01*
X116628628Y-83043333D02*
X116628628Y-83424285D01*
X116104819Y-82519523D02*
X116104819Y-81900476D01*
X116104819Y-81900476D02*
X116485771Y-82233809D01*
X116485771Y-82233809D02*
X116485771Y-82090952D01*
X116485771Y-82090952D02*
X116533390Y-81995714D01*
X116533390Y-81995714D02*
X116581009Y-81948095D01*
X116581009Y-81948095D02*
X116676247Y-81900476D01*
X116676247Y-81900476D02*
X116914342Y-81900476D01*
X116914342Y-81900476D02*
X117009580Y-81948095D01*
X117009580Y-81948095D02*
X117057200Y-81995714D01*
X117057200Y-81995714D02*
X117104819Y-82090952D01*
X117104819Y-82090952D02*
X117104819Y-82376666D01*
X117104819Y-82376666D02*
X117057200Y-82471904D01*
X117057200Y-82471904D02*
X117009580Y-82519523D01*
X116104819Y-81043333D02*
X116104819Y-81233809D01*
X116104819Y-81233809D02*
X116152438Y-81329047D01*
X116152438Y-81329047D02*
X116200057Y-81376666D01*
X116200057Y-81376666D02*
X116342914Y-81471904D01*
X116342914Y-81471904D02*
X116533390Y-81519523D01*
X116533390Y-81519523D02*
X116914342Y-81519523D01*
X116914342Y-81519523D02*
X117009580Y-81471904D01*
X117009580Y-81471904D02*
X117057200Y-81424285D01*
X117057200Y-81424285D02*
X117104819Y-81329047D01*
X117104819Y-81329047D02*
X117104819Y-81138571D01*
X117104819Y-81138571D02*
X117057200Y-81043333D01*
X117057200Y-81043333D02*
X117009580Y-80995714D01*
X117009580Y-80995714D02*
X116914342Y-80948095D01*
X116914342Y-80948095D02*
X116676247Y-80948095D01*
X116676247Y-80948095D02*
X116581009Y-80995714D01*
X116581009Y-80995714D02*
X116533390Y-81043333D01*
X116533390Y-81043333D02*
X116485771Y-81138571D01*
X116485771Y-81138571D02*
X116485771Y-81329047D01*
X116485771Y-81329047D02*
X116533390Y-81424285D01*
X116533390Y-81424285D02*
X116581009Y-81471904D01*
X116581009Y-81471904D02*
X116676247Y-81519523D01*
D12*
%TO.C,U1*%
X83050000Y-98104000D02*
X83056000Y-87436000D01*
X83056000Y-87436000D02*
X88390000Y-87436000D01*
X88390000Y-87436000D02*
X88390000Y-87436000D01*
X88390000Y-87436000D02*
X88390000Y-98104000D01*
X88390000Y-98104000D02*
X85810000Y-98104000D01*
X88390000Y-98104000D02*
X88390000Y-98104000D01*
X89256000Y-96820000D02*
X88920000Y-96580000D01*
X89256000Y-96340000D01*
X89256000Y-96820000D01*
G36*
X89256000Y-96820000D02*
G01*
X88920000Y-96580000D01*
X89256000Y-96340000D01*
X89256000Y-96820000D01*
G37*
%TO.C,D6*%
X138220000Y-100490000D02*
X138220000Y-103790000D01*
X141490000Y-100490000D02*
X143730000Y-100490000D01*
X141490000Y-103790000D02*
X143730000Y-103790000D01*
%TO.C,C7*%
X95940000Y-81690580D02*
X95940000Y-81409420D01*
X96960000Y-81690580D02*
X96960000Y-81409420D01*
%TO.C,R20*%
X122677500Y-88862742D02*
X122677500Y-89337258D01*
X123722500Y-88862742D02*
X123722500Y-89337258D01*
%TO.C,D4*%
X115967500Y-78165000D02*
X118252500Y-78165000D01*
X118252500Y-76695000D02*
X115967500Y-76695000D01*
X118252500Y-78165000D02*
X118252500Y-76695000D01*
D11*
%TO.C,J4*%
X113470000Y-56685000D02*
X113470000Y-60115000D01*
X119990000Y-60115000D02*
X119990000Y-56685000D01*
X120620000Y-56365000D02*
G75*
G02*
X120420000Y-56365000I-100000J0D01*
G01*
X120420000Y-56365000D02*
G75*
G02*
X120620000Y-56365000I100000J0D01*
G01*
D12*
%TO.C,R22*%
X100552258Y-86997500D02*
X100077742Y-86997500D01*
X100552258Y-88042500D02*
X100077742Y-88042500D01*
D13*
%TO.C,U8*%
X102843500Y-55055300D02*
X102843500Y-55237571D01*
X102843500Y-57286029D02*
X102843500Y-57468300D01*
X105256500Y-55237571D02*
X105256500Y-55055300D01*
X105256500Y-57468300D02*
X105256500Y-57286029D01*
D14*
G36*
X104990501Y-57747700D02*
G01*
X104609501Y-57747700D01*
X104609501Y-57493700D01*
X104990501Y-57493700D01*
X104990501Y-57747700D01*
G37*
D12*
%TO.C,C16*%
X94634420Y-69279999D02*
X94915580Y-69279999D01*
X94634420Y-70299999D02*
X94915580Y-70299999D01*
D13*
%TO.C,U12*%
X134773600Y-56015900D02*
X134773600Y-57971700D01*
X138126400Y-57971700D02*
X138126400Y-56015900D01*
D12*
%TO.C,R26*%
X105177500Y-69407258D02*
X105177500Y-68932742D01*
X106222500Y-69407258D02*
X106222500Y-68932742D01*
%TO.C,TP12*%
X108600000Y-60500000D02*
G75*
G02*
X107200000Y-60500000I-700000J0D01*
G01*
X107200000Y-60500000D02*
G75*
G02*
X108600000Y-60500000I700000J0D01*
G01*
%TO.C,R29*%
X105932742Y-71197500D02*
X106407258Y-71197500D01*
X105932742Y-72242500D02*
X106407258Y-72242500D01*
%TO.C,C42*%
X151734420Y-89190000D02*
X152015580Y-89190000D01*
X151734420Y-90210000D02*
X152015580Y-90210000D01*
%TO.C,R2*%
X111352500Y-105717258D02*
X111352500Y-105242742D01*
X112397500Y-105717258D02*
X112397500Y-105242742D01*
%TO.C,C36*%
X85169420Y-102260000D02*
X85450580Y-102260000D01*
X85169420Y-103280000D02*
X85450580Y-103280000D01*
%TO.C,R30*%
X125727500Y-56537742D02*
X125727500Y-57012258D01*
X126772500Y-56537742D02*
X126772500Y-57012258D01*
%TO.C,TP7*%
X111500000Y-101160000D02*
G75*
G02*
X110100000Y-101160000I-700000J0D01*
G01*
X110100000Y-101160000D02*
G75*
G02*
X111500000Y-101160000I700000J0D01*
G01*
D11*
%TO.C,Slide_SW1*%
X139190000Y-106425000D02*
X139190000Y-107225000D01*
X141150000Y-108275000D02*
X139740000Y-108275000D01*
X141150000Y-109775000D02*
X141150000Y-108275000D01*
X142650000Y-108275000D02*
X142650000Y-109775000D01*
X142650000Y-109775000D02*
X141150000Y-109775000D01*
X142740000Y-105375000D02*
X141040000Y-105375000D01*
X145540000Y-108275000D02*
X142650000Y-108275000D01*
X146090000Y-107225000D02*
X146090000Y-106425000D01*
X141040000Y-105925000D02*
G75*
G02*
X140840000Y-105925000I-100000J0D01*
G01*
X140840000Y-105925000D02*
G75*
G02*
X141040000Y-105925000I100000J0D01*
G01*
%TO.C,C43*%
X146450000Y-82225000D02*
G75*
G02*
X139950000Y-82225000I-3250000J0D01*
G01*
X139950000Y-82225000D02*
G75*
G02*
X146450000Y-82225000I3250000J0D01*
G01*
D12*
%TO.C,R11*%
X140747500Y-98252742D02*
X140747500Y-98727258D01*
X141792500Y-98252742D02*
X141792500Y-98727258D01*
%TO.C,R5*%
X120677500Y-106837258D02*
X120677500Y-106362742D01*
X121722500Y-106837258D02*
X121722500Y-106362742D01*
D13*
%TO.C,U2*%
X112300600Y-93250600D02*
X112300600Y-98889400D01*
X112300600Y-98889400D02*
X112627656Y-98889400D01*
X112627656Y-93250600D02*
X112300600Y-93250600D01*
X117612344Y-98889400D02*
X117939400Y-98889400D01*
X117939400Y-93250600D02*
X117612344Y-93250600D01*
X117939400Y-98889400D02*
X117939400Y-93250600D01*
D12*
%TO.C,C28*%
X138540580Y-60990000D02*
X138259420Y-60990000D01*
X138540580Y-62010000D02*
X138259420Y-62010000D01*
%TO.C,R15*%
X134032742Y-74817500D02*
X134507258Y-74817500D01*
X134032742Y-75862500D02*
X134507258Y-75862500D01*
%TO.C,J5*%
X88420000Y-63580000D02*
X89800000Y-63580000D01*
X88420000Y-64960000D02*
X88420000Y-63580000D01*
X88420000Y-66230000D02*
X88420000Y-71420000D01*
X88420000Y-66230000D02*
X91180000Y-66230000D01*
X88420000Y-71420000D02*
X91180000Y-71420000D01*
X91180000Y-66230000D02*
X91180000Y-71420000D01*
%TO.C,C11*%
X111080000Y-90719420D02*
X111080000Y-91000580D01*
X112100000Y-90719420D02*
X112100000Y-91000580D01*
%TO.C,J10*%
X147720000Y-67320000D02*
X147720000Y-70080000D01*
X152910000Y-67320000D02*
X147720000Y-67320000D01*
X152910000Y-67320000D02*
X152910000Y-70080000D01*
X152910000Y-70080000D02*
X147720000Y-70080000D01*
X154180000Y-67320000D02*
X155560000Y-67320000D01*
X155560000Y-67320000D02*
X155560000Y-68700000D01*
%TO.C,C38*%
X101090000Y-57059420D02*
X101090000Y-57340580D01*
X102110000Y-57059420D02*
X102110000Y-57340580D01*
D15*
%TO.C,J1*%
X122720000Y-103330000D02*
X128620000Y-103330000D01*
X122720000Y-107830000D02*
X122720000Y-103330000D01*
X128620000Y-103330000D02*
X128620000Y-107830000D01*
X128620000Y-107830000D02*
X122720000Y-107830000D01*
D16*
X126570000Y-108250000D02*
X126890000Y-108250000D01*
X126890000Y-108590000D01*
X126570000Y-108590000D01*
X126570000Y-108250000D01*
G36*
X126570000Y-108250000D02*
G01*
X126890000Y-108250000D01*
X126890000Y-108590000D01*
X126570000Y-108590000D01*
X126570000Y-108250000D01*
G37*
D11*
X124730000Y-108380000D02*
G75*
G02*
X124530000Y-108380000I-100000J0D01*
G01*
X124530000Y-108380000D02*
G75*
G02*
X124730000Y-108380000I100000J0D01*
G01*
D12*
%TO.C,C18*%
X104315580Y-61890000D02*
X104034420Y-61890000D01*
X104315580Y-62910000D02*
X104034420Y-62910000D01*
%TO.C,R27*%
X112507500Y-72977258D02*
X112507500Y-72502742D01*
X113552500Y-72977258D02*
X113552500Y-72502742D01*
%TO.C,D1*%
X118365000Y-105800000D02*
X118365000Y-108085000D01*
X118365000Y-108085000D02*
X119835000Y-108085000D01*
X119835000Y-108085000D02*
X119835000Y-105800000D01*
%TO.C,C13*%
X126710578Y-77900000D02*
X126429418Y-77900000D01*
X126710578Y-78920000D02*
X126429418Y-78920000D01*
%TO.C,SW1*%
X142500000Y-57600000D02*
X142500000Y-63800000D01*
X142500000Y-57600000D02*
X142600000Y-57600000D01*
X142500000Y-63800000D02*
X142600000Y-63800000D01*
X147100000Y-57600000D02*
X144100000Y-57600000D01*
X147100000Y-63800000D02*
X144100000Y-63800000D01*
X148600000Y-63800000D02*
X148700000Y-63800000D01*
X148700000Y-57600000D02*
X148600000Y-57600000D01*
X148700000Y-57600000D02*
X148700000Y-63800000D01*
%TO.C,C39*%
X151734420Y-95190000D02*
X152015580Y-95190000D01*
X151734420Y-96210000D02*
X152015580Y-96210000D01*
%TO.C,J9*%
X147720000Y-79320000D02*
X147720000Y-82080000D01*
X152910000Y-79320000D02*
X147720000Y-79320000D01*
X152910000Y-79320000D02*
X152910000Y-82080000D01*
X152910000Y-82080000D02*
X147720000Y-82080000D01*
X154180000Y-79320000D02*
X155560000Y-79320000D01*
X155560000Y-79320000D02*
X155560000Y-80700000D01*
%TO.C,C41*%
X151734420Y-83190000D02*
X152015580Y-83190000D01*
X151734420Y-84210000D02*
X152015580Y-84210000D01*
%TO.C,R12*%
X143237500Y-98727258D02*
X143237500Y-98252742D01*
X144282500Y-98727258D02*
X144282500Y-98252742D01*
%TO.C,J12*%
X147720000Y-91320000D02*
X147720000Y-94080000D01*
X152910000Y-91320000D02*
X147720000Y-91320000D01*
X152910000Y-91320000D02*
X152910000Y-94080000D01*
X152910000Y-94080000D02*
X147720000Y-94080000D01*
X154180000Y-91320000D02*
X155560000Y-91320000D01*
X155560000Y-91320000D02*
X155560000Y-92700000D01*
%TO.C,C32*%
X107249420Y-87490000D02*
X107530580Y-87490000D01*
X107249420Y-88510000D02*
X107530580Y-88510000D01*
%TO.C,R34*%
X102557742Y-66177500D02*
X103032258Y-66177500D01*
X102557742Y-67222500D02*
X103032258Y-67222500D01*
%TO.C,TP4*%
X95260000Y-91430000D02*
G75*
G02*
X93860000Y-91430000I-700000J0D01*
G01*
X93860000Y-91430000D02*
G75*
G02*
X95260000Y-91430000I700000J0D01*
G01*
%TO.C,R23*%
X100552258Y-88832500D02*
X100077742Y-88832500D01*
X100552258Y-89877500D02*
X100077742Y-89877500D01*
%TO.C,C19*%
X104340580Y-58290000D02*
X104059420Y-58290000D01*
X104340580Y-59310000D02*
X104059420Y-59310000D01*
%TO.C,R9*%
X120422258Y-76987500D02*
X119947742Y-76987500D01*
X120422258Y-78032500D02*
X119947742Y-78032500D01*
%TO.C,TP13*%
X92300000Y-59800000D02*
G75*
G02*
X90900000Y-59800000I-700000J0D01*
G01*
X90900000Y-59800000D02*
G75*
G02*
X92300000Y-59800000I700000J0D01*
G01*
%TO.C,D2*%
X115967500Y-74695000D02*
X118252500Y-74695000D01*
X118252500Y-73225000D02*
X115967500Y-73225000D01*
X118252500Y-74695000D02*
X118252500Y-73225000D01*
%TO.C,C23*%
X95759420Y-61390000D02*
X96040580Y-61390000D01*
X95759420Y-62410000D02*
X96040580Y-62410000D01*
%TO.C,C24*%
X96040580Y-63090000D02*
X95759420Y-63090000D01*
X96040580Y-64110000D02*
X95759420Y-64110000D01*
D15*
%TO.C,U7*%
X99820000Y-74350000D02*
X99820000Y-75280000D01*
X99820000Y-74350000D02*
X100750000Y-74350000D01*
X99820000Y-84550000D02*
X99820000Y-83620000D01*
X99820000Y-84550000D02*
X100750000Y-84550000D01*
X110020000Y-74350000D02*
X109090000Y-74350000D01*
X110020000Y-74350000D02*
X110020000Y-75280000D01*
X110020000Y-84550000D02*
X109090000Y-84550000D01*
X110020000Y-84550000D02*
X110020000Y-83620000D01*
D11*
X101020000Y-75700000D02*
G75*
G02*
X100820000Y-75700000I-100000J0D01*
G01*
X100820000Y-75700000D02*
G75*
G02*
X101020000Y-75700000I100000J0D01*
G01*
D12*
%TO.C,R17*%
X134032742Y-78557500D02*
X134507258Y-78557500D01*
X134032742Y-79602500D02*
X134507258Y-79602500D01*
%TO.C,R8*%
X120412258Y-73437500D02*
X119937742Y-73437500D01*
X120412258Y-74482500D02*
X119937742Y-74482500D01*
D11*
%TO.C,C25*%
X146900000Y-74050000D02*
G75*
G02*
X140400000Y-74050000I-3250000J0D01*
G01*
X140400000Y-74050000D02*
G75*
G02*
X146900000Y-74050000I3250000J0D01*
G01*
D13*
%TO.C,U13*%
X84073600Y-64515900D02*
X84073600Y-66471700D01*
X87426400Y-66471700D02*
X87426400Y-64515900D01*
D12*
%TO.C,R16*%
X134032742Y-76687500D02*
X134507258Y-76687500D01*
X134032742Y-77732500D02*
X134507258Y-77732500D01*
%TO.C,J7*%
X147720000Y-73320000D02*
X147720000Y-76080000D01*
X152910000Y-73320000D02*
X147720000Y-73320000D01*
X152910000Y-73320000D02*
X152910000Y-76080000D01*
X152910000Y-76080000D02*
X147720000Y-76080000D01*
X154180000Y-73320000D02*
X155560000Y-73320000D01*
X155560000Y-73320000D02*
X155560000Y-74700000D01*
%TO.C,R33*%
X106837258Y-66177500D02*
X106362742Y-66177500D01*
X106837258Y-67222500D02*
X106362742Y-67222500D01*
D13*
%TO.C,Q4*%
X139164900Y-89665800D02*
X139164900Y-95914200D01*
X144575100Y-95914200D02*
X144575100Y-89665800D01*
X140041200Y-96904800D02*
G75*
G02*
X139888800Y-96904800I-76200J0D01*
G01*
X139888800Y-96904800D02*
G75*
G02*
X140041200Y-96904800I76200J0D01*
G01*
D12*
%TO.C,R25*%
X103057500Y-69392258D02*
X103057500Y-68917742D01*
X104102500Y-69392258D02*
X104102500Y-68917742D01*
%TO.C,TP14*%
X118230000Y-102730000D02*
G75*
G02*
X116830000Y-102730000I-700000J0D01*
G01*
X116830000Y-102730000D02*
G75*
G02*
X118230000Y-102730000I700000J0D01*
G01*
%TO.C,C8*%
X91054420Y-82420000D02*
X91335580Y-82420000D01*
X91054420Y-83440000D02*
X91335580Y-83440000D01*
%TO.C,TP6*%
X113570000Y-88290000D02*
G75*
G02*
X112170000Y-88290000I-700000J0D01*
G01*
X112170000Y-88290000D02*
G75*
G02*
X113570000Y-88290000I700000J0D01*
G01*
%TO.C,D3*%
X115967500Y-76455000D02*
X118252500Y-76455000D01*
X118252500Y-74985000D02*
X115967500Y-74985000D01*
X118252500Y-76455000D02*
X118252500Y-74985000D01*
%TO.C,R19*%
X134032742Y-82297500D02*
X134507258Y-82297500D01*
X134032742Y-83342500D02*
X134507258Y-83342500D01*
%TO.C,C40*%
X151734420Y-77190000D02*
X152015580Y-77190000D01*
X151734420Y-78210000D02*
X152015580Y-78210000D01*
%TO.C,ESC*%
X133810000Y-106342500D02*
X133810000Y-101152500D01*
X136570000Y-101152500D02*
X133810000Y-101152500D01*
X136570000Y-106342500D02*
X133810000Y-106342500D01*
X136570000Y-106342500D02*
X136570000Y-101152500D01*
X136570000Y-107612500D02*
X136570000Y-108992500D01*
X136570000Y-108992500D02*
X135190000Y-108992500D01*
%TO.C,C26*%
X151734420Y-71190000D02*
X152015580Y-71190000D01*
X151734420Y-72210000D02*
X152015580Y-72210000D01*
%TO.C,R13*%
X140577500Y-61037742D02*
X140577500Y-61512258D01*
X141622500Y-61037742D02*
X141622500Y-61512258D01*
D13*
%TO.C,U5*%
X93218901Y-58380900D02*
X93218901Y-58973336D01*
X93218901Y-60150664D02*
X93218901Y-60743100D01*
X93218901Y-60743100D02*
X93561337Y-60743100D01*
X93561337Y-58380900D02*
X93218901Y-58380900D01*
X95238665Y-60743100D02*
X95581101Y-60743100D01*
X95581101Y-58380900D02*
X95238665Y-58380900D01*
X95581101Y-58973336D02*
X95581101Y-58380900D01*
X95581101Y-60743100D02*
X95581101Y-60150664D01*
D14*
G36*
X95090500Y-60984400D02*
G01*
X94709500Y-60984400D01*
X94709500Y-60730400D01*
X95090500Y-60730400D01*
X95090500Y-60984400D01*
G37*
D12*
%TO.C,D8*%
X129810000Y-108010000D02*
X129810000Y-102500000D01*
X129810000Y-108010000D02*
X133110000Y-108010000D01*
X133110000Y-108010000D02*
X133110000Y-102500000D01*
%TO.C,R1*%
X86477500Y-71062742D02*
X86477500Y-71537258D01*
X87522500Y-71062742D02*
X87522500Y-71537258D01*
%TO.C,R24*%
X100552258Y-90667500D02*
X100077742Y-90667500D01*
X100552258Y-91712500D02*
X100077742Y-91712500D01*
%TO.C,R7*%
X139677500Y-56062742D02*
X139677500Y-56537258D01*
X140722500Y-56062742D02*
X140722500Y-56537258D01*
%TO.C,R39*%
X113362742Y-53177500D02*
X113837258Y-53177500D01*
X113362742Y-54222500D02*
X113837258Y-54222500D01*
%TO.C,C35*%
X85169420Y-100515000D02*
X85450580Y-100515000D01*
X85169420Y-101535000D02*
X85450580Y-101535000D01*
%TO.C,TP5*%
X93940000Y-94140000D02*
G75*
G02*
X92540000Y-94140000I-700000J0D01*
G01*
X92540000Y-94140000D02*
G75*
G02*
X93940000Y-94140000I700000J0D01*
G01*
D15*
%TO.C,U9*%
X128850000Y-88050000D02*
X128850000Y-89365000D01*
X128850000Y-93235000D02*
X128850000Y-94550000D01*
X128850000Y-94550000D02*
X132350000Y-94550000D01*
X132350000Y-88050000D02*
X128850000Y-88050000D01*
X132350000Y-88050000D02*
X132350000Y-88215000D01*
X132350000Y-94550000D02*
X132350000Y-94385000D01*
D11*
X133880000Y-95240000D02*
G75*
G02*
X133680000Y-95240000I-100000J0D01*
G01*
X133680000Y-95240000D02*
G75*
G02*
X133880000Y-95240000I100000J0D01*
G01*
D12*
%TO.C,C10*%
X131059420Y-53090000D02*
X131340580Y-53090000D01*
X131059420Y-54110000D02*
X131340580Y-54110000D01*
%TO.C,C29*%
X96059420Y-76490000D02*
X96340580Y-76490000D01*
X96059420Y-77510000D02*
X96340580Y-77510000D01*
%TO.C,R10*%
X108362742Y-89477500D02*
X108837258Y-89477500D01*
X108362742Y-90522500D02*
X108837258Y-90522500D01*
%TO.C,R18*%
X134032742Y-80427500D02*
X134507258Y-80427500D01*
X134032742Y-81472500D02*
X134507258Y-81472500D01*
%TO.C,R21*%
X111537258Y-102457500D02*
X111062742Y-102457500D01*
X111537258Y-103502500D02*
X111062742Y-103502500D01*
D15*
%TO.C,U3*%
X122260000Y-79490000D02*
X126660000Y-79490000D01*
X122260000Y-86390000D02*
X126660000Y-86390000D01*
D11*
X120370000Y-80015000D02*
G75*
G02*
X120170000Y-80015000I-100000J0D01*
G01*
X120170000Y-80015000D02*
G75*
G02*
X120370000Y-80015000I100000J0D01*
G01*
D12*
%TO.C,C22*%
X135590000Y-89259420D02*
X135590000Y-89540580D01*
X136610000Y-89259420D02*
X136610000Y-89540580D01*
%TO.C,C14*%
X145660000Y-96719420D02*
X145660000Y-97000580D01*
X146680000Y-96719420D02*
X146680000Y-97000580D01*
%TO.C,C3*%
X126730578Y-76240000D02*
X126449418Y-76240000D01*
X126730578Y-77260000D02*
X126449418Y-77260000D01*
%TO.C,C17*%
X96820000Y-68809419D02*
X96820000Y-69090579D01*
X97840000Y-68809419D02*
X97840000Y-69090579D01*
%TO.C,R6*%
X120442258Y-75227500D02*
X119967742Y-75227500D01*
X120442258Y-76272500D02*
X119967742Y-76272500D01*
%TO.C,TP2*%
X96650000Y-84510000D02*
G75*
G02*
X95250000Y-84510000I-700000J0D01*
G01*
X95250000Y-84510000D02*
G75*
G02*
X96650000Y-84510000I700000J0D01*
G01*
%TO.C,C21*%
X135627500Y-92694420D02*
X135627500Y-92975580D01*
X136647500Y-92694420D02*
X136647500Y-92975580D01*
%TO.C,R4*%
X112307500Y-85147742D02*
X112307500Y-85622258D01*
X113352500Y-85147742D02*
X113352500Y-85622258D01*
D11*
%TO.C,J2*%
X95325000Y-94525000D02*
X108925000Y-94525000D01*
X95325000Y-97025000D02*
X95325000Y-94525000D01*
X95325000Y-108975000D02*
X95325000Y-108025000D01*
X95325000Y-108975000D02*
X96875000Y-108975000D01*
X107375000Y-108975000D02*
X108925000Y-108975000D01*
X108925000Y-97025000D02*
X108925000Y-94525000D01*
X108925000Y-108975000D02*
X108925000Y-108025000D01*
X96875000Y-108975000D02*
G75*
G02*
X107375000Y-108975000I5250000J-9038541D01*
G01*
X106425000Y-104450000D02*
G75*
G02*
X106225000Y-104450000I-100000J0D01*
G01*
X106225000Y-104450000D02*
G75*
G02*
X106425000Y-104450000I100000J0D01*
G01*
D12*
%TO.C,TP9*%
X111020000Y-88000000D02*
G75*
G02*
X109620000Y-88000000I-700000J0D01*
G01*
X109620000Y-88000000D02*
G75*
G02*
X111020000Y-88000000I700000J0D01*
G01*
%TO.C,R28*%
X109962742Y-71127500D02*
X110437258Y-71127500D01*
X109962742Y-72172500D02*
X110437258Y-72172500D01*
%TO.C,C34*%
X85169420Y-98770000D02*
X85450580Y-98770000D01*
X85169420Y-99790000D02*
X85450580Y-99790000D01*
D13*
%TO.C,U4*%
X92992500Y-65977599D02*
X92992500Y-66342301D01*
X92992500Y-68457697D02*
X92992500Y-68822399D01*
X92992500Y-68822399D02*
X93861204Y-68822399D01*
X93861204Y-65977599D02*
X92992500Y-65977599D01*
X95476596Y-68822399D02*
X96345300Y-68822399D01*
X96345300Y-65977599D02*
X95476596Y-65977599D01*
X96345300Y-66342301D02*
X96345300Y-65977599D01*
X96345300Y-68822399D02*
X96345300Y-68457697D01*
D16*
X92598900Y-66229999D02*
G75*
G02*
X92498900Y-66229999I-50000J0D01*
G01*
X92498900Y-66229999D02*
G75*
G02*
X92598900Y-66229999I50000J0D01*
G01*
D14*
G36*
X96573900Y-67340500D02*
G01*
X96319900Y-67340500D01*
X96319900Y-66959499D01*
X96573900Y-66959499D01*
X96573900Y-67340500D01*
G37*
D12*
%TO.C,SW3*%
X127900000Y-63700000D02*
X127900000Y-57500000D01*
X127900000Y-63700000D02*
X128000000Y-63700000D01*
X128000000Y-57500000D02*
X127900000Y-57500000D01*
X129500000Y-57500000D02*
X132500000Y-57500000D01*
X129500000Y-63700000D02*
X132500000Y-63700000D01*
X134100000Y-57500000D02*
X134000000Y-57500000D01*
X134100000Y-63700000D02*
X134000000Y-63700000D01*
X134100000Y-63700000D02*
X134100000Y-57500000D01*
%TO.C,C9*%
X91084420Y-84140000D02*
X91365580Y-84140000D01*
X91084420Y-85160000D02*
X91365580Y-85160000D01*
%TO.C,R35*%
X114207500Y-85177742D02*
X114207500Y-85652258D01*
X115252500Y-85177742D02*
X115252500Y-85652258D01*
%TO.C,FB1*%
X88105000Y-83649721D02*
X88105000Y-83975279D01*
X89125000Y-83649721D02*
X89125000Y-83975279D01*
%TO.C,TP3*%
X92550000Y-89600000D02*
G75*
G02*
X91150000Y-89600000I-700000J0D01*
G01*
X91150000Y-89600000D02*
G75*
G02*
X92550000Y-89600000I700000J0D01*
G01*
%TO.C,C37*%
X104340580Y-60090000D02*
X104059420Y-60090000D01*
X104340580Y-61110000D02*
X104059420Y-61110000D01*
D15*
%TO.C,Y2*%
X91475000Y-77870000D02*
X91475000Y-78030000D01*
X93975000Y-77870000D02*
X93975000Y-78030000D01*
D11*
X90700000Y-76850000D02*
G75*
G02*
X90500000Y-76850000I-100000J0D01*
G01*
X90500000Y-76850000D02*
G75*
G02*
X90700000Y-76850000I100000J0D01*
G01*
D12*
%TO.C,C30*%
X96340580Y-78390000D02*
X96059420Y-78390000D01*
X96340580Y-79410000D02*
X96059420Y-79410000D01*
%TO.C,R36*%
X116127500Y-85207742D02*
X116127500Y-85682258D01*
X117172500Y-85207742D02*
X117172500Y-85682258D01*
%TO.C,J11*%
X147720000Y-85320000D02*
X147720000Y-88080000D01*
X152910000Y-85320000D02*
X147720000Y-85320000D01*
X152910000Y-85320000D02*
X152910000Y-88080000D01*
X152910000Y-88080000D02*
X147720000Y-88080000D01*
X154180000Y-85320000D02*
X155560000Y-85320000D01*
X155560000Y-85320000D02*
X155560000Y-86700000D01*
%TD*%
M02*
