%TF.GenerationSoftware,KiCad,Pcbnew,9.0.3*%
%TF.CreationDate,2026-03-22T00:20:11+01:00*%
%TF.ProjectId,gambos-pcb,67616d62-6f73-42d7-9063-622e6b696361,rev?*%
%TF.SameCoordinates,Original*%
%TF.FileFunction,Soldermask,Top*%
%TF.FilePolarity,Negative*%
%FSLAX46Y46*%
G04 Gerber Fmt 4.6, Leading zero omitted, Abs format (unit mm)*
G04 Created by KiCad (PCBNEW 9.0.3) date 2026-03-22 00:20:11*
%MOMM*%
%LPD*%
G01*
G04 APERTURE LIST*
G04 Aperture macros list*
%AMRoundRect*
0 Rectangle with rounded corners*
0 $1 Rounding radius*
0 $2 $3 $4 $5 $6 $7 $8 $9 X,Y pos of 4 corners*
0 Add a 4 corners polygon primitive as box body*
4,1,4,$2,$3,$4,$5,$6,$7,$8,$9,$2,$3,0*
0 Add four circle primitives for the rounded corners*
1,1,$1+$1,$2,$3*
1,1,$1+$1,$4,$5*
1,1,$1+$1,$6,$7*
1,1,$1+$1,$8,$9*
0 Add four rect primitives between the rounded corners*
20,1,$1+$1,$2,$3,$4,$5,0*
20,1,$1+$1,$4,$5,$6,$7,0*
20,1,$1+$1,$6,$7,$8,$9,0*
20,1,$1+$1,$8,$9,$2,$3,0*%
G04 Aperture macros list end*
%ADD10C,0.000000*%
%ADD11R,1.700000X1.700000*%
%ADD12C,1.700000*%
%ADD13RoundRect,0.250000X-1.000000X-0.650000X1.000000X-0.650000X1.000000X0.650000X-1.000000X0.650000X0*%
%ADD14C,3.800000*%
%ADD15RoundRect,0.225000X0.250000X-0.225000X0.250000X0.225000X-0.250000X0.225000X-0.250000X-0.225000X0*%
%ADD16RoundRect,0.200000X-0.275000X0.200000X-0.275000X-0.200000X0.275000X-0.200000X0.275000X0.200000X0*%
%ADD17RoundRect,0.218750X0.218750X0.256250X-0.218750X0.256250X-0.218750X-0.256250X0.218750X-0.256250X0*%
%ADD18C,1.020000*%
%ADD19R,0.740000X2.790000*%
%ADD20RoundRect,0.200000X0.200000X0.275000X-0.200000X0.275000X-0.200000X-0.275000X0.200000X-0.275000X0*%
%ADD21R,0.355600X0.381000*%
%ADD22R,0.381000X0.355600*%
%ADD23RoundRect,0.225000X-0.225000X-0.250000X0.225000X-0.250000X0.225000X0.250000X-0.225000X0.250000X0*%
%ADD24R,0.558800X1.320800*%
%ADD25RoundRect,0.200000X0.275000X-0.200000X0.275000X0.200000X-0.275000X0.200000X-0.275000X-0.200000X0*%
%ADD26C,1.000000*%
%ADD27RoundRect,0.200000X-0.200000X-0.275000X0.200000X-0.275000X0.200000X0.275000X-0.200000X0.275000X0*%
%ADD28C,0.900000*%
%ADD29R,0.700000X1.100000*%
%ADD30R,1.000000X0.800000*%
%ADD31C,1.512000*%
%ADD32R,0.533400X1.498600*%
%ADD33RoundRect,0.225000X0.225000X0.250000X-0.225000X0.250000X-0.225000X-0.250000X0.225000X-0.250000X0*%
%ADD34RoundRect,0.225000X-0.250000X0.225000X-0.250000X-0.225000X0.250000X-0.225000X0.250000X0.225000X0*%
%ADD35RoundRect,0.102000X-0.654000X-0.654000X0.654000X-0.654000X0.654000X0.654000X-0.654000X0.654000X0*%
%ADD36RoundRect,0.218750X0.256250X-0.218750X0.256250X0.218750X-0.256250X0.218750X-0.256250X-0.218750X0*%
%ADD37RoundRect,0.250000X-0.450000X0.800000X-0.450000X-0.800000X0.450000X-0.800000X0.450000X0.800000X0*%
%ADD38RoundRect,0.070000X-0.710000X-0.070000X0.710000X-0.070000X0.710000X0.070000X-0.710000X0.070000X0*%
%ADD39RoundRect,0.070000X-0.070000X-0.710000X0.070000X-0.710000X0.070000X0.710000X-0.070000X0.710000X0*%
%ADD40R,0.457200X1.016000*%
%ADD41R,4.089400X3.683000*%
%ADD42R,0.304800X0.279400*%
%ADD43R,0.279400X0.304800*%
%ADD44RoundRect,0.250000X0.650000X-1.000000X0.650000X1.000000X-0.650000X1.000000X-0.650000X-1.000000X0*%
%ADD45RoundRect,0.141750X0.950250X0.425250X-0.950250X0.425250X-0.950250X-0.425250X0.950250X-0.425250X0*%
%ADD46RoundRect,0.273000X0.819000X1.444000X-0.819000X1.444000X-0.819000X-1.444000X0.819000X-1.444000X0*%
%ADD47RoundRect,0.051250X-0.733750X-0.153750X0.733750X-0.153750X0.733750X0.153750X-0.733750X0.153750X0*%
%ADD48R,0.800000X1.200000*%
%ADD49RoundRect,0.102000X-0.750000X-1.000000X0.750000X-1.000000X0.750000X1.000000X-0.750000X1.000000X0*%
%ADD50R,0.431800X0.254000*%
%ADD51R,0.254000X0.431800*%
%ADD52RoundRect,0.250000X0.450000X-0.800000X0.450000X0.800000X-0.450000X0.800000X-0.450000X-0.800000X0*%
%ADD53RoundRect,0.218750X-0.256250X0.218750X-0.256250X-0.218750X0.256250X-0.218750X0.256250X0.218750X0*%
%ADD54R,1.150000X1.400000*%
G04 APERTURE END LIST*
D10*
%TO.C,Q4*%
G36*
X143914700Y-94110800D02*
G01*
X139825300Y-94110800D01*
X139825300Y-90427800D01*
X143914700Y-90427800D01*
X143914700Y-94110800D01*
G37*
%TD*%
D11*
%TO.C,U1*%
X87120000Y-96580000D03*
D12*
X84580000Y-96580000D03*
X87120000Y-94040000D03*
X84580000Y-94040000D03*
X87120000Y-91500000D03*
X84580000Y-91500000D03*
X87120000Y-88960000D03*
X84580000Y-88960000D03*
%TD*%
D13*
%TO.C,D6*%
X139730000Y-102140000D03*
X143730000Y-102140000D03*
%TD*%
D14*
%TO.C,H1*%
X153100000Y-55820000D03*
%TD*%
D15*
%TO.C,C7*%
X96450000Y-82325000D03*
X96450000Y-80775000D03*
%TD*%
D16*
%TO.C,R20*%
X123200000Y-88275000D03*
X123200000Y-89925000D03*
%TD*%
D17*
%TO.C,D4*%
X117555000Y-77430000D03*
X115980000Y-77430000D03*
%TD*%
D18*
%TO.C,J4*%
X118635000Y-58400000D03*
X114825000Y-58400000D03*
D19*
X119270000Y-56365000D03*
X119270000Y-60435000D03*
X118000000Y-56365000D03*
X118000000Y-60435000D03*
X116730000Y-56365000D03*
X116730000Y-60435000D03*
X115460000Y-56365000D03*
X115460000Y-60435000D03*
X114190000Y-56365000D03*
X114190000Y-60435000D03*
%TD*%
D20*
%TO.C,R22*%
X101140000Y-87520000D03*
X99490000Y-87520000D03*
%TD*%
D21*
%TO.C,U8*%
X104800001Y-55423600D03*
X104300000Y-55423600D03*
X103800000Y-55423600D03*
X103299999Y-55423600D03*
D22*
X103211800Y-56011800D03*
X103211800Y-56511800D03*
D21*
X103299999Y-57100000D03*
X103800000Y-57100000D03*
X104300000Y-57100000D03*
X104800001Y-57100000D03*
D22*
X104888200Y-56511800D03*
X104888200Y-56011800D03*
%TD*%
D23*
%TO.C,C16*%
X94000000Y-69789999D03*
X95550000Y-69789999D03*
%TD*%
D24*
%TO.C,U12*%
X135400000Y-58187600D03*
X136450000Y-58187600D03*
X137500000Y-58187600D03*
X137500000Y-55800000D03*
X136450000Y-55800000D03*
X135400000Y-55800000D03*
%TD*%
D25*
%TO.C,R26*%
X105700000Y-69995000D03*
X105700000Y-68345000D03*
%TD*%
D26*
%TO.C,TP12*%
X107900000Y-60500000D03*
%TD*%
D27*
%TO.C,R29*%
X105345000Y-71720000D03*
X106995000Y-71720000D03*
%TD*%
D23*
%TO.C,C42*%
X151100000Y-89700000D03*
X152650000Y-89700000D03*
%TD*%
D25*
%TO.C,R2*%
X111875000Y-106305000D03*
X111875000Y-104655000D03*
%TD*%
D23*
%TO.C,C36*%
X84535000Y-102770000D03*
X86085000Y-102770000D03*
%TD*%
D16*
%TO.C,R30*%
X126250000Y-55950000D03*
X126250000Y-57600000D03*
%TD*%
D26*
%TO.C,TP7*%
X110800000Y-101160000D03*
%TD*%
D28*
%TO.C,Slide_SW1*%
X144140000Y-106825000D03*
X141140000Y-106825000D03*
D29*
X140390000Y-104775000D03*
X143390000Y-104775000D03*
X144890000Y-104775000D03*
D30*
X146390000Y-107975000D03*
X138890000Y-107975000D03*
X138890000Y-105675000D03*
X146390000Y-105675000D03*
%TD*%
D31*
%TO.C,C43*%
X143200000Y-80975000D03*
X143200000Y-83475000D03*
%TD*%
D16*
%TO.C,R11*%
X141270000Y-97665000D03*
X141270000Y-99315000D03*
%TD*%
D25*
%TO.C,R5*%
X121200000Y-107425000D03*
X121200000Y-105775000D03*
%TD*%
D32*
%TO.C,U2*%
X113215000Y-99727600D03*
X114485000Y-99727600D03*
X115755000Y-99727600D03*
X117025000Y-99727600D03*
X117025000Y-92412400D03*
X115755000Y-92412400D03*
X114485000Y-92412400D03*
X113215000Y-92412400D03*
%TD*%
D33*
%TO.C,C28*%
X139175000Y-61500000D03*
X137625000Y-61500000D03*
%TD*%
D27*
%TO.C,R15*%
X133445000Y-75340000D03*
X135095000Y-75340000D03*
%TD*%
D14*
%TO.C,H4*%
X152940000Y-106140000D03*
%TD*%
D11*
%TO.C,J5*%
X89800000Y-64960000D03*
D12*
X89800000Y-67500000D03*
X89800000Y-70040000D03*
%TD*%
D34*
%TO.C,C11*%
X111590000Y-90085000D03*
X111590000Y-91635000D03*
%TD*%
D11*
%TO.C,J10*%
X154180000Y-68700000D03*
D12*
X151640000Y-68700000D03*
X149100000Y-68700000D03*
%TD*%
D34*
%TO.C,C38*%
X101600000Y-56425000D03*
X101600000Y-57975000D03*
%TD*%
D35*
%TO.C,J1*%
X126670000Y-106130000D03*
D31*
X124670000Y-106130000D03*
%TD*%
D33*
%TO.C,C18*%
X104950000Y-62400000D03*
X103400000Y-62400000D03*
%TD*%
D25*
%TO.C,R27*%
X113030000Y-73565000D03*
X113030000Y-71915000D03*
%TD*%
D36*
%TO.C,D1*%
X119100000Y-107387500D03*
X119100000Y-105812500D03*
%TD*%
D33*
%TO.C,C13*%
X127344998Y-78410000D03*
X125794998Y-78410000D03*
%TD*%
D37*
%TO.C,SW1*%
X147850000Y-56150000D03*
X147850000Y-65250000D03*
X143350000Y-56150000D03*
X143350000Y-65250000D03*
%TD*%
D23*
%TO.C,C39*%
X151100000Y-95700000D03*
X152650000Y-95700000D03*
%TD*%
D11*
%TO.C,J9*%
X154180000Y-80700000D03*
D12*
X151640000Y-80700000D03*
X149100000Y-80700000D03*
%TD*%
D23*
%TO.C,C41*%
X151100000Y-83700000D03*
X152650000Y-83700000D03*
%TD*%
D25*
%TO.C,R12*%
X143760000Y-99315000D03*
X143760000Y-97665000D03*
%TD*%
D11*
%TO.C,J12*%
X154180000Y-92700000D03*
D12*
X151640000Y-92700000D03*
X149100000Y-92700000D03*
%TD*%
D23*
%TO.C,C32*%
X106615000Y-88000000D03*
X108165000Y-88000000D03*
%TD*%
D27*
%TO.C,R34*%
X101970000Y-66700000D03*
X103620000Y-66700000D03*
%TD*%
D26*
%TO.C,TP4*%
X94560000Y-91430000D03*
%TD*%
D20*
%TO.C,R23*%
X101140000Y-89355000D03*
X99490000Y-89355000D03*
%TD*%
D33*
%TO.C,C19*%
X104975000Y-58800000D03*
X103425000Y-58800000D03*
%TD*%
D20*
%TO.C,R9*%
X121010000Y-77510000D03*
X119360000Y-77510000D03*
%TD*%
D26*
%TO.C,TP13*%
X91600000Y-59800000D03*
%TD*%
D17*
%TO.C,D2*%
X117555000Y-73960000D03*
X115980000Y-73960000D03*
%TD*%
D23*
%TO.C,C23*%
X95125000Y-61900000D03*
X96675000Y-61900000D03*
%TD*%
D33*
%TO.C,C24*%
X96675000Y-63600000D03*
X95125000Y-63600000D03*
%TD*%
D38*
%TO.C,U7*%
X99240000Y-75700000D03*
X99240000Y-76200000D03*
X99240000Y-76700000D03*
X99240000Y-77200000D03*
X99240000Y-77700000D03*
X99240000Y-78200000D03*
X99240000Y-78700000D03*
X99240000Y-79200000D03*
X99240000Y-79700000D03*
X99240000Y-80200000D03*
X99240000Y-80700000D03*
X99240000Y-81200000D03*
X99240000Y-81700000D03*
X99240000Y-82200000D03*
X99240000Y-82700000D03*
X99240000Y-83200000D03*
D39*
X101170000Y-85130000D03*
X101670000Y-85130000D03*
X102170000Y-85130000D03*
X102670000Y-85130000D03*
X103170000Y-85130000D03*
X103670000Y-85130000D03*
X104170000Y-85130000D03*
X104670000Y-85130000D03*
X105170000Y-85130000D03*
X105670000Y-85130000D03*
X106170000Y-85130000D03*
X106670000Y-85130000D03*
X107170000Y-85130000D03*
X107670000Y-85130000D03*
X108170000Y-85130000D03*
X108670000Y-85130000D03*
D38*
X110600000Y-83200000D03*
X110600000Y-82700000D03*
X110600000Y-82200000D03*
X110600000Y-81700000D03*
X110600000Y-81200000D03*
X110600000Y-80700000D03*
X110600000Y-80200000D03*
X110600000Y-79700000D03*
X110600000Y-79200000D03*
X110600000Y-78700000D03*
X110600000Y-78200000D03*
X110600000Y-77700000D03*
X110600000Y-77200000D03*
X110600000Y-76700000D03*
X110600000Y-76200000D03*
X110600000Y-75700000D03*
D39*
X108670000Y-73770000D03*
X108170000Y-73770000D03*
X107670000Y-73770000D03*
X107170000Y-73770000D03*
X106670000Y-73770000D03*
X106170000Y-73770000D03*
X105670000Y-73770000D03*
X105170000Y-73770000D03*
X104670000Y-73770000D03*
X104170000Y-73770000D03*
X103670000Y-73770000D03*
X103170000Y-73770000D03*
X102670000Y-73770000D03*
X102170000Y-73770000D03*
X101670000Y-73770000D03*
X101170000Y-73770000D03*
%TD*%
D27*
%TO.C,R17*%
X133445000Y-79080000D03*
X135095000Y-79080000D03*
%TD*%
D20*
%TO.C,R8*%
X121000000Y-73960000D03*
X119350000Y-73960000D03*
%TD*%
D31*
%TO.C,C25*%
X143650000Y-72800000D03*
X143650000Y-75300000D03*
%TD*%
D24*
%TO.C,U13*%
X86800000Y-64300000D03*
X85750000Y-64300000D03*
X84700000Y-64300000D03*
X84700000Y-66687600D03*
X85750000Y-66687600D03*
X86800000Y-66687600D03*
%TD*%
D27*
%TO.C,R16*%
X133445000Y-77210000D03*
X135095000Y-77210000D03*
%TD*%
D11*
%TO.C,J7*%
X154180000Y-74700000D03*
D12*
X151640000Y-74700000D03*
X149100000Y-74700000D03*
%TD*%
D20*
%TO.C,R33*%
X107425000Y-66700000D03*
X105775000Y-66700000D03*
%TD*%
D40*
%TO.C,Q4*%
X139965000Y-95660200D03*
X141235000Y-95660200D03*
X142505000Y-95660200D03*
X143775000Y-95660200D03*
X143775000Y-89919800D03*
X142505000Y-89919800D03*
X141235000Y-89919800D03*
D41*
X141870000Y-92269300D03*
D40*
X139965000Y-89919800D03*
%TD*%
D25*
%TO.C,R25*%
X103580000Y-69980000D03*
X103580000Y-68330000D03*
%TD*%
D26*
%TO.C,TP14*%
X117530000Y-102730000D03*
%TD*%
D23*
%TO.C,C8*%
X90420000Y-82930000D03*
X91970000Y-82930000D03*
%TD*%
D26*
%TO.C,TP6*%
X112870000Y-88290000D03*
%TD*%
D17*
%TO.C,D3*%
X117555000Y-75720000D03*
X115980000Y-75720000D03*
%TD*%
D27*
%TO.C,R19*%
X133445000Y-82820000D03*
X135095000Y-82820000D03*
%TD*%
D23*
%TO.C,C40*%
X151100000Y-77700000D03*
X152650000Y-77700000D03*
%TD*%
D11*
%TO.C,ESC*%
X135190000Y-107612500D03*
D12*
X135190000Y-105072500D03*
X135190000Y-102532500D03*
%TD*%
D23*
%TO.C,C26*%
X151100000Y-71700000D03*
X152650000Y-71700000D03*
%TD*%
D16*
%TO.C,R13*%
X141100000Y-60450000D03*
X141100000Y-62100000D03*
%TD*%
D42*
%TO.C,U5*%
X95162001Y-59812000D03*
X95162001Y-59312000D03*
D43*
X94900000Y-58800000D03*
X94400001Y-58800000D03*
X93900002Y-58800000D03*
D42*
X93638001Y-59312000D03*
X93638001Y-59812000D03*
D43*
X93900002Y-60324000D03*
X94400001Y-60324000D03*
X94900000Y-60324000D03*
%TD*%
D14*
%TO.C,H3*%
X85200000Y-106100000D03*
%TD*%
D44*
%TO.C,D8*%
X131460000Y-106500000D03*
X131460000Y-102500000D03*
%TD*%
D16*
%TO.C,R1*%
X87000000Y-70475000D03*
X87000000Y-72125000D03*
%TD*%
D20*
%TO.C,R24*%
X101140000Y-91190000D03*
X99490000Y-91190000D03*
%TD*%
D16*
%TO.C,R7*%
X140200000Y-55475000D03*
X140200000Y-57125000D03*
%TD*%
D27*
%TO.C,R39*%
X112775000Y-53700000D03*
X114425000Y-53700000D03*
%TD*%
D23*
%TO.C,C35*%
X84535000Y-101025000D03*
X86085000Y-101025000D03*
%TD*%
D26*
%TO.C,TP5*%
X93240000Y-94140000D03*
%TD*%
D45*
%TO.C,U9*%
X133615000Y-93600000D03*
X133615000Y-91300000D03*
X133615000Y-89000000D03*
D46*
X127585000Y-91300000D03*
%TD*%
D23*
%TO.C,C10*%
X130425000Y-53600000D03*
X131975000Y-53600000D03*
%TD*%
%TO.C,C29*%
X95425000Y-77000000D03*
X96975000Y-77000000D03*
%TD*%
D27*
%TO.C,R10*%
X107775000Y-90000000D03*
X109425000Y-90000000D03*
%TD*%
%TO.C,R18*%
X133445000Y-80950000D03*
X135095000Y-80950000D03*
%TD*%
D20*
%TO.C,R21*%
X112125000Y-102980000D03*
X110475000Y-102980000D03*
%TD*%
D47*
%TO.C,U3*%
X121590000Y-80015000D03*
X121590000Y-80665000D03*
X121590000Y-81315000D03*
X121590000Y-81965000D03*
X121590000Y-82615000D03*
X121590000Y-83265000D03*
X121590000Y-83915000D03*
X121590000Y-84565000D03*
X121590000Y-85215000D03*
X121590000Y-85865000D03*
X127330000Y-85865000D03*
X127330000Y-85215000D03*
X127330000Y-84565000D03*
X127330000Y-83915000D03*
X127330000Y-83265000D03*
X127330000Y-82615000D03*
X127330000Y-81965000D03*
X127330000Y-81315000D03*
X127330000Y-80665000D03*
X127330000Y-80015000D03*
%TD*%
D34*
%TO.C,C22*%
X136100000Y-88625000D03*
X136100000Y-90175000D03*
%TD*%
%TO.C,C14*%
X146170000Y-96085000D03*
X146170000Y-97635000D03*
%TD*%
D33*
%TO.C,C3*%
X127364998Y-76750000D03*
X125814998Y-76750000D03*
%TD*%
D34*
%TO.C,C17*%
X97330000Y-68174999D03*
X97330000Y-69724999D03*
%TD*%
D20*
%TO.C,R6*%
X121030000Y-75750000D03*
X119380000Y-75750000D03*
%TD*%
D26*
%TO.C,TP2*%
X95950000Y-84510000D03*
%TD*%
D34*
%TO.C,C21*%
X136137500Y-92060000D03*
X136137500Y-93610000D03*
%TD*%
D16*
%TO.C,R4*%
X112830000Y-84560000D03*
X112830000Y-86210000D03*
%TD*%
D48*
%TO.C,J2*%
X105350000Y-104375000D03*
X104250000Y-104375000D03*
X103150000Y-104375000D03*
X102050000Y-104375000D03*
X100950000Y-104375000D03*
X99850000Y-104375000D03*
X98750000Y-104375000D03*
X97650000Y-104375000D03*
D49*
X95180000Y-106575000D03*
X95180000Y-98375000D03*
X109070000Y-98375000D03*
X109070000Y-106575000D03*
%TD*%
D26*
%TO.C,TP9*%
X110320000Y-88000000D03*
%TD*%
D27*
%TO.C,R28*%
X109375000Y-71650000D03*
X111025000Y-71650000D03*
%TD*%
D23*
%TO.C,C34*%
X84535000Y-99280000D03*
X86085000Y-99280000D03*
%TD*%
D50*
%TO.C,U4*%
X93487800Y-66649998D03*
X93487800Y-67149999D03*
X93487800Y-67649999D03*
X93487800Y-68150000D03*
D51*
X94168901Y-68327099D03*
X94668900Y-68327099D03*
X95168899Y-68327099D03*
D50*
X95850000Y-68150000D03*
X95850000Y-67649999D03*
X95850000Y-67149999D03*
X95850000Y-66649998D03*
D51*
X95168899Y-66472899D03*
X94668900Y-66472899D03*
X94168901Y-66472899D03*
%TD*%
D52*
%TO.C,SW3*%
X128750000Y-65150000D03*
X128750000Y-56050000D03*
X133250000Y-65150000D03*
X133250000Y-56050000D03*
%TD*%
D14*
%TO.C,H2*%
X85230000Y-55830000D03*
%TD*%
D23*
%TO.C,C9*%
X90450000Y-84650000D03*
X92000000Y-84650000D03*
%TD*%
D16*
%TO.C,R35*%
X114730000Y-84590000D03*
X114730000Y-86240000D03*
%TD*%
D53*
%TO.C,FB1*%
X88615000Y-83025000D03*
X88615000Y-84600000D03*
%TD*%
D26*
%TO.C,TP3*%
X91850000Y-89600000D03*
%TD*%
D33*
%TO.C,C37*%
X104975000Y-60600000D03*
X103425000Y-60600000D03*
%TD*%
D54*
%TO.C,Y2*%
X91925000Y-76850000D03*
X91925000Y-79050000D03*
X93525000Y-79050000D03*
X93525000Y-76850000D03*
%TD*%
D33*
%TO.C,C30*%
X96975000Y-78900000D03*
X95425000Y-78900000D03*
%TD*%
D16*
%TO.C,R36*%
X116650000Y-84620000D03*
X116650000Y-86270000D03*
%TD*%
D11*
%TO.C,J11*%
X154180000Y-86700000D03*
D12*
X151640000Y-86700000D03*
X149100000Y-86700000D03*
%TD*%
M02*
